G04 EAGLE Gerber RS-274X export*
G75*
%MOMM*%
%FSLAX34Y34*%
%LPD*%
%INTop Copper*%
%IPPOS*%
%AMOC8*
5,1,8,0,0,1.08239X$1,22.5*%
G01*
%ADD10C,1.100000*%
%ADD11C,0.754000*%
%ADD12C,0.604000*%
%ADD13R,1.300000X1.500000*%
%ADD14R,0.300000X1.000000*%
%ADD15R,1.650000X1.300000*%
%ADD16R,0.508000X1.473200*%
%ADD17R,1.473200X0.508000*%
%ADD18R,1.200000X1.200000*%
%ADD19R,1.600000X1.300000*%
%ADD20C,0.150000*%
%ADD21R,1.300000X1.600000*%
%ADD22C,1.000000*%
%ADD23C,0.635000*%
%ADD24R,0.635000X0.635000*%
%ADD25R,1.500000X3.000000*%
%ADD26C,0.650000*%
%ADD27R,1.500000X1.300000*%
%ADD28C,0.654000*%
%ADD29R,4.600000X1.000000*%
%ADD30R,3.400000X1.600000*%
%ADD31R,0.950000X2.150000*%
%ADD32R,3.150000X2.150000*%
%ADD33R,0.635000X1.270000*%
%ADD34C,0.102500*%
%ADD35R,2.413000X2.260600*%
%ADD36R,1.150000X0.800000*%
%ADD37C,0.452400*%
%ADD38C,0.900000*%
%ADD39C,0.304800*%
%ADD40C,0.254000*%
%ADD41C,0.609600*%
%ADD42C,0.525000*%
%ADD43C,0.533400*%
%ADD44C,0.152400*%
%ADD45C,0.675000*%
%ADD46C,0.600000*%

G36*
X484587Y313162D02*
X484587Y313162D01*
X484582Y313169D01*
X484589Y313175D01*
X484589Y328175D01*
X484553Y328222D01*
X484546Y328217D01*
X484540Y328224D01*
X459740Y328224D01*
X459693Y328188D01*
X459698Y328181D01*
X459691Y328175D01*
X459691Y313175D01*
X459727Y313128D01*
X459734Y313133D01*
X459740Y313126D01*
X484540Y313126D01*
X484587Y313162D01*
G37*
G36*
X434387Y313162D02*
X434387Y313162D01*
X434382Y313169D01*
X434389Y313175D01*
X434389Y328175D01*
X434353Y328222D01*
X434346Y328217D01*
X434340Y328224D01*
X409540Y328224D01*
X409493Y328188D01*
X409498Y328181D01*
X409491Y328175D01*
X409491Y313175D01*
X409527Y313128D01*
X409534Y313133D01*
X409540Y313126D01*
X434340Y313126D01*
X434387Y313162D01*
G37*
D10*
X22000Y632800D02*
X33000Y632800D01*
X33000Y752200D02*
X22000Y752200D01*
D11*
X65930Y647000D02*
X73470Y647000D01*
D12*
X65450Y647570D02*
X65450Y653610D01*
D11*
X65930Y738000D02*
X73470Y738000D01*
D12*
X65450Y737430D02*
X65450Y731390D01*
D13*
X722020Y407670D03*
X741020Y407670D03*
X548284Y332994D03*
X567284Y332994D03*
D14*
X211250Y213360D03*
D15*
X234000Y232360D03*
X83500Y232360D03*
D14*
X206250Y213360D03*
X201250Y213360D03*
X196250Y213360D03*
X191250Y213360D03*
X186250Y213360D03*
X181250Y213360D03*
X176250Y213360D03*
X171250Y213360D03*
X166250Y213360D03*
X161250Y213360D03*
X156250Y213360D03*
X151250Y213360D03*
X146250Y213360D03*
X141250Y213360D03*
X136250Y213360D03*
X131250Y213360D03*
X126250Y213360D03*
X121250Y213360D03*
X116250Y213360D03*
X111250Y213360D03*
X106250Y213360D03*
X220940Y308250D03*
X215940Y308250D03*
X210940Y308250D03*
X205940Y308250D03*
X200940Y308250D03*
X195940Y308250D03*
X190940Y308250D03*
X185940Y308250D03*
X180940Y308250D03*
X175940Y308250D03*
X170940Y308250D03*
X165940Y308250D03*
X160940Y308250D03*
X155940Y308250D03*
X150940Y308250D03*
X145940Y308250D03*
X140940Y308250D03*
X135940Y308250D03*
X130940Y308250D03*
X125940Y308250D03*
X120940Y308250D03*
X115940Y308250D03*
X110940Y308250D03*
X105940Y308250D03*
X100940Y308250D03*
X95940Y308250D03*
D15*
X243440Y327250D03*
X73440Y327250D03*
D16*
X106172Y42926D03*
X114046Y42926D03*
X122174Y42926D03*
X130048Y42926D03*
X138176Y42926D03*
X146050Y42926D03*
X153924Y42926D03*
X162052Y42926D03*
X169926Y42926D03*
X178054Y42926D03*
X185928Y42926D03*
D17*
X203454Y60452D03*
X203454Y68326D03*
X203454Y76454D03*
X203454Y84328D03*
X203454Y92456D03*
X203454Y100330D03*
X203454Y108204D03*
X203454Y116332D03*
X203454Y124206D03*
X203454Y132334D03*
X203454Y140208D03*
D16*
X185928Y157734D03*
X178054Y157734D03*
X169926Y157734D03*
X162052Y157734D03*
X153924Y157734D03*
X146050Y157734D03*
X138176Y157734D03*
X130048Y157734D03*
X122174Y157734D03*
X114046Y157734D03*
X106172Y157734D03*
D17*
X88646Y140208D03*
X88646Y132334D03*
X88646Y124206D03*
X88646Y116332D03*
X88646Y108204D03*
X88646Y100330D03*
X88646Y92456D03*
X88646Y84328D03*
X88646Y76454D03*
X88646Y68326D03*
X88646Y60452D03*
D18*
X230210Y41910D03*
X209210Y41910D03*
D19*
X228600Y61620D03*
X228600Y80620D03*
D20*
X392140Y229590D02*
X392140Y247090D01*
X392140Y229590D02*
X387640Y229590D01*
X387640Y247090D01*
X392140Y247090D01*
X392140Y231015D02*
X387640Y231015D01*
X387640Y232440D02*
X392140Y232440D01*
X392140Y233865D02*
X387640Y233865D01*
X387640Y235290D02*
X392140Y235290D01*
X392140Y236715D02*
X387640Y236715D01*
X387640Y238140D02*
X392140Y238140D01*
X392140Y239565D02*
X387640Y239565D01*
X387640Y240990D02*
X392140Y240990D01*
X392140Y242415D02*
X387640Y242415D01*
X387640Y243840D02*
X392140Y243840D01*
X392140Y245265D02*
X387640Y245265D01*
X387640Y246690D02*
X392140Y246690D01*
X404840Y247090D02*
X404840Y229590D01*
X400340Y229590D01*
X400340Y247090D01*
X404840Y247090D01*
X404840Y231015D02*
X400340Y231015D01*
X400340Y232440D02*
X404840Y232440D01*
X404840Y233865D02*
X400340Y233865D01*
X400340Y235290D02*
X404840Y235290D01*
X404840Y236715D02*
X400340Y236715D01*
X400340Y238140D02*
X404840Y238140D01*
X404840Y239565D02*
X400340Y239565D01*
X400340Y240990D02*
X404840Y240990D01*
X404840Y242415D02*
X400340Y242415D01*
X400340Y243840D02*
X404840Y243840D01*
X404840Y245265D02*
X400340Y245265D01*
X400340Y246690D02*
X404840Y246690D01*
X417540Y247090D02*
X417540Y229590D01*
X413040Y229590D01*
X413040Y247090D01*
X417540Y247090D01*
X417540Y231015D02*
X413040Y231015D01*
X413040Y232440D02*
X417540Y232440D01*
X417540Y233865D02*
X413040Y233865D01*
X413040Y235290D02*
X417540Y235290D01*
X417540Y236715D02*
X413040Y236715D01*
X413040Y238140D02*
X417540Y238140D01*
X417540Y239565D02*
X413040Y239565D01*
X413040Y240990D02*
X417540Y240990D01*
X417540Y242415D02*
X413040Y242415D01*
X413040Y243840D02*
X417540Y243840D01*
X417540Y245265D02*
X413040Y245265D01*
X413040Y246690D02*
X417540Y246690D01*
X430240Y247090D02*
X430240Y229590D01*
X425740Y229590D01*
X425740Y247090D01*
X430240Y247090D01*
X430240Y231015D02*
X425740Y231015D01*
X425740Y232440D02*
X430240Y232440D01*
X430240Y233865D02*
X425740Y233865D01*
X425740Y235290D02*
X430240Y235290D01*
X430240Y236715D02*
X425740Y236715D01*
X425740Y238140D02*
X430240Y238140D01*
X430240Y239565D02*
X425740Y239565D01*
X425740Y240990D02*
X430240Y240990D01*
X430240Y242415D02*
X425740Y242415D01*
X425740Y243840D02*
X430240Y243840D01*
X430240Y245265D02*
X425740Y245265D01*
X425740Y246690D02*
X430240Y246690D01*
X430240Y278690D02*
X430240Y296190D01*
X430240Y278690D02*
X425740Y278690D01*
X425740Y296190D01*
X430240Y296190D01*
X430240Y280115D02*
X425740Y280115D01*
X425740Y281540D02*
X430240Y281540D01*
X430240Y282965D02*
X425740Y282965D01*
X425740Y284390D02*
X430240Y284390D01*
X430240Y285815D02*
X425740Y285815D01*
X425740Y287240D02*
X430240Y287240D01*
X430240Y288665D02*
X425740Y288665D01*
X425740Y290090D02*
X430240Y290090D01*
X430240Y291515D02*
X425740Y291515D01*
X425740Y292940D02*
X430240Y292940D01*
X430240Y294365D02*
X425740Y294365D01*
X425740Y295790D02*
X430240Y295790D01*
X417540Y296190D02*
X417540Y278690D01*
X413040Y278690D01*
X413040Y296190D01*
X417540Y296190D01*
X417540Y280115D02*
X413040Y280115D01*
X413040Y281540D02*
X417540Y281540D01*
X417540Y282965D02*
X413040Y282965D01*
X413040Y284390D02*
X417540Y284390D01*
X417540Y285815D02*
X413040Y285815D01*
X413040Y287240D02*
X417540Y287240D01*
X417540Y288665D02*
X413040Y288665D01*
X413040Y290090D02*
X417540Y290090D01*
X417540Y291515D02*
X413040Y291515D01*
X413040Y292940D02*
X417540Y292940D01*
X417540Y294365D02*
X413040Y294365D01*
X413040Y295790D02*
X417540Y295790D01*
X404840Y296190D02*
X404840Y278690D01*
X400340Y278690D01*
X400340Y296190D01*
X404840Y296190D01*
X404840Y280115D02*
X400340Y280115D01*
X400340Y281540D02*
X404840Y281540D01*
X404840Y282965D02*
X400340Y282965D01*
X400340Y284390D02*
X404840Y284390D01*
X404840Y285815D02*
X400340Y285815D01*
X400340Y287240D02*
X404840Y287240D01*
X404840Y288665D02*
X400340Y288665D01*
X400340Y290090D02*
X404840Y290090D01*
X404840Y291515D02*
X400340Y291515D01*
X400340Y292940D02*
X404840Y292940D01*
X404840Y294365D02*
X400340Y294365D01*
X400340Y295790D02*
X404840Y295790D01*
X392140Y296190D02*
X392140Y278690D01*
X387640Y278690D01*
X387640Y296190D01*
X392140Y296190D01*
X392140Y280115D02*
X387640Y280115D01*
X387640Y281540D02*
X392140Y281540D01*
X392140Y282965D02*
X387640Y282965D01*
X387640Y284390D02*
X392140Y284390D01*
X392140Y285815D02*
X387640Y285815D01*
X387640Y287240D02*
X392140Y287240D01*
X392140Y288665D02*
X387640Y288665D01*
X387640Y290090D02*
X392140Y290090D01*
X392140Y291515D02*
X387640Y291515D01*
X387640Y292940D02*
X392140Y292940D01*
X392140Y294365D02*
X387640Y294365D01*
X387640Y295790D02*
X392140Y295790D01*
D21*
X351180Y285750D03*
X370180Y285750D03*
D20*
X568250Y42890D02*
X585750Y42890D01*
X585750Y38390D01*
X568250Y38390D01*
X568250Y42890D01*
X568250Y39815D02*
X585750Y39815D01*
X585750Y41240D02*
X568250Y41240D01*
X568250Y42665D02*
X585750Y42665D01*
X585750Y55590D02*
X568250Y55590D01*
X585750Y55590D02*
X585750Y51090D01*
X568250Y51090D01*
X568250Y55590D01*
X568250Y52515D02*
X585750Y52515D01*
X585750Y53940D02*
X568250Y53940D01*
X568250Y55365D02*
X585750Y55365D01*
X585750Y68290D02*
X568250Y68290D01*
X585750Y68290D02*
X585750Y63790D01*
X568250Y63790D01*
X568250Y68290D01*
X568250Y65215D02*
X585750Y65215D01*
X585750Y66640D02*
X568250Y66640D01*
X568250Y68065D02*
X585750Y68065D01*
X585750Y80990D02*
X568250Y80990D01*
X585750Y80990D02*
X585750Y76490D01*
X568250Y76490D01*
X568250Y80990D01*
X568250Y77915D02*
X585750Y77915D01*
X585750Y79340D02*
X568250Y79340D01*
X568250Y80765D02*
X585750Y80765D01*
X585750Y93690D02*
X568250Y93690D01*
X585750Y93690D02*
X585750Y89190D01*
X568250Y89190D01*
X568250Y93690D01*
X568250Y90615D02*
X585750Y90615D01*
X585750Y92040D02*
X568250Y92040D01*
X568250Y93465D02*
X585750Y93465D01*
X585750Y106390D02*
X568250Y106390D01*
X585750Y106390D02*
X585750Y101890D01*
X568250Y101890D01*
X568250Y106390D01*
X568250Y103315D02*
X585750Y103315D01*
X585750Y104740D02*
X568250Y104740D01*
X568250Y106165D02*
X585750Y106165D01*
X585750Y119090D02*
X568250Y119090D01*
X585750Y119090D02*
X585750Y114590D01*
X568250Y114590D01*
X568250Y119090D01*
X568250Y116015D02*
X585750Y116015D01*
X585750Y117440D02*
X568250Y117440D01*
X568250Y118865D02*
X585750Y118865D01*
X536650Y119090D02*
X519150Y119090D01*
X536650Y119090D02*
X536650Y114590D01*
X519150Y114590D01*
X519150Y119090D01*
X519150Y116015D02*
X536650Y116015D01*
X536650Y117440D02*
X519150Y117440D01*
X519150Y118865D02*
X536650Y118865D01*
X536650Y106390D02*
X519150Y106390D01*
X536650Y106390D02*
X536650Y101890D01*
X519150Y101890D01*
X519150Y106390D01*
X519150Y103315D02*
X536650Y103315D01*
X536650Y104740D02*
X519150Y104740D01*
X519150Y106165D02*
X536650Y106165D01*
X536650Y93690D02*
X519150Y93690D01*
X536650Y93690D02*
X536650Y89190D01*
X519150Y89190D01*
X519150Y93690D01*
X519150Y90615D02*
X536650Y90615D01*
X536650Y92040D02*
X519150Y92040D01*
X519150Y93465D02*
X536650Y93465D01*
X536650Y80990D02*
X519150Y80990D01*
X536650Y80990D02*
X536650Y76490D01*
X519150Y76490D01*
X519150Y80990D01*
X519150Y77915D02*
X536650Y77915D01*
X536650Y79340D02*
X519150Y79340D01*
X519150Y80765D02*
X536650Y80765D01*
X536650Y68290D02*
X519150Y68290D01*
X536650Y68290D02*
X536650Y63790D01*
X519150Y63790D01*
X519150Y68290D01*
X519150Y65215D02*
X536650Y65215D01*
X536650Y66640D02*
X519150Y66640D01*
X519150Y68065D02*
X536650Y68065D01*
X536650Y55590D02*
X519150Y55590D01*
X536650Y55590D02*
X536650Y51090D01*
X519150Y51090D01*
X519150Y55590D01*
X519150Y52515D02*
X536650Y52515D01*
X536650Y53940D02*
X519150Y53940D01*
X519150Y55365D02*
X536650Y55365D01*
X536650Y42890D02*
X519150Y42890D01*
X536650Y42890D02*
X536650Y38390D01*
X519150Y38390D01*
X519150Y42890D01*
X519150Y39815D02*
X536650Y39815D01*
X536650Y41240D02*
X519150Y41240D01*
X519150Y42665D02*
X536650Y42665D01*
D22*
X505460Y91440D03*
X521970Y20320D03*
D13*
X563220Y21590D03*
X544220Y21590D03*
D23*
X78740Y13970D03*
X78740Y26670D03*
X78740Y39370D03*
X91440Y39370D03*
X91440Y26670D03*
D24*
X91440Y13970D03*
D25*
X432040Y320675D03*
X462040Y320675D03*
D26*
X462270Y292710D02*
X469770Y292710D01*
X469770Y273710D02*
X462270Y273710D01*
X485270Y283210D02*
X492770Y283210D01*
D13*
X465430Y256540D03*
X446430Y256540D03*
D27*
X445770Y292710D03*
X445770Y273710D03*
D21*
X370180Y240030D03*
X351180Y240030D03*
X370180Y262890D03*
X351180Y262890D03*
D28*
X656590Y586740D03*
X647590Y595740D03*
X647590Y577740D03*
X665590Y577740D03*
X665590Y595740D03*
D27*
X746760Y568350D03*
X746760Y587350D03*
D13*
X676250Y561340D03*
X657250Y561340D03*
D29*
X791040Y587850D03*
X791040Y567850D03*
D30*
X843040Y611850D03*
X843040Y543850D03*
D31*
X365900Y594150D03*
X342900Y594150D03*
X319900Y594150D03*
D32*
X342900Y536150D03*
D31*
X439560Y594150D03*
X416560Y594150D03*
X393560Y594150D03*
D32*
X416560Y536150D03*
D13*
X427940Y623720D03*
X408940Y623720D03*
D33*
X524256Y332105D03*
X532384Y332105D03*
D34*
X371743Y126118D02*
X371743Y110742D01*
X368667Y110742D01*
X368667Y126118D01*
X371743Y126118D01*
X371743Y111716D02*
X368667Y111716D01*
X368667Y112690D02*
X371743Y112690D01*
X371743Y113664D02*
X368667Y113664D01*
X368667Y114638D02*
X371743Y114638D01*
X371743Y115612D02*
X368667Y115612D01*
X368667Y116586D02*
X371743Y116586D01*
X371743Y117560D02*
X368667Y117560D01*
X368667Y118534D02*
X371743Y118534D01*
X371743Y119508D02*
X368667Y119508D01*
X368667Y120482D02*
X371743Y120482D01*
X371743Y121456D02*
X368667Y121456D01*
X368667Y122430D02*
X371743Y122430D01*
X371743Y123404D02*
X368667Y123404D01*
X368667Y124378D02*
X371743Y124378D01*
X371743Y125352D02*
X368667Y125352D01*
X378093Y126118D02*
X378093Y110742D01*
X375017Y110742D01*
X375017Y126118D01*
X378093Y126118D01*
X378093Y111716D02*
X375017Y111716D01*
X375017Y112690D02*
X378093Y112690D01*
X378093Y113664D02*
X375017Y113664D01*
X375017Y114638D02*
X378093Y114638D01*
X378093Y115612D02*
X375017Y115612D01*
X375017Y116586D02*
X378093Y116586D01*
X378093Y117560D02*
X375017Y117560D01*
X375017Y118534D02*
X378093Y118534D01*
X378093Y119508D02*
X375017Y119508D01*
X375017Y120482D02*
X378093Y120482D01*
X378093Y121456D02*
X375017Y121456D01*
X375017Y122430D02*
X378093Y122430D01*
X378093Y123404D02*
X375017Y123404D01*
X375017Y124378D02*
X378093Y124378D01*
X378093Y125352D02*
X375017Y125352D01*
X384443Y126118D02*
X384443Y110742D01*
X381367Y110742D01*
X381367Y126118D01*
X384443Y126118D01*
X384443Y111716D02*
X381367Y111716D01*
X381367Y112690D02*
X384443Y112690D01*
X384443Y113664D02*
X381367Y113664D01*
X381367Y114638D02*
X384443Y114638D01*
X384443Y115612D02*
X381367Y115612D01*
X381367Y116586D02*
X384443Y116586D01*
X384443Y117560D02*
X381367Y117560D01*
X381367Y118534D02*
X384443Y118534D01*
X384443Y119508D02*
X381367Y119508D01*
X381367Y120482D02*
X384443Y120482D01*
X384443Y121456D02*
X381367Y121456D01*
X381367Y122430D02*
X384443Y122430D01*
X384443Y123404D02*
X381367Y123404D01*
X381367Y124378D02*
X384443Y124378D01*
X384443Y125352D02*
X381367Y125352D01*
X390793Y126118D02*
X390793Y110742D01*
X387717Y110742D01*
X387717Y126118D01*
X390793Y126118D01*
X390793Y111716D02*
X387717Y111716D01*
X387717Y112690D02*
X390793Y112690D01*
X390793Y113664D02*
X387717Y113664D01*
X387717Y114638D02*
X390793Y114638D01*
X390793Y115612D02*
X387717Y115612D01*
X387717Y116586D02*
X390793Y116586D01*
X390793Y117560D02*
X387717Y117560D01*
X387717Y118534D02*
X390793Y118534D01*
X390793Y119508D02*
X387717Y119508D01*
X387717Y120482D02*
X390793Y120482D01*
X390793Y121456D02*
X387717Y121456D01*
X387717Y122430D02*
X390793Y122430D01*
X390793Y123404D02*
X387717Y123404D01*
X387717Y124378D02*
X390793Y124378D01*
X390793Y125352D02*
X387717Y125352D01*
X397143Y126118D02*
X397143Y110742D01*
X394067Y110742D01*
X394067Y126118D01*
X397143Y126118D01*
X397143Y111716D02*
X394067Y111716D01*
X394067Y112690D02*
X397143Y112690D01*
X397143Y113664D02*
X394067Y113664D01*
X394067Y114638D02*
X397143Y114638D01*
X397143Y115612D02*
X394067Y115612D01*
X394067Y116586D02*
X397143Y116586D01*
X397143Y117560D02*
X394067Y117560D01*
X394067Y118534D02*
X397143Y118534D01*
X397143Y119508D02*
X394067Y119508D01*
X394067Y120482D02*
X397143Y120482D01*
X397143Y121456D02*
X394067Y121456D01*
X394067Y122430D02*
X397143Y122430D01*
X397143Y123404D02*
X394067Y123404D01*
X394067Y124378D02*
X397143Y124378D01*
X397143Y125352D02*
X394067Y125352D01*
X403493Y126118D02*
X403493Y110742D01*
X400417Y110742D01*
X400417Y126118D01*
X403493Y126118D01*
X403493Y111716D02*
X400417Y111716D01*
X400417Y112690D02*
X403493Y112690D01*
X403493Y113664D02*
X400417Y113664D01*
X400417Y114638D02*
X403493Y114638D01*
X403493Y115612D02*
X400417Y115612D01*
X400417Y116586D02*
X403493Y116586D01*
X403493Y117560D02*
X400417Y117560D01*
X400417Y118534D02*
X403493Y118534D01*
X403493Y119508D02*
X400417Y119508D01*
X400417Y120482D02*
X403493Y120482D01*
X403493Y121456D02*
X400417Y121456D01*
X400417Y122430D02*
X403493Y122430D01*
X403493Y123404D02*
X400417Y123404D01*
X400417Y124378D02*
X403493Y124378D01*
X403493Y125352D02*
X400417Y125352D01*
X409843Y126118D02*
X409843Y110742D01*
X406767Y110742D01*
X406767Y126118D01*
X409843Y126118D01*
X409843Y111716D02*
X406767Y111716D01*
X406767Y112690D02*
X409843Y112690D01*
X409843Y113664D02*
X406767Y113664D01*
X406767Y114638D02*
X409843Y114638D01*
X409843Y115612D02*
X406767Y115612D01*
X406767Y116586D02*
X409843Y116586D01*
X409843Y117560D02*
X406767Y117560D01*
X406767Y118534D02*
X409843Y118534D01*
X409843Y119508D02*
X406767Y119508D01*
X406767Y120482D02*
X409843Y120482D01*
X409843Y121456D02*
X406767Y121456D01*
X406767Y122430D02*
X409843Y122430D01*
X409843Y123404D02*
X406767Y123404D01*
X406767Y124378D02*
X409843Y124378D01*
X409843Y125352D02*
X406767Y125352D01*
X416193Y126118D02*
X416193Y110742D01*
X413117Y110742D01*
X413117Y126118D01*
X416193Y126118D01*
X416193Y111716D02*
X413117Y111716D01*
X413117Y112690D02*
X416193Y112690D01*
X416193Y113664D02*
X413117Y113664D01*
X413117Y114638D02*
X416193Y114638D01*
X416193Y115612D02*
X413117Y115612D01*
X413117Y116586D02*
X416193Y116586D01*
X416193Y117560D02*
X413117Y117560D01*
X413117Y118534D02*
X416193Y118534D01*
X416193Y119508D02*
X413117Y119508D01*
X413117Y120482D02*
X416193Y120482D01*
X416193Y121456D02*
X413117Y121456D01*
X413117Y122430D02*
X416193Y122430D01*
X416193Y123404D02*
X413117Y123404D01*
X413117Y124378D02*
X416193Y124378D01*
X416193Y125352D02*
X413117Y125352D01*
X416193Y163442D02*
X416193Y178818D01*
X416193Y163442D02*
X413117Y163442D01*
X413117Y178818D01*
X416193Y178818D01*
X416193Y164416D02*
X413117Y164416D01*
X413117Y165390D02*
X416193Y165390D01*
X416193Y166364D02*
X413117Y166364D01*
X413117Y167338D02*
X416193Y167338D01*
X416193Y168312D02*
X413117Y168312D01*
X413117Y169286D02*
X416193Y169286D01*
X416193Y170260D02*
X413117Y170260D01*
X413117Y171234D02*
X416193Y171234D01*
X416193Y172208D02*
X413117Y172208D01*
X413117Y173182D02*
X416193Y173182D01*
X416193Y174156D02*
X413117Y174156D01*
X413117Y175130D02*
X416193Y175130D01*
X416193Y176104D02*
X413117Y176104D01*
X413117Y177078D02*
X416193Y177078D01*
X416193Y178052D02*
X413117Y178052D01*
X409843Y178818D02*
X409843Y163442D01*
X406767Y163442D01*
X406767Y178818D01*
X409843Y178818D01*
X409843Y164416D02*
X406767Y164416D01*
X406767Y165390D02*
X409843Y165390D01*
X409843Y166364D02*
X406767Y166364D01*
X406767Y167338D02*
X409843Y167338D01*
X409843Y168312D02*
X406767Y168312D01*
X406767Y169286D02*
X409843Y169286D01*
X409843Y170260D02*
X406767Y170260D01*
X406767Y171234D02*
X409843Y171234D01*
X409843Y172208D02*
X406767Y172208D01*
X406767Y173182D02*
X409843Y173182D01*
X409843Y174156D02*
X406767Y174156D01*
X406767Y175130D02*
X409843Y175130D01*
X409843Y176104D02*
X406767Y176104D01*
X406767Y177078D02*
X409843Y177078D01*
X409843Y178052D02*
X406767Y178052D01*
X403493Y178818D02*
X403493Y163442D01*
X400417Y163442D01*
X400417Y178818D01*
X403493Y178818D01*
X403493Y164416D02*
X400417Y164416D01*
X400417Y165390D02*
X403493Y165390D01*
X403493Y166364D02*
X400417Y166364D01*
X400417Y167338D02*
X403493Y167338D01*
X403493Y168312D02*
X400417Y168312D01*
X400417Y169286D02*
X403493Y169286D01*
X403493Y170260D02*
X400417Y170260D01*
X400417Y171234D02*
X403493Y171234D01*
X403493Y172208D02*
X400417Y172208D01*
X400417Y173182D02*
X403493Y173182D01*
X403493Y174156D02*
X400417Y174156D01*
X400417Y175130D02*
X403493Y175130D01*
X403493Y176104D02*
X400417Y176104D01*
X400417Y177078D02*
X403493Y177078D01*
X403493Y178052D02*
X400417Y178052D01*
X397143Y178818D02*
X397143Y163442D01*
X394067Y163442D01*
X394067Y178818D01*
X397143Y178818D01*
X397143Y164416D02*
X394067Y164416D01*
X394067Y165390D02*
X397143Y165390D01*
X397143Y166364D02*
X394067Y166364D01*
X394067Y167338D02*
X397143Y167338D01*
X397143Y168312D02*
X394067Y168312D01*
X394067Y169286D02*
X397143Y169286D01*
X397143Y170260D02*
X394067Y170260D01*
X394067Y171234D02*
X397143Y171234D01*
X397143Y172208D02*
X394067Y172208D01*
X394067Y173182D02*
X397143Y173182D01*
X397143Y174156D02*
X394067Y174156D01*
X394067Y175130D02*
X397143Y175130D01*
X397143Y176104D02*
X394067Y176104D01*
X394067Y177078D02*
X397143Y177078D01*
X397143Y178052D02*
X394067Y178052D01*
X390793Y178818D02*
X390793Y163442D01*
X387717Y163442D01*
X387717Y178818D01*
X390793Y178818D01*
X390793Y164416D02*
X387717Y164416D01*
X387717Y165390D02*
X390793Y165390D01*
X390793Y166364D02*
X387717Y166364D01*
X387717Y167338D02*
X390793Y167338D01*
X390793Y168312D02*
X387717Y168312D01*
X387717Y169286D02*
X390793Y169286D01*
X390793Y170260D02*
X387717Y170260D01*
X387717Y171234D02*
X390793Y171234D01*
X390793Y172208D02*
X387717Y172208D01*
X387717Y173182D02*
X390793Y173182D01*
X390793Y174156D02*
X387717Y174156D01*
X387717Y175130D02*
X390793Y175130D01*
X390793Y176104D02*
X387717Y176104D01*
X387717Y177078D02*
X390793Y177078D01*
X390793Y178052D02*
X387717Y178052D01*
X384443Y178818D02*
X384443Y163442D01*
X381367Y163442D01*
X381367Y178818D01*
X384443Y178818D01*
X384443Y164416D02*
X381367Y164416D01*
X381367Y165390D02*
X384443Y165390D01*
X384443Y166364D02*
X381367Y166364D01*
X381367Y167338D02*
X384443Y167338D01*
X384443Y168312D02*
X381367Y168312D01*
X381367Y169286D02*
X384443Y169286D01*
X384443Y170260D02*
X381367Y170260D01*
X381367Y171234D02*
X384443Y171234D01*
X384443Y172208D02*
X381367Y172208D01*
X381367Y173182D02*
X384443Y173182D01*
X384443Y174156D02*
X381367Y174156D01*
X381367Y175130D02*
X384443Y175130D01*
X384443Y176104D02*
X381367Y176104D01*
X381367Y177078D02*
X384443Y177078D01*
X384443Y178052D02*
X381367Y178052D01*
X378093Y178818D02*
X378093Y163442D01*
X375017Y163442D01*
X375017Y178818D01*
X378093Y178818D01*
X378093Y164416D02*
X375017Y164416D01*
X375017Y165390D02*
X378093Y165390D01*
X378093Y166364D02*
X375017Y166364D01*
X375017Y167338D02*
X378093Y167338D01*
X378093Y168312D02*
X375017Y168312D01*
X375017Y169286D02*
X378093Y169286D01*
X378093Y170260D02*
X375017Y170260D01*
X375017Y171234D02*
X378093Y171234D01*
X378093Y172208D02*
X375017Y172208D01*
X375017Y173182D02*
X378093Y173182D01*
X378093Y174156D02*
X375017Y174156D01*
X375017Y175130D02*
X378093Y175130D01*
X378093Y176104D02*
X375017Y176104D01*
X375017Y177078D02*
X378093Y177078D01*
X378093Y178052D02*
X375017Y178052D01*
X371743Y178818D02*
X371743Y163442D01*
X368667Y163442D01*
X368667Y178818D01*
X371743Y178818D01*
X371743Y164416D02*
X368667Y164416D01*
X368667Y165390D02*
X371743Y165390D01*
X371743Y166364D02*
X368667Y166364D01*
X368667Y167338D02*
X371743Y167338D01*
X371743Y168312D02*
X368667Y168312D01*
X368667Y169286D02*
X371743Y169286D01*
X371743Y170260D02*
X368667Y170260D01*
X368667Y171234D02*
X371743Y171234D01*
X371743Y172208D02*
X368667Y172208D01*
X368667Y173182D02*
X371743Y173182D01*
X371743Y174156D02*
X368667Y174156D01*
X368667Y175130D02*
X371743Y175130D01*
X371743Y176104D02*
X368667Y176104D01*
X368667Y177078D02*
X371743Y177078D01*
X371743Y178052D02*
X368667Y178052D01*
D26*
X454050Y180330D02*
X454050Y187830D01*
X473050Y187830D02*
X473050Y180330D01*
X463550Y203330D02*
X463550Y210830D01*
D27*
X431800Y144170D03*
X431800Y163170D03*
X431800Y184810D03*
X431800Y203810D03*
X471170Y144170D03*
X471170Y163170D03*
X452120Y122530D03*
X452120Y103530D03*
X431800Y122530D03*
X431800Y103530D03*
X401701Y189128D03*
X401701Y208128D03*
D13*
X391770Y94615D03*
X372770Y94615D03*
D27*
X451612Y163424D03*
X451612Y144424D03*
D35*
X417830Y79756D03*
X417830Y37084D03*
X454660Y79756D03*
X454660Y37084D03*
D34*
X352792Y103117D02*
X352792Y118493D01*
X355868Y118493D01*
X355868Y103117D01*
X352792Y103117D01*
X352792Y104091D02*
X355868Y104091D01*
X355868Y105065D02*
X352792Y105065D01*
X352792Y106039D02*
X355868Y106039D01*
X355868Y107013D02*
X352792Y107013D01*
X352792Y107987D02*
X355868Y107987D01*
X355868Y108961D02*
X352792Y108961D01*
X352792Y109935D02*
X355868Y109935D01*
X355868Y110909D02*
X352792Y110909D01*
X352792Y111883D02*
X355868Y111883D01*
X355868Y112857D02*
X352792Y112857D01*
X352792Y113831D02*
X355868Y113831D01*
X355868Y114805D02*
X352792Y114805D01*
X352792Y115779D02*
X355868Y115779D01*
X355868Y116753D02*
X352792Y116753D01*
X352792Y117727D02*
X355868Y117727D01*
X346442Y118493D02*
X346442Y103117D01*
X346442Y118493D02*
X349518Y118493D01*
X349518Y103117D01*
X346442Y103117D01*
X346442Y104091D02*
X349518Y104091D01*
X349518Y105065D02*
X346442Y105065D01*
X346442Y106039D02*
X349518Y106039D01*
X349518Y107013D02*
X346442Y107013D01*
X346442Y107987D02*
X349518Y107987D01*
X349518Y108961D02*
X346442Y108961D01*
X346442Y109935D02*
X349518Y109935D01*
X349518Y110909D02*
X346442Y110909D01*
X346442Y111883D02*
X349518Y111883D01*
X349518Y112857D02*
X346442Y112857D01*
X346442Y113831D02*
X349518Y113831D01*
X349518Y114805D02*
X346442Y114805D01*
X346442Y115779D02*
X349518Y115779D01*
X349518Y116753D02*
X346442Y116753D01*
X346442Y117727D02*
X349518Y117727D01*
X340092Y118493D02*
X340092Y103117D01*
X340092Y118493D02*
X343168Y118493D01*
X343168Y103117D01*
X340092Y103117D01*
X340092Y104091D02*
X343168Y104091D01*
X343168Y105065D02*
X340092Y105065D01*
X340092Y106039D02*
X343168Y106039D01*
X343168Y107013D02*
X340092Y107013D01*
X340092Y107987D02*
X343168Y107987D01*
X343168Y108961D02*
X340092Y108961D01*
X340092Y109935D02*
X343168Y109935D01*
X343168Y110909D02*
X340092Y110909D01*
X340092Y111883D02*
X343168Y111883D01*
X343168Y112857D02*
X340092Y112857D01*
X340092Y113831D02*
X343168Y113831D01*
X343168Y114805D02*
X340092Y114805D01*
X340092Y115779D02*
X343168Y115779D01*
X343168Y116753D02*
X340092Y116753D01*
X340092Y117727D02*
X343168Y117727D01*
X333742Y118493D02*
X333742Y103117D01*
X333742Y118493D02*
X336818Y118493D01*
X336818Y103117D01*
X333742Y103117D01*
X333742Y104091D02*
X336818Y104091D01*
X336818Y105065D02*
X333742Y105065D01*
X333742Y106039D02*
X336818Y106039D01*
X336818Y107013D02*
X333742Y107013D01*
X333742Y107987D02*
X336818Y107987D01*
X336818Y108961D02*
X333742Y108961D01*
X333742Y109935D02*
X336818Y109935D01*
X336818Y110909D02*
X333742Y110909D01*
X333742Y111883D02*
X336818Y111883D01*
X336818Y112857D02*
X333742Y112857D01*
X333742Y113831D02*
X336818Y113831D01*
X336818Y114805D02*
X333742Y114805D01*
X333742Y115779D02*
X336818Y115779D01*
X336818Y116753D02*
X333742Y116753D01*
X333742Y117727D02*
X336818Y117727D01*
X327392Y118493D02*
X327392Y103117D01*
X327392Y118493D02*
X330468Y118493D01*
X330468Y103117D01*
X327392Y103117D01*
X327392Y104091D02*
X330468Y104091D01*
X330468Y105065D02*
X327392Y105065D01*
X327392Y106039D02*
X330468Y106039D01*
X330468Y107013D02*
X327392Y107013D01*
X327392Y107987D02*
X330468Y107987D01*
X330468Y108961D02*
X327392Y108961D01*
X327392Y109935D02*
X330468Y109935D01*
X330468Y110909D02*
X327392Y110909D01*
X327392Y111883D02*
X330468Y111883D01*
X330468Y112857D02*
X327392Y112857D01*
X327392Y113831D02*
X330468Y113831D01*
X330468Y114805D02*
X327392Y114805D01*
X327392Y115779D02*
X330468Y115779D01*
X330468Y116753D02*
X327392Y116753D01*
X327392Y117727D02*
X330468Y117727D01*
X321042Y118493D02*
X321042Y103117D01*
X321042Y118493D02*
X324118Y118493D01*
X324118Y103117D01*
X321042Y103117D01*
X321042Y104091D02*
X324118Y104091D01*
X324118Y105065D02*
X321042Y105065D01*
X321042Y106039D02*
X324118Y106039D01*
X324118Y107013D02*
X321042Y107013D01*
X321042Y107987D02*
X324118Y107987D01*
X324118Y108961D02*
X321042Y108961D01*
X321042Y109935D02*
X324118Y109935D01*
X324118Y110909D02*
X321042Y110909D01*
X321042Y111883D02*
X324118Y111883D01*
X324118Y112857D02*
X321042Y112857D01*
X321042Y113831D02*
X324118Y113831D01*
X324118Y114805D02*
X321042Y114805D01*
X321042Y115779D02*
X324118Y115779D01*
X324118Y116753D02*
X321042Y116753D01*
X321042Y117727D02*
X324118Y117727D01*
X314692Y118493D02*
X314692Y103117D01*
X314692Y118493D02*
X317768Y118493D01*
X317768Y103117D01*
X314692Y103117D01*
X314692Y104091D02*
X317768Y104091D01*
X317768Y105065D02*
X314692Y105065D01*
X314692Y106039D02*
X317768Y106039D01*
X317768Y107013D02*
X314692Y107013D01*
X314692Y107987D02*
X317768Y107987D01*
X317768Y108961D02*
X314692Y108961D01*
X314692Y109935D02*
X317768Y109935D01*
X317768Y110909D02*
X314692Y110909D01*
X314692Y111883D02*
X317768Y111883D01*
X317768Y112857D02*
X314692Y112857D01*
X314692Y113831D02*
X317768Y113831D01*
X317768Y114805D02*
X314692Y114805D01*
X314692Y115779D02*
X317768Y115779D01*
X317768Y116753D02*
X314692Y116753D01*
X314692Y117727D02*
X317768Y117727D01*
X308342Y118493D02*
X308342Y103117D01*
X308342Y118493D02*
X311418Y118493D01*
X311418Y103117D01*
X308342Y103117D01*
X308342Y104091D02*
X311418Y104091D01*
X311418Y105065D02*
X308342Y105065D01*
X308342Y106039D02*
X311418Y106039D01*
X311418Y107013D02*
X308342Y107013D01*
X308342Y107987D02*
X311418Y107987D01*
X311418Y108961D02*
X308342Y108961D01*
X308342Y109935D02*
X311418Y109935D01*
X311418Y110909D02*
X308342Y110909D01*
X308342Y111883D02*
X311418Y111883D01*
X311418Y112857D02*
X308342Y112857D01*
X308342Y113831D02*
X311418Y113831D01*
X311418Y114805D02*
X308342Y114805D01*
X308342Y115779D02*
X311418Y115779D01*
X311418Y116753D02*
X308342Y116753D01*
X308342Y117727D02*
X311418Y117727D01*
X308342Y65793D02*
X308342Y50417D01*
X308342Y65793D02*
X311418Y65793D01*
X311418Y50417D01*
X308342Y50417D01*
X308342Y51391D02*
X311418Y51391D01*
X311418Y52365D02*
X308342Y52365D01*
X308342Y53339D02*
X311418Y53339D01*
X311418Y54313D02*
X308342Y54313D01*
X308342Y55287D02*
X311418Y55287D01*
X311418Y56261D02*
X308342Y56261D01*
X308342Y57235D02*
X311418Y57235D01*
X311418Y58209D02*
X308342Y58209D01*
X308342Y59183D02*
X311418Y59183D01*
X311418Y60157D02*
X308342Y60157D01*
X308342Y61131D02*
X311418Y61131D01*
X311418Y62105D02*
X308342Y62105D01*
X308342Y63079D02*
X311418Y63079D01*
X311418Y64053D02*
X308342Y64053D01*
X308342Y65027D02*
X311418Y65027D01*
X314692Y65793D02*
X314692Y50417D01*
X314692Y65793D02*
X317768Y65793D01*
X317768Y50417D01*
X314692Y50417D01*
X314692Y51391D02*
X317768Y51391D01*
X317768Y52365D02*
X314692Y52365D01*
X314692Y53339D02*
X317768Y53339D01*
X317768Y54313D02*
X314692Y54313D01*
X314692Y55287D02*
X317768Y55287D01*
X317768Y56261D02*
X314692Y56261D01*
X314692Y57235D02*
X317768Y57235D01*
X317768Y58209D02*
X314692Y58209D01*
X314692Y59183D02*
X317768Y59183D01*
X317768Y60157D02*
X314692Y60157D01*
X314692Y61131D02*
X317768Y61131D01*
X317768Y62105D02*
X314692Y62105D01*
X314692Y63079D02*
X317768Y63079D01*
X317768Y64053D02*
X314692Y64053D01*
X314692Y65027D02*
X317768Y65027D01*
X321042Y65793D02*
X321042Y50417D01*
X321042Y65793D02*
X324118Y65793D01*
X324118Y50417D01*
X321042Y50417D01*
X321042Y51391D02*
X324118Y51391D01*
X324118Y52365D02*
X321042Y52365D01*
X321042Y53339D02*
X324118Y53339D01*
X324118Y54313D02*
X321042Y54313D01*
X321042Y55287D02*
X324118Y55287D01*
X324118Y56261D02*
X321042Y56261D01*
X321042Y57235D02*
X324118Y57235D01*
X324118Y58209D02*
X321042Y58209D01*
X321042Y59183D02*
X324118Y59183D01*
X324118Y60157D02*
X321042Y60157D01*
X321042Y61131D02*
X324118Y61131D01*
X324118Y62105D02*
X321042Y62105D01*
X321042Y63079D02*
X324118Y63079D01*
X324118Y64053D02*
X321042Y64053D01*
X321042Y65027D02*
X324118Y65027D01*
X327392Y65793D02*
X327392Y50417D01*
X327392Y65793D02*
X330468Y65793D01*
X330468Y50417D01*
X327392Y50417D01*
X327392Y51391D02*
X330468Y51391D01*
X330468Y52365D02*
X327392Y52365D01*
X327392Y53339D02*
X330468Y53339D01*
X330468Y54313D02*
X327392Y54313D01*
X327392Y55287D02*
X330468Y55287D01*
X330468Y56261D02*
X327392Y56261D01*
X327392Y57235D02*
X330468Y57235D01*
X330468Y58209D02*
X327392Y58209D01*
X327392Y59183D02*
X330468Y59183D01*
X330468Y60157D02*
X327392Y60157D01*
X327392Y61131D02*
X330468Y61131D01*
X330468Y62105D02*
X327392Y62105D01*
X327392Y63079D02*
X330468Y63079D01*
X330468Y64053D02*
X327392Y64053D01*
X327392Y65027D02*
X330468Y65027D01*
X333742Y65793D02*
X333742Y50417D01*
X333742Y65793D02*
X336818Y65793D01*
X336818Y50417D01*
X333742Y50417D01*
X333742Y51391D02*
X336818Y51391D01*
X336818Y52365D02*
X333742Y52365D01*
X333742Y53339D02*
X336818Y53339D01*
X336818Y54313D02*
X333742Y54313D01*
X333742Y55287D02*
X336818Y55287D01*
X336818Y56261D02*
X333742Y56261D01*
X333742Y57235D02*
X336818Y57235D01*
X336818Y58209D02*
X333742Y58209D01*
X333742Y59183D02*
X336818Y59183D01*
X336818Y60157D02*
X333742Y60157D01*
X333742Y61131D02*
X336818Y61131D01*
X336818Y62105D02*
X333742Y62105D01*
X333742Y63079D02*
X336818Y63079D01*
X336818Y64053D02*
X333742Y64053D01*
X333742Y65027D02*
X336818Y65027D01*
X340092Y65793D02*
X340092Y50417D01*
X340092Y65793D02*
X343168Y65793D01*
X343168Y50417D01*
X340092Y50417D01*
X340092Y51391D02*
X343168Y51391D01*
X343168Y52365D02*
X340092Y52365D01*
X340092Y53339D02*
X343168Y53339D01*
X343168Y54313D02*
X340092Y54313D01*
X340092Y55287D02*
X343168Y55287D01*
X343168Y56261D02*
X340092Y56261D01*
X340092Y57235D02*
X343168Y57235D01*
X343168Y58209D02*
X340092Y58209D01*
X340092Y59183D02*
X343168Y59183D01*
X343168Y60157D02*
X340092Y60157D01*
X340092Y61131D02*
X343168Y61131D01*
X343168Y62105D02*
X340092Y62105D01*
X340092Y63079D02*
X343168Y63079D01*
X343168Y64053D02*
X340092Y64053D01*
X340092Y65027D02*
X343168Y65027D01*
X346442Y65793D02*
X346442Y50417D01*
X346442Y65793D02*
X349518Y65793D01*
X349518Y50417D01*
X346442Y50417D01*
X346442Y51391D02*
X349518Y51391D01*
X349518Y52365D02*
X346442Y52365D01*
X346442Y53339D02*
X349518Y53339D01*
X349518Y54313D02*
X346442Y54313D01*
X346442Y55287D02*
X349518Y55287D01*
X349518Y56261D02*
X346442Y56261D01*
X346442Y57235D02*
X349518Y57235D01*
X349518Y58209D02*
X346442Y58209D01*
X346442Y59183D02*
X349518Y59183D01*
X349518Y60157D02*
X346442Y60157D01*
X346442Y61131D02*
X349518Y61131D01*
X349518Y62105D02*
X346442Y62105D01*
X346442Y63079D02*
X349518Y63079D01*
X349518Y64053D02*
X346442Y64053D01*
X346442Y65027D02*
X349518Y65027D01*
X352792Y65793D02*
X352792Y50417D01*
X352792Y65793D02*
X355868Y65793D01*
X355868Y50417D01*
X352792Y50417D01*
X352792Y51391D02*
X355868Y51391D01*
X355868Y52365D02*
X352792Y52365D01*
X352792Y53339D02*
X355868Y53339D01*
X355868Y54313D02*
X352792Y54313D01*
X352792Y55287D02*
X355868Y55287D01*
X355868Y56261D02*
X352792Y56261D01*
X352792Y57235D02*
X355868Y57235D01*
X355868Y58209D02*
X352792Y58209D01*
X352792Y59183D02*
X355868Y59183D01*
X355868Y60157D02*
X352792Y60157D01*
X352792Y61131D02*
X355868Y61131D01*
X355868Y62105D02*
X352792Y62105D01*
X352792Y63079D02*
X355868Y63079D01*
X355868Y64053D02*
X352792Y64053D01*
X352792Y65027D02*
X355868Y65027D01*
D27*
X292735Y85065D03*
X292735Y66065D03*
X292735Y44425D03*
X292735Y25425D03*
X253365Y85065D03*
X253365Y66065D03*
X322834Y40107D03*
X322834Y21107D03*
X322580Y129565D03*
X322580Y148565D03*
X272923Y65811D03*
X272923Y84811D03*
D35*
X297815Y149479D03*
X297815Y192151D03*
X260985Y192151D03*
X260985Y149479D03*
D36*
X293225Y112395D03*
X259225Y112395D03*
D27*
X240665Y125705D03*
X240665Y106705D03*
D37*
X568960Y450850D03*
X820420Y450850D03*
X820420Y199390D03*
D38*
X618490Y248920D03*
X618490Y401320D03*
X770890Y401320D03*
X770890Y248920D03*
D37*
X568960Y199390D03*
X117475Y533400D03*
X567436Y305816D03*
X625348Y375412D03*
X625348Y350012D03*
D38*
X631444Y325120D03*
D37*
X625348Y299212D03*
X625348Y273812D03*
X656844Y394716D03*
X682244Y394716D03*
X745744Y394716D03*
X720344Y394716D03*
D38*
X694944Y388620D03*
D37*
X771652Y274828D03*
X765048Y299212D03*
X765048Y375412D03*
X765048Y350012D03*
D38*
X758444Y325120D03*
D37*
X720090Y306070D03*
X706628Y312928D03*
X694690Y306070D03*
X675640Y312420D03*
X656590Y318770D03*
X643890Y369570D03*
X656590Y374650D03*
X669290Y369570D03*
X681990Y382270D03*
X713740Y375920D03*
X732790Y369570D03*
X745490Y374650D03*
X746760Y248412D03*
X720090Y255270D03*
X669290Y255270D03*
X643890Y255270D03*
D38*
X694944Y261620D03*
D37*
X212090Y231140D03*
X105410Y231140D03*
D39*
X84720Y231140D02*
X83500Y232360D01*
D40*
X84720Y231140D02*
X105410Y231140D01*
X232780Y231140D02*
X234000Y232360D01*
X232780Y231140D02*
X212090Y231140D01*
X211250Y231140D02*
X211250Y213360D01*
X211250Y231140D02*
X212090Y231140D01*
X106250Y231140D02*
X106250Y213360D01*
X106250Y231140D02*
X105410Y231140D01*
D37*
X93980Y152400D03*
D40*
X138430Y43180D02*
X138176Y42926D01*
D37*
X186436Y94488D03*
X76200Y63500D03*
X138430Y54610D03*
D39*
X88646Y68326D02*
X81026Y68326D01*
X76200Y63500D01*
X138430Y54610D02*
X138430Y43180D01*
D37*
X194310Y153670D03*
D39*
X190246Y157734D02*
X185928Y157734D01*
X195834Y84328D02*
X203454Y84328D01*
X186436Y93726D02*
X186436Y94488D01*
X186436Y93726D02*
X195834Y84328D01*
D40*
X224892Y84328D02*
X228600Y80620D01*
D39*
X224892Y84328D02*
X203454Y84328D01*
D37*
X225425Y457835D03*
D39*
X106172Y157734D02*
X99314Y157734D01*
X93980Y152400D01*
X81708Y148590D02*
X77978Y144860D01*
X90170Y148590D02*
X93980Y152400D01*
X90170Y148590D02*
X81708Y148590D01*
X76200Y41910D02*
X78740Y39370D01*
X76200Y41910D02*
X76200Y63500D01*
D37*
X215900Y317500D03*
D40*
X215900Y308290D01*
X215940Y308250D01*
D37*
X205740Y317500D03*
D40*
X205740Y308450D01*
X205940Y308250D01*
D37*
X533400Y33020D03*
D39*
X533400Y32410D02*
X544220Y21590D01*
X533400Y32410D02*
X533400Y33020D01*
X527900Y38520D02*
X527900Y40640D01*
X527900Y38520D02*
X533400Y33020D01*
D37*
X427990Y273685D03*
D39*
X521970Y40640D02*
X521970Y20320D01*
X521970Y40640D02*
X527900Y40640D01*
D40*
X200940Y308250D02*
X200940Y312700D01*
X205740Y317500D01*
D37*
X185420Y316992D03*
D39*
X185940Y316472D02*
X185940Y308250D01*
X185940Y316472D02*
X185420Y316992D01*
D37*
X824230Y426720D03*
D38*
X762000Y588010D03*
D41*
X762160Y587850D02*
X791040Y587850D01*
X762160Y587850D02*
X762000Y588010D01*
X747260Y587850D02*
X746760Y587350D01*
X747260Y587850D02*
X762160Y587850D01*
D37*
X273050Y337820D03*
X347980Y337820D03*
D40*
X720344Y394716D02*
X722020Y396392D01*
X722020Y407670D01*
D37*
X516255Y332105D03*
D42*
X364490Y648970D03*
D37*
X113665Y648970D03*
D40*
X115940Y317235D02*
X115940Y308250D01*
X115940Y317235D02*
X116205Y317500D01*
D43*
X116205Y317500D03*
D37*
X113665Y676910D03*
D40*
X657250Y569400D02*
X657250Y561340D01*
X657250Y569400D02*
X665590Y577740D01*
D39*
X81280Y132080D02*
X77978Y135382D01*
X81280Y132080D02*
X88392Y132080D01*
D40*
X88646Y132334D01*
D39*
X77978Y135382D02*
X77978Y144860D01*
D40*
X516255Y332105D02*
X524256Y332105D01*
X431800Y203810D02*
X406019Y203810D01*
X401701Y208128D01*
D42*
X387350Y197485D03*
D40*
X389255Y171130D02*
X395605Y171130D01*
X389255Y171130D02*
X389255Y195580D01*
X387350Y197485D01*
X389255Y195682D02*
X401701Y208128D01*
X389255Y195682D02*
X389255Y195580D01*
D42*
X393065Y71120D03*
X436245Y36830D03*
D40*
X454406Y36830D02*
X454660Y37084D01*
X454406Y36830D02*
X436245Y36830D01*
X418084Y36830D02*
X417830Y37084D01*
X418084Y36830D02*
X436245Y36830D01*
X417830Y37084D02*
X417830Y46355D01*
X393065Y71120D01*
X372770Y91415D01*
X372770Y94615D01*
X318516Y25425D02*
X292735Y25425D01*
X318516Y25425D02*
X322834Y21107D01*
D42*
X337185Y31750D03*
D40*
X335280Y33655D02*
X335280Y58105D01*
X335280Y33655D02*
X337185Y31750D01*
X326542Y21107D02*
X322834Y21107D01*
X326542Y21107D02*
X337185Y31750D01*
D42*
X322580Y167005D03*
X279400Y192405D03*
D40*
X297561Y192405D02*
X297815Y192151D01*
X297561Y192405D02*
X279400Y192405D01*
X297815Y192151D02*
X297815Y191770D01*
X322580Y167005D01*
X322580Y148565D01*
X279400Y192405D02*
X261239Y192405D01*
X260985Y192151D01*
X328930Y58105D02*
X335280Y58105D01*
X328930Y58105D02*
X328930Y67310D01*
X316230Y80010D02*
X316230Y110805D01*
X316230Y80010D02*
X328930Y67310D01*
D39*
X446430Y273050D02*
X445770Y273710D01*
X446430Y273050D02*
X446430Y256540D01*
D37*
X683260Y546100D03*
D39*
X194310Y153670D02*
X190246Y157734D01*
X445745Y273685D02*
X445770Y273710D01*
X445745Y273685D02*
X427990Y273685D01*
X427990Y287440D01*
D37*
X56896Y692404D03*
X81534Y689737D03*
X528320Y386080D03*
D44*
X527050Y387350D01*
X521612Y387350D01*
X520215Y385953D01*
X242570Y385953D01*
D37*
X240030Y388620D03*
D44*
X240030Y388493D01*
X242570Y385953D01*
D37*
X236220Y566420D03*
D44*
X81534Y689737D02*
X59563Y689737D01*
X56896Y692404D01*
X232133Y566420D02*
X236220Y566420D01*
X147447Y651106D02*
X147447Y668488D01*
X147447Y651106D02*
X232133Y566420D01*
X147447Y668488D02*
X125817Y690118D01*
X81915Y690118D02*
X81534Y689737D01*
X81915Y690118D02*
X125817Y690118D01*
D37*
X532765Y389890D03*
D44*
X532488Y389890D01*
X532004Y390374D01*
X521224Y390374D01*
X519470Y388620D01*
X248285Y388620D01*
D37*
X243840Y393065D03*
D44*
X248285Y388620D01*
D37*
X240030Y570865D03*
D44*
X239879Y570714D01*
X231388Y570714D01*
X149860Y652242D02*
X149860Y669488D01*
X87249Y692531D02*
X85090Y694690D01*
D37*
X85090Y694690D03*
D44*
X149860Y652242D02*
X231388Y570714D01*
X149860Y669488D02*
X126817Y692531D01*
X87249Y692531D01*
D37*
X119380Y543560D03*
D44*
X210820Y543560D01*
X261614Y492755D01*
D37*
X596900Y439420D03*
D44*
X592149Y439420D01*
X586966Y434237D01*
X576503Y434237D01*
X517985Y492755D01*
X261614Y492755D01*
D37*
X119380Y566420D03*
D44*
X193040Y566420D01*
X264160Y495300D01*
D37*
X584200Y439420D03*
D44*
X584200Y442042D01*
X530942Y495300D01*
X264160Y495300D01*
D37*
X119380Y521970D03*
D44*
X228600Y521970D01*
X260350Y490220D01*
D37*
X599440Y452120D03*
D44*
X602083Y449477D01*
X602083Y437799D01*
X598717Y434433D01*
X591913Y434433D01*
X589304Y431824D01*
X570933Y431824D01*
X512537Y490220D01*
X260350Y490220D01*
D37*
X119380Y511810D03*
D44*
X234950Y511810D01*
X259080Y487680D01*
D37*
X596900Y426720D03*
D44*
X591717Y421537D01*
X575731Y421537D01*
X509587Y487680D01*
X259080Y487680D01*
D37*
X119380Y588010D03*
D44*
X179070Y588010D01*
X266700Y500380D01*
D37*
X584200Y426720D03*
D44*
X588951Y426720D01*
X594195Y431965D01*
X600931Y431965D01*
X604623Y435656D01*
X604623Y453741D01*
X557984Y500380D01*
X266700Y500380D01*
D37*
X123190Y577850D03*
D44*
X185420Y577850D01*
X265430Y497840D01*
D37*
X586740Y452120D03*
D44*
X541020Y497840D01*
X265430Y497840D01*
D38*
X682244Y337820D03*
D37*
X707644Y337820D03*
X694944Y324612D03*
X656336Y337820D03*
X745744Y299212D03*
X669544Y273812D03*
X663448Y287020D03*
X656844Y299212D03*
X753110Y401320D03*
D44*
X746760Y407670D01*
X741020Y407670D01*
D37*
X733044Y337820D03*
X733044Y324612D03*
X53975Y707390D03*
X53975Y677545D03*
X523240Y382270D03*
X234950Y384810D03*
X232410Y561340D03*
X130175Y678180D03*
D40*
X51840Y679680D02*
X51840Y705255D01*
X53975Y707390D01*
X51840Y679680D02*
X53975Y677545D01*
X123825Y684530D02*
X130175Y678180D01*
X123825Y684530D02*
X60960Y684530D01*
X53975Y677545D01*
X143637Y648908D02*
X231205Y561340D01*
X232410Y561340D01*
X231205Y561340D02*
X256395Y536150D01*
D39*
X235420Y384810D02*
X234950Y384810D01*
X235420Y384810D02*
X238594Y381635D01*
X522605Y381635D02*
X523240Y382270D01*
X522605Y381635D02*
X238594Y381635D01*
D40*
X256395Y536150D02*
X342900Y536150D01*
X143637Y664718D02*
X130175Y678180D01*
X143637Y664718D02*
X143637Y648908D01*
D37*
X53340Y669925D03*
X85090Y669925D03*
D44*
X53340Y669925D01*
D37*
X669544Y356616D03*
X720344Y356616D03*
X738505Y362585D03*
X651510Y362585D03*
D38*
X694944Y363220D03*
D37*
X122428Y454660D03*
D44*
X181610Y467360D02*
X500380Y467360D01*
X181610Y467360D02*
X168910Y454660D01*
X122428Y454660D01*
X500380Y467360D02*
X547370Y420370D01*
X547370Y408940D01*
X544830Y406400D01*
D37*
X544830Y406400D03*
X142748Y464820D03*
D44*
X179070Y472440D02*
X502920Y472440D01*
X179070Y472440D02*
X171450Y464820D01*
X142748Y464820D01*
D37*
X554736Y388112D03*
D44*
X552450Y422910D02*
X502920Y472440D01*
X552450Y422910D02*
X552450Y390398D01*
X554736Y388112D01*
D37*
X152400Y469900D03*
D44*
X177800Y474980D02*
X504190Y474980D01*
X177800Y474980D02*
X172720Y469900D01*
X152400Y469900D01*
D37*
X558800Y393192D03*
D44*
X554990Y424180D02*
X504190Y474980D01*
X554990Y424180D02*
X554990Y397002D01*
X558800Y393192D01*
D37*
X172720Y480060D03*
D44*
X506730Y480060D01*
D37*
X560070Y383413D03*
D44*
X560070Y426720D02*
X506730Y480060D01*
X567055Y394843D02*
X560070Y387858D01*
X560070Y383413D01*
X567055Y394843D02*
X567055Y399646D01*
X560070Y406631D02*
X560070Y426720D01*
X560070Y406631D02*
X567055Y399646D01*
D37*
X133858Y459740D03*
D44*
X180340Y469900D02*
X501650Y469900D01*
X180340Y469900D02*
X170180Y459740D01*
X133858Y459740D01*
D37*
X549910Y383540D03*
D44*
X549910Y421640D02*
X501650Y469900D01*
X549910Y421640D02*
X549910Y383540D01*
D37*
X162560Y474980D03*
D44*
X176530Y477520D02*
X505460Y477520D01*
X176530Y477520D02*
X173990Y474980D01*
X162560Y474980D01*
D37*
X562610Y398018D03*
D44*
X557530Y425450D02*
X505460Y477520D01*
X557530Y403098D02*
X562610Y398018D01*
X557530Y403098D02*
X557530Y425450D01*
D37*
X225552Y400812D03*
D44*
X234950Y410210D01*
X234950Y439420D01*
X247650Y452120D01*
X486410Y452120D01*
D37*
X492760Y441960D03*
D44*
X492760Y445770D01*
X486410Y452120D01*
D37*
X225552Y421132D03*
D44*
X229870Y425450D01*
X229870Y441960D01*
X245110Y457200D01*
X488950Y457200D01*
D37*
X507238Y443992D03*
D44*
X494538Y451612D02*
X488950Y457200D01*
X494538Y451612D02*
X499618Y451612D01*
X507238Y443992D01*
D37*
X225552Y410972D03*
D44*
X232410Y417830D01*
X232410Y440690D01*
X246380Y454660D01*
X487680Y454660D01*
D37*
X497205Y447040D03*
D44*
X495300Y447040D02*
X487680Y454660D01*
X495300Y447040D02*
X497205Y447040D01*
D37*
X225552Y431292D03*
D44*
X225552Y441452D01*
X243840Y459740D01*
X494030Y457200D02*
X495300Y457200D01*
X494030Y457200D02*
X491490Y459740D01*
X243840Y459740D01*
D37*
X495300Y457200D03*
X128778Y660146D03*
X674370Y472440D03*
D44*
X833120Y472440D01*
D37*
X653415Y400685D03*
X845820Y325120D03*
X845820Y304800D03*
D44*
X137668Y651256D02*
X128778Y660146D01*
X137668Y651256D02*
X137668Y646238D01*
X268159Y515747D01*
X664996Y477767D02*
X664996Y475106D01*
X667662Y472440D01*
X674370Y472440D01*
X664996Y477767D02*
X627016Y515747D01*
X268159Y515747D01*
X845820Y332740D02*
X845820Y325120D01*
X848487Y457073D02*
X833120Y472440D01*
X848487Y457073D02*
X848487Y335407D01*
X845820Y332740D01*
X845820Y304800D02*
X848360Y302260D01*
X848360Y177800D01*
X585843Y110030D02*
X543950Y110030D01*
X585843Y110030D02*
X599003Y123190D01*
X793750Y123190D02*
X848360Y177800D01*
X793750Y123190D02*
X599003Y123190D01*
X538060Y104140D02*
X527900Y104140D01*
X538060Y104140D02*
X543950Y110030D01*
D37*
X132969Y664591D03*
X669290Y476885D03*
X647065Y400050D03*
X850900Y331470D03*
X850900Y309880D03*
D44*
X133604Y663956D02*
X132969Y664591D01*
X133604Y663956D02*
X133604Y658876D01*
X140081Y652399D01*
X140081Y647237D01*
X269158Y518160D01*
X628015Y518160D02*
X669290Y476885D01*
X628015Y518160D02*
X269158Y518160D01*
X669290Y476885D02*
X675998Y476885D01*
X678030Y474853D01*
X834517Y474853D02*
X850900Y458470D01*
X834517Y474853D02*
X678030Y474853D01*
X850900Y458470D02*
X850900Y331470D01*
X850900Y309880D02*
X850900Y180340D01*
X516368Y112622D02*
X516368Y100738D01*
X520586Y116840D02*
X527900Y116840D01*
X520586Y116840D02*
X516368Y112622D01*
X516368Y100738D02*
X518506Y98600D01*
X600002Y120777D02*
X794750Y120777D01*
X850773Y176801D02*
X850773Y180213D01*
X850900Y180340D01*
X600002Y120777D02*
X589040Y109815D01*
X589040Y100527D02*
X587113Y98600D01*
X518506Y98600D01*
X589040Y100527D02*
X589040Y109815D01*
X794750Y120777D02*
X850773Y176801D01*
D37*
X112776Y480060D03*
X580390Y342900D03*
D44*
X570484Y332994D01*
X567284Y332994D01*
X547395Y332105D02*
X532384Y332105D01*
X547395Y332105D02*
X548284Y332994D01*
D37*
X797560Y411480D03*
D44*
X796290Y412750D01*
X796290Y435610D01*
X786456Y445444D01*
X638804Y445444D02*
X600837Y407477D01*
X638804Y445444D02*
X786456Y445444D01*
X600837Y407477D02*
X600837Y403700D01*
D37*
X183515Y354330D03*
D44*
X197993Y368808D01*
D37*
X174625Y345440D03*
D44*
X150940Y321755D02*
X150940Y308250D01*
X150940Y321755D02*
X174625Y345440D01*
X565945Y368808D02*
X600837Y403700D01*
X565945Y368808D02*
X197993Y368808D01*
D37*
X784860Y411480D03*
D44*
X789940Y416560D02*
X789940Y433893D01*
X789940Y416560D02*
X784860Y411480D01*
X789940Y433893D02*
X783215Y440618D01*
X640803Y440618D01*
X605790Y405605D01*
X605790Y401828D02*
X567690Y363728D01*
X605790Y401828D02*
X605790Y405605D01*
X567690Y363728D02*
X205613Y363728D01*
D37*
X190373Y348488D03*
D44*
X205613Y363728D01*
D37*
X190373Y321183D03*
D44*
X190940Y320616D02*
X190940Y308250D01*
X190940Y320616D02*
X190373Y321183D01*
D37*
X810260Y411480D03*
D44*
X802640Y419100D02*
X802640Y436880D01*
X802640Y419100D02*
X810260Y411480D01*
X802640Y436880D02*
X789250Y450270D01*
X636805Y450270D02*
X596011Y409476D01*
X596011Y406146D02*
X563633Y373768D01*
X636805Y450270D02*
X789250Y450270D01*
X596011Y409476D02*
X596011Y406146D01*
X563633Y373768D02*
X208280Y373888D01*
X191914Y373888D01*
D37*
X167005Y325120D03*
X167005Y344170D03*
D44*
X156138Y308448D02*
X155940Y308250D01*
X167005Y324723D02*
X167005Y325120D01*
X156138Y313856D02*
X156138Y308448D01*
X156138Y313856D02*
X167005Y324723D01*
X167005Y348980D02*
X191914Y373888D01*
X167005Y348980D02*
X167005Y344170D01*
D37*
X784860Y398780D03*
D44*
X784860Y405130D01*
X780470Y409520D01*
X641621Y438023D02*
X608330Y404733D01*
X608330Y400558D02*
X569087Y361315D01*
X608330Y400558D02*
X608330Y404733D01*
X569087Y361315D02*
X209550Y361315D01*
X165940Y317705D02*
X165940Y308250D01*
X165940Y317705D02*
X209550Y361315D01*
X782397Y438023D02*
X787375Y433045D01*
X780566Y409616D02*
X780470Y409520D01*
X780566Y409616D02*
X780566Y413259D01*
X787375Y420068D02*
X787375Y433045D01*
X787375Y420068D02*
X780566Y413259D01*
X782397Y438023D02*
X641621Y438023D01*
D37*
X797560Y398780D03*
D44*
X792964Y403376D01*
X792964Y434849D01*
X784782Y443031D01*
X639804Y443031D02*
X603250Y406478D01*
X639804Y443031D02*
X784782Y443031D01*
X603250Y406478D02*
X603250Y402701D01*
X566691Y366141D01*
D37*
X190500Y354965D03*
X171450Y316865D03*
D44*
X190500Y355600D02*
X201041Y366141D01*
X190500Y355600D02*
X190500Y354965D01*
X201041Y366141D02*
X566691Y366141D01*
X171450Y316865D02*
X170940Y316355D01*
X170940Y308250D01*
D37*
X810260Y398780D03*
D44*
X810260Y405130D01*
X799314Y416076D01*
X799314Y436119D01*
X787576Y447857D01*
X637805Y447857D01*
X598424Y408477D01*
X598424Y405130D01*
X564642Y371348D01*
X194056Y371348D01*
D37*
X178943Y337058D03*
X175768Y320802D03*
D44*
X178943Y337058D02*
X178943Y356235D01*
X194056Y371348D01*
X175940Y320630D02*
X175940Y308250D01*
X175940Y320630D02*
X175768Y320802D01*
D37*
X784860Y386080D03*
D44*
X642620Y435610D02*
X610870Y403860D01*
X610870Y399288D01*
X570357Y358775D01*
X211455Y358775D01*
X180940Y313965D02*
X180940Y308250D01*
X180940Y313965D02*
X180305Y314600D01*
X180305Y327625D01*
X211455Y358775D01*
X781050Y435610D02*
X784860Y431800D01*
X784860Y421640D01*
X778057Y392883D02*
X784860Y386080D01*
X781050Y435610D02*
X642620Y435610D01*
X778057Y414837D02*
X784860Y421640D01*
X778057Y414837D02*
X778057Y392883D01*
X206250Y213360D02*
X206250Y165112D01*
X220091Y151271D01*
X210646Y108204D02*
X203454Y108204D01*
X220091Y117649D02*
X220091Y151271D01*
X220091Y117649D02*
X210646Y108204D01*
X201250Y166699D02*
X201250Y213360D01*
X201250Y166699D02*
X217678Y150271D01*
X203708Y116586D02*
X203454Y116332D01*
X203708Y116586D02*
X211154Y116586D01*
X217678Y123110D01*
X217678Y150271D01*
X196250Y168287D02*
X196250Y213360D01*
X196250Y168287D02*
X215265Y149272D01*
X210646Y124206D02*
X203454Y124206D01*
X210646Y124206D02*
X215265Y128825D01*
X215265Y149272D01*
X212852Y134286D02*
X210646Y132080D01*
X191250Y169874D02*
X191250Y213360D01*
X203454Y132334D02*
X203708Y132080D01*
X210646Y132080D01*
X212852Y134286D02*
X212852Y148272D01*
X191250Y169874D01*
X199874Y143788D02*
X203454Y140208D01*
X199874Y143788D02*
X199874Y157838D01*
X186250Y171462D02*
X186250Y213360D01*
X186250Y171462D02*
X199874Y157838D01*
X181356Y213254D02*
X181250Y213360D01*
X181356Y213254D02*
X181356Y176356D01*
X169926Y164926D02*
X169926Y157734D01*
X169926Y164926D02*
X181356Y176356D01*
X176250Y178870D02*
X176250Y213360D01*
X162306Y157988D02*
X162052Y157734D01*
X162306Y157988D02*
X162306Y164926D01*
X176250Y178870D01*
X171250Y182252D02*
X171250Y213360D01*
X153924Y164926D02*
X153924Y157734D01*
X153924Y164926D02*
X171250Y182252D01*
X166250Y185380D02*
X166250Y213360D01*
X145796Y157988D02*
X146050Y157734D01*
X145796Y157988D02*
X145796Y164926D01*
X166250Y185380D01*
X161250Y188254D02*
X161250Y213360D01*
X137922Y157988D02*
X138176Y157734D01*
X137922Y157988D02*
X137922Y164926D01*
X161250Y188254D01*
X156464Y213146D02*
X156250Y213360D01*
X156464Y213146D02*
X156464Y191342D01*
X130048Y164926D02*
X130048Y157734D01*
X130048Y164926D02*
X156464Y191342D01*
X151250Y194256D02*
X151250Y213360D01*
X121920Y157988D02*
X122174Y157734D01*
X121920Y157988D02*
X121920Y164926D01*
X151250Y194256D01*
X146250Y195860D02*
X146250Y213360D01*
X114046Y163656D02*
X114046Y157734D01*
X114046Y163656D02*
X146250Y195860D01*
X88646Y124206D02*
X78914Y124206D01*
X73025Y130095D01*
X73025Y145859D01*
X94806Y167640D01*
X111760Y167640D01*
X141250Y197130D01*
X141250Y213360D01*
X88392Y116586D02*
X77136Y116586D01*
X88392Y116586D02*
X88646Y116332D01*
X77136Y116586D02*
X70104Y123618D01*
X70104Y146351D01*
X93933Y170180D01*
X107950Y170180D01*
X136250Y198480D01*
X136250Y213360D01*
X88646Y108204D02*
X78914Y108204D01*
X67691Y119427D01*
X67691Y147320D01*
X67691Y147350D01*
X93061Y172720D01*
X104140Y172720D01*
X131250Y199830D01*
X131250Y213360D01*
X88392Y100584D02*
X79676Y100584D01*
X88392Y100584D02*
X88646Y100330D01*
X79676Y100584D02*
X65278Y114982D01*
X65278Y148350D01*
X92188Y175260D01*
X100330Y175260D01*
X126250Y201180D01*
X126250Y213360D01*
D37*
X108712Y54356D03*
X121920Y203200D03*
D44*
X121250Y203870D01*
X121250Y213360D01*
D37*
X100457Y72644D03*
D44*
X106172Y51816D02*
X106172Y42926D01*
X106172Y51816D02*
X108712Y54356D01*
D37*
X116205Y204470D03*
X99695Y83820D03*
D44*
X89154Y83820D01*
X88646Y84328D01*
X116250Y204515D02*
X116250Y213360D01*
X116250Y204515D02*
X116205Y204470D01*
X88392Y92710D02*
X80946Y92710D01*
X88392Y92710D02*
X88646Y92456D01*
X80946Y92710D02*
X62865Y110791D01*
X62865Y149349D01*
X91316Y177800D01*
X96520Y177800D01*
X111250Y192530D01*
X111250Y213360D01*
D37*
X163830Y109220D03*
D44*
X172974Y100076D01*
X195834Y92456D02*
X203454Y92456D01*
X195834Y92456D02*
X188214Y100076D01*
X172974Y100076D01*
D37*
X190500Y127000D03*
D44*
X203200Y100584D02*
X203454Y100330D01*
X203200Y100584D02*
X196262Y100584D01*
X190500Y106346D01*
X190500Y127000D01*
D40*
X114300Y43180D02*
X114046Y42926D01*
D37*
X108585Y140335D03*
X101600Y60325D03*
X146050Y64770D03*
X185420Y77470D03*
D40*
X101600Y60325D02*
X101473Y60452D01*
D39*
X88646Y60452D01*
D37*
X114300Y64770D03*
D39*
X114935Y146685D02*
X174625Y146685D01*
X178054Y150114D02*
X178054Y157734D01*
X178054Y150114D02*
X174625Y146685D01*
X195834Y76454D02*
X203454Y76454D01*
X195834Y76454D02*
X194818Y77470D01*
X185420Y77470D01*
D40*
X114300Y64770D02*
X114300Y43180D01*
D37*
X82550Y20320D03*
D40*
X78740Y16510D01*
X78740Y13970D01*
X146050Y42926D02*
X146050Y64770D01*
D39*
X108585Y140335D02*
X114935Y146685D01*
X108458Y140208D02*
X88646Y140208D01*
X108458Y140208D02*
X108585Y140335D01*
D44*
X103108Y29845D02*
X172165Y29845D01*
X178054Y35734D02*
X178054Y42926D01*
X178054Y35734D02*
X172165Y29845D01*
X84076Y26670D02*
X78740Y26670D01*
X84076Y26670D02*
X89283Y21463D01*
X94726Y21463D01*
X103108Y29845D01*
X91440Y43180D02*
X109220Y60960D01*
X91440Y43180D02*
X91440Y39370D01*
X109220Y67033D02*
X111783Y69596D01*
X109220Y67033D02*
X109220Y60960D01*
X195834Y68326D02*
X203454Y68326D01*
X195834Y68326D02*
X194564Y69596D01*
X111783Y69596D01*
X97028Y32258D02*
X91440Y26670D01*
X97028Y32258D02*
X165608Y32258D01*
X170180Y36830D01*
X170180Y42672D01*
X169926Y42926D01*
X185928Y42926D02*
X186690Y42164D01*
X104902Y27432D02*
X91440Y13970D01*
X104902Y27432D02*
X177372Y27432D01*
X186690Y36750D01*
X186690Y42164D01*
X228600Y61620D02*
X230210Y60010D01*
X230210Y41910D01*
X203454Y47666D02*
X203454Y60452D01*
X203454Y47666D02*
X209210Y41910D01*
D40*
X415290Y297180D02*
X404220Y308250D01*
X220940Y308250D01*
X415290Y297180D02*
X415290Y287440D01*
X402590Y297180D02*
X399415Y300355D01*
X386055Y300355D01*
X371450Y285750D01*
X370180Y285750D01*
X402590Y287440D02*
X402590Y297180D01*
X212725Y300355D02*
X210820Y302260D01*
X210820Y308130D01*
X210940Y308250D01*
X212725Y300355D02*
X336575Y300355D01*
X351180Y285750D01*
X242570Y254000D02*
X165100Y254000D01*
X125940Y293160D02*
X125940Y308250D01*
X125940Y293160D02*
X165100Y254000D01*
X448310Y207080D02*
X463550Y207080D01*
X448310Y207080D02*
X437585Y217805D01*
X278765Y217805D01*
X242570Y254000D01*
X253365Y85065D02*
X272669Y85065D01*
X272923Y84811D01*
D42*
X277495Y95885D03*
D40*
X272923Y91313D02*
X272923Y84811D01*
X272923Y91313D02*
X277495Y95885D01*
X272415Y100965D01*
X272415Y138049D02*
X260985Y149479D01*
X272415Y138049D02*
X272415Y100965D01*
X260985Y149479D02*
X260985Y154305D01*
X243840Y171450D01*
D42*
X243840Y171450D03*
D40*
X130940Y295947D02*
X130940Y308250D01*
X130940Y295947D02*
X132481Y294406D01*
D37*
X132481Y294406D03*
X135996Y299720D03*
D40*
X135940Y299776D01*
X135940Y308250D01*
D37*
X142240Y299720D03*
D40*
X140940Y301020D01*
X140940Y308250D01*
D44*
X359410Y19050D02*
X371983Y6477D01*
X359410Y19050D02*
X359410Y68580D01*
X371983Y6477D02*
X576707Y6477D01*
X593725Y23495D01*
X593725Y85090D01*
X587375Y91440D01*
X577000Y91440D01*
X359410Y68580D02*
X335280Y92710D01*
X335280Y110805D01*
X364236Y70579D02*
X364236Y21049D01*
X373982Y11303D01*
X587375Y66040D02*
X588899Y64516D01*
X587375Y66040D02*
X577000Y66040D01*
X574708Y11303D02*
X373982Y11303D01*
X574708Y11303D02*
X588899Y25494D01*
X588899Y64516D01*
X364236Y70579D02*
X354330Y80485D01*
X354330Y110805D01*
X361823Y69580D02*
X361823Y20050D01*
X372983Y8890D01*
X575708Y8890D01*
X591312Y74803D02*
X587375Y78740D01*
X577000Y78740D01*
X591312Y24495D02*
X575708Y8890D01*
X591312Y24495D02*
X591312Y74803D01*
X347980Y83423D02*
X347980Y110805D01*
X347980Y83423D02*
X361823Y69580D01*
X359047Y123905D02*
X363804Y128662D01*
X359047Y79181D02*
X366649Y71579D01*
X389255Y118430D02*
X389527Y118702D01*
X389527Y125901D01*
X386766Y128662D01*
X363804Y128662D01*
X359047Y123905D02*
X359047Y79181D01*
X366649Y71579D02*
X366649Y22049D01*
X374982Y13716D01*
X517525Y53340D02*
X527900Y53340D01*
X517525Y53340D02*
X515620Y51435D01*
X515620Y25400D01*
X503936Y13716D01*
X374982Y13716D01*
X370205Y118430D02*
X368320Y118430D01*
X361460Y111570D01*
X361460Y80180D01*
X369062Y72578D01*
X369062Y23048D01*
X375981Y16129D01*
X518160Y66040D02*
X527900Y66040D01*
X518160Y66040D02*
X513207Y61087D01*
X513207Y26400D01*
X502937Y16129D01*
X375981Y16129D01*
X376555Y109855D02*
X376555Y118430D01*
X366026Y108198D02*
X363873Y106045D01*
X366026Y108198D02*
X374898Y108198D01*
X363873Y106045D02*
X363873Y81180D01*
X374898Y108198D02*
X376555Y109855D01*
X363873Y81180D02*
X371475Y73578D01*
X371475Y24048D01*
X376981Y18542D01*
X517525Y78740D02*
X527900Y78740D01*
X517525Y78740D02*
X510794Y72009D01*
X510794Y27399D01*
X501937Y18542D01*
X376981Y18542D01*
D40*
X505460Y91440D02*
X527900Y91440D01*
D38*
X820420Y567690D03*
D41*
X791200Y567690D01*
X791040Y567850D01*
D38*
X720344Y274320D03*
D37*
X133350Y317500D03*
X204470Y450850D03*
D39*
X563220Y25590D02*
X563220Y21590D01*
D37*
X572770Y33020D03*
D39*
X577000Y37250D02*
X577000Y40640D01*
X577000Y37250D02*
X572770Y33020D01*
X563245Y21590D02*
X563220Y21590D01*
X572770Y31115D02*
X572770Y33020D01*
X572770Y31115D02*
X563245Y21590D01*
D37*
X389890Y252095D03*
D39*
X389890Y238340D01*
D37*
X182880Y501650D03*
X92710Y554990D03*
D40*
X146050Y308360D02*
X145940Y308250D01*
X121011Y308321D02*
X121011Y314407D01*
D39*
X121011Y308321D02*
X120940Y308250D01*
D40*
X124104Y317500D02*
X133350Y317500D01*
X124104Y317500D02*
X121011Y314407D01*
X145869Y314407D02*
X145869Y308541D01*
X146050Y308360D01*
X142776Y317500D02*
X133350Y317500D01*
X142776Y317500D02*
X145869Y314407D01*
X401701Y189128D02*
X401701Y171384D01*
X401955Y171130D01*
X401955Y157480D01*
X408305Y128270D02*
X408305Y118430D01*
X322834Y57851D02*
X322834Y40107D01*
X322834Y57851D02*
X322580Y58105D01*
D37*
X412750Y189230D03*
D40*
X401803Y189230D02*
X401701Y189128D01*
X401803Y189230D02*
X412750Y189230D01*
D37*
X407670Y133350D03*
D40*
X408305Y132715D01*
X408305Y118430D01*
X407670Y133350D02*
X407670Y151765D01*
X401955Y157480D01*
D37*
X314960Y73660D03*
D40*
X322580Y66040D01*
X322580Y58105D01*
X466020Y292404D02*
X466020Y292710D01*
X456064Y248223D02*
X454087Y246246D01*
X435896Y246246D02*
X427990Y238340D01*
X435896Y246246D02*
X454087Y246246D01*
X456064Y282448D02*
X466020Y292404D01*
X456064Y282448D02*
X456064Y248223D01*
X466020Y292710D02*
X466020Y316695D01*
X462040Y320675D01*
X415465Y230132D02*
X419297Y226300D01*
X415465Y230132D02*
X415465Y238165D01*
X415290Y238340D01*
X419297Y226300D02*
X441807Y226300D01*
X465430Y249924D01*
X465430Y256540D01*
X465430Y259620D01*
X489020Y283210D01*
D44*
X369570Y240030D02*
X368935Y240665D01*
X369570Y240030D02*
X370180Y240030D01*
D40*
X402590Y238340D02*
X402590Y248920D01*
X394359Y257151D02*
X385421Y257151D01*
X368935Y240665D01*
X394359Y257151D02*
X402590Y248920D01*
X375500Y262890D02*
X389890Y277280D01*
X375500Y262890D02*
X370180Y262890D01*
X389890Y277280D02*
X389890Y287440D01*
X351180Y262890D02*
X351180Y240030D01*
D44*
X351180Y232410D02*
X361340Y222250D01*
X351180Y232410D02*
X351180Y240030D01*
X561760Y122555D02*
X567475Y116840D01*
X577000Y116840D01*
X561760Y122555D02*
X518160Y122555D01*
X501650Y191354D02*
X470754Y222250D01*
X501650Y191354D02*
X501650Y139065D01*
X518160Y122555D01*
X470754Y222250D02*
X361340Y222250D01*
D37*
X339090Y641350D03*
D44*
X525104Y616331D02*
X592167Y549268D01*
X653340Y549268D01*
X525104Y616331D02*
X516481Y616331D01*
X491462Y641350D02*
X339090Y641350D01*
X491462Y641350D02*
X516481Y616331D01*
X653340Y549268D02*
X653340Y548540D01*
D37*
X653340Y548540D03*
X161925Y54610D03*
D44*
X162052Y54483D02*
X162052Y42926D01*
X162052Y54483D02*
X161925Y54610D01*
D37*
X161925Y20955D03*
D44*
X167005Y15875D01*
X192682Y15875D01*
X205382Y3175D01*
D37*
X795655Y116205D03*
D44*
X628015Y116205D01*
X597027Y85217D01*
X597027Y22127D02*
X578075Y3175D01*
X205382Y3175D01*
X597027Y22127D02*
X597027Y85217D01*
D37*
X542290Y588010D03*
D40*
X490430Y536150D01*
X416560Y536150D01*
D41*
X319900Y594150D02*
X319900Y605580D01*
X326460Y612140D01*
X387350Y612140D02*
X393700Y605790D01*
X393700Y594290D01*
X393560Y594150D01*
X387350Y612140D02*
X326460Y612140D01*
D39*
X393700Y608480D02*
X393700Y605790D01*
X393700Y608480D02*
X408940Y623720D01*
D45*
X427990Y594360D03*
D39*
X439350Y594360D01*
X439560Y594150D01*
D45*
X379730Y594360D03*
D39*
X366110Y594360D01*
X365900Y594150D01*
X427940Y623720D02*
X427990Y623670D01*
X427990Y594360D01*
D37*
X153670Y54610D03*
D39*
X153924Y54356D02*
X153924Y42926D01*
X153924Y54356D02*
X153670Y54610D01*
D46*
X687070Y572770D03*
D41*
X687070Y571027D01*
X680698Y565323D01*
D38*
X760730Y558800D03*
D41*
X680698Y565323D02*
X676250Y561340D01*
X746760Y568350D02*
X751180Y568350D01*
X760730Y558800D01*
D38*
X745490Y274320D03*
D41*
X748884Y274320D01*
X755591Y267613D01*
X798473Y267613D01*
X858520Y327660D01*
X858520Y461010D01*
X760730Y558800D01*
X750570Y274320D02*
X745490Y274320D01*
X750570Y274320D02*
X772263Y296013D01*
X662086Y401955D02*
X656141Y407900D01*
X772263Y378357D02*
X772263Y296013D01*
X772263Y378357D02*
X767715Y382905D01*
X656141Y407900D02*
X641580Y407900D01*
X624840Y391160D02*
X616772Y391160D01*
X624840Y391160D02*
X641580Y407900D01*
X616772Y391160D02*
X574735Y349123D01*
X410083Y349123D01*
D38*
X403860Y342900D03*
D41*
X694715Y401955D02*
X713765Y382905D01*
X767715Y382905D01*
X694715Y401955D02*
X662086Y401955D01*
X718820Y568350D02*
X746760Y568350D01*
X718820Y568350D02*
X683726Y568350D01*
X680698Y565323D01*
X718820Y568350D02*
X664870Y622300D01*
X525780Y622300D01*
X525354Y622305D01*
X524928Y622321D01*
X524502Y622347D01*
X524077Y622383D01*
X523653Y622430D01*
X523231Y622486D01*
X522810Y622554D01*
X522390Y622631D01*
X521973Y622719D01*
X521558Y622816D01*
X521145Y622924D01*
X520736Y623042D01*
X520329Y623170D01*
X519925Y623307D01*
X519525Y623455D01*
X519129Y623612D01*
X518736Y623778D01*
X518348Y623954D01*
X517964Y624140D01*
X517585Y624335D01*
X517210Y624539D01*
X516841Y624752D01*
X516477Y624974D01*
X516118Y625205D01*
X515765Y625444D01*
X515419Y625692D01*
X515078Y625948D01*
X514743Y626213D01*
X514415Y626486D01*
X514094Y626766D01*
X513780Y627054D01*
X513473Y627350D01*
X513173Y627653D01*
X512881Y627964D01*
X512596Y628281D01*
X512319Y628605D01*
X512050Y628936D01*
X511789Y629274D01*
X511537Y629617D01*
X511293Y629967D01*
X511057Y630322D01*
X510830Y630683D01*
X510613Y631050D01*
X510404Y631422D01*
X510204Y631798D01*
X510013Y632180D01*
X509832Y632566D01*
X509660Y632956D01*
X509498Y633350D01*
X509345Y633748D01*
X509202Y634150D01*
X509069Y634555D01*
X508946Y634963D01*
X508833Y635374D01*
X508729Y635788D01*
X508636Y636204D01*
X508553Y636622D01*
X508481Y637043D01*
X508418Y637464D01*
X508366Y637888D01*
X508324Y638312D01*
X508293Y638737D01*
X508271Y639163D01*
X508261Y639589D01*
X508260Y640016D01*
X508270Y640442D01*
X508290Y640868D01*
X508321Y641293D01*
X508362Y641718D01*
X508413Y642141D01*
X508475Y642563D01*
X508547Y642983D01*
X508629Y643402D01*
X508721Y643818D01*
X508823Y644232D01*
X508936Y644643D01*
X509058Y645052D01*
X509190Y645457D01*
X509332Y645859D01*
X509484Y646258D01*
X509646Y646652D01*
X509817Y647043D01*
X509997Y647429D01*
X510187Y647811D01*
X510386Y648188D01*
X510594Y648560D01*
X510811Y648927D01*
X511037Y649289D01*
X511272Y649645D01*
X511515Y649995D01*
X511767Y650339D01*
X512027Y650677D01*
X512295Y651008D01*
X512572Y651333D01*
X512856Y651651D01*
X513147Y651962D01*
X513447Y652266D01*
X513753Y652562D01*
X514067Y652851D01*
X514387Y653132D01*
X514715Y653406D01*
X515048Y653671D01*
X515389Y653928D01*
X515735Y654177D01*
X516087Y654417D01*
X516445Y654648D01*
X516809Y654871D01*
X517178Y655085D01*
X517552Y655290D01*
X517931Y655485D01*
X518314Y655672D01*
X518702Y655849D01*
X519094Y656016D01*
X519490Y656174D01*
X519890Y656322D01*
X520294Y656461D01*
X520700Y656589D01*
X520700Y656590D02*
X520700Y661670D01*
X300990Y661670D01*
D45*
X300990Y661670D03*
D37*
X234454Y649744D03*
D40*
X246380Y661670D02*
X300990Y661670D01*
X246380Y661670D02*
X234454Y649744D01*
D41*
X410083Y349123D02*
X403860Y342900D01*
D42*
X421640Y63500D03*
D40*
X421640Y75946D02*
X417830Y79756D01*
X421640Y75946D02*
X421640Y63500D01*
D42*
X297815Y126365D03*
D40*
X297815Y149479D01*
D39*
X426085Y320675D02*
X432040Y320675D01*
X426085Y320675D02*
X403860Y342900D01*
X432040Y320675D02*
X445770Y306945D01*
X445770Y292710D01*
D40*
X297815Y126365D02*
X297815Y116985D01*
X293225Y112395D01*
D44*
X370205Y171130D02*
X376555Y171130D01*
X376555Y184150D01*
D42*
X376555Y184150D03*
X382905Y156845D03*
D40*
X382905Y171130D01*
D44*
X415072Y160898D02*
X431800Y144170D01*
X415072Y160898D02*
X412064Y160898D01*
X408305Y164657D01*
X408305Y171130D01*
D40*
X451866Y163170D02*
X471170Y163170D01*
X451866Y163170D02*
X451612Y163424D01*
D44*
X459332Y178142D02*
X459332Y190018D01*
X456238Y193112D01*
X451862Y193112D01*
X443560Y184810D01*
X431800Y184810D01*
X451612Y170422D02*
X459332Y178142D01*
X451612Y170422D02*
X451612Y163424D01*
X422615Y163170D02*
X414655Y171130D01*
X422615Y163170D02*
X431800Y163170D01*
X431800Y184810D01*
D40*
X473050Y184080D02*
X473050Y179517D01*
X481845Y170722D01*
X481845Y154845D01*
X471170Y144170D01*
X451866Y144170D01*
X451612Y144424D01*
D42*
X447040Y133350D03*
D40*
X451612Y137922D02*
X451612Y144424D01*
X451612Y137922D02*
X447040Y133350D01*
X452120Y128270D02*
X452120Y122530D01*
X452120Y128270D02*
X447040Y133350D01*
X452120Y122530D02*
X462915Y111735D01*
X462915Y88011D01*
X454660Y79756D01*
D44*
X454050Y182736D02*
X454050Y184080D01*
X441445Y132175D02*
X431800Y122530D01*
X441445Y170131D02*
X454050Y182736D01*
X441445Y170131D02*
X441445Y132175D01*
X431800Y122530D02*
X450800Y103530D01*
X452120Y103530D01*
X431800Y103530D02*
X429555Y103530D01*
X414655Y118430D01*
D42*
X381000Y106045D03*
D44*
X382905Y107950D02*
X382905Y118430D01*
X382905Y107950D02*
X381000Y106045D01*
D42*
X391795Y106045D03*
D44*
X401955Y109540D02*
X401955Y118430D01*
X401955Y109540D02*
X398435Y106020D01*
X391770Y106020D02*
X391770Y94615D01*
X391770Y106020D02*
X391795Y106045D01*
X391770Y106020D02*
X398435Y106020D01*
X354330Y58105D02*
X347980Y58105D01*
X347980Y45085D01*
D42*
X347980Y45085D03*
X341630Y72390D03*
D40*
X341630Y58105D01*
D42*
X255905Y126365D03*
D40*
X241325Y126365D01*
X240665Y125705D01*
D44*
X292735Y85065D02*
X309463Y68337D01*
X312471Y68337D01*
X316230Y64578D01*
X316230Y58105D01*
D40*
X272669Y66065D02*
X253365Y66065D01*
X272669Y66065D02*
X272923Y65811D01*
D44*
X301920Y66065D02*
X309880Y58105D01*
X301920Y66065D02*
X292735Y66065D01*
X292735Y44425D01*
X292735Y66065D02*
X272669Y66065D01*
D42*
X343535Y127000D03*
D44*
X341630Y125095D02*
X341630Y110805D01*
X341630Y125095D02*
X343535Y127000D01*
D42*
X336550Y127000D03*
D44*
X333985Y129565D01*
X322580Y129565D01*
X322580Y110805D01*
D40*
X253535Y106705D02*
X240665Y106705D01*
X253535Y106705D02*
X259225Y112395D01*
X253535Y106705D02*
X254635Y105605D01*
X254635Y100965D01*
D42*
X254635Y100965D03*
M02*
