G04 EAGLE Gerber RS-274X export*
G75*
%MOMM*%
%FSLAX34Y34*%
%LPD*%
%INCopper Layer 15*%
%IPPOS*%
%AMOC8*
5,1,8,0,0,1.08239X$1,22.5*%
G01*
%ADD10C,0.754000*%
%ADD11C,0.604000*%
%ADD12C,0.654000*%
%ADD13C,0.452400*%
%ADD14C,0.900000*%
%ADD15C,0.525000*%
%ADD16C,0.533400*%
%ADD17C,0.152400*%
%ADD18C,0.675000*%
%ADD19C,0.600000*%

G36*
X109221Y2041D02*
X109221Y2041D01*
X109240Y2039D01*
X109342Y2061D01*
X109444Y2077D01*
X109461Y2087D01*
X109481Y2091D01*
X109570Y2144D01*
X109661Y2193D01*
X109675Y2207D01*
X109692Y2217D01*
X109759Y2296D01*
X109831Y2371D01*
X109839Y2389D01*
X109852Y2404D01*
X109891Y2500D01*
X109934Y2594D01*
X109936Y2614D01*
X109944Y2632D01*
X109962Y2799D01*
X109962Y2991D01*
X112252Y8518D01*
X116482Y12748D01*
X122009Y15038D01*
X188991Y15038D01*
X194518Y12748D01*
X198748Y8518D01*
X201038Y2991D01*
X201038Y2799D01*
X201041Y2779D01*
X201039Y2760D01*
X201061Y2658D01*
X201077Y2556D01*
X201087Y2539D01*
X201091Y2519D01*
X201144Y2430D01*
X201193Y2339D01*
X201207Y2325D01*
X201217Y2308D01*
X201296Y2241D01*
X201371Y2169D01*
X201389Y2161D01*
X201404Y2148D01*
X201500Y2109D01*
X201594Y2066D01*
X201614Y2064D01*
X201632Y2056D01*
X201799Y2038D01*
X1060201Y2038D01*
X1060221Y2041D01*
X1060240Y2039D01*
X1060342Y2061D01*
X1060444Y2077D01*
X1060461Y2087D01*
X1060481Y2091D01*
X1060570Y2144D01*
X1060661Y2193D01*
X1060675Y2207D01*
X1060692Y2217D01*
X1060759Y2296D01*
X1060831Y2371D01*
X1060839Y2389D01*
X1060852Y2404D01*
X1060891Y2500D01*
X1060934Y2594D01*
X1060936Y2614D01*
X1060944Y2632D01*
X1060962Y2799D01*
X1060962Y33493D01*
X1064456Y39544D01*
X1070507Y43038D01*
X1416493Y43038D01*
X1422544Y39544D01*
X1426038Y33493D01*
X1426038Y2799D01*
X1426041Y2779D01*
X1426039Y2760D01*
X1426061Y2658D01*
X1426077Y2556D01*
X1426087Y2539D01*
X1426091Y2519D01*
X1426144Y2430D01*
X1426193Y2339D01*
X1426207Y2325D01*
X1426217Y2308D01*
X1426296Y2241D01*
X1426371Y2169D01*
X1426389Y2161D01*
X1426404Y2148D01*
X1426500Y2109D01*
X1426594Y2066D01*
X1426614Y2064D01*
X1426632Y2056D01*
X1426799Y2038D01*
X1477201Y2038D01*
X1477221Y2041D01*
X1477240Y2039D01*
X1477342Y2061D01*
X1477444Y2077D01*
X1477461Y2087D01*
X1477481Y2091D01*
X1477570Y2144D01*
X1477661Y2193D01*
X1477675Y2207D01*
X1477692Y2217D01*
X1477759Y2296D01*
X1477831Y2371D01*
X1477839Y2389D01*
X1477852Y2404D01*
X1477891Y2500D01*
X1477934Y2594D01*
X1477936Y2614D01*
X1477944Y2632D01*
X1477962Y2799D01*
X1477962Y2991D01*
X1480252Y8518D01*
X1484482Y12748D01*
X1490009Y15038D01*
X1558201Y15038D01*
X1558221Y15041D01*
X1558240Y15039D01*
X1558342Y15061D01*
X1558444Y15077D01*
X1558461Y15087D01*
X1558481Y15091D01*
X1558570Y15144D01*
X1558661Y15193D01*
X1558675Y15207D01*
X1558692Y15217D01*
X1558759Y15296D01*
X1558831Y15371D01*
X1558839Y15389D01*
X1558852Y15404D01*
X1558891Y15500D01*
X1558934Y15594D01*
X1558936Y15614D01*
X1558944Y15632D01*
X1558962Y15799D01*
X1558962Y29201D01*
X1558959Y29221D01*
X1558961Y29240D01*
X1558939Y29342D01*
X1558923Y29444D01*
X1558913Y29461D01*
X1558909Y29481D01*
X1558856Y29570D01*
X1558807Y29661D01*
X1558793Y29675D01*
X1558783Y29692D01*
X1558704Y29759D01*
X1558629Y29831D01*
X1558611Y29839D01*
X1558596Y29852D01*
X1558500Y29891D01*
X1558406Y29934D01*
X1558386Y29936D01*
X1558368Y29944D01*
X1558201Y29962D01*
X1553606Y29962D01*
X1549181Y31795D01*
X1545795Y35181D01*
X1543962Y39606D01*
X1543962Y59394D01*
X1545795Y63819D01*
X1549181Y67205D01*
X1553606Y69038D01*
X1562201Y69038D01*
X1562221Y69041D01*
X1562241Y69039D01*
X1562342Y69061D01*
X1562444Y69077D01*
X1562461Y69087D01*
X1562481Y69091D01*
X1562570Y69144D01*
X1562661Y69193D01*
X1562675Y69207D01*
X1562692Y69217D01*
X1562759Y69296D01*
X1562831Y69371D01*
X1562839Y69389D01*
X1562852Y69404D01*
X1562891Y69500D01*
X1562934Y69594D01*
X1562936Y69614D01*
X1562944Y69632D01*
X1562962Y69799D01*
X1562962Y73338D01*
X1566196Y85596D01*
X1572448Y96623D01*
X1581307Y105690D01*
X1592185Y112199D01*
X1593720Y112642D01*
X1593799Y112680D01*
X1593882Y112710D01*
X1593910Y112732D01*
X1593942Y112747D01*
X1594005Y112809D01*
X1594074Y112864D01*
X1594093Y112893D01*
X1594119Y112918D01*
X1594160Y112996D01*
X1594207Y113070D01*
X1594216Y113105D01*
X1594232Y113137D01*
X1594246Y113224D01*
X1594267Y113309D01*
X1594264Y113344D01*
X1594270Y113380D01*
X1594255Y113467D01*
X1594248Y113554D01*
X1594234Y113587D01*
X1594228Y113622D01*
X1594186Y113700D01*
X1594152Y113781D01*
X1594123Y113816D01*
X1594111Y113839D01*
X1594088Y113860D01*
X1594047Y113911D01*
X1579299Y128659D01*
X1579197Y128761D01*
X1577659Y130299D01*
X1576577Y131381D01*
X1575185Y136577D01*
X1576577Y141773D01*
X1580381Y145577D01*
X1585577Y146969D01*
X1590821Y145564D01*
X1590895Y145510D01*
X1590914Y145505D01*
X1590931Y145494D01*
X1591031Y145468D01*
X1591130Y145438D01*
X1591150Y145439D01*
X1591170Y145434D01*
X1591273Y145442D01*
X1591376Y145444D01*
X1591395Y145451D01*
X1591415Y145453D01*
X1591510Y145493D01*
X1591607Y145529D01*
X1591623Y145541D01*
X1591641Y145549D01*
X1591772Y145654D01*
X1610781Y164663D01*
X1610823Y164721D01*
X1610872Y164773D01*
X1610894Y164820D01*
X1610924Y164862D01*
X1610946Y164931D01*
X1610976Y164996D01*
X1610982Y165048D01*
X1610997Y165098D01*
X1610995Y165169D01*
X1611003Y165240D01*
X1610992Y165291D01*
X1610990Y165343D01*
X1610966Y165411D01*
X1610951Y165481D01*
X1610924Y165526D01*
X1610906Y165574D01*
X1610861Y165630D01*
X1610824Y165692D01*
X1610785Y165726D01*
X1610752Y165766D01*
X1610692Y165805D01*
X1610638Y165852D01*
X1610589Y165871D01*
X1610545Y165899D01*
X1610476Y165917D01*
X1610409Y165944D01*
X1610338Y165952D01*
X1610307Y165960D01*
X1610284Y165958D01*
X1610243Y165962D01*
X1355799Y165962D01*
X1355779Y165959D01*
X1355760Y165961D01*
X1355658Y165939D01*
X1355556Y165923D01*
X1355539Y165913D01*
X1355519Y165909D01*
X1355430Y165856D01*
X1355339Y165807D01*
X1355325Y165793D01*
X1355308Y165783D01*
X1355241Y165704D01*
X1355169Y165629D01*
X1355161Y165611D01*
X1355148Y165596D01*
X1355109Y165500D01*
X1355066Y165406D01*
X1355064Y165386D01*
X1355056Y165368D01*
X1355038Y165201D01*
X1355038Y163208D01*
X1352901Y158048D01*
X1348952Y154099D01*
X1343792Y151962D01*
X1251208Y151962D01*
X1246048Y154099D01*
X1242099Y158048D01*
X1239962Y163208D01*
X1239962Y175792D01*
X1242099Y180952D01*
X1246048Y184901D01*
X1251208Y187038D01*
X1259201Y187038D01*
X1259221Y187041D01*
X1259240Y187039D01*
X1259342Y187061D01*
X1259444Y187077D01*
X1259461Y187087D01*
X1259481Y187091D01*
X1259570Y187144D01*
X1259661Y187193D01*
X1259675Y187207D01*
X1259692Y187217D01*
X1259759Y187296D01*
X1259831Y187371D01*
X1259839Y187389D01*
X1259852Y187404D01*
X1259891Y187500D01*
X1259934Y187594D01*
X1259936Y187614D01*
X1259944Y187632D01*
X1259962Y187799D01*
X1259962Y221756D01*
X1259957Y221788D01*
X1259960Y221820D01*
X1259937Y221909D01*
X1259923Y221999D01*
X1259907Y222027D01*
X1259900Y222059D01*
X1259850Y222136D01*
X1259807Y222216D01*
X1259784Y222238D01*
X1259767Y222265D01*
X1259695Y222323D01*
X1259629Y222386D01*
X1259600Y222399D01*
X1259575Y222419D01*
X1259420Y222485D01*
X1254453Y223981D01*
X1250652Y228023D01*
X1250199Y229948D01*
X1250198Y229951D01*
X1250197Y229955D01*
X1250150Y230066D01*
X1250105Y230175D01*
X1250102Y230178D01*
X1250101Y230181D01*
X1249996Y230312D01*
X1249962Y230346D01*
X1249962Y230865D01*
X1249962Y230869D01*
X1249962Y230873D01*
X1249942Y231040D01*
X1249823Y231545D01*
X1249848Y231586D01*
X1249850Y231589D01*
X1249852Y231591D01*
X1249897Y231704D01*
X1249942Y231813D01*
X1249942Y231816D01*
X1249944Y231819D01*
X1249962Y231986D01*
X1249962Y267711D01*
X1249959Y267731D01*
X1249961Y267750D01*
X1249939Y267852D01*
X1249923Y267954D01*
X1249913Y267971D01*
X1249909Y267991D01*
X1249856Y268080D01*
X1249807Y268171D01*
X1249793Y268185D01*
X1249783Y268202D01*
X1249704Y268269D01*
X1249629Y268341D01*
X1249611Y268349D01*
X1249596Y268362D01*
X1249500Y268401D01*
X1249406Y268444D01*
X1249386Y268446D01*
X1249368Y268454D01*
X1249201Y268472D01*
X873746Y268472D01*
X869321Y270305D01*
X865935Y273691D01*
X864102Y278116D01*
X864102Y625201D01*
X864099Y625221D01*
X864101Y625240D01*
X864079Y625342D01*
X864063Y625444D01*
X864053Y625461D01*
X864049Y625481D01*
X863996Y625570D01*
X863947Y625661D01*
X863933Y625675D01*
X863923Y625692D01*
X863844Y625759D01*
X863769Y625831D01*
X863751Y625839D01*
X863736Y625852D01*
X863640Y625891D01*
X863546Y625934D01*
X863526Y625936D01*
X863508Y625944D01*
X863341Y625962D01*
X523796Y625962D01*
X518023Y628743D01*
X514027Y633753D01*
X512601Y640000D01*
X514027Y646247D01*
X518022Y651257D01*
X523796Y654038D01*
X524201Y654038D01*
X524221Y654041D01*
X524240Y654039D01*
X524342Y654061D01*
X524444Y654077D01*
X524461Y654087D01*
X524481Y654091D01*
X524570Y654144D01*
X524661Y654193D01*
X524675Y654207D01*
X524692Y654217D01*
X524759Y654296D01*
X524831Y654371D01*
X524839Y654389D01*
X524852Y654404D01*
X524891Y654500D01*
X524934Y654594D01*
X524936Y654614D01*
X524944Y654632D01*
X524962Y654799D01*
X524962Y676201D01*
X524959Y676221D01*
X524961Y676240D01*
X524939Y676342D01*
X524923Y676444D01*
X524913Y676461D01*
X524909Y676481D01*
X524856Y676570D01*
X524807Y676661D01*
X524793Y676675D01*
X524783Y676692D01*
X524704Y676759D01*
X524629Y676831D01*
X524611Y676839D01*
X524596Y676852D01*
X524500Y676891D01*
X524406Y676934D01*
X524386Y676936D01*
X524368Y676944D01*
X524201Y676962D01*
X393799Y676962D01*
X393779Y676959D01*
X393760Y676961D01*
X393658Y676939D01*
X393556Y676923D01*
X393539Y676913D01*
X393519Y676909D01*
X393430Y676856D01*
X393339Y676807D01*
X393325Y676793D01*
X393308Y676783D01*
X393241Y676704D01*
X393169Y676629D01*
X393161Y676611D01*
X393148Y676596D01*
X393109Y676500D01*
X393066Y676406D01*
X393064Y676386D01*
X393056Y676368D01*
X393038Y676201D01*
X393038Y675796D01*
X390257Y670023D01*
X385247Y666027D01*
X379000Y664601D01*
X376955Y665068D01*
X373620Y665829D01*
X372753Y666027D01*
X367743Y670022D01*
X364962Y675796D01*
X364962Y812201D01*
X364959Y812221D01*
X364961Y812240D01*
X364939Y812342D01*
X364923Y812444D01*
X364913Y812461D01*
X364909Y812481D01*
X364856Y812570D01*
X364807Y812661D01*
X364793Y812675D01*
X364783Y812692D01*
X364704Y812759D01*
X364629Y812831D01*
X364611Y812839D01*
X364596Y812852D01*
X364500Y812891D01*
X364406Y812934D01*
X364386Y812936D01*
X364368Y812944D01*
X364201Y812962D01*
X314799Y812962D01*
X314779Y812959D01*
X314760Y812961D01*
X314658Y812939D01*
X314556Y812923D01*
X314539Y812913D01*
X314519Y812909D01*
X314430Y812856D01*
X314339Y812807D01*
X314325Y812793D01*
X314308Y812783D01*
X314241Y812704D01*
X314169Y812629D01*
X314161Y812611D01*
X314148Y812596D01*
X314109Y812500D01*
X314066Y812406D01*
X314064Y812386D01*
X314056Y812368D01*
X314038Y812201D01*
X314038Y797907D01*
X312053Y793115D01*
X308385Y789447D01*
X303593Y787462D01*
X289799Y787462D01*
X289779Y787459D01*
X289760Y787461D01*
X289658Y787439D01*
X289556Y787423D01*
X289539Y787413D01*
X289519Y787409D01*
X289430Y787356D01*
X289339Y787307D01*
X289325Y787293D01*
X289308Y787283D01*
X289241Y787204D01*
X289169Y787129D01*
X289161Y787111D01*
X289148Y787096D01*
X289109Y787000D01*
X289066Y786906D01*
X289064Y786886D01*
X289056Y786868D01*
X289038Y786701D01*
X289038Y758799D01*
X289041Y758779D01*
X289039Y758760D01*
X289061Y758658D01*
X289077Y758556D01*
X289087Y758539D01*
X289091Y758519D01*
X289144Y758430D01*
X289193Y758339D01*
X289207Y758325D01*
X289217Y758308D01*
X289296Y758241D01*
X289371Y758169D01*
X289389Y758161D01*
X289404Y758148D01*
X289500Y758109D01*
X289594Y758066D01*
X289614Y758064D01*
X289632Y758056D01*
X289799Y758038D01*
X290204Y758038D01*
X295977Y755257D01*
X299973Y750247D01*
X301399Y744000D01*
X299973Y737753D01*
X295978Y732743D01*
X290204Y729962D01*
X96796Y729962D01*
X91023Y732743D01*
X87027Y737753D01*
X85601Y744000D01*
X87027Y750247D01*
X91022Y755257D01*
X96796Y758038D01*
X97201Y758038D01*
X97221Y758041D01*
X97240Y758039D01*
X97342Y758061D01*
X97444Y758077D01*
X97461Y758087D01*
X97481Y758091D01*
X97570Y758144D01*
X97661Y758193D01*
X97675Y758207D01*
X97692Y758217D01*
X97759Y758296D01*
X97831Y758371D01*
X97839Y758389D01*
X97852Y758404D01*
X97891Y758500D01*
X97934Y758594D01*
X97936Y758614D01*
X97944Y758632D01*
X97962Y758799D01*
X97962Y786701D01*
X97959Y786721D01*
X97961Y786740D01*
X97939Y786842D01*
X97923Y786944D01*
X97913Y786961D01*
X97909Y786981D01*
X97856Y787070D01*
X97807Y787161D01*
X97793Y787175D01*
X97783Y787192D01*
X97704Y787259D01*
X97629Y787331D01*
X97611Y787339D01*
X97596Y787352D01*
X97500Y787391D01*
X97406Y787434D01*
X97386Y787436D01*
X97368Y787444D01*
X97201Y787462D01*
X78881Y787462D01*
X78856Y787458D01*
X78832Y787461D01*
X78736Y787438D01*
X78638Y787423D01*
X78616Y787411D01*
X78592Y787405D01*
X78445Y787325D01*
X37824Y758943D01*
X37802Y758921D01*
X37722Y758857D01*
X37297Y758432D01*
X37287Y758433D01*
X37191Y758410D01*
X37093Y758395D01*
X37071Y758383D01*
X37047Y758377D01*
X36937Y758317D01*
X36819Y758338D01*
X36727Y758339D01*
X36637Y758348D01*
X36605Y758341D01*
X36573Y758341D01*
X36486Y758313D01*
X36397Y758293D01*
X36361Y758273D01*
X36339Y758266D01*
X36313Y758247D01*
X36250Y758212D01*
X32712Y755740D01*
X32650Y755680D01*
X32583Y755626D01*
X32562Y755595D01*
X32536Y755569D01*
X32496Y755492D01*
X32450Y755419D01*
X32441Y755383D01*
X32424Y755350D01*
X32411Y755264D01*
X32390Y755181D01*
X32392Y755144D01*
X32387Y755107D01*
X32402Y755022D01*
X32409Y754935D01*
X32423Y754901D01*
X32430Y754865D01*
X32471Y754789D01*
X32505Y754709D01*
X32535Y754672D01*
X32547Y754649D01*
X32570Y754628D01*
X32610Y754578D01*
X32795Y754393D01*
X32795Y750007D01*
X29693Y746905D01*
X25307Y746905D01*
X23603Y748609D01*
X23541Y748654D01*
X23485Y748706D01*
X23468Y748713D01*
X23468Y748714D01*
X23465Y748715D01*
X23442Y748725D01*
X23403Y748753D01*
X23330Y748775D01*
X23260Y748807D01*
X23213Y748811D01*
X23168Y748825D01*
X23092Y748823D01*
X23016Y748831D01*
X22970Y748820D01*
X22922Y748819D01*
X22850Y748792D01*
X22826Y748787D01*
X22810Y748784D01*
X22807Y748782D01*
X22776Y748775D01*
X22720Y748745D01*
X22691Y748734D01*
X22671Y748718D01*
X22629Y748695D01*
X16303Y744275D01*
X16278Y744251D01*
X16248Y744233D01*
X16190Y744165D01*
X16127Y744103D01*
X16111Y744073D01*
X16088Y744046D01*
X16061Y743980D01*
X16004Y743922D01*
X15989Y743902D01*
X15970Y743886D01*
X15918Y743802D01*
X15860Y743722D01*
X15853Y743699D01*
X15840Y743678D01*
X15804Y743557D01*
X15309Y743211D01*
X15287Y743189D01*
X15207Y743125D01*
X14781Y742700D01*
X14772Y742701D01*
X14676Y742678D01*
X14578Y742663D01*
X14556Y742651D01*
X14532Y742645D01*
X14385Y742565D01*
X2363Y734165D01*
X2338Y734141D01*
X2308Y734123D01*
X2250Y734055D01*
X2187Y733994D01*
X2171Y733963D01*
X2148Y733936D01*
X2115Y733854D01*
X2074Y733775D01*
X2069Y733740D01*
X2056Y733708D01*
X2038Y733541D01*
X2038Y633799D01*
X2041Y633779D01*
X2039Y633760D01*
X2061Y633658D01*
X2077Y633556D01*
X2087Y633539D01*
X2091Y633519D01*
X2144Y633430D01*
X2193Y633339D01*
X2207Y633325D01*
X2217Y633308D01*
X2296Y633241D01*
X2371Y633169D01*
X2389Y633161D01*
X2404Y633148D01*
X2500Y633109D01*
X2594Y633066D01*
X2614Y633064D01*
X2632Y633056D01*
X2799Y633038D01*
X12549Y633038D01*
X12596Y633045D01*
X12644Y633044D01*
X12717Y633065D01*
X12792Y633077D01*
X12834Y633100D01*
X12880Y633114D01*
X12896Y633123D01*
X13598Y633043D01*
X13628Y633044D01*
X13685Y633038D01*
X14403Y633038D01*
X14414Y633032D01*
X14475Y632987D01*
X14521Y632973D01*
X14564Y632950D01*
X14631Y632935D01*
X14668Y632901D01*
X14679Y632897D01*
X14687Y632889D01*
X14792Y632847D01*
X14893Y632803D01*
X14905Y632802D01*
X14916Y632797D01*
X15082Y632779D01*
X21444Y632779D01*
X21464Y632782D01*
X21483Y632780D01*
X21585Y632802D01*
X21687Y632819D01*
X21704Y632828D01*
X21724Y632832D01*
X21813Y632885D01*
X21904Y632934D01*
X21918Y632948D01*
X21935Y632958D01*
X22002Y633037D01*
X22074Y633112D01*
X22082Y633130D01*
X22095Y633145D01*
X22134Y633241D01*
X22177Y633335D01*
X22179Y633355D01*
X22187Y633373D01*
X22205Y633540D01*
X22205Y634993D01*
X25307Y638095D01*
X29693Y638095D01*
X32795Y634993D01*
X32795Y633540D01*
X32798Y633520D01*
X32796Y633501D01*
X32818Y633399D01*
X32834Y633297D01*
X32844Y633280D01*
X32848Y633260D01*
X32901Y633171D01*
X32950Y633080D01*
X32964Y633066D01*
X32974Y633049D01*
X33053Y632982D01*
X33128Y632911D01*
X33146Y632902D01*
X33161Y632889D01*
X33257Y632850D01*
X33351Y632807D01*
X33371Y632805D01*
X33389Y632797D01*
X33556Y632779D01*
X40163Y632779D01*
X40174Y632781D01*
X40186Y632779D01*
X40295Y632800D01*
X40405Y632819D01*
X40416Y632824D01*
X40427Y632826D01*
X40524Y632881D01*
X40623Y632934D01*
X40624Y632935D01*
X40682Y632959D01*
X40754Y632980D01*
X40794Y633007D01*
X40838Y633026D01*
X40853Y633038D01*
X41560Y633038D01*
X41589Y633042D01*
X41647Y633043D01*
X42359Y633125D01*
X42371Y633120D01*
X42437Y633083D01*
X42485Y633074D01*
X42529Y633056D01*
X42657Y633042D01*
X42679Y633038D01*
X42686Y633039D01*
X42696Y633038D01*
X51593Y633038D01*
X56385Y631053D01*
X60053Y627385D01*
X62038Y622593D01*
X62038Y411049D01*
X62041Y411029D01*
X62039Y411010D01*
X62061Y410908D01*
X62077Y410806D01*
X62087Y410789D01*
X62091Y410769D01*
X62144Y410680D01*
X62193Y410589D01*
X62207Y410575D01*
X62217Y410558D01*
X62296Y410491D01*
X62371Y410419D01*
X62389Y410411D01*
X62404Y410398D01*
X62500Y410359D01*
X62594Y410316D01*
X62614Y410314D01*
X62632Y410306D01*
X62799Y410288D01*
X166204Y410288D01*
X171977Y407507D01*
X175973Y402497D01*
X177399Y396250D01*
X175973Y390003D01*
X171978Y384993D01*
X166204Y382212D01*
X62799Y382212D01*
X62779Y382209D01*
X62760Y382211D01*
X62658Y382189D01*
X62556Y382173D01*
X62539Y382163D01*
X62519Y382159D01*
X62430Y382106D01*
X62339Y382057D01*
X62325Y382043D01*
X62308Y382033D01*
X62241Y381954D01*
X62169Y381879D01*
X62161Y381861D01*
X62148Y381846D01*
X62109Y381750D01*
X62066Y381656D01*
X62064Y381636D01*
X62056Y381618D01*
X62038Y381451D01*
X62038Y300359D01*
X62040Y300346D01*
X62038Y300333D01*
X62060Y300225D01*
X62077Y300116D01*
X62084Y300104D01*
X62086Y300092D01*
X62141Y299996D01*
X62193Y299899D01*
X62202Y299890D01*
X62209Y299878D01*
X62328Y299761D01*
X65678Y297123D01*
X72050Y287860D01*
X75387Y277122D01*
X75387Y265878D01*
X72050Y255140D01*
X66855Y247588D01*
X65808Y246066D01*
X65678Y245877D01*
X62328Y243239D01*
X62319Y243230D01*
X62308Y243223D01*
X62236Y243139D01*
X62162Y243058D01*
X62157Y243046D01*
X62148Y243036D01*
X62107Y242934D01*
X62062Y242833D01*
X62061Y242820D01*
X62056Y242808D01*
X62038Y242641D01*
X62038Y2799D01*
X62041Y2779D01*
X62039Y2760D01*
X62061Y2658D01*
X62077Y2556D01*
X62087Y2539D01*
X62091Y2519D01*
X62144Y2430D01*
X62193Y2339D01*
X62207Y2325D01*
X62217Y2308D01*
X62296Y2241D01*
X62371Y2169D01*
X62389Y2161D01*
X62404Y2148D01*
X62500Y2109D01*
X62594Y2066D01*
X62614Y2064D01*
X62632Y2056D01*
X62799Y2038D01*
X109201Y2038D01*
X109221Y2041D01*
G37*
%LPC*%
G36*
X1202495Y204732D02*
X1202495Y204732D01*
X1197732Y209495D01*
X1195989Y216000D01*
X1197732Y222505D01*
X1202495Y227268D01*
X1209000Y229011D01*
X1215505Y227268D01*
X1220268Y222505D01*
X1222011Y216000D01*
X1220268Y209495D01*
X1215505Y204732D01*
X1209000Y202989D01*
X1202495Y204732D01*
G37*
%LPD*%
%LPC*%
G36*
X320345Y261822D02*
X320345Y261822D01*
X315582Y266585D01*
X313839Y273090D01*
X315582Y279595D01*
X320345Y284358D01*
X326850Y286101D01*
X333355Y284358D01*
X338118Y279595D01*
X339861Y273090D01*
X338118Y266585D01*
X333355Y261822D01*
X326850Y260079D01*
X320345Y261822D01*
G37*
%LPD*%
%LPC*%
G36*
X288995Y681232D02*
X288995Y681232D01*
X284232Y685995D01*
X282489Y692500D01*
X284232Y699005D01*
X288995Y703768D01*
X295500Y705511D01*
X302005Y703768D01*
X306768Y699005D01*
X308511Y692500D01*
X306768Y685995D01*
X302005Y681232D01*
X295500Y679489D01*
X288995Y681232D01*
G37*
%LPD*%
%LPC*%
G36*
X107143Y50569D02*
X107143Y50569D01*
X104925Y52787D01*
X104925Y55925D01*
X106202Y57202D01*
X106255Y57276D01*
X106315Y57345D01*
X106327Y57375D01*
X106346Y57401D01*
X106373Y57488D01*
X106407Y57573D01*
X106411Y57614D01*
X106418Y57636D01*
X106417Y57669D01*
X106425Y57740D01*
X106425Y57957D01*
X106414Y58028D01*
X106412Y58100D01*
X106394Y58149D01*
X106386Y58200D01*
X106352Y58263D01*
X106327Y58331D01*
X106295Y58371D01*
X106270Y58417D01*
X106218Y58467D01*
X106174Y58523D01*
X106130Y58551D01*
X106092Y58587D01*
X106027Y58617D01*
X105967Y58656D01*
X105916Y58668D01*
X105869Y58690D01*
X105798Y58698D01*
X105728Y58716D01*
X105676Y58712D01*
X105625Y58717D01*
X105554Y58702D01*
X105483Y58697D01*
X105435Y58676D01*
X105384Y58665D01*
X105323Y58628D01*
X105257Y58600D01*
X105201Y58555D01*
X105173Y58539D01*
X105158Y58521D01*
X105126Y58495D01*
X103169Y56538D01*
X100031Y56538D01*
X97813Y58756D01*
X97813Y61894D01*
X100031Y64112D01*
X103169Y64112D01*
X105126Y62155D01*
X105184Y62113D01*
X105236Y62063D01*
X105283Y62041D01*
X105325Y62011D01*
X105394Y61990D01*
X105459Y61960D01*
X105511Y61954D01*
X105561Y61939D01*
X105632Y61940D01*
X105703Y61933D01*
X105754Y61944D01*
X105806Y61945D01*
X105874Y61970D01*
X105944Y61985D01*
X105989Y62012D01*
X106037Y62029D01*
X106093Y62074D01*
X106155Y62111D01*
X106189Y62151D01*
X106229Y62183D01*
X106268Y62243D01*
X106315Y62298D01*
X106334Y62346D01*
X106362Y62390D01*
X106380Y62460D01*
X106407Y62526D01*
X106415Y62597D01*
X106423Y62629D01*
X106421Y62652D01*
X106425Y62693D01*
X106425Y63126D01*
X106411Y63217D01*
X106403Y63307D01*
X106391Y63337D01*
X106386Y63369D01*
X106343Y63450D01*
X106307Y63534D01*
X106281Y63566D01*
X106270Y63587D01*
X106247Y63609D01*
X106202Y63665D01*
X101233Y68634D01*
X101159Y68687D01*
X101089Y68747D01*
X101059Y68759D01*
X101033Y68778D01*
X100946Y68805D01*
X100861Y68839D01*
X100820Y68843D01*
X100798Y68850D01*
X100766Y68849D01*
X100694Y68857D01*
X98888Y68857D01*
X96670Y71075D01*
X96670Y74213D01*
X98888Y76431D01*
X102026Y76431D01*
X104244Y74213D01*
X104244Y72407D01*
X104258Y72316D01*
X104266Y72226D01*
X104278Y72196D01*
X104283Y72164D01*
X104326Y72083D01*
X104362Y71999D01*
X104388Y71967D01*
X104399Y71946D01*
X104422Y71924D01*
X104467Y71868D01*
X109436Y66899D01*
X109717Y66618D01*
X109733Y66607D01*
X109745Y66591D01*
X109832Y66535D01*
X109916Y66475D01*
X109935Y66469D01*
X109952Y66458D01*
X110052Y66433D01*
X110151Y66402D01*
X110171Y66403D01*
X110191Y66398D01*
X110294Y66406D01*
X110397Y66409D01*
X110416Y66416D01*
X110436Y66417D01*
X110531Y66458D01*
X110628Y66493D01*
X110644Y66506D01*
X110662Y66514D01*
X110793Y66618D01*
X112731Y68557D01*
X115869Y68557D01*
X118087Y66339D01*
X118087Y63201D01*
X115869Y60983D01*
X112731Y60983D01*
X112298Y61416D01*
X112240Y61458D01*
X112188Y61508D01*
X112141Y61530D01*
X112099Y61560D01*
X112030Y61581D01*
X111965Y61611D01*
X111913Y61617D01*
X111863Y61632D01*
X111792Y61631D01*
X111721Y61638D01*
X111670Y61627D01*
X111618Y61626D01*
X111550Y61601D01*
X111480Y61586D01*
X111435Y61559D01*
X111387Y61542D01*
X111331Y61497D01*
X111269Y61460D01*
X111235Y61420D01*
X111195Y61388D01*
X111156Y61328D01*
X111109Y61273D01*
X111090Y61225D01*
X111062Y61181D01*
X111044Y61111D01*
X111017Y61045D01*
X111009Y60974D01*
X111001Y60942D01*
X111003Y60919D01*
X110999Y60878D01*
X110999Y57740D01*
X111013Y57650D01*
X111021Y57559D01*
X111033Y57529D01*
X111038Y57497D01*
X111081Y57416D01*
X111117Y57333D01*
X111143Y57300D01*
X111154Y57280D01*
X111177Y57258D01*
X111222Y57202D01*
X112499Y55925D01*
X112499Y52787D01*
X110281Y50569D01*
X107143Y50569D01*
G37*
%LPD*%
%LPC*%
G36*
X558501Y379626D02*
X558501Y379626D01*
X556283Y381844D01*
X556283Y383564D01*
X556280Y383584D01*
X556282Y383603D01*
X556260Y383705D01*
X556244Y383807D01*
X556234Y383824D01*
X556230Y383844D01*
X556177Y383933D01*
X556128Y384024D01*
X556114Y384038D01*
X556104Y384055D01*
X556025Y384122D01*
X555950Y384194D01*
X555932Y384202D01*
X555917Y384215D01*
X555821Y384254D01*
X555727Y384297D01*
X555707Y384299D01*
X555689Y384307D01*
X555522Y384325D01*
X554458Y384325D01*
X554438Y384322D01*
X554419Y384324D01*
X554317Y384302D01*
X554215Y384286D01*
X554198Y384276D01*
X554178Y384272D01*
X554089Y384219D01*
X553998Y384170D01*
X553984Y384156D01*
X553967Y384146D01*
X553900Y384067D01*
X553828Y383992D01*
X553820Y383974D01*
X553807Y383959D01*
X553768Y383863D01*
X553725Y383769D01*
X553723Y383749D01*
X553715Y383731D01*
X553697Y383564D01*
X553697Y381971D01*
X551479Y379753D01*
X548341Y379753D01*
X546123Y381971D01*
X546123Y385109D01*
X548341Y387327D01*
X550188Y387327D01*
X550208Y387330D01*
X550227Y387328D01*
X550329Y387350D01*
X550431Y387366D01*
X550448Y387376D01*
X550468Y387380D01*
X550557Y387433D01*
X550648Y387482D01*
X550662Y387496D01*
X550679Y387506D01*
X550746Y387585D01*
X550818Y387660D01*
X550826Y387678D01*
X550839Y387693D01*
X550878Y387789D01*
X550921Y387883D01*
X550923Y387903D01*
X550931Y387921D01*
X550949Y388088D01*
X550949Y389681D01*
X553167Y391899D01*
X554252Y391899D01*
X554272Y391902D01*
X554291Y391900D01*
X554393Y391922D01*
X554495Y391938D01*
X554512Y391948D01*
X554532Y391952D01*
X554621Y392005D01*
X554712Y392054D01*
X554726Y392068D01*
X554743Y392078D01*
X554810Y392157D01*
X554882Y392232D01*
X554890Y392250D01*
X554903Y392265D01*
X554942Y392361D01*
X554985Y392455D01*
X554987Y392475D01*
X554995Y392493D01*
X555013Y392660D01*
X555013Y394761D01*
X557231Y396979D01*
X558062Y396979D01*
X558082Y396982D01*
X558101Y396980D01*
X558203Y397002D01*
X558305Y397018D01*
X558322Y397028D01*
X558342Y397032D01*
X558431Y397085D01*
X558522Y397134D01*
X558536Y397148D01*
X558553Y397158D01*
X558620Y397237D01*
X558692Y397312D01*
X558700Y397330D01*
X558713Y397345D01*
X558752Y397441D01*
X558795Y397535D01*
X558797Y397555D01*
X558805Y397573D01*
X558823Y397740D01*
X558823Y399587D01*
X561041Y401805D01*
X564179Y401805D01*
X566397Y399587D01*
X566397Y396449D01*
X564179Y394231D01*
X563348Y394231D01*
X563328Y394228D01*
X563309Y394230D01*
X563207Y394208D01*
X563105Y394192D01*
X563088Y394182D01*
X563068Y394178D01*
X562979Y394125D01*
X562888Y394076D01*
X562874Y394062D01*
X562857Y394052D01*
X562790Y393973D01*
X562718Y393898D01*
X562710Y393880D01*
X562697Y393865D01*
X562658Y393769D01*
X562615Y393675D01*
X562613Y393655D01*
X562605Y393637D01*
X562587Y393470D01*
X562587Y391623D01*
X560369Y389405D01*
X559284Y389405D01*
X559264Y389402D01*
X559245Y389404D01*
X559143Y389382D01*
X559041Y389366D01*
X559024Y389356D01*
X559004Y389352D01*
X558915Y389299D01*
X558824Y389250D01*
X558810Y389236D01*
X558793Y389226D01*
X558726Y389147D01*
X558654Y389072D01*
X558646Y389054D01*
X558633Y389039D01*
X558594Y388943D01*
X558551Y388849D01*
X558549Y388829D01*
X558541Y388811D01*
X558523Y388644D01*
X558523Y387961D01*
X558524Y387954D01*
X558524Y387952D01*
X558526Y387944D01*
X558526Y387941D01*
X558524Y387922D01*
X558546Y387820D01*
X558562Y387718D01*
X558572Y387701D01*
X558576Y387681D01*
X558629Y387592D01*
X558678Y387501D01*
X558692Y387487D01*
X558702Y387470D01*
X558781Y387403D01*
X558856Y387331D01*
X558874Y387323D01*
X558889Y387310D01*
X558985Y387271D01*
X559079Y387228D01*
X559099Y387226D01*
X559117Y387218D01*
X559284Y387200D01*
X561639Y387200D01*
X563857Y384982D01*
X563857Y381844D01*
X561639Y379626D01*
X558501Y379626D01*
G37*
%LPD*%
%LPC*%
G36*
X188804Y344701D02*
X188804Y344701D01*
X186586Y346919D01*
X186586Y350208D01*
X186575Y350279D01*
X186573Y350351D01*
X186555Y350400D01*
X186547Y350451D01*
X186513Y350514D01*
X186488Y350582D01*
X186456Y350622D01*
X186431Y350668D01*
X186380Y350718D01*
X186335Y350774D01*
X186291Y350802D01*
X186253Y350838D01*
X186188Y350868D01*
X186128Y350907D01*
X186077Y350919D01*
X186030Y350941D01*
X185959Y350949D01*
X185889Y350967D01*
X185837Y350963D01*
X185786Y350968D01*
X185715Y350953D01*
X185644Y350948D01*
X185596Y350927D01*
X185545Y350916D01*
X185484Y350879D01*
X185418Y350851D01*
X185362Y350807D01*
X185334Y350790D01*
X185319Y350772D01*
X185287Y350746D01*
X185084Y350543D01*
X181946Y350543D01*
X179728Y352761D01*
X179728Y355899D01*
X181946Y358117D01*
X185084Y358117D01*
X186152Y357049D01*
X186168Y357037D01*
X186180Y357021D01*
X186268Y356965D01*
X186351Y356905D01*
X186370Y356899D01*
X186387Y356888D01*
X186488Y356863D01*
X186587Y356833D01*
X186606Y356833D01*
X186626Y356828D01*
X186729Y356836D01*
X186832Y356839D01*
X186851Y356846D01*
X186871Y356847D01*
X186966Y356888D01*
X187063Y356923D01*
X187079Y356936D01*
X187097Y356944D01*
X187228Y357049D01*
X188931Y358752D01*
X192069Y358752D01*
X194287Y356534D01*
X194287Y353396D01*
X193092Y352201D01*
X193080Y352185D01*
X193064Y352173D01*
X193008Y352085D01*
X192948Y352002D01*
X192942Y351983D01*
X192931Y351966D01*
X192906Y351865D01*
X192876Y351766D01*
X192876Y351747D01*
X192871Y351727D01*
X192879Y351624D01*
X192882Y351521D01*
X192889Y351502D01*
X192890Y351482D01*
X192931Y351387D01*
X192966Y351290D01*
X192979Y351274D01*
X192987Y351256D01*
X193092Y351125D01*
X194160Y350057D01*
X194160Y346919D01*
X191942Y344701D01*
X188804Y344701D01*
G37*
%LPD*%
%LPC*%
G36*
X655275Y390929D02*
X655275Y390929D01*
X653057Y393147D01*
X653057Y396137D01*
X653054Y396157D01*
X653056Y396176D01*
X653034Y396278D01*
X653018Y396380D01*
X653008Y396397D01*
X653004Y396417D01*
X652951Y396506D01*
X652902Y396597D01*
X652888Y396611D01*
X652878Y396628D01*
X652799Y396695D01*
X652724Y396767D01*
X652706Y396775D01*
X652691Y396788D01*
X652595Y396827D01*
X652501Y396870D01*
X652481Y396872D01*
X652463Y396880D01*
X652296Y396898D01*
X651846Y396898D01*
X651096Y397649D01*
X651080Y397661D01*
X651067Y397676D01*
X650980Y397732D01*
X650896Y397792D01*
X650877Y397798D01*
X650860Y397809D01*
X650760Y397834D01*
X650661Y397865D01*
X650641Y397864D01*
X650622Y397869D01*
X650519Y397861D01*
X650415Y397858D01*
X650396Y397852D01*
X650377Y397850D01*
X650282Y397810D01*
X650184Y397774D01*
X650168Y397762D01*
X650150Y397754D01*
X650019Y397649D01*
X648634Y396263D01*
X645496Y396263D01*
X643278Y398481D01*
X643278Y401619D01*
X645496Y403837D01*
X648634Y403837D01*
X649384Y403086D01*
X649400Y403074D01*
X649413Y403059D01*
X649500Y403003D01*
X649584Y402943D01*
X649603Y402937D01*
X649620Y402926D01*
X649720Y402901D01*
X649819Y402870D01*
X649839Y402871D01*
X649858Y402866D01*
X649961Y402874D01*
X650065Y402877D01*
X650084Y402883D01*
X650104Y402885D01*
X650198Y402925D01*
X650296Y402961D01*
X650312Y402973D01*
X650330Y402981D01*
X650461Y403086D01*
X651846Y404472D01*
X654984Y404472D01*
X657202Y402254D01*
X657202Y399264D01*
X657205Y399244D01*
X657203Y399225D01*
X657225Y399123D01*
X657241Y399021D01*
X657251Y399004D01*
X657255Y398984D01*
X657308Y398895D01*
X657357Y398804D01*
X657371Y398790D01*
X657381Y398773D01*
X657460Y398706D01*
X657535Y398634D01*
X657553Y398626D01*
X657568Y398613D01*
X657664Y398574D01*
X657758Y398531D01*
X657778Y398529D01*
X657796Y398521D01*
X657963Y398503D01*
X658413Y398503D01*
X660631Y396285D01*
X660631Y393147D01*
X658413Y390929D01*
X655275Y390929D01*
G37*
%LPD*%
%LPC*%
G36*
X63567Y729865D02*
X63567Y729865D01*
X60905Y732527D01*
X60905Y736293D01*
X63567Y738955D01*
X63644Y738955D01*
X63664Y738958D01*
X63683Y738956D01*
X63785Y738978D01*
X63887Y738994D01*
X63904Y739004D01*
X63924Y739008D01*
X64013Y739061D01*
X64104Y739110D01*
X64118Y739124D01*
X64135Y739134D01*
X64202Y739213D01*
X64274Y739288D01*
X64282Y739306D01*
X64295Y739321D01*
X64334Y739417D01*
X64377Y739511D01*
X64379Y739531D01*
X64387Y739549D01*
X64405Y739716D01*
X64405Y740193D01*
X67507Y743295D01*
X71893Y743295D01*
X74995Y740193D01*
X74995Y735807D01*
X71893Y732705D01*
X70488Y732705D01*
X70398Y732691D01*
X70307Y732683D01*
X70277Y732671D01*
X70245Y732666D01*
X70164Y732623D01*
X70081Y732587D01*
X70048Y732561D01*
X70028Y732550D01*
X70006Y732527D01*
X69950Y732482D01*
X67333Y729865D01*
X63567Y729865D01*
G37*
%LPD*%
%LPC*%
G36*
X67507Y641705D02*
X67507Y641705D01*
X64405Y644807D01*
X64405Y645284D01*
X64402Y645304D01*
X64404Y645323D01*
X64382Y645425D01*
X64366Y645527D01*
X64356Y645544D01*
X64352Y645564D01*
X64299Y645653D01*
X64250Y645744D01*
X64236Y645758D01*
X64226Y645775D01*
X64147Y645842D01*
X64072Y645914D01*
X64054Y645922D01*
X64039Y645935D01*
X63943Y645974D01*
X63849Y646017D01*
X63829Y646019D01*
X63811Y646027D01*
X63644Y646045D01*
X63567Y646045D01*
X60905Y648707D01*
X60905Y652473D01*
X63567Y655135D01*
X67333Y655135D01*
X69950Y652518D01*
X70023Y652465D01*
X70093Y652405D01*
X70123Y652393D01*
X70149Y652374D01*
X70236Y652347D01*
X70321Y652313D01*
X70362Y652309D01*
X70384Y652302D01*
X70417Y652303D01*
X70488Y652295D01*
X71893Y652295D01*
X74995Y649193D01*
X74995Y644807D01*
X71893Y641705D01*
X67507Y641705D01*
G37*
%LPD*%
%LPC*%
G36*
X130912Y290619D02*
X130912Y290619D01*
X128694Y292837D01*
X128694Y295975D01*
X130912Y298193D01*
X131448Y298193D01*
X131468Y298196D01*
X131487Y298194D01*
X131589Y298216D01*
X131691Y298232D01*
X131708Y298242D01*
X131728Y298246D01*
X131817Y298299D01*
X131908Y298348D01*
X131922Y298362D01*
X131939Y298372D01*
X132006Y298451D01*
X132078Y298526D01*
X132086Y298544D01*
X132099Y298559D01*
X132138Y298655D01*
X132181Y298749D01*
X132183Y298769D01*
X132191Y298787D01*
X132209Y298954D01*
X132209Y301289D01*
X134427Y303507D01*
X137565Y303507D01*
X138580Y302492D01*
X138596Y302480D01*
X138608Y302464D01*
X138696Y302408D01*
X138779Y302348D01*
X138798Y302342D01*
X138815Y302331D01*
X138916Y302306D01*
X139015Y302276D01*
X139034Y302276D01*
X139054Y302271D01*
X139157Y302279D01*
X139260Y302282D01*
X139279Y302289D01*
X139299Y302290D01*
X139394Y302331D01*
X139491Y302366D01*
X139507Y302379D01*
X139525Y302387D01*
X139656Y302492D01*
X140671Y303507D01*
X143809Y303507D01*
X146027Y301289D01*
X146027Y298151D01*
X143809Y295933D01*
X140671Y295933D01*
X139656Y296948D01*
X139640Y296960D01*
X139628Y296976D01*
X139540Y297032D01*
X139457Y297092D01*
X139438Y297098D01*
X139421Y297109D01*
X139320Y297134D01*
X139221Y297164D01*
X139202Y297164D01*
X139182Y297169D01*
X139079Y297161D01*
X138976Y297158D01*
X138957Y297151D01*
X138937Y297150D01*
X138842Y297109D01*
X138745Y297074D01*
X138729Y297061D01*
X138711Y297053D01*
X138580Y296948D01*
X137565Y295933D01*
X137029Y295933D01*
X137009Y295930D01*
X136990Y295932D01*
X136888Y295910D01*
X136786Y295894D01*
X136769Y295884D01*
X136749Y295880D01*
X136660Y295827D01*
X136569Y295778D01*
X136555Y295764D01*
X136538Y295754D01*
X136471Y295675D01*
X136399Y295600D01*
X136391Y295582D01*
X136378Y295567D01*
X136339Y295471D01*
X136296Y295377D01*
X136294Y295357D01*
X136286Y295339D01*
X136268Y295172D01*
X136268Y292837D01*
X134050Y290619D01*
X130912Y290619D01*
G37*
%LPD*%
%LPC*%
G36*
X233381Y381023D02*
X233381Y381023D01*
X231163Y383241D01*
X231163Y386379D01*
X233381Y388597D01*
X235482Y388597D01*
X235502Y388600D01*
X235521Y388598D01*
X235623Y388620D01*
X235725Y388636D01*
X235742Y388646D01*
X235762Y388650D01*
X235851Y388703D01*
X235942Y388752D01*
X235956Y388766D01*
X235973Y388776D01*
X236040Y388855D01*
X236112Y388930D01*
X236120Y388948D01*
X236133Y388963D01*
X236172Y389059D01*
X236215Y389153D01*
X236217Y389173D01*
X236225Y389191D01*
X236243Y389358D01*
X236243Y390189D01*
X238461Y392407D01*
X239292Y392407D01*
X239312Y392410D01*
X239331Y392408D01*
X239433Y392430D01*
X239535Y392446D01*
X239552Y392456D01*
X239572Y392460D01*
X239661Y392513D01*
X239752Y392562D01*
X239766Y392576D01*
X239783Y392586D01*
X239850Y392665D01*
X239922Y392740D01*
X239930Y392758D01*
X239943Y392773D01*
X239982Y392869D01*
X240025Y392963D01*
X240027Y392983D01*
X240035Y393001D01*
X240053Y393168D01*
X240053Y394634D01*
X242271Y396852D01*
X245409Y396852D01*
X247627Y394634D01*
X247627Y391496D01*
X245409Y389278D01*
X244578Y389278D01*
X244558Y389275D01*
X244539Y389277D01*
X244437Y389255D01*
X244335Y389239D01*
X244318Y389229D01*
X244298Y389225D01*
X244209Y389172D01*
X244118Y389123D01*
X244104Y389109D01*
X244087Y389099D01*
X244020Y389020D01*
X243948Y388945D01*
X243940Y388927D01*
X243927Y388912D01*
X243888Y388816D01*
X243845Y388722D01*
X243843Y388702D01*
X243835Y388684D01*
X243817Y388517D01*
X243817Y387051D01*
X241599Y384833D01*
X239498Y384833D01*
X239478Y384830D01*
X239459Y384832D01*
X239357Y384810D01*
X239255Y384794D01*
X239238Y384784D01*
X239218Y384780D01*
X239129Y384727D01*
X239038Y384678D01*
X239024Y384664D01*
X239007Y384654D01*
X238940Y384575D01*
X238868Y384500D01*
X238860Y384482D01*
X238847Y384467D01*
X238808Y384371D01*
X238765Y384277D01*
X238763Y384257D01*
X238755Y384239D01*
X238737Y384072D01*
X238737Y383241D01*
X236519Y381023D01*
X233381Y381023D01*
G37*
%LPD*%
%LPC*%
G36*
X521671Y378483D02*
X521671Y378483D01*
X519453Y380701D01*
X519453Y383839D01*
X521671Y386057D01*
X523772Y386057D01*
X523792Y386060D01*
X523811Y386058D01*
X523913Y386080D01*
X524015Y386096D01*
X524032Y386106D01*
X524052Y386110D01*
X524141Y386163D01*
X524232Y386212D01*
X524246Y386226D01*
X524263Y386236D01*
X524330Y386315D01*
X524402Y386390D01*
X524410Y386408D01*
X524423Y386423D01*
X524462Y386519D01*
X524505Y386613D01*
X524507Y386633D01*
X524515Y386651D01*
X524533Y386818D01*
X524533Y387649D01*
X526751Y389867D01*
X528217Y389867D01*
X528237Y389870D01*
X528256Y389868D01*
X528358Y389890D01*
X528460Y389906D01*
X528477Y389916D01*
X528497Y389920D01*
X528586Y389973D01*
X528677Y390022D01*
X528691Y390036D01*
X528708Y390046D01*
X528775Y390125D01*
X528847Y390200D01*
X528855Y390218D01*
X528868Y390233D01*
X528907Y390329D01*
X528950Y390423D01*
X528952Y390443D01*
X528960Y390461D01*
X528978Y390628D01*
X528978Y391459D01*
X531196Y393677D01*
X534334Y393677D01*
X536552Y391459D01*
X536552Y388321D01*
X534334Y386103D01*
X532868Y386103D01*
X532848Y386100D01*
X532829Y386102D01*
X532727Y386080D01*
X532625Y386064D01*
X532608Y386054D01*
X532588Y386050D01*
X532499Y385997D01*
X532408Y385948D01*
X532394Y385934D01*
X532377Y385924D01*
X532310Y385845D01*
X532238Y385770D01*
X532230Y385752D01*
X532217Y385737D01*
X532178Y385641D01*
X532135Y385547D01*
X532133Y385527D01*
X532125Y385509D01*
X532107Y385342D01*
X532107Y384511D01*
X529889Y382293D01*
X527788Y382293D01*
X527768Y382290D01*
X527749Y382292D01*
X527647Y382270D01*
X527545Y382254D01*
X527528Y382244D01*
X527508Y382240D01*
X527419Y382187D01*
X527328Y382138D01*
X527314Y382124D01*
X527297Y382114D01*
X527230Y382035D01*
X527158Y381960D01*
X527150Y381942D01*
X527137Y381927D01*
X527098Y381831D01*
X527055Y381737D01*
X527053Y381717D01*
X527045Y381699D01*
X527027Y381532D01*
X527027Y380701D01*
X524809Y378483D01*
X521671Y378483D01*
G37*
%LPD*%
%LPC*%
G36*
X230841Y557553D02*
X230841Y557553D01*
X228623Y559771D01*
X228623Y562909D01*
X230841Y565127D01*
X231672Y565127D01*
X231692Y565130D01*
X231711Y565128D01*
X231813Y565150D01*
X231915Y565166D01*
X231932Y565176D01*
X231952Y565180D01*
X232041Y565233D01*
X232132Y565282D01*
X232146Y565296D01*
X232163Y565306D01*
X232230Y565385D01*
X232302Y565460D01*
X232310Y565478D01*
X232323Y565493D01*
X232362Y565589D01*
X232405Y565683D01*
X232407Y565703D01*
X232415Y565721D01*
X232433Y565888D01*
X232433Y567989D01*
X234651Y570207D01*
X235482Y570207D01*
X235502Y570210D01*
X235521Y570208D01*
X235623Y570230D01*
X235725Y570246D01*
X235742Y570256D01*
X235762Y570260D01*
X235851Y570313D01*
X235942Y570362D01*
X235956Y570376D01*
X235973Y570386D01*
X236040Y570465D01*
X236112Y570540D01*
X236120Y570558D01*
X236133Y570573D01*
X236172Y570669D01*
X236215Y570763D01*
X236217Y570783D01*
X236225Y570801D01*
X236243Y570968D01*
X236243Y572434D01*
X238461Y574652D01*
X241599Y574652D01*
X243817Y572434D01*
X243817Y569296D01*
X241599Y567078D01*
X240768Y567078D01*
X240748Y567075D01*
X240729Y567077D01*
X240627Y567055D01*
X240525Y567039D01*
X240508Y567029D01*
X240488Y567025D01*
X240399Y566972D01*
X240308Y566923D01*
X240294Y566909D01*
X240277Y566899D01*
X240210Y566820D01*
X240138Y566745D01*
X240130Y566727D01*
X240117Y566712D01*
X240078Y566616D01*
X240035Y566522D01*
X240033Y566502D01*
X240025Y566484D01*
X240007Y566317D01*
X240007Y564851D01*
X237789Y562633D01*
X236958Y562633D01*
X236938Y562630D01*
X236919Y562632D01*
X236817Y562610D01*
X236715Y562594D01*
X236698Y562584D01*
X236678Y562580D01*
X236589Y562527D01*
X236498Y562478D01*
X236484Y562464D01*
X236467Y562454D01*
X236400Y562375D01*
X236328Y562300D01*
X236320Y562282D01*
X236307Y562267D01*
X236268Y562171D01*
X236225Y562077D01*
X236223Y562057D01*
X236215Y562039D01*
X236197Y561872D01*
X236197Y559771D01*
X233979Y557553D01*
X230841Y557553D01*
G37*
%LPD*%
%LPC*%
G36*
X617292Y242895D02*
X617292Y242895D01*
X615077Y243812D01*
X613382Y245507D01*
X612465Y247722D01*
X612465Y250118D01*
X613382Y252333D01*
X615077Y254028D01*
X617292Y254945D01*
X619688Y254945D01*
X621903Y254028D01*
X623598Y252333D01*
X624515Y250118D01*
X624515Y247722D01*
X623598Y245507D01*
X621903Y243812D01*
X619688Y242895D01*
X617292Y242895D01*
G37*
%LPD*%
%LPC*%
G36*
X769692Y242895D02*
X769692Y242895D01*
X767477Y243812D01*
X765782Y245507D01*
X764865Y247722D01*
X764865Y250118D01*
X765782Y252333D01*
X767477Y254028D01*
X769692Y254945D01*
X772088Y254945D01*
X774303Y254028D01*
X775998Y252333D01*
X776915Y250118D01*
X776915Y247722D01*
X775998Y245507D01*
X774303Y243812D01*
X772088Y242895D01*
X769692Y242895D01*
G37*
%LPD*%
%LPC*%
G36*
X819222Y561665D02*
X819222Y561665D01*
X817007Y562582D01*
X815312Y564277D01*
X814395Y566492D01*
X814395Y568888D01*
X815312Y571103D01*
X817007Y572798D01*
X819222Y573715D01*
X821618Y573715D01*
X823833Y572798D01*
X825528Y571103D01*
X826445Y568888D01*
X826445Y566492D01*
X825528Y564277D01*
X823833Y562582D01*
X821618Y561665D01*
X819222Y561665D01*
G37*
%LPD*%
%LPC*%
G36*
X617292Y395295D02*
X617292Y395295D01*
X615077Y396212D01*
X613382Y397907D01*
X612465Y400122D01*
X612465Y402518D01*
X613382Y404733D01*
X615077Y406428D01*
X617292Y407345D01*
X619688Y407345D01*
X621903Y406428D01*
X623598Y404733D01*
X624515Y402518D01*
X624515Y400122D01*
X623598Y397907D01*
X621903Y396212D01*
X619688Y395295D01*
X617292Y395295D01*
G37*
%LPD*%
%LPC*%
G36*
X759532Y552775D02*
X759532Y552775D01*
X757317Y553692D01*
X755622Y555387D01*
X754705Y557602D01*
X754705Y559998D01*
X755622Y562213D01*
X757317Y563908D01*
X759532Y564825D01*
X761928Y564825D01*
X764143Y563908D01*
X765838Y562213D01*
X766755Y559998D01*
X766755Y557602D01*
X765838Y555387D01*
X764143Y553692D01*
X761928Y552775D01*
X759532Y552775D01*
G37*
%LPD*%
%LPC*%
G36*
X693746Y255595D02*
X693746Y255595D01*
X691531Y256512D01*
X689836Y258207D01*
X688919Y260422D01*
X688919Y262818D01*
X689836Y265033D01*
X691531Y266728D01*
X693746Y267645D01*
X696142Y267645D01*
X698357Y266728D01*
X700052Y265033D01*
X700969Y262818D01*
X700969Y260422D01*
X700052Y258207D01*
X698357Y256512D01*
X696142Y255595D01*
X693746Y255595D01*
G37*
%LPD*%
%LPC*%
G36*
X769692Y395295D02*
X769692Y395295D01*
X767477Y396212D01*
X765782Y397907D01*
X764865Y400122D01*
X764865Y402518D01*
X765782Y404733D01*
X767477Y406428D01*
X769692Y407345D01*
X772088Y407345D01*
X774303Y406428D01*
X775998Y404733D01*
X776915Y402518D01*
X776915Y400122D01*
X775998Y397907D01*
X774303Y396212D01*
X772088Y395295D01*
X769692Y395295D01*
G37*
%LPD*%
%LPC*%
G36*
X744292Y268295D02*
X744292Y268295D01*
X742077Y269212D01*
X740382Y270907D01*
X739465Y273122D01*
X739465Y275518D01*
X740382Y277733D01*
X742077Y279428D01*
X744292Y280345D01*
X746688Y280345D01*
X748903Y279428D01*
X750598Y277733D01*
X751515Y275518D01*
X751515Y273122D01*
X750598Y270907D01*
X748903Y269212D01*
X746688Y268295D01*
X744292Y268295D01*
G37*
%LPD*%
%LPC*%
G36*
X760802Y581985D02*
X760802Y581985D01*
X758587Y582902D01*
X756892Y584597D01*
X755975Y586812D01*
X755975Y589208D01*
X756892Y591423D01*
X758587Y593118D01*
X760802Y594035D01*
X763198Y594035D01*
X765413Y593118D01*
X767108Y591423D01*
X768025Y589208D01*
X768025Y586812D01*
X767108Y584597D01*
X765413Y582902D01*
X763198Y581985D01*
X760802Y581985D01*
G37*
%LPD*%
%LPC*%
G36*
X630246Y319095D02*
X630246Y319095D01*
X628031Y320012D01*
X626336Y321707D01*
X625419Y323922D01*
X625419Y326318D01*
X626336Y328533D01*
X628031Y330228D01*
X630246Y331145D01*
X632642Y331145D01*
X634857Y330228D01*
X636552Y328533D01*
X637469Y326318D01*
X637469Y323922D01*
X636552Y321707D01*
X634857Y320012D01*
X632642Y319095D01*
X630246Y319095D01*
G37*
%LPD*%
%LPC*%
G36*
X757246Y319095D02*
X757246Y319095D01*
X755031Y320012D01*
X753336Y321707D01*
X752419Y323922D01*
X752419Y326318D01*
X753336Y328533D01*
X755031Y330228D01*
X757246Y331145D01*
X759642Y331145D01*
X761857Y330228D01*
X763552Y328533D01*
X764469Y326318D01*
X764469Y323922D01*
X763552Y321707D01*
X761857Y320012D01*
X759642Y319095D01*
X757246Y319095D01*
G37*
%LPD*%
%LPC*%
G36*
X681046Y331795D02*
X681046Y331795D01*
X678831Y332712D01*
X677136Y334407D01*
X676219Y336622D01*
X676219Y339018D01*
X677136Y341233D01*
X678831Y342928D01*
X681046Y343845D01*
X683442Y343845D01*
X685657Y342928D01*
X687352Y341233D01*
X688269Y339018D01*
X688269Y336622D01*
X687352Y334407D01*
X685657Y332712D01*
X683442Y331795D01*
X681046Y331795D01*
G37*
%LPD*%
%LPC*%
G36*
X402662Y336875D02*
X402662Y336875D01*
X400447Y337792D01*
X398752Y339487D01*
X397835Y341702D01*
X397835Y344098D01*
X398752Y346313D01*
X400447Y348008D01*
X402662Y348925D01*
X405058Y348925D01*
X407273Y348008D01*
X408968Y346313D01*
X409885Y344098D01*
X409885Y341702D01*
X408968Y339487D01*
X407273Y337792D01*
X405058Y336875D01*
X402662Y336875D01*
G37*
%LPD*%
%LPC*%
G36*
X693746Y357195D02*
X693746Y357195D01*
X691531Y358112D01*
X689836Y359807D01*
X688919Y362022D01*
X688919Y364418D01*
X689836Y366633D01*
X691531Y368328D01*
X693746Y369245D01*
X696142Y369245D01*
X698357Y368328D01*
X700052Y366633D01*
X700969Y364418D01*
X700969Y362022D01*
X700052Y359807D01*
X698357Y358112D01*
X696142Y357195D01*
X693746Y357195D01*
G37*
%LPD*%
%LPC*%
G36*
X693746Y382595D02*
X693746Y382595D01*
X691531Y383512D01*
X689836Y385207D01*
X688919Y387422D01*
X688919Y389818D01*
X689836Y392033D01*
X691531Y393728D01*
X693746Y394645D01*
X696142Y394645D01*
X698357Y393728D01*
X700052Y392033D01*
X700969Y389818D01*
X700969Y387422D01*
X700052Y385207D01*
X698357Y383512D01*
X696142Y382595D01*
X693746Y382595D01*
G37*
%LPD*%
%LPC*%
G36*
X334831Y122850D02*
X334831Y122850D01*
X332400Y125281D01*
X332400Y128719D01*
X334831Y131150D01*
X338269Y131150D01*
X339504Y129914D01*
X339520Y129903D01*
X339533Y129887D01*
X339620Y129831D01*
X339704Y129771D01*
X339723Y129765D01*
X339740Y129754D01*
X339840Y129729D01*
X339939Y129698D01*
X339959Y129699D01*
X339978Y129694D01*
X340081Y129702D01*
X340185Y129705D01*
X340204Y129712D01*
X340224Y129713D01*
X340318Y129754D01*
X340416Y129789D01*
X340432Y129802D01*
X340450Y129810D01*
X340581Y129914D01*
X341816Y131150D01*
X345254Y131150D01*
X347685Y128719D01*
X347685Y125281D01*
X345254Y122850D01*
X341816Y122850D01*
X340581Y124086D01*
X340565Y124097D01*
X340552Y124113D01*
X340465Y124169D01*
X340381Y124229D01*
X340362Y124235D01*
X340345Y124246D01*
X340245Y124271D01*
X340146Y124302D01*
X340126Y124301D01*
X340107Y124306D01*
X340004Y124298D01*
X339900Y124295D01*
X339881Y124288D01*
X339862Y124287D01*
X339767Y124246D01*
X339669Y124211D01*
X339653Y124198D01*
X339635Y124190D01*
X339504Y124086D01*
X338269Y122850D01*
X334831Y122850D01*
G37*
%LPD*%
%LPC*%
G36*
X736936Y358798D02*
X736936Y358798D01*
X734718Y361016D01*
X734718Y364154D01*
X735048Y364484D01*
X735090Y364542D01*
X735140Y364594D01*
X735162Y364641D01*
X735192Y364683D01*
X735213Y364752D01*
X735243Y364817D01*
X735249Y364869D01*
X735264Y364919D01*
X735263Y364990D01*
X735270Y365061D01*
X735259Y365112D01*
X735258Y365164D01*
X735233Y365232D01*
X735218Y365302D01*
X735191Y365347D01*
X735174Y365395D01*
X735129Y365451D01*
X735092Y365513D01*
X735052Y365547D01*
X735020Y365587D01*
X734960Y365626D01*
X734905Y365673D01*
X734857Y365692D01*
X734813Y365720D01*
X734744Y365738D01*
X734677Y365765D01*
X734606Y365773D01*
X734574Y365781D01*
X734551Y365779D01*
X734510Y365783D01*
X731221Y365783D01*
X729003Y368001D01*
X729003Y371139D01*
X731221Y373357D01*
X734359Y373357D01*
X736577Y371139D01*
X736577Y368001D01*
X736247Y367671D01*
X736205Y367613D01*
X736155Y367561D01*
X736133Y367514D01*
X736103Y367472D01*
X736082Y367403D01*
X736052Y367338D01*
X736046Y367286D01*
X736031Y367236D01*
X736032Y367165D01*
X736025Y367094D01*
X736036Y367043D01*
X736037Y366991D01*
X736062Y366923D01*
X736077Y366853D01*
X736104Y366808D01*
X736121Y366760D01*
X736166Y366704D01*
X736203Y366642D01*
X736243Y366608D01*
X736275Y366568D01*
X736335Y366529D01*
X736390Y366482D01*
X736438Y366463D01*
X736482Y366435D01*
X736551Y366417D01*
X736618Y366390D01*
X736689Y366382D01*
X736721Y366374D01*
X736744Y366376D01*
X736785Y366372D01*
X740074Y366372D01*
X742292Y364154D01*
X742292Y361016D01*
X740074Y358798D01*
X736936Y358798D01*
G37*
%LPD*%
%LPC*%
G36*
X152101Y50823D02*
X152101Y50823D01*
X149883Y53041D01*
X149883Y56179D01*
X152101Y58397D01*
X155239Y58397D01*
X157259Y56376D01*
X157275Y56364D01*
X157288Y56349D01*
X157375Y56293D01*
X157459Y56233D01*
X157478Y56227D01*
X157495Y56216D01*
X157595Y56191D01*
X157694Y56160D01*
X157714Y56161D01*
X157733Y56156D01*
X157836Y56164D01*
X157940Y56167D01*
X157959Y56173D01*
X157979Y56175D01*
X158073Y56215D01*
X158171Y56251D01*
X158187Y56263D01*
X158205Y56271D01*
X158336Y56376D01*
X160356Y58397D01*
X163494Y58397D01*
X165712Y56179D01*
X165712Y53041D01*
X163494Y50823D01*
X160356Y50823D01*
X158336Y52844D01*
X158320Y52856D01*
X158307Y52871D01*
X158229Y52921D01*
X158218Y52931D01*
X158211Y52934D01*
X158136Y52987D01*
X158117Y52993D01*
X158100Y53004D01*
X158000Y53029D01*
X157901Y53060D01*
X157881Y53059D01*
X157862Y53064D01*
X157759Y53056D01*
X157655Y53053D01*
X157636Y53047D01*
X157617Y53045D01*
X157522Y53005D01*
X157424Y52969D01*
X157408Y52957D01*
X157390Y52949D01*
X157314Y52888D01*
X157312Y52887D01*
X157310Y52884D01*
X157259Y52844D01*
X155239Y50823D01*
X152101Y50823D01*
G37*
%LPD*%
%LPC*%
G36*
X844251Y321333D02*
X844251Y321333D01*
X842033Y323551D01*
X842033Y326689D01*
X844251Y328907D01*
X846352Y328907D01*
X846372Y328910D01*
X846391Y328908D01*
X846493Y328930D01*
X846595Y328946D01*
X846612Y328956D01*
X846632Y328960D01*
X846721Y329013D01*
X846812Y329062D01*
X846826Y329076D01*
X846843Y329086D01*
X846910Y329165D01*
X846982Y329240D01*
X846990Y329258D01*
X847003Y329273D01*
X847042Y329369D01*
X847085Y329463D01*
X847087Y329483D01*
X847095Y329501D01*
X847113Y329668D01*
X847113Y333039D01*
X849331Y335257D01*
X852469Y335257D01*
X854687Y333039D01*
X854687Y329901D01*
X852469Y327683D01*
X850368Y327683D01*
X850348Y327680D01*
X850329Y327682D01*
X850227Y327660D01*
X850125Y327644D01*
X850108Y327634D01*
X850088Y327630D01*
X849999Y327577D01*
X849908Y327528D01*
X849894Y327514D01*
X849877Y327504D01*
X849810Y327425D01*
X849738Y327350D01*
X849730Y327332D01*
X849717Y327317D01*
X849678Y327221D01*
X849635Y327127D01*
X849633Y327107D01*
X849625Y327089D01*
X849607Y326922D01*
X849607Y323551D01*
X847389Y321333D01*
X844251Y321333D01*
G37*
%LPD*%
%LPC*%
G36*
X165436Y340383D02*
X165436Y340383D01*
X163218Y342601D01*
X163218Y345739D01*
X165436Y347957D01*
X168574Y347957D01*
X169642Y346889D01*
X169658Y346877D01*
X169670Y346861D01*
X169758Y346805D01*
X169841Y346745D01*
X169860Y346739D01*
X169877Y346728D01*
X169978Y346703D01*
X170077Y346673D01*
X170096Y346673D01*
X170116Y346668D01*
X170219Y346676D01*
X170322Y346679D01*
X170341Y346686D01*
X170361Y346687D01*
X170456Y346728D01*
X170553Y346763D01*
X170569Y346776D01*
X170587Y346784D01*
X170718Y346889D01*
X173056Y349227D01*
X176194Y349227D01*
X178412Y347009D01*
X178412Y343871D01*
X176685Y342144D01*
X176643Y342086D01*
X176593Y342034D01*
X176571Y341987D01*
X176541Y341945D01*
X176520Y341876D01*
X176490Y341811D01*
X176484Y341759D01*
X176469Y341709D01*
X176470Y341639D01*
X176441Y341643D01*
X176409Y341651D01*
X176386Y341649D01*
X176345Y341653D01*
X173056Y341653D01*
X171988Y342721D01*
X171972Y342733D01*
X171960Y342749D01*
X171872Y342805D01*
X171789Y342865D01*
X171770Y342871D01*
X171753Y342882D01*
X171652Y342907D01*
X171553Y342937D01*
X171534Y342937D01*
X171514Y342942D01*
X171411Y342934D01*
X171308Y342931D01*
X171289Y342924D01*
X171269Y342923D01*
X171174Y342882D01*
X171077Y342847D01*
X171061Y342834D01*
X171043Y342826D01*
X170912Y342721D01*
X168574Y340383D01*
X165436Y340383D01*
G37*
%LPD*%
%LPC*%
G36*
X51771Y666138D02*
X51771Y666138D01*
X49553Y668356D01*
X49553Y671494D01*
X51574Y673514D01*
X51586Y673530D01*
X51601Y673543D01*
X51657Y673630D01*
X51717Y673714D01*
X51723Y673733D01*
X51734Y673750D01*
X51759Y673850D01*
X51790Y673949D01*
X51789Y673969D01*
X51794Y673988D01*
X51786Y674091D01*
X51783Y674195D01*
X51777Y674214D01*
X51775Y674234D01*
X51735Y674328D01*
X51699Y674426D01*
X51687Y674442D01*
X51679Y674460D01*
X51574Y674591D01*
X50188Y675976D01*
X50188Y679114D01*
X52406Y681332D01*
X55544Y681332D01*
X57762Y679114D01*
X57762Y675976D01*
X55741Y673956D01*
X55729Y673940D01*
X55714Y673927D01*
X55658Y673840D01*
X55598Y673756D01*
X55592Y673737D01*
X55581Y673720D01*
X55556Y673620D01*
X55525Y673521D01*
X55526Y673501D01*
X55521Y673482D01*
X55529Y673379D01*
X55532Y673275D01*
X55538Y673256D01*
X55540Y673237D01*
X55580Y673142D01*
X55616Y673044D01*
X55628Y673028D01*
X55636Y673010D01*
X55741Y672879D01*
X57127Y671494D01*
X57127Y668356D01*
X54909Y666138D01*
X51771Y666138D01*
G37*
%LPD*%
%LPC*%
G36*
X844251Y301013D02*
X844251Y301013D01*
X842033Y303231D01*
X842033Y306369D01*
X844251Y308587D01*
X846352Y308587D01*
X846372Y308590D01*
X846391Y308588D01*
X846493Y308610D01*
X846595Y308626D01*
X846612Y308636D01*
X846632Y308640D01*
X846721Y308693D01*
X846812Y308742D01*
X846826Y308756D01*
X846843Y308766D01*
X846910Y308845D01*
X846982Y308920D01*
X846990Y308938D01*
X847003Y308953D01*
X847042Y309049D01*
X847085Y309143D01*
X847087Y309163D01*
X847095Y309181D01*
X847113Y309348D01*
X847113Y311449D01*
X849331Y313667D01*
X852469Y313667D01*
X854687Y311449D01*
X854687Y308311D01*
X852469Y306093D01*
X850368Y306093D01*
X850348Y306090D01*
X850329Y306092D01*
X850227Y306070D01*
X850125Y306054D01*
X850108Y306044D01*
X850088Y306040D01*
X849999Y305987D01*
X849908Y305938D01*
X849894Y305924D01*
X849877Y305914D01*
X849810Y305835D01*
X849738Y305760D01*
X849730Y305742D01*
X849717Y305727D01*
X849678Y305631D01*
X849635Y305537D01*
X849633Y305517D01*
X849625Y305499D01*
X849607Y305332D01*
X849607Y303231D01*
X847389Y301013D01*
X844251Y301013D01*
G37*
%LPD*%
%LPC*%
G36*
X491191Y438173D02*
X491191Y438173D01*
X488973Y440391D01*
X488973Y443529D01*
X491191Y445747D01*
X492657Y445747D01*
X492677Y445750D01*
X492696Y445748D01*
X492798Y445770D01*
X492900Y445786D01*
X492917Y445796D01*
X492937Y445800D01*
X493026Y445853D01*
X493117Y445902D01*
X493131Y445916D01*
X493148Y445926D01*
X493215Y446005D01*
X493287Y446080D01*
X493295Y446098D01*
X493308Y446113D01*
X493347Y446209D01*
X493390Y446303D01*
X493392Y446323D01*
X493400Y446341D01*
X493418Y446508D01*
X493418Y448609D01*
X495636Y450827D01*
X498774Y450827D01*
X500992Y448609D01*
X500992Y445471D01*
X498774Y443253D01*
X497308Y443253D01*
X497288Y443250D01*
X497269Y443252D01*
X497167Y443230D01*
X497065Y443214D01*
X497048Y443204D01*
X497028Y443200D01*
X496939Y443147D01*
X496848Y443098D01*
X496834Y443084D01*
X496817Y443074D01*
X496750Y442995D01*
X496678Y442920D01*
X496670Y442902D01*
X496657Y442887D01*
X496618Y442791D01*
X496575Y442697D01*
X496573Y442677D01*
X496565Y442659D01*
X496547Y442492D01*
X496547Y440391D01*
X494329Y438173D01*
X491191Y438173D01*
G37*
%LPD*%
%LPC*%
G36*
X672801Y468653D02*
X672801Y468653D01*
X670583Y470871D01*
X670583Y472337D01*
X670580Y472357D01*
X670582Y472376D01*
X670560Y472478D01*
X670544Y472580D01*
X670534Y472597D01*
X670530Y472617D01*
X670477Y472706D01*
X670428Y472797D01*
X670414Y472811D01*
X670404Y472828D01*
X670325Y472895D01*
X670250Y472967D01*
X670232Y472975D01*
X670217Y472988D01*
X670121Y473027D01*
X670027Y473070D01*
X670007Y473072D01*
X669989Y473080D01*
X669822Y473098D01*
X667721Y473098D01*
X665503Y475316D01*
X665503Y478454D01*
X667721Y480672D01*
X670859Y480672D01*
X673077Y478454D01*
X673077Y476988D01*
X673080Y476968D01*
X673078Y476949D01*
X673100Y476847D01*
X673116Y476745D01*
X673126Y476728D01*
X673130Y476708D01*
X673183Y476619D01*
X673232Y476528D01*
X673246Y476514D01*
X673256Y476497D01*
X673335Y476430D01*
X673410Y476358D01*
X673428Y476350D01*
X673443Y476337D01*
X673539Y476298D01*
X673633Y476255D01*
X673653Y476253D01*
X673671Y476245D01*
X673838Y476227D01*
X675939Y476227D01*
X678157Y474009D01*
X678157Y470871D01*
X675939Y468653D01*
X672801Y468653D01*
G37*
%LPD*%
%LPC*%
G36*
X183851Y313205D02*
X183851Y313205D01*
X181633Y315423D01*
X181633Y318561D01*
X183851Y320779D01*
X185825Y320779D01*
X185845Y320782D01*
X185864Y320780D01*
X185966Y320802D01*
X186068Y320818D01*
X186085Y320828D01*
X186105Y320832D01*
X186194Y320885D01*
X186285Y320934D01*
X186299Y320948D01*
X186316Y320958D01*
X186383Y321037D01*
X186455Y321112D01*
X186463Y321130D01*
X186476Y321145D01*
X186515Y321241D01*
X186558Y321335D01*
X186560Y321355D01*
X186568Y321373D01*
X186586Y321540D01*
X186586Y322752D01*
X188804Y324970D01*
X191942Y324970D01*
X194160Y322752D01*
X194160Y319614D01*
X191942Y317396D01*
X189968Y317396D01*
X189948Y317393D01*
X189929Y317395D01*
X189827Y317373D01*
X189725Y317357D01*
X189708Y317347D01*
X189688Y317343D01*
X189599Y317290D01*
X189508Y317241D01*
X189494Y317227D01*
X189477Y317217D01*
X189410Y317138D01*
X189338Y317063D01*
X189330Y317045D01*
X189317Y317030D01*
X189278Y316934D01*
X189235Y316840D01*
X189233Y316820D01*
X189225Y316802D01*
X189207Y316635D01*
X189207Y315423D01*
X186989Y313205D01*
X183851Y313205D01*
G37*
%LPD*%
%LPC*%
G36*
X79965Y685950D02*
X79965Y685950D01*
X77747Y688168D01*
X77747Y691306D01*
X79965Y693524D01*
X80542Y693524D01*
X80562Y693527D01*
X80581Y693525D01*
X80683Y693547D01*
X80785Y693563D01*
X80802Y693573D01*
X80822Y693577D01*
X80911Y693630D01*
X81002Y693679D01*
X81016Y693693D01*
X81033Y693703D01*
X81100Y693782D01*
X81172Y693857D01*
X81180Y693875D01*
X81193Y693890D01*
X81232Y693986D01*
X81275Y694080D01*
X81277Y694100D01*
X81285Y694118D01*
X81303Y694285D01*
X81303Y696259D01*
X83521Y698477D01*
X86659Y698477D01*
X88877Y696259D01*
X88877Y693121D01*
X86659Y690903D01*
X86082Y690903D01*
X86062Y690900D01*
X86043Y690902D01*
X85941Y690880D01*
X85839Y690864D01*
X85822Y690854D01*
X85802Y690850D01*
X85713Y690797D01*
X85622Y690748D01*
X85608Y690734D01*
X85591Y690724D01*
X85524Y690645D01*
X85452Y690570D01*
X85444Y690552D01*
X85431Y690537D01*
X85392Y690441D01*
X85349Y690347D01*
X85347Y690327D01*
X85339Y690309D01*
X85321Y690142D01*
X85321Y688168D01*
X83103Y685950D01*
X79965Y685950D01*
G37*
%LPD*%
%LPC*%
G36*
X127209Y656359D02*
X127209Y656359D01*
X124991Y658577D01*
X124991Y661715D01*
X127209Y663933D01*
X128421Y663933D01*
X128441Y663936D01*
X128460Y663934D01*
X128562Y663956D01*
X128664Y663972D01*
X128681Y663982D01*
X128701Y663986D01*
X128790Y664039D01*
X128881Y664088D01*
X128895Y664102D01*
X128912Y664112D01*
X128979Y664191D01*
X129051Y664266D01*
X129059Y664284D01*
X129072Y664299D01*
X129111Y664395D01*
X129154Y664489D01*
X129156Y664509D01*
X129164Y664527D01*
X129182Y664694D01*
X129182Y666160D01*
X131400Y668378D01*
X134538Y668378D01*
X136756Y666160D01*
X136756Y663022D01*
X134538Y660804D01*
X133326Y660804D01*
X133306Y660801D01*
X133287Y660803D01*
X133185Y660781D01*
X133083Y660765D01*
X133066Y660755D01*
X133046Y660751D01*
X132957Y660698D01*
X132866Y660649D01*
X132852Y660635D01*
X132835Y660625D01*
X132768Y660546D01*
X132696Y660471D01*
X132688Y660453D01*
X132675Y660438D01*
X132636Y660342D01*
X132593Y660248D01*
X132591Y660228D01*
X132583Y660210D01*
X132565Y660043D01*
X132565Y658577D01*
X130347Y656359D01*
X127209Y656359D01*
G37*
%LPD*%
%LPC*%
G36*
X120351Y199413D02*
X120351Y199413D01*
X118966Y200799D01*
X118950Y200811D01*
X118937Y200826D01*
X118850Y200882D01*
X118766Y200942D01*
X118747Y200948D01*
X118730Y200959D01*
X118630Y200984D01*
X118531Y201015D01*
X118511Y201014D01*
X118492Y201019D01*
X118389Y201011D01*
X118285Y201008D01*
X118266Y201002D01*
X118247Y201000D01*
X118152Y200960D01*
X118054Y200924D01*
X118038Y200912D01*
X118020Y200904D01*
X117889Y200799D01*
X117774Y200683D01*
X114636Y200683D01*
X112418Y202901D01*
X112418Y206039D01*
X114636Y208257D01*
X117774Y208257D01*
X119159Y206871D01*
X119175Y206859D01*
X119188Y206844D01*
X119275Y206788D01*
X119359Y206728D01*
X119378Y206722D01*
X119395Y206711D01*
X119495Y206686D01*
X119594Y206655D01*
X119614Y206656D01*
X119633Y206651D01*
X119736Y206659D01*
X119840Y206662D01*
X119859Y206668D01*
X119879Y206670D01*
X119973Y206710D01*
X120071Y206746D01*
X120087Y206758D01*
X120105Y206766D01*
X120236Y206871D01*
X120351Y206987D01*
X123489Y206987D01*
X125707Y204769D01*
X125707Y201631D01*
X123489Y199413D01*
X120351Y199413D01*
G37*
%LPD*%
%LPC*%
G36*
X169881Y313078D02*
X169881Y313078D01*
X167663Y315296D01*
X167663Y318434D01*
X169263Y320034D01*
X169305Y320092D01*
X169355Y320144D01*
X169377Y320191D01*
X169407Y320233D01*
X169428Y320302D01*
X169458Y320367D01*
X169464Y320419D01*
X169479Y320469D01*
X169478Y320540D01*
X169485Y320611D01*
X169474Y320662D01*
X169473Y320703D01*
X169497Y320697D01*
X169563Y320670D01*
X169634Y320662D01*
X169666Y320654D01*
X169689Y320656D01*
X169730Y320652D01*
X171220Y320652D01*
X171240Y320655D01*
X171259Y320653D01*
X171361Y320675D01*
X171463Y320691D01*
X171480Y320701D01*
X171500Y320705D01*
X171589Y320758D01*
X171680Y320807D01*
X171694Y320821D01*
X171711Y320831D01*
X171778Y320910D01*
X171850Y320985D01*
X171858Y321003D01*
X171871Y321018D01*
X171909Y321114D01*
X171953Y321208D01*
X171955Y321228D01*
X171963Y321246D01*
X171981Y321413D01*
X171981Y322371D01*
X174199Y324589D01*
X177337Y324589D01*
X179555Y322371D01*
X179555Y319233D01*
X177337Y317015D01*
X175998Y317015D01*
X175978Y317012D01*
X175959Y317014D01*
X175857Y316992D01*
X175755Y316976D01*
X175738Y316966D01*
X175718Y316962D01*
X175629Y316909D01*
X175538Y316860D01*
X175524Y316846D01*
X175507Y316836D01*
X175440Y316757D01*
X175368Y316682D01*
X175360Y316664D01*
X175347Y316649D01*
X175308Y316553D01*
X175265Y316459D01*
X175263Y316439D01*
X175255Y316421D01*
X175237Y316254D01*
X175237Y315296D01*
X173019Y313078D01*
X169881Y313078D01*
G37*
%LPD*%
%LPC*%
G36*
X425960Y589460D02*
X425960Y589460D01*
X423090Y592330D01*
X423090Y596390D01*
X425960Y599260D01*
X430020Y599260D01*
X432890Y596390D01*
X432890Y592330D01*
X430020Y589460D01*
X425960Y589460D01*
G37*
%LPD*%
%LPC*%
G36*
X298960Y656770D02*
X298960Y656770D01*
X296090Y659640D01*
X296090Y663700D01*
X298960Y666570D01*
X303020Y666570D01*
X305890Y663700D01*
X305890Y659640D01*
X303020Y656770D01*
X298960Y656770D01*
G37*
%LPD*%
%LPC*%
G36*
X377700Y589460D02*
X377700Y589460D01*
X374830Y592330D01*
X374830Y596390D01*
X377700Y599260D01*
X381760Y599260D01*
X384630Y596390D01*
X384630Y592330D01*
X381760Y589460D01*
X377700Y589460D01*
G37*
%LPD*%
%LPC*%
G36*
X663604Y590945D02*
X663604Y590945D01*
X660795Y593754D01*
X660795Y597726D01*
X663604Y600535D01*
X667576Y600535D01*
X670385Y597726D01*
X670385Y593754D01*
X667576Y590945D01*
X663604Y590945D01*
G37*
%LPD*%
%LPC*%
G36*
X654604Y581945D02*
X654604Y581945D01*
X651795Y584754D01*
X651795Y588726D01*
X654604Y591535D01*
X658576Y591535D01*
X661385Y588726D01*
X661385Y584754D01*
X658576Y581945D01*
X654604Y581945D01*
G37*
%LPD*%
%LPC*%
G36*
X645604Y572945D02*
X645604Y572945D01*
X642795Y575754D01*
X642795Y579726D01*
X645604Y582535D01*
X649576Y582535D01*
X652385Y579726D01*
X652385Y575754D01*
X649576Y572945D01*
X645604Y572945D01*
G37*
%LPD*%
%LPC*%
G36*
X663604Y572945D02*
X663604Y572945D01*
X660795Y575754D01*
X660795Y579726D01*
X663604Y582535D01*
X667576Y582535D01*
X670385Y579726D01*
X670385Y575754D01*
X667576Y572945D01*
X663604Y572945D01*
G37*
%LPD*%
%LPC*%
G36*
X645604Y590945D02*
X645604Y590945D01*
X642795Y593754D01*
X642795Y597726D01*
X645604Y600535D01*
X649576Y600535D01*
X652385Y597726D01*
X652385Y593754D01*
X649576Y590945D01*
X645604Y590945D01*
G37*
%LPD*%
%LPC*%
G36*
X685196Y568245D02*
X685196Y568245D01*
X682545Y570896D01*
X682545Y574644D01*
X685196Y577295D01*
X688944Y577295D01*
X691595Y574644D01*
X691595Y570896D01*
X688944Y568245D01*
X685196Y568245D01*
G37*
%LPD*%
%LPC*%
G36*
X114469Y313308D02*
X114469Y313308D01*
X112013Y315764D01*
X112013Y319236D01*
X114469Y321692D01*
X117941Y321692D01*
X120397Y319236D01*
X120397Y315764D01*
X117941Y313308D01*
X114469Y313308D01*
G37*
%LPD*%
%LPC*%
G36*
X434526Y32680D02*
X434526Y32680D01*
X432095Y35111D01*
X432095Y38549D01*
X434526Y40980D01*
X437964Y40980D01*
X440395Y38549D01*
X440395Y35111D01*
X437964Y32680D01*
X434526Y32680D01*
G37*
%LPD*%
%LPC*%
G36*
X362771Y644820D02*
X362771Y644820D01*
X360340Y647251D01*
X360340Y650689D01*
X362771Y653120D01*
X366209Y653120D01*
X368640Y650689D01*
X368640Y647251D01*
X366209Y644820D01*
X362771Y644820D01*
G37*
%LPD*%
%LPC*%
G36*
X339911Y68240D02*
X339911Y68240D01*
X337480Y70671D01*
X337480Y74109D01*
X339911Y76540D01*
X343349Y76540D01*
X345780Y74109D01*
X345780Y70671D01*
X343349Y68240D01*
X339911Y68240D01*
G37*
%LPD*%
%LPC*%
G36*
X391346Y66970D02*
X391346Y66970D01*
X388915Y69401D01*
X388915Y72839D01*
X391346Y75270D01*
X394784Y75270D01*
X397215Y72839D01*
X397215Y69401D01*
X394784Y66970D01*
X391346Y66970D01*
G37*
%LPD*%
%LPC*%
G36*
X385631Y193335D02*
X385631Y193335D01*
X383200Y195766D01*
X383200Y199204D01*
X385631Y201635D01*
X389069Y201635D01*
X391500Y199204D01*
X391500Y195766D01*
X389069Y193335D01*
X385631Y193335D01*
G37*
%LPD*%
%LPC*%
G36*
X346261Y40935D02*
X346261Y40935D01*
X343830Y43366D01*
X343830Y46804D01*
X346261Y49235D01*
X349699Y49235D01*
X352130Y46804D01*
X352130Y43366D01*
X349699Y40935D01*
X346261Y40935D01*
G37*
%LPD*%
%LPC*%
G36*
X419921Y59350D02*
X419921Y59350D01*
X417490Y61781D01*
X417490Y65219D01*
X419921Y67650D01*
X423359Y67650D01*
X425790Y65219D01*
X425790Y61781D01*
X423359Y59350D01*
X419921Y59350D01*
G37*
%LPD*%
%LPC*%
G36*
X445321Y129200D02*
X445321Y129200D01*
X442890Y131631D01*
X442890Y135069D01*
X445321Y137500D01*
X448759Y137500D01*
X451190Y135069D01*
X451190Y131631D01*
X448759Y129200D01*
X445321Y129200D01*
G37*
%LPD*%
%LPC*%
G36*
X390076Y101895D02*
X390076Y101895D01*
X387645Y104326D01*
X387645Y107764D01*
X390076Y110195D01*
X393514Y110195D01*
X395945Y107764D01*
X395945Y104326D01*
X393514Y101895D01*
X390076Y101895D01*
G37*
%LPD*%
%LPC*%
G36*
X275776Y91735D02*
X275776Y91735D01*
X273345Y94166D01*
X273345Y97604D01*
X275776Y100035D01*
X279214Y100035D01*
X281645Y97604D01*
X281645Y94166D01*
X279214Y91735D01*
X275776Y91735D01*
G37*
%LPD*%
%LPC*%
G36*
X379281Y101895D02*
X379281Y101895D01*
X376850Y104326D01*
X376850Y107764D01*
X379281Y110195D01*
X382719Y110195D01*
X385150Y107764D01*
X385150Y104326D01*
X382719Y101895D01*
X379281Y101895D01*
G37*
%LPD*%
%LPC*%
G36*
X252916Y96815D02*
X252916Y96815D01*
X250485Y99246D01*
X250485Y102684D01*
X252916Y105115D01*
X256354Y105115D01*
X258785Y102684D01*
X258785Y99246D01*
X256354Y96815D01*
X252916Y96815D01*
G37*
%LPD*%
%LPC*%
G36*
X296096Y122215D02*
X296096Y122215D01*
X293665Y124646D01*
X293665Y128084D01*
X296096Y130515D01*
X299534Y130515D01*
X301965Y128084D01*
X301965Y124646D01*
X299534Y122215D01*
X296096Y122215D01*
G37*
%LPD*%
%LPC*%
G36*
X254186Y122215D02*
X254186Y122215D01*
X251755Y124646D01*
X251755Y128084D01*
X254186Y130515D01*
X257624Y130515D01*
X260055Y128084D01*
X260055Y124646D01*
X257624Y122215D01*
X254186Y122215D01*
G37*
%LPD*%
%LPC*%
G36*
X335466Y27600D02*
X335466Y27600D01*
X333035Y30031D01*
X333035Y33469D01*
X335466Y35900D01*
X338904Y35900D01*
X341335Y33469D01*
X341335Y30031D01*
X338904Y27600D01*
X335466Y27600D01*
G37*
%LPD*%
%LPC*%
G36*
X381186Y152695D02*
X381186Y152695D01*
X378755Y155126D01*
X378755Y158564D01*
X381186Y160995D01*
X384624Y160995D01*
X387055Y158564D01*
X387055Y155126D01*
X384624Y152695D01*
X381186Y152695D01*
G37*
%LPD*%
%LPC*%
G36*
X320861Y162855D02*
X320861Y162855D01*
X318430Y165286D01*
X318430Y168724D01*
X320861Y171155D01*
X324299Y171155D01*
X326730Y168724D01*
X326730Y165286D01*
X324299Y162855D01*
X320861Y162855D01*
G37*
%LPD*%
%LPC*%
G36*
X242121Y167300D02*
X242121Y167300D01*
X239690Y169731D01*
X239690Y173169D01*
X242121Y175600D01*
X245559Y175600D01*
X247990Y173169D01*
X247990Y169731D01*
X245559Y167300D01*
X242121Y167300D01*
G37*
%LPD*%
%LPC*%
G36*
X374836Y180000D02*
X374836Y180000D01*
X372405Y182431D01*
X372405Y185869D01*
X374836Y188300D01*
X378274Y188300D01*
X380705Y185869D01*
X380705Y182431D01*
X378274Y180000D01*
X374836Y180000D01*
G37*
%LPD*%
%LPC*%
G36*
X277681Y188255D02*
X277681Y188255D01*
X275250Y190686D01*
X275250Y194124D01*
X277681Y196555D01*
X281119Y196555D01*
X283550Y194124D01*
X283550Y190686D01*
X281119Y188255D01*
X277681Y188255D01*
G37*
%LPD*%
%LPC*%
G36*
X168958Y321288D02*
X168958Y321288D01*
X168892Y321315D01*
X168821Y321323D01*
X168789Y321331D01*
X168766Y321329D01*
X168725Y321333D01*
X165436Y321333D01*
X163218Y323551D01*
X163218Y326689D01*
X165436Y328907D01*
X168574Y328907D01*
X170792Y326689D01*
X170792Y323551D01*
X169192Y321951D01*
X169150Y321893D01*
X169100Y321841D01*
X169078Y321794D01*
X169048Y321752D01*
X169027Y321683D01*
X168997Y321618D01*
X168991Y321566D01*
X168976Y321516D01*
X168977Y321445D01*
X168970Y321374D01*
X168981Y321323D01*
X168982Y321282D01*
X168958Y321288D01*
G37*
%LPD*%
%LPC*%
G36*
X177374Y333271D02*
X177374Y333271D01*
X175156Y335489D01*
X175156Y338627D01*
X176883Y340354D01*
X176925Y340412D01*
X176975Y340464D01*
X176997Y340511D01*
X177027Y340553D01*
X177048Y340622D01*
X177078Y340687D01*
X177084Y340739D01*
X177099Y340789D01*
X177098Y340859D01*
X177127Y340855D01*
X177159Y340847D01*
X177182Y340849D01*
X177223Y340845D01*
X180512Y340845D01*
X182730Y338627D01*
X182730Y335489D01*
X180512Y333271D01*
X177374Y333271D01*
G37*
%LPD*%
%LPC*%
G36*
X763479Y295425D02*
X763479Y295425D01*
X761261Y297643D01*
X761261Y300781D01*
X763479Y302999D01*
X766617Y302999D01*
X768835Y300781D01*
X768835Y297643D01*
X766617Y295425D01*
X763479Y295425D01*
G37*
%LPD*%
%LPC*%
G36*
X655275Y295425D02*
X655275Y295425D01*
X653057Y297643D01*
X653057Y300781D01*
X655275Y302999D01*
X658413Y302999D01*
X660631Y300781D01*
X660631Y297643D01*
X658413Y295425D01*
X655275Y295425D01*
G37*
%LPD*%
%LPC*%
G36*
X80981Y16533D02*
X80981Y16533D01*
X78763Y18751D01*
X78763Y21889D01*
X80981Y24107D01*
X84119Y24107D01*
X86337Y21889D01*
X86337Y18751D01*
X84119Y16533D01*
X80981Y16533D01*
G37*
%LPD*%
%LPC*%
G36*
X136861Y50823D02*
X136861Y50823D01*
X134643Y53041D01*
X134643Y56179D01*
X136861Y58397D01*
X139999Y58397D01*
X142217Y56179D01*
X142217Y53041D01*
X139999Y50823D01*
X136861Y50823D01*
G37*
%LPD*%
%LPC*%
G36*
X565867Y302029D02*
X565867Y302029D01*
X563649Y304247D01*
X563649Y307385D01*
X565867Y309603D01*
X569005Y309603D01*
X571223Y307385D01*
X571223Y304247D01*
X569005Y302029D01*
X565867Y302029D01*
G37*
%LPD*%
%LPC*%
G36*
X693121Y302283D02*
X693121Y302283D01*
X690903Y304501D01*
X690903Y307639D01*
X693121Y309857D01*
X696259Y309857D01*
X698477Y307639D01*
X698477Y304501D01*
X696259Y302283D01*
X693121Y302283D01*
G37*
%LPD*%
%LPC*%
G36*
X718521Y302283D02*
X718521Y302283D01*
X716303Y304501D01*
X716303Y307639D01*
X718521Y309857D01*
X721659Y309857D01*
X723877Y307639D01*
X723877Y304501D01*
X721659Y302283D01*
X718521Y302283D01*
G37*
%LPD*%
%LPC*%
G36*
X674071Y308633D02*
X674071Y308633D01*
X671853Y310851D01*
X671853Y313989D01*
X674071Y316207D01*
X677209Y316207D01*
X679427Y313989D01*
X679427Y310851D01*
X677209Y308633D01*
X674071Y308633D01*
G37*
%LPD*%
%LPC*%
G36*
X531831Y29233D02*
X531831Y29233D01*
X529613Y31451D01*
X529613Y34589D01*
X531831Y36807D01*
X534969Y36807D01*
X537187Y34589D01*
X537187Y31451D01*
X534969Y29233D01*
X531831Y29233D01*
G37*
%LPD*%
%LPC*%
G36*
X705059Y309141D02*
X705059Y309141D01*
X702841Y311359D01*
X702841Y314497D01*
X705059Y316715D01*
X708197Y316715D01*
X710415Y314497D01*
X710415Y311359D01*
X708197Y309141D01*
X705059Y309141D01*
G37*
%LPD*%
%LPC*%
G36*
X214331Y313713D02*
X214331Y313713D01*
X212113Y315931D01*
X212113Y319069D01*
X214331Y321287D01*
X217469Y321287D01*
X219687Y319069D01*
X219687Y315931D01*
X217469Y313713D01*
X214331Y313713D01*
G37*
%LPD*%
%LPC*%
G36*
X204171Y313713D02*
X204171Y313713D01*
X201953Y315931D01*
X201953Y319069D01*
X204171Y321287D01*
X207309Y321287D01*
X209527Y319069D01*
X209527Y315931D01*
X207309Y313713D01*
X204171Y313713D01*
G37*
%LPD*%
%LPC*%
G36*
X655021Y314983D02*
X655021Y314983D01*
X652803Y317201D01*
X652803Y320339D01*
X655021Y322557D01*
X658159Y322557D01*
X660377Y320339D01*
X660377Y317201D01*
X658159Y314983D01*
X655021Y314983D01*
G37*
%LPD*%
%LPC*%
G36*
X160356Y17168D02*
X160356Y17168D01*
X158138Y19386D01*
X158138Y22524D01*
X160356Y24742D01*
X163494Y24742D01*
X165712Y22524D01*
X165712Y19386D01*
X163494Y17168D01*
X160356Y17168D01*
G37*
%LPD*%
%LPC*%
G36*
X210521Y227353D02*
X210521Y227353D01*
X208303Y229571D01*
X208303Y232709D01*
X210521Y234927D01*
X213659Y234927D01*
X215877Y232709D01*
X215877Y229571D01*
X213659Y227353D01*
X210521Y227353D01*
G37*
%LPD*%
%LPC*%
G36*
X162261Y105433D02*
X162261Y105433D01*
X160043Y107651D01*
X160043Y110789D01*
X162261Y113007D01*
X165399Y113007D01*
X167617Y110789D01*
X167617Y107651D01*
X165399Y105433D01*
X162261Y105433D01*
G37*
%LPD*%
%LPC*%
G36*
X794086Y112418D02*
X794086Y112418D01*
X791868Y114636D01*
X791868Y117774D01*
X794086Y119992D01*
X797224Y119992D01*
X799442Y117774D01*
X799442Y114636D01*
X797224Y112418D01*
X794086Y112418D01*
G37*
%LPD*%
%LPC*%
G36*
X188931Y123213D02*
X188931Y123213D01*
X186713Y125431D01*
X186713Y128569D01*
X188931Y130787D01*
X192069Y130787D01*
X194287Y128569D01*
X194287Y125431D01*
X192069Y123213D01*
X188931Y123213D01*
G37*
%LPD*%
%LPC*%
G36*
X184867Y90701D02*
X184867Y90701D01*
X182649Y92919D01*
X182649Y96057D01*
X184867Y98275D01*
X188005Y98275D01*
X190223Y96057D01*
X190223Y92919D01*
X188005Y90701D01*
X184867Y90701D01*
G37*
%LPD*%
%LPC*%
G36*
X107016Y136548D02*
X107016Y136548D01*
X104798Y138766D01*
X104798Y141904D01*
X107016Y144122D01*
X110154Y144122D01*
X112372Y141904D01*
X112372Y138766D01*
X110154Y136548D01*
X107016Y136548D01*
G37*
%LPD*%
%LPC*%
G36*
X92411Y148613D02*
X92411Y148613D01*
X90193Y150831D01*
X90193Y153969D01*
X92411Y156187D01*
X95549Y156187D01*
X97767Y153969D01*
X97767Y150831D01*
X95549Y148613D01*
X92411Y148613D01*
G37*
%LPD*%
%LPC*%
G36*
X192741Y149883D02*
X192741Y149883D01*
X190523Y152101D01*
X190523Y155239D01*
X192741Y157457D01*
X195879Y157457D01*
X198097Y155239D01*
X198097Y152101D01*
X195879Y149883D01*
X192741Y149883D01*
G37*
%LPD*%
%LPC*%
G36*
X98126Y80033D02*
X98126Y80033D01*
X95908Y82251D01*
X95908Y85389D01*
X98126Y87607D01*
X101264Y87607D01*
X103482Y85389D01*
X103482Y82251D01*
X101264Y80033D01*
X98126Y80033D01*
G37*
%LPD*%
%LPC*%
G36*
X567391Y195603D02*
X567391Y195603D01*
X565173Y197821D01*
X565173Y200959D01*
X567391Y203177D01*
X570529Y203177D01*
X572747Y200959D01*
X572747Y197821D01*
X570529Y195603D01*
X567391Y195603D01*
G37*
%LPD*%
%LPC*%
G36*
X818851Y195603D02*
X818851Y195603D01*
X816633Y197821D01*
X816633Y200959D01*
X818851Y203177D01*
X821989Y203177D01*
X824207Y200959D01*
X824207Y197821D01*
X821989Y195603D01*
X818851Y195603D01*
G37*
%LPD*%
%LPC*%
G36*
X183851Y73683D02*
X183851Y73683D01*
X181633Y75901D01*
X181633Y79039D01*
X183851Y81257D01*
X186989Y81257D01*
X189207Y79039D01*
X189207Y75901D01*
X186989Y73683D01*
X183851Y73683D01*
G37*
%LPD*%
%LPC*%
G36*
X103841Y227353D02*
X103841Y227353D01*
X101623Y229571D01*
X101623Y232709D01*
X103841Y234927D01*
X106979Y234927D01*
X109197Y232709D01*
X109197Y229571D01*
X106979Y227353D01*
X103841Y227353D01*
G37*
%LPD*%
%LPC*%
G36*
X623779Y295425D02*
X623779Y295425D01*
X621561Y297643D01*
X621561Y300781D01*
X623779Y302999D01*
X626917Y302999D01*
X629135Y300781D01*
X629135Y297643D01*
X626917Y295425D01*
X623779Y295425D01*
G37*
%LPD*%
%LPC*%
G36*
X745191Y244625D02*
X745191Y244625D01*
X742973Y246843D01*
X742973Y249981D01*
X745191Y252199D01*
X748329Y252199D01*
X750547Y249981D01*
X750547Y246843D01*
X748329Y244625D01*
X745191Y244625D01*
G37*
%LPD*%
%LPC*%
G36*
X144481Y60983D02*
X144481Y60983D01*
X142263Y63201D01*
X142263Y66339D01*
X144481Y68557D01*
X147619Y68557D01*
X149837Y66339D01*
X149837Y63201D01*
X147619Y60983D01*
X144481Y60983D01*
G37*
%LPD*%
%LPC*%
G36*
X642321Y251483D02*
X642321Y251483D01*
X640103Y253701D01*
X640103Y256839D01*
X642321Y259057D01*
X645459Y259057D01*
X647677Y256839D01*
X647677Y253701D01*
X645459Y251483D01*
X642321Y251483D01*
G37*
%LPD*%
%LPC*%
G36*
X667721Y251483D02*
X667721Y251483D01*
X665503Y253701D01*
X665503Y256839D01*
X667721Y259057D01*
X670859Y259057D01*
X673077Y256839D01*
X673077Y253701D01*
X670859Y251483D01*
X667721Y251483D01*
G37*
%LPD*%
%LPC*%
G36*
X718521Y251483D02*
X718521Y251483D01*
X716303Y253701D01*
X716303Y256839D01*
X718521Y259057D01*
X721659Y259057D01*
X723877Y256839D01*
X723877Y253701D01*
X721659Y251483D01*
X718521Y251483D01*
G37*
%LPD*%
%LPC*%
G36*
X426421Y269898D02*
X426421Y269898D01*
X424203Y272116D01*
X424203Y275254D01*
X426421Y277472D01*
X429559Y277472D01*
X431777Y275254D01*
X431777Y272116D01*
X429559Y269898D01*
X426421Y269898D01*
G37*
%LPD*%
%LPC*%
G36*
X623779Y270025D02*
X623779Y270025D01*
X621561Y272243D01*
X621561Y275381D01*
X623779Y277599D01*
X626917Y277599D01*
X629135Y275381D01*
X629135Y272243D01*
X626917Y270025D01*
X623779Y270025D01*
G37*
%LPD*%
%LPC*%
G36*
X74631Y59713D02*
X74631Y59713D01*
X72413Y61931D01*
X72413Y65069D01*
X74631Y67287D01*
X77769Y67287D01*
X79987Y65069D01*
X79987Y61931D01*
X77769Y59713D01*
X74631Y59713D01*
G37*
%LPD*%
%LPC*%
G36*
X667975Y270025D02*
X667975Y270025D01*
X665757Y272243D01*
X665757Y275381D01*
X667975Y277599D01*
X671113Y277599D01*
X673331Y275381D01*
X673331Y272243D01*
X671113Y270025D01*
X667975Y270025D01*
G37*
%LPD*%
%LPC*%
G36*
X770083Y271041D02*
X770083Y271041D01*
X767865Y273259D01*
X767865Y276397D01*
X770083Y278615D01*
X773221Y278615D01*
X775439Y276397D01*
X775439Y273259D01*
X773221Y271041D01*
X770083Y271041D01*
G37*
%LPD*%
%LPC*%
G36*
X661879Y283233D02*
X661879Y283233D01*
X659661Y285451D01*
X659661Y288589D01*
X661879Y290807D01*
X665017Y290807D01*
X667235Y288589D01*
X667235Y285451D01*
X665017Y283233D01*
X661879Y283233D01*
G37*
%LPD*%
%LPC*%
G36*
X744175Y295425D02*
X744175Y295425D01*
X741957Y297643D01*
X741957Y300781D01*
X744175Y302999D01*
X747313Y302999D01*
X749531Y300781D01*
X749531Y297643D01*
X747313Y295425D01*
X744175Y295425D01*
G37*
%LPD*%
%LPC*%
G36*
X597871Y448333D02*
X597871Y448333D01*
X595653Y450551D01*
X595653Y453689D01*
X597871Y455907D01*
X601009Y455907D01*
X603227Y453689D01*
X603227Y450551D01*
X601009Y448333D01*
X597871Y448333D01*
G37*
%LPD*%
%LPC*%
G36*
X111207Y476273D02*
X111207Y476273D01*
X108989Y478491D01*
X108989Y481629D01*
X111207Y483847D01*
X114345Y483847D01*
X116563Y481629D01*
X116563Y478491D01*
X114345Y476273D01*
X111207Y476273D01*
G37*
%LPD*%
%LPC*%
G36*
X160991Y471193D02*
X160991Y471193D01*
X158773Y473411D01*
X158773Y476549D01*
X160991Y478767D01*
X164129Y478767D01*
X166347Y476549D01*
X166347Y473411D01*
X164129Y471193D01*
X160991Y471193D01*
G37*
%LPD*%
%LPC*%
G36*
X150831Y466113D02*
X150831Y466113D01*
X148613Y468331D01*
X148613Y471469D01*
X150831Y473687D01*
X153969Y473687D01*
X156187Y471469D01*
X156187Y468331D01*
X153969Y466113D01*
X150831Y466113D01*
G37*
%LPD*%
%LPC*%
G36*
X141179Y461033D02*
X141179Y461033D01*
X138961Y463251D01*
X138961Y466389D01*
X141179Y468607D01*
X144317Y468607D01*
X146535Y466389D01*
X146535Y463251D01*
X144317Y461033D01*
X141179Y461033D01*
G37*
%LPD*%
%LPC*%
G36*
X132289Y455953D02*
X132289Y455953D01*
X130071Y458171D01*
X130071Y461309D01*
X132289Y463527D01*
X135427Y463527D01*
X137645Y461309D01*
X137645Y458171D01*
X135427Y455953D01*
X132289Y455953D01*
G37*
%LPD*%
%LPC*%
G36*
X223856Y454048D02*
X223856Y454048D01*
X221638Y456266D01*
X221638Y459404D01*
X223856Y461622D01*
X226994Y461622D01*
X229212Y459404D01*
X229212Y456266D01*
X226994Y454048D01*
X223856Y454048D01*
G37*
%LPD*%
%LPC*%
G36*
X493731Y453413D02*
X493731Y453413D01*
X491513Y455631D01*
X491513Y458769D01*
X493731Y460987D01*
X496869Y460987D01*
X499087Y458769D01*
X499087Y455631D01*
X496869Y453413D01*
X493731Y453413D01*
G37*
%LPD*%
%LPC*%
G36*
X120859Y450873D02*
X120859Y450873D01*
X118641Y453091D01*
X118641Y456229D01*
X120859Y458447D01*
X123997Y458447D01*
X126215Y456229D01*
X126215Y453091D01*
X123997Y450873D01*
X120859Y450873D01*
G37*
%LPD*%
%LPC*%
G36*
X585171Y448333D02*
X585171Y448333D01*
X582953Y450551D01*
X582953Y453689D01*
X585171Y455907D01*
X588309Y455907D01*
X590527Y453689D01*
X590527Y450551D01*
X588309Y448333D01*
X585171Y448333D01*
G37*
%LPD*%
%LPC*%
G36*
X171151Y476273D02*
X171151Y476273D01*
X168933Y478491D01*
X168933Y481629D01*
X171151Y483847D01*
X174289Y483847D01*
X176507Y481629D01*
X176507Y478491D01*
X174289Y476273D01*
X171151Y476273D01*
G37*
%LPD*%
%LPC*%
G36*
X818851Y447063D02*
X818851Y447063D01*
X816633Y449281D01*
X816633Y452419D01*
X818851Y454637D01*
X821989Y454637D01*
X824207Y452419D01*
X824207Y449281D01*
X821989Y447063D01*
X818851Y447063D01*
G37*
%LPD*%
%LPC*%
G36*
X567391Y447063D02*
X567391Y447063D01*
X565173Y449281D01*
X565173Y452419D01*
X567391Y454637D01*
X570529Y454637D01*
X572747Y452419D01*
X572747Y449281D01*
X570529Y447063D01*
X567391Y447063D01*
G37*
%LPD*%
%LPC*%
G36*
X505669Y440205D02*
X505669Y440205D01*
X503451Y442423D01*
X503451Y445561D01*
X505669Y447779D01*
X508807Y447779D01*
X511025Y445561D01*
X511025Y442423D01*
X508807Y440205D01*
X505669Y440205D01*
G37*
%LPD*%
%LPC*%
G36*
X582631Y435633D02*
X582631Y435633D01*
X580413Y437851D01*
X580413Y440989D01*
X582631Y443207D01*
X585769Y443207D01*
X587987Y440989D01*
X587987Y437851D01*
X585769Y435633D01*
X582631Y435633D01*
G37*
%LPD*%
%LPC*%
G36*
X595331Y435633D02*
X595331Y435633D01*
X593113Y437851D01*
X593113Y440989D01*
X595331Y443207D01*
X598469Y443207D01*
X600687Y440989D01*
X600687Y437851D01*
X598469Y435633D01*
X595331Y435633D01*
G37*
%LPD*%
%LPC*%
G36*
X223983Y427505D02*
X223983Y427505D01*
X221765Y429723D01*
X221765Y432861D01*
X223983Y435079D01*
X227121Y435079D01*
X229339Y432861D01*
X229339Y429723D01*
X227121Y427505D01*
X223983Y427505D01*
G37*
%LPD*%
%LPC*%
G36*
X822661Y422933D02*
X822661Y422933D01*
X820443Y425151D01*
X820443Y428289D01*
X822661Y430507D01*
X825799Y430507D01*
X828017Y428289D01*
X828017Y425151D01*
X825799Y422933D01*
X822661Y422933D01*
G37*
%LPD*%
%LPC*%
G36*
X595331Y422933D02*
X595331Y422933D01*
X593113Y425151D01*
X593113Y428289D01*
X595331Y430507D01*
X598469Y430507D01*
X600687Y428289D01*
X600687Y425151D01*
X598469Y422933D01*
X595331Y422933D01*
G37*
%LPD*%
%LPC*%
G36*
X540721Y584223D02*
X540721Y584223D01*
X538503Y586441D01*
X538503Y589579D01*
X540721Y591797D01*
X543859Y591797D01*
X546077Y589579D01*
X546077Y586441D01*
X543859Y584223D01*
X540721Y584223D01*
G37*
%LPD*%
%LPC*%
G36*
X52406Y703603D02*
X52406Y703603D01*
X50188Y705821D01*
X50188Y708959D01*
X52406Y711177D01*
X55544Y711177D01*
X57762Y708959D01*
X57762Y705821D01*
X55544Y703603D01*
X52406Y703603D01*
G37*
%LPD*%
%LPC*%
G36*
X55327Y688617D02*
X55327Y688617D01*
X53109Y690835D01*
X53109Y693973D01*
X55327Y696191D01*
X58465Y696191D01*
X60683Y693973D01*
X60683Y690835D01*
X58465Y688617D01*
X55327Y688617D01*
G37*
%LPD*%
%LPC*%
G36*
X128606Y674393D02*
X128606Y674393D01*
X126388Y676611D01*
X126388Y679749D01*
X128606Y681967D01*
X131744Y681967D01*
X133962Y679749D01*
X133962Y676611D01*
X131744Y674393D01*
X128606Y674393D01*
G37*
%LPD*%
%LPC*%
G36*
X112096Y673123D02*
X112096Y673123D01*
X109878Y675341D01*
X109878Y678479D01*
X112096Y680697D01*
X115234Y680697D01*
X117452Y678479D01*
X117452Y675341D01*
X115234Y673123D01*
X112096Y673123D01*
G37*
%LPD*%
%LPC*%
G36*
X83521Y666138D02*
X83521Y666138D01*
X81303Y668356D01*
X81303Y671494D01*
X83521Y673712D01*
X86659Y673712D01*
X88877Y671494D01*
X88877Y668356D01*
X86659Y666138D01*
X83521Y666138D01*
G37*
%LPD*%
%LPC*%
G36*
X232885Y645957D02*
X232885Y645957D01*
X230667Y648175D01*
X230667Y651312D01*
X232885Y653530D01*
X236022Y653530D01*
X238240Y651312D01*
X238240Y648175D01*
X236022Y645957D01*
X232885Y645957D01*
G37*
%LPD*%
%LPC*%
G36*
X112096Y645183D02*
X112096Y645183D01*
X109878Y647401D01*
X109878Y650539D01*
X112096Y652757D01*
X115234Y652757D01*
X117452Y650539D01*
X117452Y647401D01*
X115234Y645183D01*
X112096Y645183D01*
G37*
%LPD*%
%LPC*%
G36*
X337521Y637563D02*
X337521Y637563D01*
X335303Y639781D01*
X335303Y642919D01*
X337521Y645137D01*
X340659Y645137D01*
X342877Y642919D01*
X342877Y639781D01*
X340659Y637563D01*
X337521Y637563D01*
G37*
%LPD*%
%LPC*%
G36*
X117811Y584223D02*
X117811Y584223D01*
X115593Y586441D01*
X115593Y589579D01*
X117811Y591797D01*
X120949Y591797D01*
X123167Y589579D01*
X123167Y586441D01*
X120949Y584223D01*
X117811Y584223D01*
G37*
%LPD*%
%LPC*%
G36*
X582631Y422933D02*
X582631Y422933D01*
X580413Y425151D01*
X580413Y428289D01*
X582631Y430507D01*
X585769Y430507D01*
X587987Y428289D01*
X587987Y425151D01*
X585769Y422933D01*
X582631Y422933D01*
G37*
%LPD*%
%LPC*%
G36*
X121621Y574063D02*
X121621Y574063D01*
X119403Y576281D01*
X119403Y579419D01*
X121621Y581637D01*
X124759Y581637D01*
X126977Y579419D01*
X126977Y576281D01*
X124759Y574063D01*
X121621Y574063D01*
G37*
%LPD*%
%LPC*%
G36*
X117811Y562633D02*
X117811Y562633D01*
X115593Y564851D01*
X115593Y567989D01*
X117811Y570207D01*
X120949Y570207D01*
X123167Y567989D01*
X123167Y564851D01*
X120949Y562633D01*
X117811Y562633D01*
G37*
%LPD*%
%LPC*%
G36*
X651771Y544753D02*
X651771Y544753D01*
X649553Y546971D01*
X649553Y550109D01*
X651771Y552327D01*
X654909Y552327D01*
X657127Y550109D01*
X657127Y546971D01*
X654909Y544753D01*
X651771Y544753D01*
G37*
%LPD*%
%LPC*%
G36*
X681691Y542313D02*
X681691Y542313D01*
X679473Y544531D01*
X679473Y547669D01*
X681691Y549887D01*
X684829Y549887D01*
X687047Y547669D01*
X687047Y544531D01*
X684829Y542313D01*
X681691Y542313D01*
G37*
%LPD*%
%LPC*%
G36*
X117811Y539773D02*
X117811Y539773D01*
X115593Y541991D01*
X115593Y545129D01*
X117811Y547347D01*
X120949Y547347D01*
X123167Y545129D01*
X123167Y541991D01*
X120949Y539773D01*
X117811Y539773D01*
G37*
%LPD*%
%LPC*%
G36*
X115906Y529613D02*
X115906Y529613D01*
X113688Y531831D01*
X113688Y534969D01*
X115906Y537187D01*
X119044Y537187D01*
X121262Y534969D01*
X121262Y531831D01*
X119044Y529613D01*
X115906Y529613D01*
G37*
%LPD*%
%LPC*%
G36*
X117811Y518183D02*
X117811Y518183D01*
X115593Y520401D01*
X115593Y523539D01*
X117811Y525757D01*
X120949Y525757D01*
X123167Y523539D01*
X123167Y520401D01*
X120949Y518183D01*
X117811Y518183D01*
G37*
%LPD*%
%LPC*%
G36*
X117811Y508023D02*
X117811Y508023D01*
X115593Y510241D01*
X115593Y513379D01*
X117811Y515597D01*
X120949Y515597D01*
X123167Y513379D01*
X123167Y510241D01*
X120949Y508023D01*
X117811Y508023D01*
G37*
%LPD*%
%LPC*%
G36*
X623779Y346225D02*
X623779Y346225D01*
X621561Y348443D01*
X621561Y351581D01*
X623779Y353799D01*
X626917Y353799D01*
X629135Y351581D01*
X629135Y348443D01*
X626917Y346225D01*
X623779Y346225D01*
G37*
%LPD*%
%LPC*%
G36*
X763479Y371625D02*
X763479Y371625D01*
X761261Y373843D01*
X761261Y376981D01*
X763479Y379199D01*
X766617Y379199D01*
X768835Y376981D01*
X768835Y373843D01*
X766617Y371625D01*
X763479Y371625D01*
G37*
%LPD*%
%LPC*%
G36*
X655021Y370863D02*
X655021Y370863D01*
X652803Y373081D01*
X652803Y376219D01*
X655021Y378437D01*
X658159Y378437D01*
X660377Y376219D01*
X660377Y373081D01*
X658159Y370863D01*
X655021Y370863D01*
G37*
%LPD*%
%LPC*%
G36*
X743921Y370863D02*
X743921Y370863D01*
X741703Y373081D01*
X741703Y376219D01*
X743921Y378437D01*
X747059Y378437D01*
X749277Y376219D01*
X749277Y373081D01*
X747059Y370863D01*
X743921Y370863D01*
G37*
%LPD*%
%LPC*%
G36*
X642321Y365783D02*
X642321Y365783D01*
X640103Y368001D01*
X640103Y371139D01*
X642321Y373357D01*
X645459Y373357D01*
X647677Y371139D01*
X647677Y368001D01*
X645459Y365783D01*
X642321Y365783D01*
G37*
%LPD*%
%LPC*%
G36*
X667721Y365783D02*
X667721Y365783D01*
X665503Y368001D01*
X665503Y371139D01*
X667721Y373357D01*
X670859Y373357D01*
X673077Y371139D01*
X673077Y368001D01*
X670859Y365783D01*
X667721Y365783D01*
G37*
%LPD*%
%LPC*%
G36*
X649941Y358798D02*
X649941Y358798D01*
X647723Y361016D01*
X647723Y364154D01*
X649941Y366372D01*
X653079Y366372D01*
X655297Y364154D01*
X655297Y361016D01*
X653079Y358798D01*
X649941Y358798D01*
G37*
%LPD*%
%LPC*%
G36*
X718775Y352829D02*
X718775Y352829D01*
X716557Y355047D01*
X716557Y358185D01*
X718775Y360403D01*
X721913Y360403D01*
X724131Y358185D01*
X724131Y355047D01*
X721913Y352829D01*
X718775Y352829D01*
G37*
%LPD*%
%LPC*%
G36*
X667975Y352829D02*
X667975Y352829D01*
X665757Y355047D01*
X665757Y358185D01*
X667975Y360403D01*
X671113Y360403D01*
X673331Y358185D01*
X673331Y355047D01*
X671113Y352829D01*
X667975Y352829D01*
G37*
%LPD*%
%LPC*%
G36*
X763479Y346225D02*
X763479Y346225D01*
X761261Y348443D01*
X761261Y351581D01*
X763479Y353799D01*
X766617Y353799D01*
X768835Y351581D01*
X768835Y348443D01*
X766617Y346225D01*
X763479Y346225D01*
G37*
%LPD*%
%LPC*%
G36*
X623779Y371625D02*
X623779Y371625D01*
X621561Y373843D01*
X621561Y376981D01*
X623779Y379199D01*
X626917Y379199D01*
X629135Y376981D01*
X629135Y373843D01*
X626917Y371625D01*
X623779Y371625D01*
G37*
%LPD*%
%LPC*%
G36*
X578821Y339113D02*
X578821Y339113D01*
X576603Y341331D01*
X576603Y344469D01*
X578821Y346687D01*
X581959Y346687D01*
X584177Y344469D01*
X584177Y341331D01*
X581959Y339113D01*
X578821Y339113D01*
G37*
%LPD*%
%LPC*%
G36*
X731475Y334033D02*
X731475Y334033D01*
X729257Y336251D01*
X729257Y339389D01*
X731475Y341607D01*
X734613Y341607D01*
X736831Y339389D01*
X736831Y336251D01*
X734613Y334033D01*
X731475Y334033D01*
G37*
%LPD*%
%LPC*%
G36*
X706075Y334033D02*
X706075Y334033D01*
X703857Y336251D01*
X703857Y339389D01*
X706075Y341607D01*
X709213Y341607D01*
X711431Y339389D01*
X711431Y336251D01*
X709213Y334033D01*
X706075Y334033D01*
G37*
%LPD*%
%LPC*%
G36*
X654767Y334033D02*
X654767Y334033D01*
X652549Y336251D01*
X652549Y339389D01*
X654767Y341607D01*
X657905Y341607D01*
X660123Y339389D01*
X660123Y336251D01*
X657905Y334033D01*
X654767Y334033D01*
G37*
%LPD*%
%LPC*%
G36*
X346411Y334033D02*
X346411Y334033D01*
X344193Y336251D01*
X344193Y339389D01*
X346411Y341607D01*
X349549Y341607D01*
X351767Y339389D01*
X351767Y336251D01*
X349549Y334033D01*
X346411Y334033D01*
G37*
%LPD*%
%LPC*%
G36*
X271481Y334033D02*
X271481Y334033D01*
X269263Y336251D01*
X269263Y339389D01*
X271481Y341607D01*
X274619Y341607D01*
X276837Y339389D01*
X276837Y336251D01*
X274619Y334033D01*
X271481Y334033D01*
G37*
%LPD*%
%LPC*%
G36*
X514686Y328318D02*
X514686Y328318D01*
X512468Y330536D01*
X512468Y333674D01*
X514686Y335892D01*
X517824Y335892D01*
X520042Y333674D01*
X520042Y330536D01*
X517824Y328318D01*
X514686Y328318D01*
G37*
%LPD*%
%LPC*%
G36*
X731475Y320825D02*
X731475Y320825D01*
X729257Y323043D01*
X729257Y326181D01*
X731475Y328399D01*
X734613Y328399D01*
X736831Y326181D01*
X736831Y323043D01*
X734613Y320825D01*
X731475Y320825D01*
G37*
%LPD*%
%LPC*%
G36*
X808691Y394993D02*
X808691Y394993D01*
X806473Y397211D01*
X806473Y400349D01*
X808691Y402567D01*
X811829Y402567D01*
X814047Y400349D01*
X814047Y397211D01*
X811829Y394993D01*
X808691Y394993D01*
G37*
%LPD*%
%LPC*%
G36*
X223983Y417345D02*
X223983Y417345D01*
X221765Y419563D01*
X221765Y422701D01*
X223983Y424919D01*
X227121Y424919D01*
X229339Y422701D01*
X229339Y419563D01*
X227121Y417345D01*
X223983Y417345D01*
G37*
%LPD*%
%LPC*%
G36*
X808691Y407693D02*
X808691Y407693D01*
X806473Y409911D01*
X806473Y413049D01*
X808691Y415267D01*
X811829Y415267D01*
X814047Y413049D01*
X814047Y409911D01*
X811829Y407693D01*
X808691Y407693D01*
G37*
%LPD*%
%LPC*%
G36*
X783291Y407693D02*
X783291Y407693D01*
X781073Y409911D01*
X781073Y413049D01*
X783291Y415267D01*
X786429Y415267D01*
X788647Y413049D01*
X788647Y409911D01*
X786429Y407693D01*
X783291Y407693D01*
G37*
%LPD*%
%LPC*%
G36*
X795991Y407693D02*
X795991Y407693D01*
X793773Y409911D01*
X793773Y413049D01*
X795991Y415267D01*
X799129Y415267D01*
X801347Y413049D01*
X801347Y409911D01*
X799129Y407693D01*
X795991Y407693D01*
G37*
%LPD*%
%LPC*%
G36*
X223983Y407185D02*
X223983Y407185D01*
X221765Y409403D01*
X221765Y412541D01*
X223983Y414759D01*
X227121Y414759D01*
X229339Y412541D01*
X229339Y409403D01*
X227121Y407185D01*
X223983Y407185D01*
G37*
%LPD*%
%LPC*%
G36*
X543261Y402613D02*
X543261Y402613D01*
X541043Y404831D01*
X541043Y407969D01*
X543261Y410187D01*
X546399Y410187D01*
X548617Y407969D01*
X548617Y404831D01*
X546399Y402613D01*
X543261Y402613D01*
G37*
%LPD*%
%LPC*%
G36*
X751541Y397533D02*
X751541Y397533D01*
X749323Y399751D01*
X749323Y402889D01*
X751541Y405107D01*
X754679Y405107D01*
X756897Y402889D01*
X756897Y399751D01*
X754679Y397533D01*
X751541Y397533D01*
G37*
%LPD*%
%LPC*%
G36*
X223983Y397025D02*
X223983Y397025D01*
X221765Y399243D01*
X221765Y402381D01*
X223983Y404599D01*
X227121Y404599D01*
X229339Y402381D01*
X229339Y399243D01*
X227121Y397025D01*
X223983Y397025D01*
G37*
%LPD*%
%LPC*%
G36*
X693375Y320825D02*
X693375Y320825D01*
X691157Y323043D01*
X691157Y326181D01*
X693375Y328399D01*
X696513Y328399D01*
X698731Y326181D01*
X698731Y323043D01*
X696513Y320825D01*
X693375Y320825D01*
G37*
%LPD*%
%LPC*%
G36*
X795991Y394993D02*
X795991Y394993D01*
X793773Y397211D01*
X793773Y400349D01*
X795991Y402567D01*
X799129Y402567D01*
X801347Y400349D01*
X801347Y397211D01*
X799129Y394993D01*
X795991Y394993D01*
G37*
%LPD*%
%LPC*%
G36*
X783291Y394993D02*
X783291Y394993D01*
X781073Y397211D01*
X781073Y400349D01*
X783291Y402567D01*
X786429Y402567D01*
X788647Y400349D01*
X788647Y397211D01*
X786429Y394993D01*
X783291Y394993D01*
G37*
%LPD*%
%LPC*%
G36*
X718775Y390929D02*
X718775Y390929D01*
X716557Y393147D01*
X716557Y396285D01*
X718775Y398503D01*
X721913Y398503D01*
X724131Y396285D01*
X724131Y393147D01*
X721913Y390929D01*
X718775Y390929D01*
G37*
%LPD*%
%LPC*%
G36*
X680675Y390929D02*
X680675Y390929D01*
X678457Y393147D01*
X678457Y396285D01*
X680675Y398503D01*
X683813Y398503D01*
X686031Y396285D01*
X686031Y393147D01*
X683813Y390929D01*
X680675Y390929D01*
G37*
%LPD*%
%LPC*%
G36*
X744175Y390929D02*
X744175Y390929D01*
X741957Y393147D01*
X741957Y396285D01*
X744175Y398503D01*
X747313Y398503D01*
X749531Y396285D01*
X749531Y393147D01*
X747313Y390929D01*
X744175Y390929D01*
G37*
%LPD*%
%LPC*%
G36*
X783291Y382293D02*
X783291Y382293D01*
X781073Y384511D01*
X781073Y387649D01*
X783291Y389867D01*
X786429Y389867D01*
X788647Y387649D01*
X788647Y384511D01*
X786429Y382293D01*
X783291Y382293D01*
G37*
%LPD*%
%LPC*%
G36*
X680421Y378483D02*
X680421Y378483D01*
X678203Y380701D01*
X678203Y383839D01*
X680421Y386057D01*
X683559Y386057D01*
X685777Y383839D01*
X685777Y380701D01*
X683559Y378483D01*
X680421Y378483D01*
G37*
%LPD*%
%LPC*%
G36*
X712171Y372133D02*
X712171Y372133D01*
X709953Y374351D01*
X709953Y377489D01*
X712171Y379707D01*
X715309Y379707D01*
X717527Y377489D01*
X717527Y374351D01*
X715309Y372133D01*
X712171Y372133D01*
G37*
%LPD*%
D10*
X27500Y632800D03*
X27500Y752200D03*
X69700Y647000D03*
D11*
X65450Y650590D03*
D10*
X69700Y738000D03*
D11*
X65450Y734410D03*
D12*
X656590Y586740D03*
X647590Y595740D03*
X647590Y577740D03*
X665590Y577740D03*
X665590Y595740D03*
D13*
X568960Y450850D03*
X820420Y450850D03*
X820420Y199390D03*
D14*
X618490Y248920D03*
X618490Y401320D03*
X770890Y401320D03*
X770890Y248920D03*
D13*
X568960Y199390D03*
X117475Y533400D03*
X567436Y305816D03*
X625348Y375412D03*
X625348Y350012D03*
D14*
X631444Y325120D03*
D13*
X625348Y299212D03*
X625348Y273812D03*
X656844Y394716D03*
X682244Y394716D03*
X745744Y394716D03*
X720344Y394716D03*
D14*
X694944Y388620D03*
D13*
X771652Y274828D03*
X765048Y299212D03*
X765048Y375412D03*
X765048Y350012D03*
D14*
X758444Y325120D03*
D13*
X720090Y306070D03*
X706628Y312928D03*
X694690Y306070D03*
X675640Y312420D03*
X656590Y318770D03*
X643890Y369570D03*
X656590Y374650D03*
X669290Y369570D03*
X681990Y382270D03*
X713740Y375920D03*
X732790Y369570D03*
X745490Y374650D03*
X746760Y248412D03*
X720090Y255270D03*
X669290Y255270D03*
X643890Y255270D03*
D14*
X694944Y261620D03*
D13*
X212090Y231140D03*
X105410Y231140D03*
X93980Y152400D03*
X186436Y94488D03*
X76200Y63500D03*
X138430Y54610D03*
X194310Y153670D03*
X225425Y457835D03*
X215900Y317500D03*
X205740Y317500D03*
X533400Y33020D03*
X427990Y273685D03*
X185420Y316992D03*
X824230Y426720D03*
D14*
X762000Y588010D03*
D13*
X273050Y337820D03*
X347980Y337820D03*
X516255Y332105D03*
D15*
X364490Y648970D03*
D13*
X113665Y648970D03*
D16*
X116205Y317500D03*
D13*
X113665Y676910D03*
D15*
X387350Y197485D03*
X393065Y71120D03*
X436245Y36830D03*
X337185Y31750D03*
X322580Y167005D03*
X279400Y192405D03*
D13*
X683260Y546100D03*
X56896Y692404D03*
X81534Y689737D03*
X528320Y386080D03*
X240030Y388620D03*
X236220Y566420D03*
X532765Y389890D03*
X243840Y393065D03*
X240030Y570865D03*
X85090Y694690D03*
X119380Y543560D03*
X596900Y439420D03*
X119380Y566420D03*
X584200Y439420D03*
X119380Y521970D03*
X599440Y452120D03*
X119380Y511810D03*
X596900Y426720D03*
X119380Y588010D03*
X584200Y426720D03*
X123190Y577850D03*
X586740Y452120D03*
D14*
X682244Y337820D03*
D13*
X707644Y337820D03*
X694944Y324612D03*
X656336Y337820D03*
X745744Y299212D03*
X669544Y273812D03*
X663448Y287020D03*
X656844Y299212D03*
X753110Y401320D03*
X733044Y337820D03*
X733044Y324612D03*
X53975Y707390D03*
X53975Y677545D03*
X523240Y382270D03*
X234950Y384810D03*
X232410Y561340D03*
X130175Y678180D03*
X53340Y669925D03*
X85090Y669925D03*
X669544Y356616D03*
X720344Y356616D03*
X738505Y362585D03*
X651510Y362585D03*
D14*
X694944Y363220D03*
D13*
X122428Y454660D03*
X544830Y406400D03*
X142748Y464820D03*
X554736Y388112D03*
X152400Y469900D03*
X558800Y393192D03*
X172720Y480060D03*
X560070Y383413D03*
X133858Y459740D03*
X549910Y383540D03*
X162560Y474980D03*
X562610Y398018D03*
X225552Y400812D03*
X492760Y441960D03*
X225552Y421132D03*
X507238Y443992D03*
X225552Y410972D03*
X497205Y447040D03*
X225552Y431292D03*
X495300Y457200D03*
X128778Y660146D03*
X674370Y472440D03*
X653415Y400685D03*
X845820Y325120D03*
X845820Y304800D03*
X132969Y664591D03*
X669290Y476885D03*
X647065Y400050D03*
X850900Y331470D03*
X850900Y309880D03*
X112776Y480060D03*
X580390Y342900D03*
X797560Y411480D03*
X183515Y354330D03*
X174625Y345440D03*
X784860Y411480D03*
X190373Y348488D03*
X190373Y321183D03*
X810260Y411480D03*
X167005Y325120D03*
X167005Y344170D03*
X784860Y398780D03*
X797560Y398780D03*
X190500Y354965D03*
X171450Y316865D03*
X810260Y398780D03*
X178943Y337058D03*
X175768Y320802D03*
X784860Y386080D03*
X108712Y54356D03*
X121920Y203200D03*
X100457Y72644D03*
D17*
X108712Y64389D01*
X108712Y54356D01*
D13*
X116205Y204470D03*
X99695Y83820D03*
X163830Y109220D03*
X190500Y127000D03*
X108585Y140335D03*
X101600Y60325D03*
X146050Y64770D03*
X185420Y77470D03*
X114300Y64770D03*
X82550Y20320D03*
D15*
X277495Y95885D03*
X243840Y171450D03*
D13*
X132481Y294406D03*
X135996Y299720D03*
X142240Y299720D03*
D14*
X820420Y567690D03*
X720344Y274320D03*
D13*
X133350Y317500D03*
X204470Y450850D03*
X572770Y33020D03*
X389890Y252095D03*
X182880Y501650D03*
X92710Y554990D03*
X412750Y189230D03*
X407670Y133350D03*
X314960Y73660D03*
X339090Y641350D03*
X653340Y548540D03*
X161925Y54610D03*
X161925Y20955D03*
X795655Y116205D03*
X542290Y588010D03*
D18*
X427990Y594360D03*
X379730Y594360D03*
D13*
X153670Y54610D03*
D19*
X687070Y572770D03*
D14*
X760730Y558800D03*
X745490Y274320D03*
X403860Y342900D03*
D18*
X300990Y661670D03*
D13*
X234454Y649744D03*
D15*
X421640Y63500D03*
X297815Y126365D03*
X376555Y184150D03*
X382905Y156845D03*
X447040Y133350D03*
X381000Y106045D03*
X391795Y106045D03*
X347980Y45085D03*
X341630Y72390D03*
X255905Y126365D03*
X343535Y127000D03*
X336550Y127000D03*
X254635Y100965D03*
M02*
