G04 EAGLE Gerber RS-274X export*
G75*
%MOMM*%
%FSLAX34Y34*%
%LPD*%
%IN*%
%IPPOS*%
%AMOC8*
5,1,8,0,0,1.08239X$1,22.5*%
G01*
%ADD10C,0.254000*%


D10*
X0Y631000D02*
X13525Y631000D01*
X18415Y624840D01*
X36830Y624840D01*
X41720Y631000D01*
X49000Y631000D01*
X49959Y630958D01*
X50910Y630833D01*
X51847Y630625D01*
X52762Y630337D01*
X53649Y629969D01*
X54500Y629526D01*
X55309Y629011D01*
X56071Y628427D01*
X56778Y627778D01*
X57427Y627071D01*
X58011Y626309D01*
X58526Y625500D01*
X58969Y624649D01*
X59337Y623762D01*
X59625Y622847D01*
X59833Y621910D01*
X59958Y620959D01*
X60000Y620000D01*
X60000Y408250D01*
X163000Y408250D01*
X164046Y408204D01*
X165084Y408068D01*
X166106Y407841D01*
X167104Y407526D01*
X168071Y407126D01*
X169000Y406642D01*
X169883Y406080D01*
X170713Y405443D01*
X171485Y404735D01*
X172193Y403963D01*
X172830Y403133D01*
X173392Y402250D01*
X173876Y401321D01*
X174276Y400354D01*
X174591Y399356D01*
X174818Y398334D01*
X174954Y397296D01*
X175000Y396250D01*
X174954Y395204D01*
X174818Y394166D01*
X174591Y393144D01*
X174276Y392146D01*
X173876Y391179D01*
X173392Y390250D01*
X172830Y389367D01*
X172193Y388537D01*
X171485Y387765D01*
X170713Y387057D01*
X169883Y386420D01*
X169000Y385858D01*
X168071Y385374D01*
X167104Y384974D01*
X166106Y384659D01*
X165084Y384432D01*
X164046Y384296D01*
X163000Y384250D01*
X60000Y384250D01*
X60000Y299000D01*
X62314Y297008D01*
X64446Y294823D01*
X66380Y292459D01*
X68100Y289937D01*
X69594Y287274D01*
X70849Y284490D01*
X71858Y281608D01*
X72611Y278649D01*
X73104Y275636D01*
X73332Y272591D01*
X73294Y269538D01*
X72990Y266500D01*
X72423Y263500D01*
X71596Y260561D01*
X70516Y257705D01*
X69191Y254954D01*
X67632Y252328D01*
X65849Y249849D01*
X63858Y247535D01*
X61672Y245403D01*
X60000Y244000D01*
X60000Y0D01*
X112000Y0D01*
X112049Y1133D01*
X112198Y2257D01*
X112443Y3365D01*
X112784Y4446D01*
X113218Y5494D01*
X113742Y6500D01*
X114351Y7457D01*
X115041Y8356D01*
X115808Y9192D01*
X116644Y9959D01*
X117544Y10649D01*
X118500Y11258D01*
X119506Y11782D01*
X120554Y12216D01*
X121635Y12557D01*
X122743Y12803D01*
X123867Y12951D01*
X125000Y13000D01*
X186000Y13000D01*
X187133Y12951D01*
X188257Y12803D01*
X189365Y12557D01*
X190446Y12216D01*
X191494Y11782D01*
X192500Y11258D01*
X193457Y10649D01*
X194356Y9959D01*
X195192Y9192D01*
X195959Y8356D01*
X196649Y7457D01*
X197258Y6500D01*
X197782Y5494D01*
X198216Y4446D01*
X198557Y3365D01*
X198803Y2257D01*
X198951Y1133D01*
X199000Y0D01*
X1063000Y0D01*
X1063000Y30000D01*
X1063042Y30959D01*
X1063167Y31910D01*
X1063375Y32847D01*
X1063663Y33762D01*
X1064031Y34649D01*
X1064474Y35500D01*
X1064989Y36309D01*
X1065574Y37071D01*
X1066222Y37778D01*
X1066929Y38426D01*
X1067691Y39011D01*
X1068500Y39526D01*
X1069351Y39969D01*
X1070238Y40337D01*
X1071153Y40625D01*
X1072090Y40833D01*
X1073041Y40958D01*
X1074000Y41000D01*
X1413000Y41000D01*
X1413959Y40958D01*
X1414910Y40833D01*
X1415847Y40625D01*
X1416762Y40337D01*
X1417649Y39969D01*
X1418500Y39526D01*
X1419309Y39011D01*
X1420071Y38426D01*
X1420778Y37778D01*
X1421427Y37071D01*
X1422011Y36309D01*
X1422526Y35500D01*
X1422969Y34649D01*
X1423337Y33762D01*
X1423625Y32847D01*
X1423833Y31910D01*
X1423958Y30959D01*
X1424000Y30000D01*
X1424000Y0D01*
X1480000Y0D01*
X1480049Y1133D01*
X1480198Y2257D01*
X1480443Y3365D01*
X1480784Y4446D01*
X1481218Y5494D01*
X1481742Y6500D01*
X1482351Y7457D01*
X1483041Y8356D01*
X1483808Y9192D01*
X1484644Y9959D01*
X1485544Y10649D01*
X1486500Y11258D01*
X1487506Y11782D01*
X1488554Y12216D01*
X1489635Y12557D01*
X1490743Y12803D01*
X1491867Y12951D01*
X1493000Y13000D01*
X1561000Y13000D01*
X1561000Y32000D01*
X1556000Y32000D01*
X1555128Y32038D01*
X1554264Y32152D01*
X1553412Y32341D01*
X1552580Y32603D01*
X1551774Y32937D01*
X1551000Y33340D01*
X1550264Y33808D01*
X1549572Y34340D01*
X1548929Y34929D01*
X1548340Y35572D01*
X1547808Y36264D01*
X1547340Y37000D01*
X1546937Y37774D01*
X1546603Y38580D01*
X1546341Y39412D01*
X1546152Y40264D01*
X1546038Y41128D01*
X1546000Y42000D01*
X1546000Y57000D01*
X1546038Y57872D01*
X1546152Y58736D01*
X1546341Y59588D01*
X1546603Y60420D01*
X1546937Y61226D01*
X1547340Y62000D01*
X1547808Y62736D01*
X1548340Y63428D01*
X1548929Y64071D01*
X1549572Y64660D01*
X1550264Y65192D01*
X1551000Y65660D01*
X1551774Y66063D01*
X1552580Y66397D01*
X1553412Y66659D01*
X1554264Y66848D01*
X1555128Y66962D01*
X1556000Y67000D01*
X1565000Y67000D01*
X1565178Y71082D01*
X1565712Y75134D01*
X1566596Y79123D01*
X1567825Y83020D01*
X1569389Y86796D01*
X1571275Y90420D01*
X1573471Y93866D01*
X1575959Y97108D01*
X1578719Y100121D01*
X1581732Y102882D01*
X1584974Y105369D01*
X1588420Y107565D01*
X1592045Y109452D01*
X1595820Y111015D01*
X1598840Y112000D01*
X1579920Y130920D01*
X1579449Y131435D01*
X1579024Y131988D01*
X1578649Y132577D01*
X1578326Y133196D01*
X1578059Y133841D01*
X1577850Y134506D01*
X1577698Y135188D01*
X1577607Y135880D01*
X1577577Y136577D01*
X1577607Y137274D01*
X1577698Y137966D01*
X1577850Y138648D01*
X1578059Y139313D01*
X1578326Y139958D01*
X1578649Y140577D01*
X1579024Y141166D01*
X1579449Y141719D01*
X1579920Y142234D01*
X1580435Y142705D01*
X1580988Y143130D01*
X1581577Y143505D01*
X1582196Y143827D01*
X1582841Y144095D01*
X1583506Y144304D01*
X1584188Y144455D01*
X1584880Y144547D01*
X1585577Y144577D01*
X1586274Y144547D01*
X1586966Y144455D01*
X1587648Y144304D01*
X1588313Y144095D01*
X1588958Y143827D01*
X1589577Y143505D01*
X1590166Y143130D01*
X1590719Y142705D01*
X1591234Y142234D01*
X1617000Y168000D01*
X1353000Y168000D01*
X1353000Y166000D01*
X1352954Y164954D01*
X1352818Y163916D01*
X1352591Y162894D01*
X1352276Y161896D01*
X1351876Y160929D01*
X1351392Y160000D01*
X1350830Y159117D01*
X1350193Y158287D01*
X1349485Y157515D01*
X1348713Y156807D01*
X1347883Y156170D01*
X1347000Y155608D01*
X1346071Y155124D01*
X1345104Y154724D01*
X1344106Y154409D01*
X1343084Y154182D01*
X1342046Y154046D01*
X1341000Y154000D01*
X1254000Y154000D01*
X1252954Y154046D01*
X1251916Y154182D01*
X1250894Y154409D01*
X1249896Y154724D01*
X1248929Y155124D01*
X1248000Y155608D01*
X1247117Y156170D01*
X1246287Y156807D01*
X1245515Y157515D01*
X1244807Y158287D01*
X1244170Y159117D01*
X1243608Y160000D01*
X1243124Y160929D01*
X1242724Y161896D01*
X1242409Y162894D01*
X1242182Y163916D01*
X1242046Y164954D01*
X1242000Y166000D01*
X1242000Y173000D01*
X1242046Y174046D01*
X1242182Y175084D01*
X1242409Y176106D01*
X1242724Y177104D01*
X1243124Y178071D01*
X1243608Y179000D01*
X1244170Y179883D01*
X1244807Y180713D01*
X1245515Y181485D01*
X1246287Y182193D01*
X1247117Y182830D01*
X1248000Y183392D01*
X1248929Y183876D01*
X1249896Y184276D01*
X1250894Y184591D01*
X1251916Y184818D01*
X1252954Y184954D01*
X1254000Y185000D01*
X1262000Y185000D01*
X1262000Y225000D01*
X1261287Y224865D01*
X1260565Y224792D01*
X1259840Y224783D01*
X1259116Y224837D01*
X1258400Y224953D01*
X1257697Y225132D01*
X1257012Y225371D01*
X1256351Y225669D01*
X1255718Y226024D01*
X1255118Y226432D01*
X1254557Y226891D01*
X1254037Y227398D01*
X1253564Y227947D01*
X1253140Y228536D01*
X1252769Y229160D01*
X1252454Y229813D01*
X1252197Y230492D01*
X1252000Y231190D01*
X1252000Y270510D01*
X876140Y270510D01*
X875268Y270548D01*
X874404Y270662D01*
X873552Y270851D01*
X872720Y271113D01*
X871914Y271447D01*
X871140Y271850D01*
X870404Y272318D01*
X869712Y272850D01*
X869069Y273439D01*
X868480Y274082D01*
X867948Y274774D01*
X867480Y275510D01*
X867077Y276284D01*
X866743Y277090D01*
X866481Y277922D01*
X866292Y278774D01*
X866178Y279638D01*
X866140Y280510D01*
X866140Y628000D01*
X527000Y628000D01*
X525954Y628046D01*
X524916Y628182D01*
X523894Y628409D01*
X522896Y628724D01*
X521929Y629124D01*
X521000Y629608D01*
X520117Y630170D01*
X519287Y630807D01*
X518515Y631515D01*
X517807Y632287D01*
X517170Y633117D01*
X516608Y634000D01*
X516124Y634929D01*
X515724Y635896D01*
X515409Y636894D01*
X515182Y637916D01*
X515046Y638954D01*
X515000Y640000D01*
X515046Y641046D01*
X515182Y642084D01*
X515409Y643106D01*
X515724Y644104D01*
X516124Y645071D01*
X516608Y646000D01*
X517170Y646883D01*
X517807Y647713D01*
X518515Y648485D01*
X519287Y649193D01*
X520117Y649830D01*
X521000Y650392D01*
X521929Y650876D01*
X522896Y651276D01*
X523894Y651591D01*
X524916Y651818D01*
X525954Y651954D01*
X527000Y652000D01*
X527000Y679000D01*
X391000Y679000D01*
X390954Y677954D01*
X390818Y676916D01*
X390591Y675894D01*
X390276Y674896D01*
X389876Y673929D01*
X389392Y673000D01*
X388830Y672117D01*
X388193Y671287D01*
X387485Y670515D01*
X386713Y669807D01*
X385883Y669170D01*
X385000Y668608D01*
X384071Y668124D01*
X383104Y667724D01*
X382106Y667409D01*
X381084Y667182D01*
X380046Y667046D01*
X379000Y667000D01*
X377954Y667046D01*
X376916Y667182D01*
X375894Y667409D01*
X374896Y667724D01*
X373929Y668124D01*
X373000Y668608D01*
X372117Y669170D01*
X371287Y669807D01*
X370515Y670515D01*
X369807Y671287D01*
X369170Y672117D01*
X368608Y673000D01*
X368124Y673929D01*
X367724Y674896D01*
X367409Y675894D01*
X367182Y676916D01*
X367046Y677954D01*
X367000Y679000D01*
X367000Y815000D01*
X312000Y815000D01*
X312000Y800500D01*
X311958Y799541D01*
X311833Y798590D01*
X311625Y797653D01*
X311337Y796738D01*
X310969Y795851D01*
X310526Y795000D01*
X310011Y794191D01*
X309427Y793429D01*
X308778Y792722D01*
X308071Y792074D01*
X307309Y791489D01*
X306500Y790974D01*
X305649Y790531D01*
X304762Y790163D01*
X303847Y789875D01*
X302910Y789667D01*
X301959Y789542D01*
X301000Y789500D01*
X287000Y789500D01*
X287000Y756000D01*
X288046Y755954D01*
X289084Y755818D01*
X290106Y755591D01*
X291104Y755276D01*
X292071Y754876D01*
X293000Y754392D01*
X293883Y753830D01*
X294713Y753193D01*
X295485Y752485D01*
X296193Y751713D01*
X296830Y750883D01*
X297392Y750000D01*
X297876Y749071D01*
X298276Y748104D01*
X298591Y747106D01*
X298818Y746084D01*
X298954Y745046D01*
X299000Y744000D01*
X298954Y742954D01*
X298818Y741916D01*
X298591Y740894D01*
X298276Y739896D01*
X297876Y738929D01*
X297392Y738000D01*
X296830Y737117D01*
X296193Y736287D01*
X295485Y735515D01*
X294713Y734807D01*
X293883Y734170D01*
X293000Y733608D01*
X292071Y733124D01*
X291104Y732724D01*
X290106Y732409D01*
X289084Y732182D01*
X288046Y732046D01*
X287000Y732000D01*
X100000Y732000D01*
X98954Y732046D01*
X97916Y732182D01*
X96894Y732409D01*
X95896Y732724D01*
X94929Y733124D01*
X94000Y733608D01*
X93117Y734170D01*
X92287Y734807D01*
X91515Y735515D01*
X90807Y736287D01*
X90170Y737117D01*
X89608Y738000D01*
X89124Y738929D01*
X88724Y739896D01*
X88409Y740894D01*
X88182Y741916D01*
X88046Y742954D01*
X88000Y744000D01*
X88046Y745046D01*
X88182Y746084D01*
X88409Y747106D01*
X88724Y748104D01*
X89124Y749071D01*
X89608Y750000D01*
X90170Y750883D01*
X90807Y751713D01*
X91515Y752485D01*
X92287Y753193D01*
X93117Y753830D01*
X94000Y754392D01*
X94929Y754876D01*
X95896Y755276D01*
X96894Y755591D01*
X97916Y755818D01*
X98954Y755954D01*
X100000Y756000D01*
X100000Y789500D01*
X78000Y789500D01*
X36455Y760472D01*
X13940Y760472D01*
X13940Y744740D01*
X0Y735000D01*
X0Y631000D01*
X19500Y752200D02*
X19510Y751982D01*
X19538Y751766D01*
X19585Y751553D01*
X19651Y751345D01*
X19734Y751143D01*
X19835Y750950D01*
X19952Y750766D01*
X20085Y750593D01*
X20232Y750432D01*
X20393Y750285D01*
X20566Y750152D01*
X20750Y750035D01*
X20943Y749934D01*
X21145Y749851D01*
X21353Y749785D01*
X21566Y749738D01*
X21782Y749710D01*
X22000Y749700D01*
X33000Y749700D01*
X33218Y749710D01*
X33434Y749738D01*
X33647Y749785D01*
X33855Y749851D01*
X34057Y749934D01*
X34250Y750035D01*
X34434Y750152D01*
X34607Y750285D01*
X34768Y750432D01*
X34915Y750593D01*
X35048Y750766D01*
X35165Y750950D01*
X35266Y751143D01*
X35349Y751345D01*
X35415Y751553D01*
X35462Y751766D01*
X35491Y751982D01*
X35500Y752200D01*
X35491Y752418D01*
X35462Y752634D01*
X35415Y752847D01*
X35349Y753055D01*
X35266Y753257D01*
X35165Y753450D01*
X35048Y753634D01*
X34915Y753807D01*
X34768Y753968D01*
X34607Y754115D01*
X34434Y754248D01*
X34250Y754365D01*
X34057Y754466D01*
X33855Y754549D01*
X33647Y754615D01*
X33434Y754662D01*
X33218Y754691D01*
X33000Y754700D01*
X22000Y754700D01*
X21782Y754691D01*
X21566Y754662D01*
X21353Y754615D01*
X21145Y754549D01*
X20943Y754466D01*
X20750Y754365D01*
X20566Y754248D01*
X20393Y754115D01*
X20232Y753968D01*
X20085Y753807D01*
X19952Y753634D01*
X19835Y753450D01*
X19734Y753257D01*
X19651Y753055D01*
X19585Y752847D01*
X19538Y752634D01*
X19510Y752418D01*
X19500Y752200D01*
X19500Y632800D02*
X19510Y632582D01*
X19538Y632366D01*
X19585Y632153D01*
X19651Y631945D01*
X19734Y631743D01*
X19835Y631550D01*
X19952Y631366D01*
X20085Y631193D01*
X20232Y631032D01*
X20393Y630885D01*
X20566Y630752D01*
X20750Y630635D01*
X20943Y630534D01*
X21145Y630451D01*
X21353Y630385D01*
X21566Y630338D01*
X21782Y630310D01*
X22000Y630300D01*
X33000Y630300D01*
X33218Y630310D01*
X33434Y630338D01*
X33647Y630385D01*
X33855Y630451D01*
X34057Y630534D01*
X34250Y630635D01*
X34434Y630752D01*
X34607Y630885D01*
X34768Y631032D01*
X34915Y631193D01*
X35048Y631366D01*
X35165Y631550D01*
X35266Y631743D01*
X35349Y631945D01*
X35415Y632153D01*
X35462Y632366D01*
X35491Y632582D01*
X35500Y632800D01*
X35491Y633018D01*
X35462Y633234D01*
X35415Y633447D01*
X35349Y633655D01*
X35266Y633857D01*
X35165Y634050D01*
X35048Y634234D01*
X34915Y634407D01*
X34768Y634568D01*
X34607Y634715D01*
X34434Y634848D01*
X34250Y634965D01*
X34057Y635066D01*
X33855Y635149D01*
X33647Y635215D01*
X33434Y635262D01*
X33218Y635291D01*
X33000Y635300D01*
X22000Y635300D01*
X21782Y635291D01*
X21566Y635262D01*
X21353Y635215D01*
X21145Y635149D01*
X20943Y635066D01*
X20750Y634965D01*
X20566Y634848D01*
X20393Y634715D01*
X20232Y634568D01*
X20085Y634407D01*
X19952Y634234D01*
X19835Y634050D01*
X19734Y633857D01*
X19651Y633655D01*
X19585Y633447D01*
X19538Y633234D01*
X19510Y633018D01*
X19500Y632800D01*
X62450Y647000D02*
X62460Y646782D01*
X62488Y646566D01*
X62535Y646353D01*
X62601Y646145D01*
X62684Y645943D01*
X62785Y645750D01*
X62902Y645566D01*
X63035Y645393D01*
X63182Y645232D01*
X63343Y645085D01*
X63516Y644952D01*
X63700Y644835D01*
X63893Y644734D01*
X64095Y644651D01*
X64303Y644585D01*
X64516Y644538D01*
X64732Y644510D01*
X64950Y644500D01*
X74450Y644500D01*
X74668Y644510D01*
X74884Y644538D01*
X75097Y644585D01*
X75305Y644651D01*
X75507Y644734D01*
X75700Y644835D01*
X75884Y644952D01*
X76057Y645085D01*
X76218Y645232D01*
X76365Y645393D01*
X76498Y645566D01*
X76615Y645750D01*
X76716Y645943D01*
X76799Y646145D01*
X76865Y646353D01*
X76912Y646566D01*
X76941Y646782D01*
X76950Y647000D01*
X76941Y647218D01*
X76912Y647434D01*
X76865Y647647D01*
X76799Y647855D01*
X76716Y648057D01*
X76615Y648250D01*
X76498Y648434D01*
X76365Y648607D01*
X76218Y648768D01*
X76057Y648915D01*
X75884Y649048D01*
X75700Y649165D01*
X75507Y649266D01*
X75305Y649349D01*
X75097Y649415D01*
X74884Y649462D01*
X74668Y649491D01*
X74450Y649500D01*
X70000Y649500D01*
X69869Y649501D01*
X69739Y649514D01*
X69610Y649538D01*
X69484Y649573D01*
X69361Y649619D01*
X69243Y649676D01*
X69131Y649743D01*
X69024Y649819D01*
X68925Y649904D01*
X68833Y649998D01*
X68750Y650099D01*
X68676Y650207D01*
X68612Y650321D01*
X68558Y650440D01*
X68514Y650563D01*
X68481Y650690D01*
X68460Y650819D01*
X68450Y650950D01*
X68450Y652450D01*
X68441Y652714D01*
X68408Y652976D01*
X68353Y653234D01*
X68276Y653486D01*
X68177Y653731D01*
X68057Y653966D01*
X67917Y654190D01*
X67758Y654400D01*
X67582Y654596D01*
X67389Y654776D01*
X67181Y654939D01*
X66959Y655082D01*
X66726Y655206D01*
X66483Y655309D01*
X66232Y655390D01*
X65975Y655450D01*
X65714Y655486D01*
X65450Y655500D01*
X65189Y655489D01*
X64929Y655454D01*
X64674Y655398D01*
X64424Y655319D01*
X64182Y655219D01*
X63950Y655098D01*
X63729Y654957D01*
X63522Y654798D01*
X63329Y654621D01*
X63152Y654428D01*
X62993Y654221D01*
X62852Y654000D01*
X62731Y653768D01*
X62631Y653526D01*
X62552Y653276D01*
X62496Y653021D01*
X62461Y652761D01*
X62450Y652500D01*
X62450Y647000D01*
X62450Y732500D02*
X62461Y732239D01*
X62496Y731979D01*
X62552Y731724D01*
X62631Y731474D01*
X62731Y731232D01*
X62852Y731000D01*
X62993Y730779D01*
X63152Y730572D01*
X63329Y730379D01*
X63522Y730202D01*
X63729Y730043D01*
X63950Y729902D01*
X64182Y729781D01*
X64424Y729681D01*
X64674Y729602D01*
X64929Y729546D01*
X65189Y729511D01*
X65450Y729500D01*
X65711Y729511D01*
X65971Y729546D01*
X66226Y729602D01*
X66476Y729681D01*
X66718Y729781D01*
X66950Y729902D01*
X67171Y730043D01*
X67378Y730202D01*
X67571Y730379D01*
X67748Y730572D01*
X67907Y730779D01*
X68048Y731000D01*
X68169Y731232D01*
X68269Y731474D01*
X68348Y731724D01*
X68404Y731979D01*
X68439Y732239D01*
X68450Y732500D01*
X68450Y734050D01*
X68460Y734181D01*
X68481Y734310D01*
X68514Y734437D01*
X68558Y734560D01*
X68612Y734679D01*
X68676Y734793D01*
X68750Y734901D01*
X68833Y735002D01*
X68925Y735096D01*
X69024Y735181D01*
X69131Y735257D01*
X69243Y735324D01*
X69361Y735381D01*
X69484Y735427D01*
X69610Y735462D01*
X69739Y735486D01*
X69869Y735499D01*
X70000Y735500D01*
X74450Y735500D01*
X74668Y735510D01*
X74884Y735538D01*
X75097Y735585D01*
X75305Y735651D01*
X75507Y735734D01*
X75700Y735835D01*
X75884Y735952D01*
X76057Y736085D01*
X76218Y736232D01*
X76365Y736393D01*
X76498Y736566D01*
X76615Y736750D01*
X76716Y736943D01*
X76799Y737145D01*
X76865Y737353D01*
X76912Y737566D01*
X76941Y737782D01*
X76950Y738000D01*
X76941Y738218D01*
X76912Y738434D01*
X76865Y738647D01*
X76799Y738855D01*
X76716Y739057D01*
X76615Y739250D01*
X76498Y739434D01*
X76365Y739607D01*
X76218Y739768D01*
X76057Y739915D01*
X75884Y740048D01*
X75700Y740165D01*
X75507Y740266D01*
X75305Y740349D01*
X75097Y740415D01*
X74884Y740462D01*
X74668Y740491D01*
X74450Y740500D01*
X64950Y740500D01*
X64732Y740491D01*
X64516Y740462D01*
X64303Y740415D01*
X64095Y740349D01*
X63893Y740266D01*
X63700Y740165D01*
X63516Y740048D01*
X63343Y739915D01*
X63182Y739768D01*
X63035Y739607D01*
X62902Y739434D01*
X62785Y739250D01*
X62684Y739057D01*
X62601Y738855D01*
X62535Y738647D01*
X62488Y738434D01*
X62460Y738218D01*
X62450Y738000D01*
X62450Y732500D01*
X306500Y692068D02*
X306500Y692932D01*
X306432Y693794D01*
X306297Y694648D01*
X306095Y695488D01*
X305828Y696310D01*
X305497Y697109D01*
X305105Y697879D01*
X304653Y698616D01*
X304145Y699315D01*
X303584Y699973D01*
X302973Y700584D01*
X302315Y701145D01*
X301616Y701653D01*
X300879Y702105D01*
X300109Y702497D01*
X299310Y702828D01*
X298488Y703095D01*
X297648Y703297D01*
X296794Y703432D01*
X295932Y703500D01*
X295068Y703500D01*
X294206Y703432D01*
X293352Y703297D01*
X292512Y703095D01*
X291690Y702828D01*
X290891Y702497D01*
X290121Y702105D01*
X289384Y701653D01*
X288685Y701145D01*
X288027Y700584D01*
X287416Y699973D01*
X286855Y699315D01*
X286347Y698616D01*
X285895Y697879D01*
X285503Y697109D01*
X285172Y696310D01*
X284905Y695488D01*
X284703Y694648D01*
X284568Y693794D01*
X284500Y692932D01*
X284500Y692068D01*
X284568Y691206D01*
X284703Y690352D01*
X284905Y689512D01*
X285172Y688690D01*
X285503Y687891D01*
X285895Y687121D01*
X286347Y686384D01*
X286855Y685685D01*
X287416Y685027D01*
X288027Y684416D01*
X288685Y683855D01*
X289384Y683347D01*
X290121Y682895D01*
X290891Y682503D01*
X291690Y682172D01*
X292512Y681905D01*
X293352Y681703D01*
X294206Y681568D01*
X295068Y681500D01*
X295932Y681500D01*
X296794Y681568D01*
X297648Y681703D01*
X298488Y681905D01*
X299310Y682172D01*
X300109Y682503D01*
X300879Y682895D01*
X301616Y683347D01*
X302315Y683855D01*
X302973Y684416D01*
X303584Y685027D01*
X304145Y685685D01*
X304653Y686384D01*
X305105Y687121D01*
X305497Y687891D01*
X305828Y688690D01*
X306095Y689512D01*
X306297Y690352D01*
X306432Y691206D01*
X306500Y692068D01*
X337850Y272658D02*
X337850Y273522D01*
X337782Y274384D01*
X337647Y275238D01*
X337445Y276078D01*
X337178Y276900D01*
X336847Y277699D01*
X336455Y278469D01*
X336003Y279206D01*
X335495Y279905D01*
X334934Y280563D01*
X334323Y281174D01*
X333665Y281735D01*
X332966Y282243D01*
X332229Y282695D01*
X331459Y283087D01*
X330660Y283418D01*
X329838Y283685D01*
X328998Y283887D01*
X328144Y284022D01*
X327282Y284090D01*
X326418Y284090D01*
X325556Y284022D01*
X324702Y283887D01*
X323862Y283685D01*
X323040Y283418D01*
X322241Y283087D01*
X321471Y282695D01*
X320734Y282243D01*
X320035Y281735D01*
X319377Y281174D01*
X318766Y280563D01*
X318205Y279905D01*
X317697Y279206D01*
X317245Y278469D01*
X316853Y277699D01*
X316522Y276900D01*
X316255Y276078D01*
X316053Y275238D01*
X315918Y274384D01*
X315850Y273522D01*
X315850Y272658D01*
X315918Y271796D01*
X316053Y270942D01*
X316255Y270102D01*
X316522Y269280D01*
X316853Y268481D01*
X317245Y267711D01*
X317697Y266974D01*
X318205Y266275D01*
X318766Y265617D01*
X319377Y265006D01*
X320035Y264445D01*
X320734Y263937D01*
X321471Y263485D01*
X322241Y263093D01*
X323040Y262762D01*
X323862Y262495D01*
X324702Y262293D01*
X325556Y262158D01*
X326418Y262090D01*
X327282Y262090D01*
X328144Y262158D01*
X328998Y262293D01*
X329838Y262495D01*
X330660Y262762D01*
X331459Y263093D01*
X332229Y263485D01*
X332966Y263937D01*
X333665Y264445D01*
X334323Y265006D01*
X334934Y265617D01*
X335495Y266275D01*
X336003Y266974D01*
X336455Y267711D01*
X336847Y268481D01*
X337178Y269280D01*
X337445Y270102D01*
X337647Y270942D01*
X337782Y271796D01*
X337850Y272658D01*
X1220000Y215568D02*
X1220000Y216432D01*
X1219932Y217294D01*
X1219797Y218148D01*
X1219595Y218988D01*
X1219328Y219810D01*
X1218997Y220609D01*
X1218605Y221379D01*
X1218153Y222116D01*
X1217645Y222815D01*
X1217084Y223473D01*
X1216473Y224084D01*
X1215815Y224645D01*
X1215116Y225153D01*
X1214379Y225605D01*
X1213609Y225997D01*
X1212810Y226328D01*
X1211988Y226595D01*
X1211148Y226797D01*
X1210294Y226932D01*
X1209432Y227000D01*
X1208568Y227000D01*
X1207706Y226932D01*
X1206852Y226797D01*
X1206012Y226595D01*
X1205190Y226328D01*
X1204391Y225997D01*
X1203621Y225605D01*
X1202884Y225153D01*
X1202185Y224645D01*
X1201527Y224084D01*
X1200916Y223473D01*
X1200355Y222815D01*
X1199847Y222116D01*
X1199395Y221379D01*
X1199003Y220609D01*
X1198672Y219810D01*
X1198405Y218988D01*
X1198203Y218148D01*
X1198068Y217294D01*
X1198000Y216432D01*
X1198000Y215568D01*
X1198068Y214706D01*
X1198203Y213852D01*
X1198405Y213012D01*
X1198672Y212190D01*
X1199003Y211391D01*
X1199395Y210621D01*
X1199847Y209884D01*
X1200355Y209185D01*
X1200916Y208527D01*
X1201527Y207916D01*
X1202185Y207355D01*
X1202884Y206847D01*
X1203621Y206395D01*
X1204391Y206003D01*
X1205190Y205672D01*
X1206012Y205405D01*
X1206852Y205203D01*
X1207706Y205068D01*
X1208568Y205000D01*
X1209432Y205000D01*
X1210294Y205068D01*
X1211148Y205203D01*
X1211988Y205405D01*
X1212810Y205672D01*
X1213609Y206003D01*
X1214379Y206395D01*
X1215116Y206847D01*
X1215815Y207355D01*
X1216473Y207916D01*
X1217084Y208527D01*
X1217645Y209185D01*
X1218153Y209884D01*
X1218605Y210621D01*
X1218997Y211391D01*
X1219328Y212190D01*
X1219595Y213012D01*
X1219797Y213852D01*
X1219932Y214706D01*
X1220000Y215568D01*
M02*
