G04 EAGLE Gerber RS-274X export*
G75*
%MOMM*%
%FSLAX34Y34*%
%LPD*%
%INSilkscreen Bottom*%
%IPPOS*%
%AMOC8*
5,1,8,0,0,1.08239X$1,22.5*%
G01*
%ADD10C,0.203200*%
%ADD11C,0.076200*%
%ADD12C,0.200000*%
%ADD13C,0.127000*%
%ADD14C,0.050800*%
%ADD15C,0.254000*%
%ADD16C,0.172044*%
%ADD17C,0.025400*%
%ADD18C,0.101600*%
%ADD19C,0.500000*%
%ADD20C,0.406400*%
%ADD21C,0.152400*%
%ADD22C,0.177800*%


D10*
X213750Y638750D02*
X81750Y638750D01*
X92750Y498750D02*
X213750Y498750D01*
X60750Y615750D02*
X60750Y623750D01*
X77750Y598750D02*
X77750Y514750D01*
X213750Y589750D02*
X213750Y638750D01*
X213750Y562750D02*
X213750Y532750D01*
X213750Y505750D02*
X213750Y498750D01*
X67750Y608750D02*
X67590Y608740D01*
X67429Y608733D01*
X67269Y608731D01*
X67108Y608733D01*
X66948Y608738D01*
X66787Y608747D01*
X66627Y608761D01*
X66468Y608778D01*
X66309Y608799D01*
X66150Y608824D01*
X65992Y608854D01*
X65835Y608886D01*
X65678Y608923D01*
X65523Y608964D01*
X65369Y609008D01*
X65216Y609057D01*
X65064Y609109D01*
X64913Y609164D01*
X64764Y609224D01*
X64616Y609287D01*
X64470Y609353D01*
X64326Y609424D01*
X64183Y609497D01*
X64042Y609575D01*
X63904Y609655D01*
X63767Y609740D01*
X63632Y609827D01*
X63500Y609918D01*
X63369Y610012D01*
X63242Y610109D01*
X63116Y610209D01*
X62993Y610313D01*
X62873Y610419D01*
X62755Y610528D01*
X62640Y610640D01*
X62528Y610755D01*
X62419Y610873D01*
X62313Y610993D01*
X62209Y611116D01*
X62109Y611242D01*
X62012Y611369D01*
X61918Y611500D01*
X61827Y611632D01*
X61740Y611767D01*
X61655Y611904D01*
X61575Y612042D01*
X61497Y612183D01*
X61424Y612326D01*
X61353Y612470D01*
X61287Y612616D01*
X61224Y612764D01*
X61164Y612913D01*
X61109Y613064D01*
X61057Y613216D01*
X61008Y613369D01*
X60964Y613523D01*
X60923Y613678D01*
X60886Y613835D01*
X60854Y613992D01*
X60824Y614150D01*
X60799Y614309D01*
X60778Y614468D01*
X60761Y614627D01*
X60747Y614787D01*
X60738Y614948D01*
X60733Y615108D01*
X60731Y615269D01*
X60733Y615429D01*
X60740Y615590D01*
X60750Y615750D01*
X67750Y608750D02*
X67998Y608741D01*
X68245Y608726D01*
X68492Y608705D01*
X68738Y608678D01*
X68983Y608645D01*
X69228Y608606D01*
X69472Y608562D01*
X69714Y608511D01*
X69955Y608455D01*
X70195Y608392D01*
X70433Y608324D01*
X70670Y608251D01*
X70904Y608171D01*
X71137Y608086D01*
X71367Y607996D01*
X71596Y607899D01*
X71822Y607798D01*
X72045Y607691D01*
X72266Y607578D01*
X72484Y607460D01*
X72699Y607337D01*
X72910Y607209D01*
X73119Y607076D01*
X73325Y606938D01*
X73527Y606795D01*
X73726Y606647D01*
X73921Y606494D01*
X74112Y606336D01*
X74299Y606174D01*
X74483Y606008D01*
X74662Y605837D01*
X74837Y605662D01*
X75008Y605483D01*
X75174Y605299D01*
X75336Y605112D01*
X75494Y604921D01*
X75647Y604726D01*
X75795Y604527D01*
X75938Y604325D01*
X76076Y604119D01*
X76209Y603910D01*
X76337Y603699D01*
X76460Y603484D01*
X76578Y603266D01*
X76691Y603045D01*
X76798Y602822D01*
X76899Y602596D01*
X76996Y602367D01*
X77086Y602137D01*
X77171Y601904D01*
X77251Y601670D01*
X77324Y601433D01*
X77392Y601195D01*
X77455Y600955D01*
X77511Y600714D01*
X77562Y600472D01*
X77606Y600228D01*
X77645Y599983D01*
X77678Y599738D01*
X77705Y599492D01*
X77726Y599245D01*
X77741Y598998D01*
X77750Y598750D01*
D11*
X142503Y575520D02*
X149875Y575520D01*
X149875Y573063D02*
X149875Y577978D01*
X147418Y580547D02*
X149875Y583004D01*
X142503Y583004D01*
X142503Y580547D02*
X142503Y585462D01*
D12*
X84450Y665000D02*
X84452Y665063D01*
X84458Y665125D01*
X84468Y665187D01*
X84481Y665249D01*
X84499Y665309D01*
X84520Y665368D01*
X84545Y665426D01*
X84574Y665482D01*
X84606Y665536D01*
X84641Y665588D01*
X84679Y665637D01*
X84721Y665685D01*
X84765Y665729D01*
X84813Y665771D01*
X84862Y665809D01*
X84914Y665844D01*
X84968Y665876D01*
X85024Y665905D01*
X85082Y665930D01*
X85141Y665951D01*
X85201Y665969D01*
X85263Y665982D01*
X85325Y665992D01*
X85387Y665998D01*
X85450Y666000D01*
X85513Y665998D01*
X85575Y665992D01*
X85637Y665982D01*
X85699Y665969D01*
X85759Y665951D01*
X85818Y665930D01*
X85876Y665905D01*
X85932Y665876D01*
X85986Y665844D01*
X86038Y665809D01*
X86087Y665771D01*
X86135Y665729D01*
X86179Y665685D01*
X86221Y665637D01*
X86259Y665588D01*
X86294Y665536D01*
X86326Y665482D01*
X86355Y665426D01*
X86380Y665368D01*
X86401Y665309D01*
X86419Y665249D01*
X86432Y665187D01*
X86442Y665125D01*
X86448Y665063D01*
X86450Y665000D01*
X86448Y664937D01*
X86442Y664875D01*
X86432Y664813D01*
X86419Y664751D01*
X86401Y664691D01*
X86380Y664632D01*
X86355Y664574D01*
X86326Y664518D01*
X86294Y664464D01*
X86259Y664412D01*
X86221Y664363D01*
X86179Y664315D01*
X86135Y664271D01*
X86087Y664229D01*
X86038Y664191D01*
X85986Y664156D01*
X85932Y664124D01*
X85876Y664095D01*
X85818Y664070D01*
X85759Y664049D01*
X85699Y664031D01*
X85637Y664018D01*
X85575Y664008D01*
X85513Y664002D01*
X85450Y664000D01*
X85387Y664002D01*
X85325Y664008D01*
X85263Y664018D01*
X85201Y664031D01*
X85141Y664049D01*
X85082Y664070D01*
X85024Y664095D01*
X84968Y664124D01*
X84914Y664156D01*
X84862Y664191D01*
X84813Y664229D01*
X84765Y664271D01*
X84721Y664315D01*
X84679Y664363D01*
X84641Y664412D01*
X84606Y664464D01*
X84574Y664518D01*
X84545Y664574D01*
X84520Y664632D01*
X84499Y664691D01*
X84481Y664751D01*
X84468Y664813D01*
X84458Y664875D01*
X84452Y664937D01*
X84450Y665000D01*
D13*
X75450Y660500D02*
X75450Y655500D01*
X75450Y724500D02*
X75450Y729500D01*
X48500Y743000D02*
X15000Y743000D01*
X15000Y747000D01*
X15000Y642000D02*
X48500Y642000D01*
X15000Y642000D02*
X15000Y638000D01*
D14*
X89354Y640935D02*
X90291Y639998D01*
X89354Y640935D02*
X89354Y641872D01*
X90291Y642809D01*
X94976Y642809D01*
X94976Y641872D02*
X94976Y643746D01*
X89354Y645638D02*
X89354Y649387D01*
X93102Y649387D02*
X89354Y645638D01*
X93102Y649387D02*
X94039Y649387D01*
X94976Y648449D01*
X94976Y646575D01*
X94039Y645638D01*
D13*
X559944Y189866D02*
X829944Y189866D01*
X559944Y189866D02*
X559944Y459866D01*
X829944Y459866D01*
X829944Y189866D01*
D15*
X553974Y185166D02*
X553976Y185237D01*
X553982Y185308D01*
X553992Y185379D01*
X554006Y185449D01*
X554024Y185518D01*
X554045Y185585D01*
X554071Y185652D01*
X554100Y185717D01*
X554132Y185780D01*
X554169Y185842D01*
X554208Y185901D01*
X554251Y185958D01*
X554297Y186012D01*
X554346Y186064D01*
X554398Y186113D01*
X554452Y186159D01*
X554509Y186202D01*
X554568Y186241D01*
X554630Y186278D01*
X554693Y186310D01*
X554758Y186339D01*
X554825Y186365D01*
X554892Y186386D01*
X554961Y186404D01*
X555031Y186418D01*
X555102Y186428D01*
X555173Y186434D01*
X555244Y186436D01*
X555315Y186434D01*
X555386Y186428D01*
X555457Y186418D01*
X555527Y186404D01*
X555596Y186386D01*
X555663Y186365D01*
X555730Y186339D01*
X555795Y186310D01*
X555858Y186278D01*
X555920Y186241D01*
X555979Y186202D01*
X556036Y186159D01*
X556090Y186113D01*
X556142Y186064D01*
X556191Y186012D01*
X556237Y185958D01*
X556280Y185901D01*
X556319Y185842D01*
X556356Y185780D01*
X556388Y185717D01*
X556417Y185652D01*
X556443Y185585D01*
X556464Y185518D01*
X556482Y185449D01*
X556496Y185379D01*
X556506Y185308D01*
X556512Y185237D01*
X556514Y185166D01*
X556512Y185095D01*
X556506Y185024D01*
X556496Y184953D01*
X556482Y184883D01*
X556464Y184814D01*
X556443Y184747D01*
X556417Y184680D01*
X556388Y184615D01*
X556356Y184552D01*
X556319Y184490D01*
X556280Y184431D01*
X556237Y184374D01*
X556191Y184320D01*
X556142Y184268D01*
X556090Y184219D01*
X556036Y184173D01*
X555979Y184130D01*
X555920Y184091D01*
X555858Y184054D01*
X555795Y184022D01*
X555730Y183993D01*
X555663Y183967D01*
X555596Y183946D01*
X555527Y183928D01*
X555457Y183914D01*
X555386Y183904D01*
X555315Y183898D01*
X555244Y183896D01*
X555173Y183898D01*
X555102Y183904D01*
X555031Y183914D01*
X554961Y183928D01*
X554892Y183946D01*
X554825Y183967D01*
X554758Y183993D01*
X554693Y184022D01*
X554630Y184054D01*
X554568Y184091D01*
X554509Y184130D01*
X554452Y184173D01*
X554398Y184219D01*
X554346Y184268D01*
X554297Y184320D01*
X554251Y184374D01*
X554208Y184431D01*
X554169Y184490D01*
X554132Y184552D01*
X554100Y184615D01*
X554071Y184680D01*
X554045Y184747D01*
X554024Y184814D01*
X554006Y184883D01*
X553992Y184953D01*
X553982Y185024D01*
X553976Y185095D01*
X553974Y185166D01*
D13*
X561594Y324866D02*
X567944Y324866D01*
X694944Y197866D02*
X694944Y191516D01*
X821944Y324866D02*
X828294Y324866D01*
X694944Y451866D02*
X694944Y458216D01*
D11*
X836254Y198247D02*
X842397Y198247D01*
X836254Y198247D02*
X835025Y199476D01*
X835025Y201933D01*
X836254Y203162D01*
X842397Y203162D01*
X842397Y209417D02*
X835025Y209417D01*
X838711Y205731D02*
X842397Y209417D01*
X838711Y210646D02*
X838711Y205731D01*
D13*
X215000Y491250D02*
X25000Y491250D01*
X25000Y371250D01*
X215000Y371250D01*
X215000Y491250D01*
D16*
X161300Y118000D03*
D17*
X173133Y108279D02*
X173133Y107642D01*
X171858Y106366D01*
X170583Y107642D01*
X170583Y108279D01*
X171858Y106366D02*
X171858Y104453D01*
X169380Y107004D02*
X168104Y108279D01*
X168104Y104453D01*
X166829Y104453D02*
X169380Y104453D01*
D18*
X186534Y94073D02*
X188483Y96022D01*
X192381Y96022D01*
X194330Y94073D01*
X194330Y86277D01*
X192381Y84328D01*
X188483Y84328D01*
X186534Y86277D01*
X182636Y92124D02*
X178738Y96022D01*
X178738Y84328D01*
X182636Y84328D02*
X174840Y84328D01*
X175846Y167733D02*
X177795Y169682D01*
X181693Y169682D01*
X183642Y167733D01*
X183642Y159937D01*
X181693Y157988D01*
X177795Y157988D01*
X175846Y159937D01*
X171948Y157988D02*
X164152Y157988D01*
X171948Y157988D02*
X164152Y165784D01*
X164152Y167733D01*
X166101Y169682D01*
X169999Y169682D01*
X171948Y167733D01*
D13*
X187930Y77360D02*
X215930Y77360D01*
X215930Y95360D02*
X187930Y95360D01*
X187930Y79185D02*
X187930Y77360D01*
X215930Y77360D02*
X215930Y79185D01*
X187930Y93535D02*
X187930Y95360D01*
X215930Y95360D02*
X215930Y93535D01*
D19*
X181680Y77320D03*
D13*
X210048Y73560D02*
X210048Y62120D01*
X204328Y62120D01*
X202421Y64027D01*
X202421Y71653D01*
X204328Y73560D01*
X210048Y73560D01*
X198354Y69747D02*
X194541Y73560D01*
X194541Y62120D01*
X198354Y62120D02*
X190728Y62120D01*
X635590Y600740D02*
X635590Y607740D01*
X642590Y607740D01*
X635590Y572740D02*
X635590Y565740D01*
X642590Y565740D01*
X670590Y607740D02*
X677590Y607740D01*
X677590Y600740D01*
X677590Y565740D02*
X670590Y565740D01*
X677590Y565740D02*
X677590Y572740D01*
D20*
X636590Y613740D02*
X636592Y613829D01*
X636598Y613918D01*
X636608Y614007D01*
X636622Y614095D01*
X636639Y614182D01*
X636661Y614268D01*
X636687Y614354D01*
X636716Y614438D01*
X636749Y614521D01*
X636785Y614602D01*
X636826Y614682D01*
X636869Y614759D01*
X636916Y614835D01*
X636967Y614908D01*
X637020Y614979D01*
X637077Y615048D01*
X637137Y615114D01*
X637200Y615178D01*
X637265Y615238D01*
X637333Y615296D01*
X637404Y615350D01*
X637477Y615401D01*
X637552Y615449D01*
X637629Y615494D01*
X637708Y615535D01*
X637789Y615572D01*
X637871Y615606D01*
X637955Y615637D01*
X638040Y615663D01*
X638126Y615686D01*
X638213Y615704D01*
X638301Y615719D01*
X638390Y615730D01*
X638479Y615737D01*
X638568Y615740D01*
X638657Y615739D01*
X638746Y615734D01*
X638834Y615725D01*
X638923Y615712D01*
X639010Y615695D01*
X639097Y615675D01*
X639183Y615650D01*
X639267Y615622D01*
X639350Y615590D01*
X639432Y615554D01*
X639512Y615515D01*
X639590Y615472D01*
X639666Y615426D01*
X639740Y615376D01*
X639812Y615323D01*
X639881Y615267D01*
X639948Y615208D01*
X640012Y615146D01*
X640073Y615082D01*
X640132Y615014D01*
X640187Y614944D01*
X640239Y614872D01*
X640288Y614797D01*
X640333Y614721D01*
X640375Y614642D01*
X640413Y614562D01*
X640448Y614480D01*
X640479Y614396D01*
X640507Y614311D01*
X640530Y614225D01*
X640550Y614138D01*
X640566Y614051D01*
X640578Y613962D01*
X640586Y613874D01*
X640590Y613785D01*
X640590Y613695D01*
X640586Y613606D01*
X640578Y613518D01*
X640566Y613429D01*
X640550Y613342D01*
X640530Y613255D01*
X640507Y613169D01*
X640479Y613084D01*
X640448Y613000D01*
X640413Y612918D01*
X640375Y612838D01*
X640333Y612759D01*
X640288Y612683D01*
X640239Y612608D01*
X640187Y612536D01*
X640132Y612466D01*
X640073Y612398D01*
X640012Y612334D01*
X639948Y612272D01*
X639881Y612213D01*
X639812Y612157D01*
X639740Y612104D01*
X639666Y612054D01*
X639590Y612008D01*
X639512Y611965D01*
X639432Y611926D01*
X639350Y611890D01*
X639267Y611858D01*
X639183Y611830D01*
X639097Y611805D01*
X639010Y611785D01*
X638923Y611768D01*
X638834Y611755D01*
X638746Y611746D01*
X638657Y611741D01*
X638568Y611740D01*
X638479Y611743D01*
X638390Y611750D01*
X638301Y611761D01*
X638213Y611776D01*
X638126Y611794D01*
X638040Y611817D01*
X637955Y611843D01*
X637871Y611874D01*
X637789Y611908D01*
X637708Y611945D01*
X637629Y611986D01*
X637552Y612031D01*
X637477Y612079D01*
X637404Y612130D01*
X637333Y612184D01*
X637265Y612242D01*
X637200Y612302D01*
X637137Y612366D01*
X637077Y612432D01*
X637020Y612501D01*
X636967Y612572D01*
X636916Y612645D01*
X636869Y612721D01*
X636826Y612798D01*
X636785Y612878D01*
X636749Y612959D01*
X636716Y613042D01*
X636687Y613126D01*
X636661Y613212D01*
X636639Y613298D01*
X636622Y613385D01*
X636608Y613473D01*
X636598Y613562D01*
X636592Y613651D01*
X636590Y613740D01*
D21*
X627014Y592774D02*
X621506Y592774D01*
X620404Y593875D01*
X620404Y596079D01*
X621506Y597180D01*
X627014Y597180D01*
X625912Y600258D02*
X627014Y601359D01*
X627014Y603563D01*
X625912Y604664D01*
X624810Y604664D01*
X623709Y603563D01*
X622607Y604664D01*
X621506Y604664D01*
X620404Y603563D01*
X620404Y601359D01*
X621506Y600258D01*
X622607Y600258D01*
X623709Y601359D01*
X624810Y600258D01*
X625912Y600258D01*
X623709Y601359D02*
X623709Y603563D01*
D10*
X750090Y625390D02*
X750090Y550630D01*
X750090Y625390D02*
X690090Y625390D01*
X690090Y550630D01*
X750090Y550630D01*
D21*
X753312Y551312D02*
X759922Y551312D01*
X753312Y551312D02*
X753312Y555718D01*
X753312Y562101D02*
X759922Y562101D01*
X756617Y558796D01*
X756617Y563203D01*
D10*
X567800Y568740D02*
X549800Y568740D01*
X567800Y568740D02*
X567800Y604740D01*
X549800Y604740D01*
X549800Y568740D01*
D21*
X558212Y549136D02*
X559314Y548034D01*
X559314Y545831D01*
X558212Y544730D01*
X553806Y544730D01*
X552704Y545831D01*
X552704Y548034D01*
X553806Y549136D01*
X557110Y552214D02*
X559314Y554417D01*
X552704Y554417D01*
X552704Y552214D02*
X552704Y556620D01*
X558212Y559698D02*
X559314Y560799D01*
X559314Y563003D01*
X558212Y564104D01*
X557110Y564104D01*
X556009Y563003D01*
X554907Y564104D01*
X553806Y564104D01*
X552704Y563003D01*
X552704Y560799D01*
X553806Y559698D01*
X554907Y559698D01*
X556009Y560799D01*
X557110Y559698D01*
X558212Y559698D01*
X556009Y560799D02*
X556009Y563003D01*
D10*
X603140Y621250D02*
X621140Y621250D01*
X603140Y621250D02*
X603140Y585250D01*
X621140Y585250D01*
X621140Y621250D01*
D21*
X618242Y624332D02*
X611632Y624332D01*
X618242Y624332D02*
X618242Y627637D01*
X617140Y628738D01*
X614937Y628738D01*
X613835Y627637D01*
X613835Y624332D01*
X613835Y626535D02*
X611632Y628738D01*
X616038Y631816D02*
X618242Y634019D01*
X611632Y634019D01*
X611632Y631816D02*
X611632Y636223D01*
X612734Y639300D02*
X611632Y640402D01*
X611632Y642605D01*
X612734Y643707D01*
X617140Y643707D01*
X618242Y642605D01*
X618242Y640402D01*
X617140Y639300D01*
X616038Y639300D01*
X614937Y640402D01*
X614937Y643707D01*
D10*
X621140Y583150D02*
X603140Y583150D01*
X603140Y547150D01*
X621140Y547150D01*
X621140Y583150D01*
D21*
X618242Y586232D02*
X611632Y586232D01*
X618242Y586232D02*
X618242Y589537D01*
X617140Y590638D01*
X614937Y590638D01*
X613835Y589537D01*
X613835Y586232D01*
X613835Y588435D02*
X611632Y590638D01*
X611632Y593716D02*
X611632Y598123D01*
X616038Y598123D02*
X611632Y593716D01*
X616038Y598123D02*
X617140Y598123D01*
X618242Y597021D01*
X618242Y594818D01*
X617140Y593716D01*
X616038Y601200D02*
X618242Y603404D01*
X611632Y603404D01*
X611632Y605607D02*
X611632Y601200D01*
D10*
X703580Y551180D02*
X703580Y541020D01*
D21*
X709395Y535819D02*
X709395Y529209D01*
X709395Y535819D02*
X706091Y535819D01*
X704989Y534717D01*
X704989Y532514D01*
X706091Y531412D01*
X709395Y531412D01*
X707192Y531412D02*
X704989Y529209D01*
X701911Y529209D02*
X697505Y529209D01*
X701911Y529209D02*
X697505Y533615D01*
X697505Y534717D01*
X698607Y535819D01*
X700810Y535819D01*
X701911Y534717D01*
X694427Y529209D02*
X690021Y529209D01*
X694427Y529209D02*
X690021Y533615D01*
X690021Y534717D01*
X691122Y535819D01*
X693326Y535819D01*
X694427Y534717D01*
D10*
X740410Y541020D02*
X740410Y551180D01*
D21*
X746225Y535819D02*
X746225Y529209D01*
X746225Y535819D02*
X742921Y535819D01*
X741819Y534717D01*
X741819Y532514D01*
X742921Y531412D01*
X746225Y531412D01*
X744022Y531412D02*
X741819Y529209D01*
X738741Y529209D02*
X734335Y529209D01*
X738741Y529209D02*
X734335Y533615D01*
X734335Y534717D01*
X735437Y535819D01*
X737640Y535819D01*
X738741Y534717D01*
X731257Y534717D02*
X730156Y535819D01*
X727952Y535819D01*
X726851Y534717D01*
X726851Y533615D01*
X727952Y532514D01*
X729054Y532514D01*
X727952Y532514D02*
X726851Y531412D01*
X726851Y530311D01*
X727952Y529209D01*
X730156Y529209D01*
X731257Y530311D01*
D18*
X565922Y577063D02*
X563973Y579012D01*
X565922Y577063D02*
X565922Y573165D01*
X563973Y571216D01*
X556177Y571216D01*
X554228Y573165D01*
X554228Y577063D01*
X556177Y579012D01*
X554228Y582910D02*
X554228Y590706D01*
X554228Y582910D02*
X562024Y590706D01*
X563973Y590706D01*
X565922Y588757D01*
X565922Y584859D01*
X563973Y582910D01*
X563973Y594604D02*
X556177Y594604D01*
X563973Y594604D02*
X565922Y596553D01*
X565922Y600451D01*
X563973Y602400D01*
X556177Y602400D01*
X554228Y600451D01*
X554228Y596553D01*
X556177Y594604D01*
X563973Y602400D01*
D13*
X215930Y53230D02*
X187930Y53230D01*
X187930Y71230D02*
X215930Y71230D01*
X187930Y55055D02*
X187930Y53230D01*
X215930Y53230D02*
X215930Y55055D01*
X187930Y69405D02*
X187930Y71230D01*
X215930Y71230D02*
X215930Y69405D01*
D19*
X181680Y53190D03*
D13*
X210048Y49430D02*
X210048Y37990D01*
X204328Y37990D01*
X202421Y39897D01*
X202421Y47523D01*
X204328Y49430D01*
X210048Y49430D01*
X198354Y47523D02*
X196447Y49430D01*
X192634Y49430D01*
X190728Y47523D01*
X190728Y45617D01*
X192634Y43710D01*
X190728Y41803D01*
X190728Y39897D01*
X192634Y37990D01*
X196447Y37990D01*
X198354Y39897D01*
X198354Y41803D01*
X196447Y43710D01*
X198354Y45617D01*
X198354Y47523D01*
X196447Y43710D02*
X192634Y43710D01*
X787400Y161720D02*
X787400Y183720D01*
D19*
X799400Y187010D03*
D13*
X793725Y189437D02*
X793725Y197063D01*
X791818Y198970D01*
X788005Y198970D01*
X786099Y197063D01*
X786099Y189437D01*
X788005Y187530D01*
X791818Y187530D01*
X793725Y189437D01*
X789912Y191343D02*
X786099Y187530D01*
X776311Y187530D02*
X776311Y198970D01*
X782031Y193250D01*
X774405Y193250D01*
D18*
X806323Y128143D02*
X818017Y128143D01*
X818017Y133990D01*
X816068Y135939D01*
X812170Y135939D01*
X810221Y133990D01*
X810221Y128143D01*
X810221Y132041D02*
X806323Y135939D01*
X814119Y139837D02*
X818017Y143735D01*
X806323Y143735D01*
X806323Y139837D02*
X806323Y147633D01*
X818017Y151531D02*
X818017Y159327D01*
X816068Y159327D01*
X808272Y151531D01*
X806323Y151531D01*
D13*
X376760Y631190D02*
X354760Y631190D01*
D19*
X351470Y643190D03*
D13*
X349053Y615397D02*
X341427Y615397D01*
X349053Y615397D02*
X350960Y617304D01*
X350960Y621117D01*
X349053Y623024D01*
X341427Y623024D01*
X339520Y621117D01*
X339520Y617304D01*
X341427Y615397D01*
X343333Y619210D02*
X339520Y623024D01*
X350960Y627091D02*
X350960Y634718D01*
X349053Y634718D01*
X341427Y627091D01*
X339520Y627091D01*
X355950Y350430D02*
X355950Y326430D01*
X355950Y350430D02*
X340950Y350430D01*
X340950Y331430D01*
X345950Y326430D01*
X355950Y326430D01*
X345950Y326430D02*
X340950Y326430D01*
X340950Y327430D01*
X340950Y331430D01*
X340950Y327430D02*
X343450Y327430D01*
X343950Y327430D01*
X343450Y327430D02*
X341950Y328930D01*
X341950Y329430D01*
X341950Y328930D02*
X341950Y328430D01*
D17*
X377953Y320167D02*
X381130Y320167D01*
X377953Y320167D02*
X377317Y320803D01*
X377317Y322074D01*
X377953Y322709D01*
X381130Y322709D01*
X377953Y323909D02*
X377317Y324545D01*
X377317Y325816D01*
X377953Y326451D01*
X378588Y326451D01*
X379224Y325816D01*
X379224Y324545D01*
X379859Y323909D01*
X380495Y323909D01*
X381130Y324545D01*
X381130Y325816D01*
X380495Y326451D01*
X381766Y325180D02*
X376681Y325180D01*
X377317Y327651D02*
X377317Y330193D01*
X377317Y327651D02*
X379859Y330193D01*
X380495Y330193D01*
X381130Y329558D01*
X381130Y328287D01*
X380495Y327651D01*
D13*
X265080Y326480D02*
X265080Y350480D01*
X265080Y326480D02*
X280080Y326480D01*
X280080Y345480D01*
X275080Y350480D01*
X265080Y350480D01*
X275080Y350480D02*
X280080Y350480D01*
X280080Y349480D01*
X280080Y345480D01*
X280080Y349480D02*
X277580Y349480D01*
X277080Y349480D01*
X277580Y349480D02*
X279080Y347980D01*
X279080Y347480D01*
X279080Y347980D02*
X279080Y348480D01*
D17*
X243716Y345771D02*
X240539Y345771D01*
X239903Y346406D01*
X239903Y347677D01*
X240539Y348313D01*
X243716Y348313D01*
X240539Y349513D02*
X239903Y350148D01*
X239903Y351419D01*
X240539Y352055D01*
X241174Y352055D01*
X241810Y351419D01*
X241810Y350148D01*
X242445Y349513D01*
X243081Y349513D01*
X243716Y350148D01*
X243716Y351419D01*
X243081Y352055D01*
X244352Y350784D02*
X239267Y350784D01*
X243081Y354526D02*
X243716Y355797D01*
X243081Y354526D02*
X241810Y353255D01*
X240539Y353255D01*
X239903Y353890D01*
X239903Y355162D01*
X240539Y355797D01*
X241174Y355797D01*
X241810Y355162D01*
X241810Y353255D01*
D13*
X305230Y329656D02*
X306713Y328173D01*
X306713Y325207D01*
X305230Y323724D01*
X299298Y323724D01*
X297815Y325207D01*
X297815Y328173D01*
X299298Y329656D01*
X297815Y333080D02*
X297815Y339011D01*
X297815Y333080D02*
X303747Y339011D01*
X305230Y339011D01*
X306713Y337528D01*
X306713Y334563D01*
X305230Y333080D01*
X303747Y342435D02*
X306713Y345401D01*
X297815Y345401D01*
X297815Y342435D02*
X297815Y348367D01*
X362380Y329656D02*
X363863Y328173D01*
X363863Y325207D01*
X362380Y323724D01*
X356448Y323724D01*
X354965Y325207D01*
X354965Y328173D01*
X356448Y329656D01*
X354965Y333080D02*
X354965Y339011D01*
X354965Y333080D02*
X360897Y339011D01*
X362380Y339011D01*
X363863Y337528D01*
X363863Y334563D01*
X362380Y333080D01*
X354965Y342435D02*
X354965Y348367D01*
X354965Y342435D02*
X360897Y348367D01*
X362380Y348367D01*
X363863Y346884D01*
X363863Y343918D01*
X362380Y342435D01*
X323223Y330839D02*
X321740Y332322D01*
X323223Y330839D02*
X323223Y327873D01*
X321740Y326390D01*
X315808Y326390D01*
X314325Y327873D01*
X314325Y330839D01*
X315808Y332322D01*
X314325Y335745D02*
X314325Y341677D01*
X314325Y335745D02*
X320257Y341677D01*
X321740Y341677D01*
X323223Y340194D01*
X323223Y337228D01*
X321740Y335745D01*
X321740Y345100D02*
X323223Y346583D01*
X323223Y349549D01*
X321740Y351032D01*
X320257Y351032D01*
X318774Y349549D01*
X318774Y348066D01*
X318774Y349549D02*
X317291Y351032D01*
X315808Y351032D01*
X314325Y349549D01*
X314325Y346583D01*
X315808Y345100D01*
X266073Y330839D02*
X264590Y332322D01*
X266073Y330839D02*
X266073Y327873D01*
X264590Y326390D01*
X258658Y326390D01*
X257175Y327873D01*
X257175Y330839D01*
X258658Y332322D01*
X257175Y335745D02*
X257175Y341677D01*
X257175Y335745D02*
X263107Y341677D01*
X264590Y341677D01*
X266073Y340194D01*
X266073Y337228D01*
X264590Y335745D01*
X266073Y349549D02*
X257175Y349549D01*
X261624Y345100D02*
X266073Y349549D01*
X261624Y351032D02*
X261624Y345100D01*
X100760Y651940D02*
X100760Y673940D01*
X122760Y673940D01*
X122760Y651940D01*
X100760Y651940D01*
X97760Y660940D02*
X96760Y660940D01*
D10*
X265320Y655540D02*
X283320Y655540D01*
X265320Y655540D02*
X265320Y619540D01*
X283320Y619540D01*
X283320Y655540D01*
D21*
X280422Y658622D02*
X273812Y658622D01*
X280422Y658622D02*
X280422Y661927D01*
X279320Y663028D01*
X277117Y663028D01*
X276015Y661927D01*
X276015Y658622D01*
X276015Y660825D02*
X273812Y663028D01*
X273812Y666106D02*
X273812Y670513D01*
X278218Y670513D02*
X273812Y666106D01*
X278218Y670513D02*
X279320Y670513D01*
X280422Y669411D01*
X280422Y667208D01*
X279320Y666106D01*
X280422Y676895D02*
X273812Y676895D01*
X277117Y673590D02*
X280422Y676895D01*
X277117Y677997D02*
X277117Y673590D01*
D13*
X320470Y631190D02*
X342470Y631190D01*
D19*
X345760Y619190D03*
D13*
X348187Y624865D02*
X355813Y624865D01*
X357720Y626772D01*
X357720Y630585D01*
X355813Y632492D01*
X348187Y632492D01*
X346280Y630585D01*
X346280Y626772D01*
X348187Y624865D01*
X350093Y628678D02*
X346280Y632492D01*
X348187Y636559D02*
X346280Y638466D01*
X346280Y642279D01*
X348187Y644185D01*
X355813Y644185D01*
X357720Y642279D01*
X357720Y638466D01*
X355813Y636559D01*
X353907Y636559D01*
X352000Y638466D01*
X352000Y644185D01*
D10*
X309990Y655540D02*
X291990Y655540D01*
X291990Y619540D01*
X309990Y619540D01*
X309990Y655540D01*
D21*
X307092Y658622D02*
X300482Y658622D01*
X307092Y658622D02*
X307092Y661927D01*
X305990Y663028D01*
X303787Y663028D01*
X302685Y661927D01*
X302685Y658622D01*
X302685Y660825D02*
X300482Y663028D01*
X300482Y666106D02*
X300482Y670513D01*
X304888Y670513D02*
X300482Y666106D01*
X304888Y670513D02*
X305990Y670513D01*
X307092Y669411D01*
X307092Y667208D01*
X305990Y666106D01*
X307092Y673590D02*
X307092Y677997D01*
X307092Y673590D02*
X303787Y673590D01*
X304888Y675794D01*
X304888Y676895D01*
X303787Y677997D01*
X301584Y677997D01*
X300482Y676895D01*
X300482Y674692D01*
X301584Y673590D01*
D10*
X358360Y668130D02*
X358360Y650130D01*
X358360Y668130D02*
X322360Y668130D01*
X322360Y650130D01*
X358360Y650130D01*
D21*
X382370Y653034D02*
X382370Y659644D01*
X379066Y659644D01*
X377964Y658542D01*
X377964Y656339D01*
X379066Y655237D01*
X382370Y655237D01*
X380167Y655237D02*
X377964Y653034D01*
X374886Y657440D02*
X372683Y659644D01*
X372683Y653034D01*
X374886Y653034D02*
X370480Y653034D01*
X367402Y658542D02*
X366301Y659644D01*
X364097Y659644D01*
X362996Y658542D01*
X362996Y657440D01*
X364097Y656339D01*
X362996Y655237D01*
X362996Y654136D01*
X364097Y653034D01*
X366301Y653034D01*
X367402Y654136D01*
X367402Y655237D01*
X366301Y656339D01*
X367402Y657440D01*
X367402Y658542D01*
X366301Y656339D02*
X364097Y656339D01*
D18*
X139984Y663448D02*
X139984Y675142D01*
X134137Y675142D01*
X132188Y673193D01*
X132188Y669295D01*
X134137Y667346D01*
X139984Y667346D01*
X136086Y667346D02*
X132188Y663448D01*
X128290Y663448D02*
X120494Y663448D01*
X128290Y663448D02*
X120494Y671244D01*
X120494Y673193D01*
X122443Y675142D01*
X126341Y675142D01*
X128290Y673193D01*
X112698Y673193D02*
X108800Y675142D01*
X112698Y673193D02*
X116596Y669295D01*
X116596Y665397D01*
X114647Y663448D01*
X110749Y663448D01*
X108800Y665397D01*
X108800Y667346D01*
X110749Y669295D01*
X116596Y669295D01*
D10*
X366395Y157480D02*
X403225Y157480D01*
X366395Y157480D02*
X366395Y132080D01*
X403225Y132080D01*
X403225Y157480D01*
D22*
X404749Y134239D02*
X413138Y134239D01*
X404749Y134239D02*
X404749Y139832D01*
X404749Y143594D02*
X404749Y149187D01*
X404749Y143594D02*
X410342Y149187D01*
X411740Y149187D01*
X413138Y147789D01*
X413138Y144992D01*
X411740Y143594D01*
D13*
X431910Y142210D02*
X431910Y170210D01*
X413910Y170210D02*
X413910Y142210D01*
X430085Y142210D02*
X431910Y142210D01*
X431910Y170210D02*
X430085Y170210D01*
X415735Y142210D02*
X413910Y142210D01*
X413910Y170210D02*
X415735Y170210D01*
D19*
X431950Y135960D03*
D18*
X435593Y148433D02*
X444745Y148433D01*
X435593Y148433D02*
X435593Y153009D01*
X437118Y154534D01*
X443220Y154534D01*
X444745Y153009D01*
X444745Y148433D01*
X444745Y162364D02*
X435593Y162364D01*
X440169Y157788D02*
X444745Y162364D01*
X440169Y163889D02*
X440169Y157788D01*
D10*
X378080Y177150D02*
X372080Y177150D01*
X372080Y185150D01*
X394080Y177150D02*
X400080Y177150D01*
X400080Y185150D01*
D18*
X406008Y176373D02*
X412110Y176373D01*
X413635Y177898D01*
X413635Y180949D01*
X412110Y182474D01*
X406008Y182474D01*
X404483Y180949D01*
X404483Y177898D01*
X406008Y176373D01*
X407534Y179424D02*
X404483Y182474D01*
X412110Y185728D02*
X413635Y187253D01*
X413635Y190304D01*
X412110Y191829D01*
X410584Y191829D01*
X409059Y190304D01*
X409059Y188779D01*
X409059Y190304D02*
X407534Y191829D01*
X406008Y191829D01*
X404483Y190304D01*
X404483Y187253D01*
X406008Y185728D01*
D13*
X397112Y117378D02*
X397112Y89378D01*
X379112Y89378D02*
X379112Y117378D01*
X395287Y89378D02*
X397112Y89378D01*
X397112Y117378D02*
X395287Y117378D01*
X380937Y89378D02*
X379112Y89378D01*
X379112Y117378D02*
X380937Y117378D01*
D19*
X397152Y83128D03*
D18*
X376927Y95601D02*
X367775Y95601D01*
X367775Y100177D01*
X369300Y101702D01*
X375402Y101702D01*
X376927Y100177D01*
X376927Y95601D01*
X376927Y104956D02*
X376927Y111057D01*
X376927Y104956D02*
X372351Y104956D01*
X373876Y108007D01*
X373876Y109532D01*
X372351Y111057D01*
X369300Y111057D01*
X367775Y109532D01*
X367775Y106481D01*
X369300Y104956D01*
D11*
X419989Y95631D02*
X429395Y95631D01*
X429395Y100334D01*
X427827Y101902D01*
X424692Y101902D01*
X423124Y100334D01*
X423124Y95631D01*
X423124Y98766D02*
X419989Y101902D01*
X419989Y104986D02*
X419989Y111257D01*
X419989Y104986D02*
X426260Y111257D01*
X427827Y111257D01*
X429395Y109689D01*
X429395Y106554D01*
X427827Y104986D01*
X427827Y114341D02*
X429395Y115909D01*
X429395Y119044D01*
X427827Y120612D01*
X426260Y120612D01*
X424692Y119044D01*
X423124Y120612D01*
X421557Y120612D01*
X419989Y119044D01*
X419989Y115909D01*
X421557Y114341D01*
X423124Y114341D01*
X424692Y115909D01*
X426260Y114341D01*
X427827Y114341D01*
X424692Y115909D02*
X424692Y119044D01*
D10*
X358140Y71755D02*
X321310Y71755D01*
X358140Y71755D02*
X358140Y97155D01*
X321310Y97155D01*
X321310Y71755D01*
D22*
X319793Y78064D02*
X311404Y78064D01*
X311404Y83656D01*
X319793Y87419D02*
X319793Y93012D01*
X319793Y87419D02*
X315599Y87419D01*
X316997Y90215D01*
X316997Y91613D01*
X315599Y93012D01*
X312802Y93012D01*
X311404Y91613D01*
X311404Y88817D01*
X312802Y87419D01*
D13*
X310625Y87025D02*
X310625Y59025D01*
X292625Y59025D02*
X292625Y87025D01*
X308800Y59025D02*
X310625Y59025D01*
X310625Y87025D02*
X308800Y87025D01*
X294450Y59025D02*
X292625Y59025D01*
X292625Y87025D02*
X294450Y87025D01*
D19*
X310665Y52775D03*
D18*
X314308Y65248D02*
X323460Y65248D01*
X314308Y65248D02*
X314308Y69824D01*
X315833Y71349D01*
X321935Y71349D01*
X323460Y69824D01*
X323460Y65248D01*
X315833Y74603D02*
X314308Y76128D01*
X314308Y79179D01*
X315833Y80704D01*
X321935Y80704D01*
X323460Y79179D01*
X323460Y76128D01*
X321935Y74603D01*
X320409Y74603D01*
X318884Y76128D01*
X318884Y80704D01*
D10*
X346455Y52085D02*
X352455Y52085D01*
X352455Y44085D01*
X330455Y52085D02*
X324455Y52085D01*
X324455Y44085D01*
D18*
X318535Y35168D02*
X312433Y35168D01*
X318535Y35168D02*
X320060Y36693D01*
X320060Y39744D01*
X318535Y41269D01*
X312433Y41269D01*
X310908Y39744D01*
X310908Y36693D01*
X312433Y35168D01*
X313959Y38218D02*
X310908Y41269D01*
X310908Y44523D02*
X310908Y50624D01*
X310908Y44523D02*
X317009Y50624D01*
X318535Y50624D01*
X320060Y49099D01*
X320060Y46048D01*
X318535Y44523D01*
D13*
X327423Y111857D02*
X327423Y139857D01*
X345423Y139857D02*
X345423Y111857D01*
X329248Y139857D02*
X327423Y139857D01*
X327423Y111857D02*
X329248Y111857D01*
X343598Y139857D02*
X345423Y139857D01*
X345423Y111857D02*
X343598Y111857D01*
D19*
X327383Y146107D03*
D18*
X347616Y106584D02*
X356768Y106584D01*
X347616Y106584D02*
X347616Y111160D01*
X349141Y112686D01*
X355243Y112686D01*
X356768Y111160D01*
X356768Y106584D01*
X353717Y115940D02*
X356768Y118990D01*
X347616Y118990D01*
X347616Y115940D02*
X347616Y122041D01*
X349141Y125295D02*
X355243Y125295D01*
X356768Y126820D01*
X356768Y129871D01*
X355243Y131396D01*
X349141Y131396D01*
X347616Y129871D01*
X347616Y126820D01*
X349141Y125295D01*
X355243Y131396D01*
D11*
X304554Y106300D02*
X295148Y106300D01*
X304554Y106300D02*
X304554Y111003D01*
X302986Y112571D01*
X299851Y112571D01*
X298283Y111003D01*
X298283Y106300D01*
X298283Y109436D02*
X295148Y112571D01*
X302986Y115656D02*
X304554Y117223D01*
X304554Y120359D01*
X302986Y121926D01*
X301419Y121926D01*
X299851Y120359D01*
X299851Y118791D01*
X299851Y120359D02*
X298283Y121926D01*
X296716Y121926D01*
X295148Y120359D01*
X295148Y117223D01*
X296716Y115656D01*
X296716Y125011D02*
X302986Y125011D01*
X304554Y126578D01*
X304554Y129714D01*
X302986Y131282D01*
X296716Y131282D01*
X295148Y129714D01*
X295148Y126578D01*
X296716Y125011D01*
X302986Y131282D01*
M02*
