G04 EAGLE Gerber RS-274X export*
G75*
%MOMM*%
%FSLAX34Y34*%
%LPD*%
%INSolderpaste Bottom*%
%IPPOS*%
%AMOC8*
5,1,8,0,0,1.08239X$1,22.5*%
G01*
%ADD10R,1.400000X1.800000*%
%ADD11R,1.900000X1.400000*%
%ADD12R,1.500000X0.800000*%
%ADD13R,0.800000X0.300000*%
%ADD14C,0.500000*%
%ADD15R,0.635000X1.270000*%
%ADD16R,1.270000X0.635000*%
%ADD17R,0.910000X1.060000*%
%ADD18R,0.700000X0.900000*%
%ADD19R,1.150000X0.800000*%
%ADD20C,0.350000*%
%ADD21R,0.700000X0.600000*%
%ADD22R,0.600000X0.700000*%
%ADD23R,5.000000X2.540000*%
%ADD24R,1.500000X1.300000*%
%ADD25R,1.200000X1.300000*%
%ADD26R,2.700000X1.600000*%
%ADD27C,0.550000*%
%ADD28R,1.600000X1.300000*%
%ADD29R,1.050000X0.600000*%
%ADD30C,0.100000*%
%ADD31R,1.300000X1.500000*%
%ADD32R,1.016000X2.200000*%
%ADD33R,0.800000X1.150000*%
%ADD34R,0.800000X0.900000*%


D10*
X209750Y576250D03*
X209750Y519250D03*
D11*
X78250Y503250D03*
X68250Y634750D03*
D12*
X106750Y588150D03*
X110750Y577150D03*
X106750Y566150D03*
X104750Y555150D03*
X106750Y544150D03*
X104750Y533150D03*
X106750Y522150D03*
X106750Y511150D03*
D13*
X73800Y665000D03*
X73800Y670000D03*
X73800Y675000D03*
X73800Y680000D03*
X73800Y685000D03*
X73800Y690000D03*
X73800Y695000D03*
X73800Y700000D03*
X73800Y705000D03*
X73800Y710000D03*
X73800Y715000D03*
X73800Y720000D03*
X61800Y722500D03*
X61800Y717500D03*
X61800Y712500D03*
X61800Y707500D03*
X61800Y702500D03*
X61800Y697500D03*
X61800Y687500D03*
X61800Y682500D03*
X61800Y677500D03*
X61800Y672500D03*
X61800Y667500D03*
X61800Y662500D03*
D14*
X688594Y318516D03*
X688594Y331216D03*
X701294Y331216D03*
X701294Y318516D03*
X701294Y305816D03*
X701294Y343916D03*
X701294Y293116D03*
X701294Y356616D03*
X701294Y280416D03*
X701294Y369316D03*
X701294Y267716D03*
X701294Y382016D03*
X701294Y255016D03*
X701294Y394716D03*
X701294Y242316D03*
X701294Y407416D03*
X701294Y229616D03*
X701294Y420116D03*
X701294Y216916D03*
X701294Y432816D03*
X701294Y204216D03*
X701294Y445516D03*
X688594Y445516D03*
X688594Y432816D03*
X688594Y420116D03*
X688594Y407416D03*
X688594Y394716D03*
X688594Y382016D03*
X688594Y369316D03*
X688594Y356616D03*
X688594Y343916D03*
X688594Y305816D03*
X688594Y293116D03*
X688594Y280416D03*
X688594Y267716D03*
X688594Y255016D03*
X688594Y242316D03*
X688594Y229616D03*
X688594Y216916D03*
X688594Y204216D03*
X713994Y318516D03*
X675894Y318516D03*
X726694Y318516D03*
X663194Y318516D03*
X739394Y318516D03*
X650494Y318516D03*
X752094Y318516D03*
X637794Y318516D03*
X764794Y318516D03*
X625094Y318516D03*
X777494Y318516D03*
X612394Y318516D03*
X599694Y318516D03*
X790194Y318516D03*
X586994Y318516D03*
X802894Y318516D03*
X815594Y318516D03*
X574294Y318516D03*
X815594Y331216D03*
X802894Y331216D03*
X790194Y331216D03*
X777494Y331216D03*
X764794Y331216D03*
X752094Y331216D03*
X739394Y331216D03*
X726694Y331216D03*
X713994Y331216D03*
X675894Y331216D03*
X663194Y331216D03*
X650494Y331216D03*
X637794Y331216D03*
X625094Y331216D03*
X612394Y331216D03*
X599694Y331216D03*
X586994Y331216D03*
X574294Y331216D03*
X574294Y343916D03*
X586994Y343916D03*
X599694Y343916D03*
X612394Y343916D03*
X625094Y343916D03*
X637794Y343916D03*
X650494Y343916D03*
X663194Y343916D03*
X675894Y343916D03*
X713994Y343916D03*
X726694Y343916D03*
X739394Y343916D03*
X752094Y343916D03*
X764794Y343916D03*
X777494Y343916D03*
X790194Y343916D03*
X802894Y343916D03*
X815594Y343916D03*
X815594Y305816D03*
X802894Y305816D03*
X790194Y305816D03*
X777494Y305816D03*
X764794Y305816D03*
X752094Y305816D03*
X739394Y305816D03*
X726694Y305816D03*
X713994Y305816D03*
X675894Y305816D03*
X663194Y305816D03*
X650494Y305816D03*
X637794Y305816D03*
X625094Y305816D03*
X612394Y305816D03*
X599694Y305816D03*
X586994Y305816D03*
X574294Y305816D03*
X574294Y293116D03*
X586994Y293116D03*
X599694Y293116D03*
X612394Y293116D03*
X625094Y293116D03*
X637794Y293116D03*
X650494Y293116D03*
X663194Y293116D03*
X675894Y293116D03*
X713994Y293116D03*
X726694Y293116D03*
X739394Y293116D03*
X752094Y293116D03*
X764794Y293116D03*
X777494Y293116D03*
X790194Y293116D03*
X802894Y293116D03*
X815594Y293116D03*
X815594Y356616D03*
X802894Y356616D03*
X790194Y356616D03*
X777494Y356616D03*
X764794Y356616D03*
X752094Y356616D03*
X739394Y356616D03*
X726694Y356616D03*
X713994Y356616D03*
X675894Y356616D03*
X663194Y356616D03*
X650494Y356616D03*
X637794Y356616D03*
X625094Y356616D03*
X612394Y356616D03*
X599694Y356616D03*
X586994Y356616D03*
X574294Y356616D03*
X574294Y369316D03*
X586994Y369316D03*
X599694Y369316D03*
X612394Y369316D03*
X625094Y369316D03*
X637794Y369316D03*
X650494Y369316D03*
X663194Y369316D03*
X675894Y369316D03*
X713994Y369316D03*
X726694Y369316D03*
X739394Y369316D03*
X752094Y369316D03*
X764794Y369316D03*
X777494Y369316D03*
X790194Y369316D03*
X802894Y369316D03*
X815594Y369316D03*
X815594Y382016D03*
X802894Y382016D03*
X790194Y382016D03*
X777494Y382016D03*
X764794Y382016D03*
X752094Y382016D03*
X739394Y382016D03*
X726694Y382016D03*
X713994Y382016D03*
X675894Y382016D03*
X663194Y382016D03*
X650494Y382016D03*
X637794Y382016D03*
X625094Y382016D03*
X612394Y382016D03*
X599694Y382016D03*
X586994Y382016D03*
X574294Y382016D03*
X574294Y394716D03*
X586994Y394716D03*
X599694Y394716D03*
X612394Y394716D03*
X625094Y394716D03*
X637794Y394716D03*
X650494Y394716D03*
X663194Y394716D03*
X675894Y394716D03*
X713994Y394716D03*
X726694Y394716D03*
X739394Y394716D03*
X752094Y394716D03*
X764794Y394716D03*
X777494Y394716D03*
X790194Y394716D03*
X802894Y394716D03*
X815594Y394716D03*
X815594Y407416D03*
X802894Y407416D03*
X790194Y407416D03*
X777494Y407416D03*
X764794Y407416D03*
X752094Y407416D03*
X739394Y407416D03*
X726694Y407416D03*
X713994Y407416D03*
X675894Y407416D03*
X663194Y407416D03*
X650494Y407416D03*
X637794Y407416D03*
X625094Y407416D03*
X612394Y407416D03*
X599694Y407416D03*
X586994Y407416D03*
X574294Y407416D03*
X574294Y420116D03*
X586994Y420116D03*
X599694Y420116D03*
X612394Y420116D03*
X625094Y420116D03*
X637794Y420116D03*
X650494Y420116D03*
X663194Y420116D03*
X675894Y420116D03*
X713994Y420116D03*
X726694Y420116D03*
X739394Y420116D03*
X752094Y420116D03*
X764794Y420116D03*
X777494Y420116D03*
X790194Y420116D03*
X802894Y420116D03*
X815594Y420116D03*
X815594Y432816D03*
X802894Y432816D03*
X790194Y432816D03*
X777494Y432816D03*
X764794Y432816D03*
X752094Y432816D03*
X739394Y432816D03*
X726694Y432816D03*
X713994Y432816D03*
X713994Y445516D03*
X726694Y445516D03*
X739394Y445516D03*
X752094Y445516D03*
X764794Y445516D03*
X777494Y445516D03*
X790194Y445516D03*
X802894Y445516D03*
X815594Y445516D03*
X675894Y432816D03*
X663194Y432816D03*
X650494Y432816D03*
X637794Y432816D03*
X625094Y432816D03*
X612394Y432816D03*
X599694Y432816D03*
X586994Y432816D03*
X574294Y432816D03*
X574294Y445516D03*
X586994Y445516D03*
X599694Y445516D03*
X612394Y445516D03*
X625094Y445516D03*
X637794Y445516D03*
X650494Y445516D03*
X663194Y445516D03*
X675894Y445516D03*
X713994Y280416D03*
X713994Y267716D03*
X713994Y255016D03*
X713994Y242316D03*
X713994Y229616D03*
X713994Y216916D03*
X713994Y204216D03*
X675894Y204216D03*
X675894Y216916D03*
X675894Y229616D03*
X675894Y242316D03*
X675894Y255016D03*
X675894Y267716D03*
X675894Y280416D03*
X663194Y204216D03*
X663194Y216916D03*
X663194Y229616D03*
X663194Y242316D03*
X663194Y255016D03*
X663194Y267716D03*
X663194Y280416D03*
X650494Y204216D03*
X650494Y216916D03*
X650494Y229616D03*
X650494Y242316D03*
X650494Y255016D03*
X650494Y267716D03*
X650494Y280416D03*
X637794Y204216D03*
X637794Y216916D03*
X637794Y229616D03*
X637794Y242316D03*
X637794Y255016D03*
X637794Y267716D03*
X637794Y280416D03*
X625094Y204216D03*
X625094Y216916D03*
X625094Y229616D03*
X625094Y242316D03*
X625094Y255016D03*
X625094Y267716D03*
X625094Y280416D03*
X612394Y280416D03*
X612394Y267716D03*
X612394Y255016D03*
X612394Y242316D03*
X612394Y229616D03*
X612394Y216916D03*
X612394Y204216D03*
X599694Y204216D03*
X599694Y216916D03*
X599694Y229616D03*
X599694Y242316D03*
X599694Y255016D03*
X599694Y267716D03*
X599694Y280416D03*
X586994Y280416D03*
X574294Y280416D03*
X574294Y267716D03*
X586994Y267716D03*
X586994Y255016D03*
X574294Y255016D03*
X574294Y242316D03*
X586994Y242316D03*
X586994Y229616D03*
X574294Y229616D03*
X574294Y216916D03*
X586994Y216916D03*
X586994Y204216D03*
X574294Y204216D03*
X726694Y204216D03*
X726694Y216916D03*
X726694Y229616D03*
X726694Y242316D03*
X726694Y255016D03*
X726694Y267716D03*
X726694Y280416D03*
X739394Y280416D03*
X739394Y267716D03*
X739394Y255016D03*
X739394Y242316D03*
X739394Y229616D03*
X739394Y216916D03*
X739394Y204216D03*
X752094Y204216D03*
X752094Y216916D03*
X752094Y229616D03*
X752094Y242316D03*
X752094Y255016D03*
X752094Y267716D03*
X752094Y280416D03*
X764794Y280416D03*
X764794Y267716D03*
X764794Y255016D03*
X764794Y242316D03*
X764794Y229616D03*
X764794Y216916D03*
X764794Y204216D03*
X777494Y204216D03*
X777494Y216916D03*
X777494Y229616D03*
X777494Y242316D03*
X777494Y255016D03*
X777494Y267716D03*
X777494Y280416D03*
X790194Y280416D03*
X790194Y267716D03*
X790194Y255016D03*
X790194Y242316D03*
X790194Y229616D03*
X790194Y216916D03*
X790194Y204216D03*
X802894Y204216D03*
X802894Y216916D03*
X802894Y229616D03*
X802894Y242316D03*
X802894Y255016D03*
X802894Y267716D03*
X802894Y280416D03*
X815594Y280416D03*
X815594Y267716D03*
X815594Y255016D03*
X815594Y242316D03*
X815594Y229616D03*
X815594Y216916D03*
X815594Y204216D03*
D15*
X193000Y491250D03*
X183000Y491250D03*
X173000Y491250D03*
X163000Y491250D03*
X153000Y491250D03*
X143000Y491250D03*
X133000Y491250D03*
X123000Y491250D03*
X113000Y491250D03*
X103000Y491250D03*
D16*
X215000Y481250D03*
X215000Y471250D03*
X215000Y461250D03*
X215000Y451250D03*
X215000Y441250D03*
X215000Y431250D03*
X215000Y421250D03*
X215000Y411250D03*
X215000Y401250D03*
X215000Y391250D03*
X215000Y381250D03*
D17*
X170300Y117750D03*
X170300Y136250D03*
X185300Y136250D03*
X185300Y117750D03*
D18*
X171300Y104140D03*
X184300Y104140D03*
X184300Y149860D03*
X171300Y149860D03*
D19*
X184930Y86360D03*
X218930Y86360D03*
D20*
X646840Y604240D02*
X646840Y611240D01*
X653340Y611240D02*
X653340Y604240D01*
X659840Y604240D02*
X659840Y611240D01*
X666340Y611240D02*
X666340Y604240D01*
X674090Y596490D02*
X681090Y596490D01*
X681090Y589990D02*
X674090Y589990D01*
X674090Y583490D02*
X681090Y583490D01*
X681090Y576990D02*
X674090Y576990D01*
X666340Y569240D02*
X666340Y562240D01*
X659840Y562240D02*
X659840Y569240D01*
X653340Y569240D02*
X653340Y562240D01*
X646840Y562240D02*
X646840Y569240D01*
X639090Y576990D02*
X632090Y576990D01*
X632090Y583490D02*
X639090Y583490D01*
X639090Y589990D02*
X632090Y589990D01*
X632090Y596490D02*
X639090Y596490D01*
D21*
X647090Y586740D03*
X666090Y586740D03*
D22*
X656590Y596240D03*
X656590Y577240D03*
D23*
X720090Y567050D03*
X720090Y608970D03*
D24*
X558800Y596240D03*
X558800Y577240D03*
X612140Y593750D03*
X612140Y612750D03*
X612140Y555650D03*
X612140Y574650D03*
D25*
X693420Y546100D03*
X713740Y546100D03*
X730250Y546100D03*
X750570Y546100D03*
D26*
X585470Y600740D03*
X585470Y572740D03*
D19*
X184930Y62230D03*
X218930Y62230D03*
D27*
X794650Y179220D02*
X799150Y179220D01*
X799150Y166220D02*
X794650Y166220D01*
X780150Y172720D02*
X775650Y172720D01*
D28*
X795655Y128295D03*
X795655Y147295D03*
D27*
X359260Y638440D02*
X359260Y642940D01*
X372260Y642940D02*
X372260Y638440D01*
X365760Y623940D02*
X365760Y619440D01*
D29*
X361950Y328930D03*
X361950Y347930D03*
X334950Y328930D03*
X334950Y338430D03*
X334950Y347930D03*
X259080Y347980D03*
X259080Y328980D03*
X286080Y347980D03*
X286080Y338480D03*
X286080Y328980D03*
D24*
X320040Y347955D03*
X320040Y328955D03*
X377190Y347955D03*
X377190Y328955D03*
X300990Y328955D03*
X300990Y347955D03*
X243840Y328955D03*
X243840Y347955D03*
D30*
X108260Y660440D02*
X102260Y660440D01*
X102260Y661440D01*
X108260Y661440D01*
X108260Y660440D01*
X108260Y661390D02*
X102260Y661390D01*
X102260Y664440D02*
X108260Y664440D01*
X102260Y664440D02*
X102260Y665440D01*
X108260Y665440D01*
X108260Y664440D01*
X108260Y665390D02*
X102260Y665390D01*
X105260Y668440D02*
X105260Y672440D01*
X106260Y672440D01*
X106260Y668440D01*
X105260Y668440D01*
X105260Y669390D02*
X106260Y669390D01*
X106260Y670340D02*
X105260Y670340D01*
X105260Y671290D02*
X106260Y671290D01*
X106260Y672240D02*
X105260Y672240D01*
X109260Y672440D02*
X109260Y668440D01*
X109260Y672440D02*
X110260Y672440D01*
X110260Y668440D01*
X109260Y668440D01*
X109260Y669390D02*
X110260Y669390D01*
X110260Y670340D02*
X109260Y670340D01*
X109260Y671290D02*
X110260Y671290D01*
X110260Y672240D02*
X109260Y672240D01*
X113260Y672440D02*
X113260Y668440D01*
X113260Y672440D02*
X114260Y672440D01*
X114260Y668440D01*
X113260Y668440D01*
X113260Y669390D02*
X114260Y669390D01*
X114260Y670340D02*
X113260Y670340D01*
X113260Y671290D02*
X114260Y671290D01*
X114260Y672240D02*
X113260Y672240D01*
X117260Y672440D02*
X117260Y668440D01*
X117260Y672440D02*
X118260Y672440D01*
X118260Y668440D01*
X117260Y668440D01*
X117260Y669390D02*
X118260Y669390D01*
X118260Y670340D02*
X117260Y670340D01*
X117260Y671290D02*
X118260Y671290D01*
X118260Y672240D02*
X117260Y672240D01*
X115260Y664440D02*
X121260Y664440D01*
X115260Y664440D02*
X115260Y665440D01*
X121260Y665440D01*
X121260Y664440D01*
X121260Y665390D02*
X115260Y665390D01*
X115260Y660440D02*
X121260Y660440D01*
X115260Y660440D02*
X115260Y661440D01*
X121260Y661440D01*
X121260Y660440D01*
X121260Y661390D02*
X115260Y661390D01*
X117260Y657440D02*
X117260Y653440D01*
X117260Y657440D02*
X118260Y657440D01*
X118260Y653440D01*
X117260Y653440D01*
X117260Y654390D02*
X118260Y654390D01*
X118260Y655340D02*
X117260Y655340D01*
X117260Y656290D02*
X118260Y656290D01*
X118260Y657240D02*
X117260Y657240D01*
X113260Y657440D02*
X113260Y653440D01*
X113260Y657440D02*
X114260Y657440D01*
X114260Y653440D01*
X113260Y653440D01*
X113260Y654390D02*
X114260Y654390D01*
X114260Y655340D02*
X113260Y655340D01*
X113260Y656290D02*
X114260Y656290D01*
X114260Y657240D02*
X113260Y657240D01*
X109260Y657440D02*
X109260Y653440D01*
X109260Y657440D02*
X110260Y657440D01*
X110260Y653440D01*
X109260Y653440D01*
X109260Y654390D02*
X110260Y654390D01*
X110260Y655340D02*
X109260Y655340D01*
X109260Y656290D02*
X110260Y656290D01*
X110260Y657240D02*
X109260Y657240D01*
X105260Y657440D02*
X105260Y653440D01*
X105260Y657440D02*
X106260Y657440D01*
X106260Y653440D01*
X105260Y653440D01*
X105260Y654390D02*
X106260Y654390D01*
X106260Y655340D02*
X105260Y655340D01*
X105260Y656290D02*
X106260Y656290D01*
X106260Y657240D02*
X105260Y657240D01*
D24*
X274320Y628040D03*
X274320Y647040D03*
D27*
X337970Y623940D02*
X337970Y619440D01*
X324970Y619440D02*
X324970Y623940D01*
X331470Y638440D02*
X331470Y642940D01*
D24*
X300990Y628040D03*
X300990Y647040D03*
D31*
X330860Y659130D03*
X349860Y659130D03*
X102260Y688340D03*
X121260Y688340D03*
D32*
X396080Y144780D03*
X373540Y144780D03*
D33*
X422910Y139210D03*
X422910Y173210D03*
D34*
X376580Y194150D03*
X395580Y194150D03*
X386080Y173150D03*
D33*
X388112Y86378D03*
X388112Y120378D03*
D24*
X410718Y99720D03*
X410718Y118720D03*
D32*
X328455Y84455D03*
X350995Y84455D03*
D33*
X301625Y56025D03*
X301625Y90025D03*
D34*
X347955Y35085D03*
X328955Y35085D03*
X338455Y56085D03*
D33*
X336423Y142857D03*
X336423Y108857D03*
D24*
X313817Y129515D03*
X313817Y110515D03*
M02*
