G04 EAGLE Gerber RS-274X export*
G75*
%MOMM*%
%FSLAX34Y34*%
%LPD*%
%INSoldermask Top*%
%IPPOS*%
%AMOC8*
5,1,8,0,0,1.08239X$1,22.5*%
G01*
%ADD10C,1.227000*%
%ADD11C,0.881000*%
%ADD12C,0.731000*%
%ADD13R,1.427000X1.627000*%
%ADD14R,0.427000X1.127000*%
%ADD15R,1.777000X1.427000*%
%ADD16R,0.635000X1.600200*%
%ADD17R,1.600200X0.635000*%
%ADD18R,1.327000X1.327000*%
%ADD19R,1.727000X1.427000*%
%ADD20C,0.276259*%
%ADD21R,1.427000X1.727000*%
%ADD22C,1.127000*%
%ADD23C,0.762000*%
%ADD24R,0.762000X0.762000*%
%ADD25R,1.582619X1.726731*%
%ADD26R,1.673481X1.725612*%
%ADD27R,1.627000X3.127000*%
%ADD28C,0.777000*%
%ADD29R,1.627000X1.427000*%
%ADD30C,0.781000*%
%ADD31R,4.727000X1.127000*%
%ADD32R,3.527000X1.727000*%
%ADD33R,1.077000X2.277000*%
%ADD34R,3.277000X2.277000*%
%ADD35R,0.762000X1.397000*%
%ADD36C,0.230909*%
%ADD37R,2.540000X2.387600*%
%ADD38R,1.277000X0.927000*%
%ADD39C,0.579400*%
%ADD40C,1.027000*%
%ADD41C,0.652000*%
%ADD42C,0.660400*%
%ADD43C,0.802000*%
%ADD44C,0.727000*%


D10*
X22000Y632800D02*
X33000Y632800D01*
X33000Y752200D02*
X22000Y752200D01*
D11*
X65930Y647000D02*
X73470Y647000D01*
D12*
X65450Y647570D02*
X65450Y653610D01*
D11*
X65930Y738000D02*
X73470Y738000D01*
D12*
X65450Y737430D02*
X65450Y731390D01*
D13*
X722020Y407670D03*
X741020Y407670D03*
X548284Y332994D03*
X567284Y332994D03*
D14*
X211250Y213360D03*
D15*
X234000Y232360D03*
X83500Y232360D03*
D14*
X206250Y213360D03*
X201250Y213360D03*
X196250Y213360D03*
X191250Y213360D03*
X186250Y213360D03*
X181250Y213360D03*
X176250Y213360D03*
X171250Y213360D03*
X166250Y213360D03*
X161250Y213360D03*
X156250Y213360D03*
X151250Y213360D03*
X146250Y213360D03*
X141250Y213360D03*
X136250Y213360D03*
X131250Y213360D03*
X126250Y213360D03*
X121250Y213360D03*
X116250Y213360D03*
X111250Y213360D03*
X106250Y213360D03*
X220940Y308250D03*
X215940Y308250D03*
X210940Y308250D03*
X205940Y308250D03*
X200940Y308250D03*
X195940Y308250D03*
X190940Y308250D03*
X185940Y308250D03*
X180940Y308250D03*
X175940Y308250D03*
X170940Y308250D03*
X165940Y308250D03*
X160940Y308250D03*
X155940Y308250D03*
X150940Y308250D03*
X145940Y308250D03*
X140940Y308250D03*
X135940Y308250D03*
X130940Y308250D03*
X125940Y308250D03*
X120940Y308250D03*
X115940Y308250D03*
X110940Y308250D03*
X105940Y308250D03*
X100940Y308250D03*
X95940Y308250D03*
D15*
X243440Y327250D03*
X73440Y327250D03*
D16*
X106172Y42926D03*
X114046Y42926D03*
X122174Y42926D03*
X130048Y42926D03*
X138176Y42926D03*
X146050Y42926D03*
X153924Y42926D03*
X162052Y42926D03*
X169926Y42926D03*
X178054Y42926D03*
X185928Y42926D03*
D17*
X203454Y60452D03*
X203454Y68326D03*
X203454Y76454D03*
X203454Y84328D03*
X203454Y92456D03*
X203454Y100330D03*
X203454Y108204D03*
X203454Y116332D03*
X203454Y124206D03*
X203454Y132334D03*
X203454Y140208D03*
D16*
X185928Y157734D03*
X178054Y157734D03*
X169926Y157734D03*
X162052Y157734D03*
X153924Y157734D03*
X146050Y157734D03*
X138176Y157734D03*
X130048Y157734D03*
X122174Y157734D03*
X114046Y157734D03*
X106172Y157734D03*
D17*
X88646Y140208D03*
X88646Y132334D03*
X88646Y124206D03*
X88646Y116332D03*
X88646Y108204D03*
X88646Y100330D03*
X88646Y92456D03*
X88646Y84328D03*
X88646Y76454D03*
X88646Y68326D03*
X88646Y60452D03*
D18*
X230210Y41910D03*
X209210Y41910D03*
D19*
X228600Y61620D03*
X228600Y80620D03*
D20*
X392144Y229586D02*
X392144Y247094D01*
X392144Y229586D02*
X387636Y229586D01*
X387636Y247094D01*
X392144Y247094D01*
X392144Y232211D02*
X387636Y232211D01*
X387636Y234836D02*
X392144Y234836D01*
X392144Y237461D02*
X387636Y237461D01*
X387636Y240086D02*
X392144Y240086D01*
X392144Y242711D02*
X387636Y242711D01*
X387636Y245336D02*
X392144Y245336D01*
X404844Y247094D02*
X404844Y229586D01*
X400336Y229586D01*
X400336Y247094D01*
X404844Y247094D01*
X404844Y232211D02*
X400336Y232211D01*
X400336Y234836D02*
X404844Y234836D01*
X404844Y237461D02*
X400336Y237461D01*
X400336Y240086D02*
X404844Y240086D01*
X404844Y242711D02*
X400336Y242711D01*
X400336Y245336D02*
X404844Y245336D01*
X417544Y247094D02*
X417544Y229586D01*
X413036Y229586D01*
X413036Y247094D01*
X417544Y247094D01*
X417544Y232211D02*
X413036Y232211D01*
X413036Y234836D02*
X417544Y234836D01*
X417544Y237461D02*
X413036Y237461D01*
X413036Y240086D02*
X417544Y240086D01*
X417544Y242711D02*
X413036Y242711D01*
X413036Y245336D02*
X417544Y245336D01*
X430244Y247094D02*
X430244Y229586D01*
X425736Y229586D01*
X425736Y247094D01*
X430244Y247094D01*
X430244Y232211D02*
X425736Y232211D01*
X425736Y234836D02*
X430244Y234836D01*
X430244Y237461D02*
X425736Y237461D01*
X425736Y240086D02*
X430244Y240086D01*
X430244Y242711D02*
X425736Y242711D01*
X425736Y245336D02*
X430244Y245336D01*
X430244Y278686D02*
X430244Y296194D01*
X430244Y278686D02*
X425736Y278686D01*
X425736Y296194D01*
X430244Y296194D01*
X430244Y281311D02*
X425736Y281311D01*
X425736Y283936D02*
X430244Y283936D01*
X430244Y286561D02*
X425736Y286561D01*
X425736Y289186D02*
X430244Y289186D01*
X430244Y291811D02*
X425736Y291811D01*
X425736Y294436D02*
X430244Y294436D01*
X417544Y296194D02*
X417544Y278686D01*
X413036Y278686D01*
X413036Y296194D01*
X417544Y296194D01*
X417544Y281311D02*
X413036Y281311D01*
X413036Y283936D02*
X417544Y283936D01*
X417544Y286561D02*
X413036Y286561D01*
X413036Y289186D02*
X417544Y289186D01*
X417544Y291811D02*
X413036Y291811D01*
X413036Y294436D02*
X417544Y294436D01*
X404844Y296194D02*
X404844Y278686D01*
X400336Y278686D01*
X400336Y296194D01*
X404844Y296194D01*
X404844Y281311D02*
X400336Y281311D01*
X400336Y283936D02*
X404844Y283936D01*
X404844Y286561D02*
X400336Y286561D01*
X400336Y289186D02*
X404844Y289186D01*
X404844Y291811D02*
X400336Y291811D01*
X400336Y294436D02*
X404844Y294436D01*
X392144Y296194D02*
X392144Y278686D01*
X387636Y278686D01*
X387636Y296194D01*
X392144Y296194D01*
X392144Y281311D02*
X387636Y281311D01*
X387636Y283936D02*
X392144Y283936D01*
X392144Y286561D02*
X387636Y286561D01*
X387636Y289186D02*
X392144Y289186D01*
X392144Y291811D02*
X387636Y291811D01*
X387636Y294436D02*
X392144Y294436D01*
D21*
X351180Y285750D03*
X370180Y285750D03*
D20*
X568246Y42894D02*
X585754Y42894D01*
X585754Y38386D01*
X568246Y38386D01*
X568246Y42894D01*
X568246Y41011D02*
X585754Y41011D01*
X585754Y55594D02*
X568246Y55594D01*
X585754Y55594D02*
X585754Y51086D01*
X568246Y51086D01*
X568246Y55594D01*
X568246Y53711D02*
X585754Y53711D01*
X585754Y68294D02*
X568246Y68294D01*
X585754Y68294D02*
X585754Y63786D01*
X568246Y63786D01*
X568246Y68294D01*
X568246Y66411D02*
X585754Y66411D01*
X585754Y80994D02*
X568246Y80994D01*
X585754Y80994D02*
X585754Y76486D01*
X568246Y76486D01*
X568246Y80994D01*
X568246Y79111D02*
X585754Y79111D01*
X585754Y93694D02*
X568246Y93694D01*
X585754Y93694D02*
X585754Y89186D01*
X568246Y89186D01*
X568246Y93694D01*
X568246Y91811D02*
X585754Y91811D01*
X585754Y106394D02*
X568246Y106394D01*
X585754Y106394D02*
X585754Y101886D01*
X568246Y101886D01*
X568246Y106394D01*
X568246Y104511D02*
X585754Y104511D01*
X585754Y119094D02*
X568246Y119094D01*
X585754Y119094D02*
X585754Y114586D01*
X568246Y114586D01*
X568246Y119094D01*
X568246Y117211D02*
X585754Y117211D01*
X536654Y119094D02*
X519146Y119094D01*
X536654Y119094D02*
X536654Y114586D01*
X519146Y114586D01*
X519146Y119094D01*
X519146Y117211D02*
X536654Y117211D01*
X536654Y106394D02*
X519146Y106394D01*
X536654Y106394D02*
X536654Y101886D01*
X519146Y101886D01*
X519146Y106394D01*
X519146Y104511D02*
X536654Y104511D01*
X536654Y93694D02*
X519146Y93694D01*
X536654Y93694D02*
X536654Y89186D01*
X519146Y89186D01*
X519146Y93694D01*
X519146Y91811D02*
X536654Y91811D01*
X536654Y80994D02*
X519146Y80994D01*
X536654Y80994D02*
X536654Y76486D01*
X519146Y76486D01*
X519146Y80994D01*
X519146Y79111D02*
X536654Y79111D01*
X536654Y68294D02*
X519146Y68294D01*
X536654Y68294D02*
X536654Y63786D01*
X519146Y63786D01*
X519146Y68294D01*
X519146Y66411D02*
X536654Y66411D01*
X536654Y55594D02*
X519146Y55594D01*
X536654Y55594D02*
X536654Y51086D01*
X519146Y51086D01*
X519146Y55594D01*
X519146Y53711D02*
X536654Y53711D01*
X536654Y42894D02*
X519146Y42894D01*
X536654Y42894D02*
X536654Y38386D01*
X519146Y38386D01*
X519146Y42894D01*
X519146Y41011D02*
X536654Y41011D01*
D22*
X505460Y91440D03*
X521970Y20320D03*
D13*
X563220Y21590D03*
X544220Y21590D03*
D23*
X78740Y13970D03*
X78740Y26670D03*
X78740Y39370D03*
X91440Y39370D03*
X91440Y26670D03*
D24*
X91440Y13970D03*
D25*
X416377Y320541D03*
D26*
X477173Y320547D03*
D27*
X432040Y320675D03*
X462040Y320675D03*
D28*
X462270Y292710D02*
X469770Y292710D01*
X469770Y273710D02*
X462270Y273710D01*
X485270Y283210D02*
X492770Y283210D01*
D13*
X465430Y256540D03*
X446430Y256540D03*
D29*
X445770Y292710D03*
X445770Y273710D03*
D21*
X370180Y240030D03*
X351180Y240030D03*
X370180Y262890D03*
X351180Y262890D03*
D30*
X656590Y586740D03*
X647590Y595740D03*
X647590Y577740D03*
X665590Y577740D03*
X665590Y595740D03*
D29*
X746760Y568350D03*
X746760Y587350D03*
D13*
X676250Y561340D03*
X657250Y561340D03*
D31*
X791040Y587850D03*
X791040Y567850D03*
D32*
X843040Y611850D03*
X843040Y543850D03*
D33*
X365900Y594150D03*
X342900Y594150D03*
X319900Y594150D03*
D34*
X342900Y536150D03*
D33*
X439560Y594150D03*
X416560Y594150D03*
X393560Y594150D03*
D34*
X416560Y536150D03*
D13*
X427940Y623720D03*
X408940Y623720D03*
D35*
X524256Y332105D03*
X532384Y332105D03*
D36*
X371736Y126111D02*
X371736Y110749D01*
X368674Y110749D01*
X368674Y126111D01*
X371736Y126111D01*
X371736Y112943D02*
X368674Y112943D01*
X368674Y115137D02*
X371736Y115137D01*
X371736Y117331D02*
X368674Y117331D01*
X368674Y119525D02*
X371736Y119525D01*
X371736Y121719D02*
X368674Y121719D01*
X368674Y123913D02*
X371736Y123913D01*
X371736Y126107D02*
X368674Y126107D01*
X378086Y126111D02*
X378086Y110749D01*
X375024Y110749D01*
X375024Y126111D01*
X378086Y126111D01*
X378086Y112943D02*
X375024Y112943D01*
X375024Y115137D02*
X378086Y115137D01*
X378086Y117331D02*
X375024Y117331D01*
X375024Y119525D02*
X378086Y119525D01*
X378086Y121719D02*
X375024Y121719D01*
X375024Y123913D02*
X378086Y123913D01*
X378086Y126107D02*
X375024Y126107D01*
X384436Y126111D02*
X384436Y110749D01*
X381374Y110749D01*
X381374Y126111D01*
X384436Y126111D01*
X384436Y112943D02*
X381374Y112943D01*
X381374Y115137D02*
X384436Y115137D01*
X384436Y117331D02*
X381374Y117331D01*
X381374Y119525D02*
X384436Y119525D01*
X384436Y121719D02*
X381374Y121719D01*
X381374Y123913D02*
X384436Y123913D01*
X384436Y126107D02*
X381374Y126107D01*
X390786Y126111D02*
X390786Y110749D01*
X387724Y110749D01*
X387724Y126111D01*
X390786Y126111D01*
X390786Y112943D02*
X387724Y112943D01*
X387724Y115137D02*
X390786Y115137D01*
X390786Y117331D02*
X387724Y117331D01*
X387724Y119525D02*
X390786Y119525D01*
X390786Y121719D02*
X387724Y121719D01*
X387724Y123913D02*
X390786Y123913D01*
X390786Y126107D02*
X387724Y126107D01*
X397136Y126111D02*
X397136Y110749D01*
X394074Y110749D01*
X394074Y126111D01*
X397136Y126111D01*
X397136Y112943D02*
X394074Y112943D01*
X394074Y115137D02*
X397136Y115137D01*
X397136Y117331D02*
X394074Y117331D01*
X394074Y119525D02*
X397136Y119525D01*
X397136Y121719D02*
X394074Y121719D01*
X394074Y123913D02*
X397136Y123913D01*
X397136Y126107D02*
X394074Y126107D01*
X403486Y126111D02*
X403486Y110749D01*
X400424Y110749D01*
X400424Y126111D01*
X403486Y126111D01*
X403486Y112943D02*
X400424Y112943D01*
X400424Y115137D02*
X403486Y115137D01*
X403486Y117331D02*
X400424Y117331D01*
X400424Y119525D02*
X403486Y119525D01*
X403486Y121719D02*
X400424Y121719D01*
X400424Y123913D02*
X403486Y123913D01*
X403486Y126107D02*
X400424Y126107D01*
X409836Y126111D02*
X409836Y110749D01*
X406774Y110749D01*
X406774Y126111D01*
X409836Y126111D01*
X409836Y112943D02*
X406774Y112943D01*
X406774Y115137D02*
X409836Y115137D01*
X409836Y117331D02*
X406774Y117331D01*
X406774Y119525D02*
X409836Y119525D01*
X409836Y121719D02*
X406774Y121719D01*
X406774Y123913D02*
X409836Y123913D01*
X409836Y126107D02*
X406774Y126107D01*
X416186Y126111D02*
X416186Y110749D01*
X413124Y110749D01*
X413124Y126111D01*
X416186Y126111D01*
X416186Y112943D02*
X413124Y112943D01*
X413124Y115137D02*
X416186Y115137D01*
X416186Y117331D02*
X413124Y117331D01*
X413124Y119525D02*
X416186Y119525D01*
X416186Y121719D02*
X413124Y121719D01*
X413124Y123913D02*
X416186Y123913D01*
X416186Y126107D02*
X413124Y126107D01*
X416186Y163449D02*
X416186Y178811D01*
X416186Y163449D02*
X413124Y163449D01*
X413124Y178811D01*
X416186Y178811D01*
X416186Y165643D02*
X413124Y165643D01*
X413124Y167837D02*
X416186Y167837D01*
X416186Y170031D02*
X413124Y170031D01*
X413124Y172225D02*
X416186Y172225D01*
X416186Y174419D02*
X413124Y174419D01*
X413124Y176613D02*
X416186Y176613D01*
X416186Y178807D02*
X413124Y178807D01*
X409836Y178811D02*
X409836Y163449D01*
X406774Y163449D01*
X406774Y178811D01*
X409836Y178811D01*
X409836Y165643D02*
X406774Y165643D01*
X406774Y167837D02*
X409836Y167837D01*
X409836Y170031D02*
X406774Y170031D01*
X406774Y172225D02*
X409836Y172225D01*
X409836Y174419D02*
X406774Y174419D01*
X406774Y176613D02*
X409836Y176613D01*
X409836Y178807D02*
X406774Y178807D01*
X403486Y178811D02*
X403486Y163449D01*
X400424Y163449D01*
X400424Y178811D01*
X403486Y178811D01*
X403486Y165643D02*
X400424Y165643D01*
X400424Y167837D02*
X403486Y167837D01*
X403486Y170031D02*
X400424Y170031D01*
X400424Y172225D02*
X403486Y172225D01*
X403486Y174419D02*
X400424Y174419D01*
X400424Y176613D02*
X403486Y176613D01*
X403486Y178807D02*
X400424Y178807D01*
X397136Y178811D02*
X397136Y163449D01*
X394074Y163449D01*
X394074Y178811D01*
X397136Y178811D01*
X397136Y165643D02*
X394074Y165643D01*
X394074Y167837D02*
X397136Y167837D01*
X397136Y170031D02*
X394074Y170031D01*
X394074Y172225D02*
X397136Y172225D01*
X397136Y174419D02*
X394074Y174419D01*
X394074Y176613D02*
X397136Y176613D01*
X397136Y178807D02*
X394074Y178807D01*
X390786Y178811D02*
X390786Y163449D01*
X387724Y163449D01*
X387724Y178811D01*
X390786Y178811D01*
X390786Y165643D02*
X387724Y165643D01*
X387724Y167837D02*
X390786Y167837D01*
X390786Y170031D02*
X387724Y170031D01*
X387724Y172225D02*
X390786Y172225D01*
X390786Y174419D02*
X387724Y174419D01*
X387724Y176613D02*
X390786Y176613D01*
X390786Y178807D02*
X387724Y178807D01*
X384436Y178811D02*
X384436Y163449D01*
X381374Y163449D01*
X381374Y178811D01*
X384436Y178811D01*
X384436Y165643D02*
X381374Y165643D01*
X381374Y167837D02*
X384436Y167837D01*
X384436Y170031D02*
X381374Y170031D01*
X381374Y172225D02*
X384436Y172225D01*
X384436Y174419D02*
X381374Y174419D01*
X381374Y176613D02*
X384436Y176613D01*
X384436Y178807D02*
X381374Y178807D01*
X378086Y178811D02*
X378086Y163449D01*
X375024Y163449D01*
X375024Y178811D01*
X378086Y178811D01*
X378086Y165643D02*
X375024Y165643D01*
X375024Y167837D02*
X378086Y167837D01*
X378086Y170031D02*
X375024Y170031D01*
X375024Y172225D02*
X378086Y172225D01*
X378086Y174419D02*
X375024Y174419D01*
X375024Y176613D02*
X378086Y176613D01*
X378086Y178807D02*
X375024Y178807D01*
X371736Y178811D02*
X371736Y163449D01*
X368674Y163449D01*
X368674Y178811D01*
X371736Y178811D01*
X371736Y165643D02*
X368674Y165643D01*
X368674Y167837D02*
X371736Y167837D01*
X371736Y170031D02*
X368674Y170031D01*
X368674Y172225D02*
X371736Y172225D01*
X371736Y174419D02*
X368674Y174419D01*
X368674Y176613D02*
X371736Y176613D01*
X371736Y178807D02*
X368674Y178807D01*
D28*
X454050Y180330D02*
X454050Y187830D01*
X473050Y187830D02*
X473050Y180330D01*
X463550Y203330D02*
X463550Y210830D01*
D29*
X431800Y144170D03*
X431800Y163170D03*
X431800Y184810D03*
X431800Y203810D03*
X471170Y144170D03*
X471170Y163170D03*
X452120Y122530D03*
X452120Y103530D03*
X431800Y122530D03*
X431800Y103530D03*
X401701Y189128D03*
X401701Y208128D03*
D13*
X391770Y94615D03*
X372770Y94615D03*
D29*
X451612Y163424D03*
X451612Y144424D03*
D37*
X417830Y79756D03*
X417830Y37084D03*
X454660Y79756D03*
X454660Y37084D03*
D36*
X352799Y103124D02*
X352799Y118486D01*
X355861Y118486D01*
X355861Y103124D01*
X352799Y103124D01*
X352799Y105318D02*
X355861Y105318D01*
X355861Y107512D02*
X352799Y107512D01*
X352799Y109706D02*
X355861Y109706D01*
X355861Y111900D02*
X352799Y111900D01*
X352799Y114094D02*
X355861Y114094D01*
X355861Y116288D02*
X352799Y116288D01*
X352799Y118482D02*
X355861Y118482D01*
X346449Y118486D02*
X346449Y103124D01*
X346449Y118486D02*
X349511Y118486D01*
X349511Y103124D01*
X346449Y103124D01*
X346449Y105318D02*
X349511Y105318D01*
X349511Y107512D02*
X346449Y107512D01*
X346449Y109706D02*
X349511Y109706D01*
X349511Y111900D02*
X346449Y111900D01*
X346449Y114094D02*
X349511Y114094D01*
X349511Y116288D02*
X346449Y116288D01*
X346449Y118482D02*
X349511Y118482D01*
X340099Y118486D02*
X340099Y103124D01*
X340099Y118486D02*
X343161Y118486D01*
X343161Y103124D01*
X340099Y103124D01*
X340099Y105318D02*
X343161Y105318D01*
X343161Y107512D02*
X340099Y107512D01*
X340099Y109706D02*
X343161Y109706D01*
X343161Y111900D02*
X340099Y111900D01*
X340099Y114094D02*
X343161Y114094D01*
X343161Y116288D02*
X340099Y116288D01*
X340099Y118482D02*
X343161Y118482D01*
X333749Y118486D02*
X333749Y103124D01*
X333749Y118486D02*
X336811Y118486D01*
X336811Y103124D01*
X333749Y103124D01*
X333749Y105318D02*
X336811Y105318D01*
X336811Y107512D02*
X333749Y107512D01*
X333749Y109706D02*
X336811Y109706D01*
X336811Y111900D02*
X333749Y111900D01*
X333749Y114094D02*
X336811Y114094D01*
X336811Y116288D02*
X333749Y116288D01*
X333749Y118482D02*
X336811Y118482D01*
X327399Y118486D02*
X327399Y103124D01*
X327399Y118486D02*
X330461Y118486D01*
X330461Y103124D01*
X327399Y103124D01*
X327399Y105318D02*
X330461Y105318D01*
X330461Y107512D02*
X327399Y107512D01*
X327399Y109706D02*
X330461Y109706D01*
X330461Y111900D02*
X327399Y111900D01*
X327399Y114094D02*
X330461Y114094D01*
X330461Y116288D02*
X327399Y116288D01*
X327399Y118482D02*
X330461Y118482D01*
X321049Y118486D02*
X321049Y103124D01*
X321049Y118486D02*
X324111Y118486D01*
X324111Y103124D01*
X321049Y103124D01*
X321049Y105318D02*
X324111Y105318D01*
X324111Y107512D02*
X321049Y107512D01*
X321049Y109706D02*
X324111Y109706D01*
X324111Y111900D02*
X321049Y111900D01*
X321049Y114094D02*
X324111Y114094D01*
X324111Y116288D02*
X321049Y116288D01*
X321049Y118482D02*
X324111Y118482D01*
X314699Y118486D02*
X314699Y103124D01*
X314699Y118486D02*
X317761Y118486D01*
X317761Y103124D01*
X314699Y103124D01*
X314699Y105318D02*
X317761Y105318D01*
X317761Y107512D02*
X314699Y107512D01*
X314699Y109706D02*
X317761Y109706D01*
X317761Y111900D02*
X314699Y111900D01*
X314699Y114094D02*
X317761Y114094D01*
X317761Y116288D02*
X314699Y116288D01*
X314699Y118482D02*
X317761Y118482D01*
X308349Y118486D02*
X308349Y103124D01*
X308349Y118486D02*
X311411Y118486D01*
X311411Y103124D01*
X308349Y103124D01*
X308349Y105318D02*
X311411Y105318D01*
X311411Y107512D02*
X308349Y107512D01*
X308349Y109706D02*
X311411Y109706D01*
X311411Y111900D02*
X308349Y111900D01*
X308349Y114094D02*
X311411Y114094D01*
X311411Y116288D02*
X308349Y116288D01*
X308349Y118482D02*
X311411Y118482D01*
X308349Y65786D02*
X308349Y50424D01*
X308349Y65786D02*
X311411Y65786D01*
X311411Y50424D01*
X308349Y50424D01*
X308349Y52618D02*
X311411Y52618D01*
X311411Y54812D02*
X308349Y54812D01*
X308349Y57006D02*
X311411Y57006D01*
X311411Y59200D02*
X308349Y59200D01*
X308349Y61394D02*
X311411Y61394D01*
X311411Y63588D02*
X308349Y63588D01*
X308349Y65782D02*
X311411Y65782D01*
X314699Y65786D02*
X314699Y50424D01*
X314699Y65786D02*
X317761Y65786D01*
X317761Y50424D01*
X314699Y50424D01*
X314699Y52618D02*
X317761Y52618D01*
X317761Y54812D02*
X314699Y54812D01*
X314699Y57006D02*
X317761Y57006D01*
X317761Y59200D02*
X314699Y59200D01*
X314699Y61394D02*
X317761Y61394D01*
X317761Y63588D02*
X314699Y63588D01*
X314699Y65782D02*
X317761Y65782D01*
X321049Y65786D02*
X321049Y50424D01*
X321049Y65786D02*
X324111Y65786D01*
X324111Y50424D01*
X321049Y50424D01*
X321049Y52618D02*
X324111Y52618D01*
X324111Y54812D02*
X321049Y54812D01*
X321049Y57006D02*
X324111Y57006D01*
X324111Y59200D02*
X321049Y59200D01*
X321049Y61394D02*
X324111Y61394D01*
X324111Y63588D02*
X321049Y63588D01*
X321049Y65782D02*
X324111Y65782D01*
X327399Y65786D02*
X327399Y50424D01*
X327399Y65786D02*
X330461Y65786D01*
X330461Y50424D01*
X327399Y50424D01*
X327399Y52618D02*
X330461Y52618D01*
X330461Y54812D02*
X327399Y54812D01*
X327399Y57006D02*
X330461Y57006D01*
X330461Y59200D02*
X327399Y59200D01*
X327399Y61394D02*
X330461Y61394D01*
X330461Y63588D02*
X327399Y63588D01*
X327399Y65782D02*
X330461Y65782D01*
X333749Y65786D02*
X333749Y50424D01*
X333749Y65786D02*
X336811Y65786D01*
X336811Y50424D01*
X333749Y50424D01*
X333749Y52618D02*
X336811Y52618D01*
X336811Y54812D02*
X333749Y54812D01*
X333749Y57006D02*
X336811Y57006D01*
X336811Y59200D02*
X333749Y59200D01*
X333749Y61394D02*
X336811Y61394D01*
X336811Y63588D02*
X333749Y63588D01*
X333749Y65782D02*
X336811Y65782D01*
X340099Y65786D02*
X340099Y50424D01*
X340099Y65786D02*
X343161Y65786D01*
X343161Y50424D01*
X340099Y50424D01*
X340099Y52618D02*
X343161Y52618D01*
X343161Y54812D02*
X340099Y54812D01*
X340099Y57006D02*
X343161Y57006D01*
X343161Y59200D02*
X340099Y59200D01*
X340099Y61394D02*
X343161Y61394D01*
X343161Y63588D02*
X340099Y63588D01*
X340099Y65782D02*
X343161Y65782D01*
X346449Y65786D02*
X346449Y50424D01*
X346449Y65786D02*
X349511Y65786D01*
X349511Y50424D01*
X346449Y50424D01*
X346449Y52618D02*
X349511Y52618D01*
X349511Y54812D02*
X346449Y54812D01*
X346449Y57006D02*
X349511Y57006D01*
X349511Y59200D02*
X346449Y59200D01*
X346449Y61394D02*
X349511Y61394D01*
X349511Y63588D02*
X346449Y63588D01*
X346449Y65782D02*
X349511Y65782D01*
X352799Y65786D02*
X352799Y50424D01*
X352799Y65786D02*
X355861Y65786D01*
X355861Y50424D01*
X352799Y50424D01*
X352799Y52618D02*
X355861Y52618D01*
X355861Y54812D02*
X352799Y54812D01*
X352799Y57006D02*
X355861Y57006D01*
X355861Y59200D02*
X352799Y59200D01*
X352799Y61394D02*
X355861Y61394D01*
X355861Y63588D02*
X352799Y63588D01*
X352799Y65782D02*
X355861Y65782D01*
D29*
X292735Y85065D03*
X292735Y66065D03*
X292735Y44425D03*
X292735Y25425D03*
X253365Y85065D03*
X253365Y66065D03*
X322834Y40107D03*
X322834Y21107D03*
X322580Y129565D03*
X322580Y148565D03*
X272923Y65811D03*
X272923Y84811D03*
D37*
X297815Y149479D03*
X297815Y192151D03*
X260985Y192151D03*
X260985Y149479D03*
D38*
X293225Y112395D03*
X259225Y112395D03*
D29*
X240665Y125705D03*
X240665Y106705D03*
D39*
X568960Y450850D03*
X820420Y450850D03*
X820420Y199390D03*
D40*
X618490Y248920D03*
X618490Y401320D03*
X770890Y401320D03*
X770890Y248920D03*
D39*
X568960Y199390D03*
X117475Y533400D03*
X567436Y305816D03*
X625348Y375412D03*
X625348Y350012D03*
D40*
X631444Y325120D03*
D39*
X625348Y299212D03*
X625348Y273812D03*
X656844Y394716D03*
X682244Y394716D03*
X745744Y394716D03*
X720344Y394716D03*
D40*
X694944Y388620D03*
D39*
X771652Y274828D03*
X765048Y299212D03*
X765048Y375412D03*
X765048Y350012D03*
D40*
X758444Y325120D03*
D39*
X720090Y306070D03*
X706628Y312928D03*
X694690Y306070D03*
X675640Y312420D03*
X656590Y318770D03*
X643890Y369570D03*
X656590Y374650D03*
X669290Y369570D03*
X681990Y382270D03*
X713740Y375920D03*
X732790Y369570D03*
X745490Y374650D03*
X746760Y248412D03*
X720090Y255270D03*
X669290Y255270D03*
X643890Y255270D03*
D40*
X694944Y261620D03*
D39*
X212090Y231140D03*
X105410Y231140D03*
X93980Y152400D03*
X186436Y94488D03*
X76200Y63500D03*
X138430Y54610D03*
X194310Y153670D03*
X225425Y457835D03*
X215900Y317500D03*
X205740Y317500D03*
X533400Y33020D03*
X427990Y273685D03*
X185420Y316992D03*
X824230Y426720D03*
D40*
X762000Y588010D03*
D39*
X273050Y337820D03*
X347980Y337820D03*
X516255Y332105D03*
D41*
X364490Y648970D03*
D39*
X113665Y648970D03*
D42*
X116205Y317500D03*
D39*
X113665Y676910D03*
D41*
X387350Y197485D03*
X393065Y71120D03*
X436245Y36830D03*
X337185Y31750D03*
X322580Y167005D03*
X279400Y192405D03*
D39*
X683260Y546100D03*
X56896Y692404D03*
X81534Y689737D03*
X528320Y386080D03*
X240030Y388620D03*
X236220Y566420D03*
X532765Y389890D03*
X243840Y393065D03*
X240030Y570865D03*
X85090Y694690D03*
X119380Y543560D03*
X596900Y439420D03*
X119380Y566420D03*
X584200Y439420D03*
X119380Y521970D03*
X599440Y452120D03*
X119380Y511810D03*
X596900Y426720D03*
X119380Y588010D03*
X584200Y426720D03*
X123190Y577850D03*
X586740Y452120D03*
D40*
X682244Y337820D03*
D39*
X707644Y337820D03*
X694944Y324612D03*
X656336Y337820D03*
X745744Y299212D03*
X669544Y273812D03*
X663448Y287020D03*
X656844Y299212D03*
X753110Y401320D03*
X733044Y337820D03*
X733044Y324612D03*
X53975Y707390D03*
X53975Y677545D03*
X523240Y382270D03*
X234950Y384810D03*
X232410Y561340D03*
X130175Y678180D03*
X53340Y669925D03*
X85090Y669925D03*
X669544Y356616D03*
X720344Y356616D03*
X738505Y362585D03*
X651510Y362585D03*
D40*
X694944Y363220D03*
D39*
X122428Y454660D03*
X544830Y406400D03*
X142748Y464820D03*
X554736Y388112D03*
X152400Y469900D03*
X558800Y393192D03*
X172720Y480060D03*
X560070Y383413D03*
X133858Y459740D03*
X549910Y383540D03*
X162560Y474980D03*
X562610Y398018D03*
X225552Y400812D03*
X492760Y441960D03*
X225552Y421132D03*
X507238Y443992D03*
X225552Y410972D03*
X497205Y447040D03*
X225552Y431292D03*
X495300Y457200D03*
X128778Y660146D03*
X674370Y472440D03*
X653415Y400685D03*
X845820Y325120D03*
X845820Y304800D03*
X132969Y664591D03*
X669290Y476885D03*
X647065Y400050D03*
X850900Y331470D03*
X850900Y309880D03*
X112776Y480060D03*
X580390Y342900D03*
X797560Y411480D03*
X183515Y354330D03*
X174625Y345440D03*
X784860Y411480D03*
X190373Y348488D03*
X190373Y321183D03*
X810260Y411480D03*
X167005Y325120D03*
X167005Y344170D03*
X784860Y398780D03*
X797560Y398780D03*
X190500Y354965D03*
X171450Y316865D03*
X810260Y398780D03*
X178943Y337058D03*
X175768Y320802D03*
X784860Y386080D03*
X108712Y54356D03*
X121920Y203200D03*
X100457Y72644D03*
X116205Y204470D03*
X99695Y83820D03*
X163830Y109220D03*
X190500Y127000D03*
X108585Y140335D03*
X101600Y60325D03*
X146050Y64770D03*
X185420Y77470D03*
X114300Y64770D03*
X82550Y20320D03*
D41*
X277495Y95885D03*
X243840Y171450D03*
D39*
X132481Y294406D03*
X135996Y299720D03*
X142240Y299720D03*
D40*
X820420Y567690D03*
X720344Y274320D03*
D39*
X133350Y317500D03*
X204470Y450850D03*
X572770Y33020D03*
X389890Y252095D03*
X182880Y501650D03*
X92710Y554990D03*
X412750Y189230D03*
X407670Y133350D03*
X314960Y73660D03*
X339090Y641350D03*
X653340Y548540D03*
X161925Y54610D03*
X161925Y20955D03*
X795655Y116205D03*
X542290Y588010D03*
D43*
X427990Y594360D03*
X379730Y594360D03*
D39*
X153670Y54610D03*
D44*
X687070Y572770D03*
D40*
X760730Y558800D03*
X745490Y274320D03*
X403860Y342900D03*
D43*
X300990Y661670D03*
D39*
X234454Y649744D03*
D41*
X421640Y63500D03*
X297815Y126365D03*
X376555Y184150D03*
X382905Y156845D03*
X447040Y133350D03*
X381000Y106045D03*
X391795Y106045D03*
X347980Y45085D03*
X341630Y72390D03*
X255905Y126365D03*
X343535Y127000D03*
X336550Y127000D03*
X254635Y100965D03*
M02*
