G04 EAGLE Gerber RS-274X export*
G75*
%MOMM*%
%FSLAX34Y34*%
%LPD*%
%INSolderpaste Top*%
%IPPOS*%
%AMOC8*
5,1,8,0,0,1.08239X$1,22.5*%
G01*
%ADD10R,1.300000X1.500000*%
%ADD11R,0.300000X1.000000*%
%ADD12R,1.650000X1.300000*%
%ADD13R,0.508000X1.473200*%
%ADD14R,1.473200X0.508000*%
%ADD15R,1.200000X1.200000*%
%ADD16R,1.600000X1.300000*%
%ADD17C,0.150000*%
%ADD18R,1.300000X1.600000*%
%ADD19C,0.635000*%
%ADD20R,0.635000X0.635000*%
%ADD21R,1.526859X1.500372*%
%ADD22R,1.499759X1.500078*%
%ADD23R,1.500000X3.000000*%
%ADD24C,0.650000*%
%ADD25R,1.500000X1.300000*%
%ADD26R,4.600000X1.000000*%
%ADD27R,3.400000X1.600000*%
%ADD28R,0.950000X2.150000*%
%ADD29R,3.150000X2.150000*%
%ADD30C,0.102500*%
%ADD31R,2.413000X2.260600*%
%ADD32R,1.150000X0.800000*%


D10*
X722020Y407670D03*
X741020Y407670D03*
X548284Y332994D03*
X567284Y332994D03*
D11*
X211250Y213360D03*
D12*
X234000Y232360D03*
X83500Y232360D03*
D11*
X206250Y213360D03*
X201250Y213360D03*
X196250Y213360D03*
X191250Y213360D03*
X186250Y213360D03*
X181250Y213360D03*
X176250Y213360D03*
X171250Y213360D03*
X166250Y213360D03*
X161250Y213360D03*
X156250Y213360D03*
X151250Y213360D03*
X146250Y213360D03*
X141250Y213360D03*
X136250Y213360D03*
X131250Y213360D03*
X126250Y213360D03*
X121250Y213360D03*
X116250Y213360D03*
X111250Y213360D03*
X106250Y213360D03*
X220940Y308250D03*
X215940Y308250D03*
X210940Y308250D03*
X205940Y308250D03*
X200940Y308250D03*
X195940Y308250D03*
X190940Y308250D03*
X185940Y308250D03*
X180940Y308250D03*
X175940Y308250D03*
X170940Y308250D03*
X165940Y308250D03*
X160940Y308250D03*
X155940Y308250D03*
X150940Y308250D03*
X145940Y308250D03*
X140940Y308250D03*
X135940Y308250D03*
X130940Y308250D03*
X125940Y308250D03*
X120940Y308250D03*
X115940Y308250D03*
X110940Y308250D03*
X105940Y308250D03*
X100940Y308250D03*
X95940Y308250D03*
D12*
X243440Y327250D03*
X73440Y327250D03*
D13*
X106172Y42926D03*
X114046Y42926D03*
X122174Y42926D03*
X130048Y42926D03*
X138176Y42926D03*
X146050Y42926D03*
X153924Y42926D03*
X162052Y42926D03*
X169926Y42926D03*
X178054Y42926D03*
X185928Y42926D03*
D14*
X203454Y60452D03*
X203454Y68326D03*
X203454Y76454D03*
X203454Y84328D03*
X203454Y92456D03*
X203454Y100330D03*
X203454Y108204D03*
X203454Y116332D03*
X203454Y124206D03*
X203454Y132334D03*
X203454Y140208D03*
D13*
X185928Y157734D03*
X178054Y157734D03*
X169926Y157734D03*
X162052Y157734D03*
X153924Y157734D03*
X146050Y157734D03*
X138176Y157734D03*
X130048Y157734D03*
X122174Y157734D03*
X114046Y157734D03*
X106172Y157734D03*
D14*
X88646Y140208D03*
X88646Y132334D03*
X88646Y124206D03*
X88646Y116332D03*
X88646Y108204D03*
X88646Y100330D03*
X88646Y92456D03*
X88646Y84328D03*
X88646Y76454D03*
X88646Y68326D03*
X88646Y60452D03*
D15*
X230210Y41910D03*
X209210Y41910D03*
D16*
X228600Y61620D03*
X228600Y80620D03*
D17*
X392140Y229590D02*
X392140Y247090D01*
X392140Y229590D02*
X387640Y229590D01*
X387640Y247090D01*
X392140Y247090D01*
X392140Y231015D02*
X387640Y231015D01*
X387640Y232440D02*
X392140Y232440D01*
X392140Y233865D02*
X387640Y233865D01*
X387640Y235290D02*
X392140Y235290D01*
X392140Y236715D02*
X387640Y236715D01*
X387640Y238140D02*
X392140Y238140D01*
X392140Y239565D02*
X387640Y239565D01*
X387640Y240990D02*
X392140Y240990D01*
X392140Y242415D02*
X387640Y242415D01*
X387640Y243840D02*
X392140Y243840D01*
X392140Y245265D02*
X387640Y245265D01*
X387640Y246690D02*
X392140Y246690D01*
X404840Y247090D02*
X404840Y229590D01*
X400340Y229590D01*
X400340Y247090D01*
X404840Y247090D01*
X404840Y231015D02*
X400340Y231015D01*
X400340Y232440D02*
X404840Y232440D01*
X404840Y233865D02*
X400340Y233865D01*
X400340Y235290D02*
X404840Y235290D01*
X404840Y236715D02*
X400340Y236715D01*
X400340Y238140D02*
X404840Y238140D01*
X404840Y239565D02*
X400340Y239565D01*
X400340Y240990D02*
X404840Y240990D01*
X404840Y242415D02*
X400340Y242415D01*
X400340Y243840D02*
X404840Y243840D01*
X404840Y245265D02*
X400340Y245265D01*
X400340Y246690D02*
X404840Y246690D01*
X417540Y247090D02*
X417540Y229590D01*
X413040Y229590D01*
X413040Y247090D01*
X417540Y247090D01*
X417540Y231015D02*
X413040Y231015D01*
X413040Y232440D02*
X417540Y232440D01*
X417540Y233865D02*
X413040Y233865D01*
X413040Y235290D02*
X417540Y235290D01*
X417540Y236715D02*
X413040Y236715D01*
X413040Y238140D02*
X417540Y238140D01*
X417540Y239565D02*
X413040Y239565D01*
X413040Y240990D02*
X417540Y240990D01*
X417540Y242415D02*
X413040Y242415D01*
X413040Y243840D02*
X417540Y243840D01*
X417540Y245265D02*
X413040Y245265D01*
X413040Y246690D02*
X417540Y246690D01*
X430240Y247090D02*
X430240Y229590D01*
X425740Y229590D01*
X425740Y247090D01*
X430240Y247090D01*
X430240Y231015D02*
X425740Y231015D01*
X425740Y232440D02*
X430240Y232440D01*
X430240Y233865D02*
X425740Y233865D01*
X425740Y235290D02*
X430240Y235290D01*
X430240Y236715D02*
X425740Y236715D01*
X425740Y238140D02*
X430240Y238140D01*
X430240Y239565D02*
X425740Y239565D01*
X425740Y240990D02*
X430240Y240990D01*
X430240Y242415D02*
X425740Y242415D01*
X425740Y243840D02*
X430240Y243840D01*
X430240Y245265D02*
X425740Y245265D01*
X425740Y246690D02*
X430240Y246690D01*
X430240Y278690D02*
X430240Y296190D01*
X430240Y278690D02*
X425740Y278690D01*
X425740Y296190D01*
X430240Y296190D01*
X430240Y280115D02*
X425740Y280115D01*
X425740Y281540D02*
X430240Y281540D01*
X430240Y282965D02*
X425740Y282965D01*
X425740Y284390D02*
X430240Y284390D01*
X430240Y285815D02*
X425740Y285815D01*
X425740Y287240D02*
X430240Y287240D01*
X430240Y288665D02*
X425740Y288665D01*
X425740Y290090D02*
X430240Y290090D01*
X430240Y291515D02*
X425740Y291515D01*
X425740Y292940D02*
X430240Y292940D01*
X430240Y294365D02*
X425740Y294365D01*
X425740Y295790D02*
X430240Y295790D01*
X417540Y296190D02*
X417540Y278690D01*
X413040Y278690D01*
X413040Y296190D01*
X417540Y296190D01*
X417540Y280115D02*
X413040Y280115D01*
X413040Y281540D02*
X417540Y281540D01*
X417540Y282965D02*
X413040Y282965D01*
X413040Y284390D02*
X417540Y284390D01*
X417540Y285815D02*
X413040Y285815D01*
X413040Y287240D02*
X417540Y287240D01*
X417540Y288665D02*
X413040Y288665D01*
X413040Y290090D02*
X417540Y290090D01*
X417540Y291515D02*
X413040Y291515D01*
X413040Y292940D02*
X417540Y292940D01*
X417540Y294365D02*
X413040Y294365D01*
X413040Y295790D02*
X417540Y295790D01*
X404840Y296190D02*
X404840Y278690D01*
X400340Y278690D01*
X400340Y296190D01*
X404840Y296190D01*
X404840Y280115D02*
X400340Y280115D01*
X400340Y281540D02*
X404840Y281540D01*
X404840Y282965D02*
X400340Y282965D01*
X400340Y284390D02*
X404840Y284390D01*
X404840Y285815D02*
X400340Y285815D01*
X400340Y287240D02*
X404840Y287240D01*
X404840Y288665D02*
X400340Y288665D01*
X400340Y290090D02*
X404840Y290090D01*
X404840Y291515D02*
X400340Y291515D01*
X400340Y292940D02*
X404840Y292940D01*
X404840Y294365D02*
X400340Y294365D01*
X400340Y295790D02*
X404840Y295790D01*
X392140Y296190D02*
X392140Y278690D01*
X387640Y278690D01*
X387640Y296190D01*
X392140Y296190D01*
X392140Y280115D02*
X387640Y280115D01*
X387640Y281540D02*
X392140Y281540D01*
X392140Y282965D02*
X387640Y282965D01*
X387640Y284390D02*
X392140Y284390D01*
X392140Y285815D02*
X387640Y285815D01*
X387640Y287240D02*
X392140Y287240D01*
X392140Y288665D02*
X387640Y288665D01*
X387640Y290090D02*
X392140Y290090D01*
X392140Y291515D02*
X387640Y291515D01*
X387640Y292940D02*
X392140Y292940D01*
X392140Y294365D02*
X387640Y294365D01*
X387640Y295790D02*
X392140Y295790D01*
D18*
X351180Y285750D03*
X370180Y285750D03*
D17*
X568250Y42890D02*
X585750Y42890D01*
X585750Y38390D01*
X568250Y38390D01*
X568250Y42890D01*
X568250Y39815D02*
X585750Y39815D01*
X585750Y41240D02*
X568250Y41240D01*
X568250Y42665D02*
X585750Y42665D01*
X585750Y55590D02*
X568250Y55590D01*
X585750Y55590D02*
X585750Y51090D01*
X568250Y51090D01*
X568250Y55590D01*
X568250Y52515D02*
X585750Y52515D01*
X585750Y53940D02*
X568250Y53940D01*
X568250Y55365D02*
X585750Y55365D01*
X585750Y68290D02*
X568250Y68290D01*
X585750Y68290D02*
X585750Y63790D01*
X568250Y63790D01*
X568250Y68290D01*
X568250Y65215D02*
X585750Y65215D01*
X585750Y66640D02*
X568250Y66640D01*
X568250Y68065D02*
X585750Y68065D01*
X585750Y80990D02*
X568250Y80990D01*
X585750Y80990D02*
X585750Y76490D01*
X568250Y76490D01*
X568250Y80990D01*
X568250Y77915D02*
X585750Y77915D01*
X585750Y79340D02*
X568250Y79340D01*
X568250Y80765D02*
X585750Y80765D01*
X585750Y93690D02*
X568250Y93690D01*
X585750Y93690D02*
X585750Y89190D01*
X568250Y89190D01*
X568250Y93690D01*
X568250Y90615D02*
X585750Y90615D01*
X585750Y92040D02*
X568250Y92040D01*
X568250Y93465D02*
X585750Y93465D01*
X585750Y106390D02*
X568250Y106390D01*
X585750Y106390D02*
X585750Y101890D01*
X568250Y101890D01*
X568250Y106390D01*
X568250Y103315D02*
X585750Y103315D01*
X585750Y104740D02*
X568250Y104740D01*
X568250Y106165D02*
X585750Y106165D01*
X585750Y119090D02*
X568250Y119090D01*
X585750Y119090D02*
X585750Y114590D01*
X568250Y114590D01*
X568250Y119090D01*
X568250Y116015D02*
X585750Y116015D01*
X585750Y117440D02*
X568250Y117440D01*
X568250Y118865D02*
X585750Y118865D01*
X536650Y119090D02*
X519150Y119090D01*
X536650Y119090D02*
X536650Y114590D01*
X519150Y114590D01*
X519150Y119090D01*
X519150Y116015D02*
X536650Y116015D01*
X536650Y117440D02*
X519150Y117440D01*
X519150Y118865D02*
X536650Y118865D01*
X536650Y106390D02*
X519150Y106390D01*
X536650Y106390D02*
X536650Y101890D01*
X519150Y101890D01*
X519150Y106390D01*
X519150Y103315D02*
X536650Y103315D01*
X536650Y104740D02*
X519150Y104740D01*
X519150Y106165D02*
X536650Y106165D01*
X536650Y93690D02*
X519150Y93690D01*
X536650Y93690D02*
X536650Y89190D01*
X519150Y89190D01*
X519150Y93690D01*
X519150Y90615D02*
X536650Y90615D01*
X536650Y92040D02*
X519150Y92040D01*
X519150Y93465D02*
X536650Y93465D01*
X536650Y80990D02*
X519150Y80990D01*
X536650Y80990D02*
X536650Y76490D01*
X519150Y76490D01*
X519150Y80990D01*
X519150Y77915D02*
X536650Y77915D01*
X536650Y79340D02*
X519150Y79340D01*
X519150Y80765D02*
X536650Y80765D01*
X536650Y68290D02*
X519150Y68290D01*
X536650Y68290D02*
X536650Y63790D01*
X519150Y63790D01*
X519150Y68290D01*
X519150Y65215D02*
X536650Y65215D01*
X536650Y66640D02*
X519150Y66640D01*
X519150Y68065D02*
X536650Y68065D01*
X536650Y55590D02*
X519150Y55590D01*
X536650Y55590D02*
X536650Y51090D01*
X519150Y51090D01*
X519150Y55590D01*
X519150Y52515D02*
X536650Y52515D01*
X536650Y53940D02*
X519150Y53940D01*
X519150Y55365D02*
X536650Y55365D01*
X536650Y42890D02*
X519150Y42890D01*
X536650Y42890D02*
X536650Y38390D01*
X519150Y38390D01*
X519150Y42890D01*
X519150Y39815D02*
X536650Y39815D01*
X536650Y41240D02*
X519150Y41240D01*
X519150Y42665D02*
X536650Y42665D01*
D10*
X563220Y21590D03*
X544220Y21590D03*
D19*
X78740Y13970D03*
X78740Y26670D03*
X78740Y39370D03*
X91440Y39370D03*
X91440Y26670D03*
D20*
X91440Y13970D03*
D21*
X417156Y320673D03*
D22*
X477041Y320675D03*
D23*
X432040Y320675D03*
X462040Y320675D03*
D24*
X462270Y292710D02*
X469770Y292710D01*
X469770Y273710D02*
X462270Y273710D01*
X485270Y283210D02*
X492770Y283210D01*
D10*
X465430Y256540D03*
X446430Y256540D03*
D25*
X445770Y292710D03*
X445770Y273710D03*
D18*
X370180Y240030D03*
X351180Y240030D03*
X370180Y262890D03*
X351180Y262890D03*
D25*
X746760Y568350D03*
X746760Y587350D03*
D10*
X676250Y561340D03*
X657250Y561340D03*
D26*
X791040Y587850D03*
X791040Y567850D03*
D27*
X843040Y611850D03*
X843040Y543850D03*
D28*
X365900Y594150D03*
X342900Y594150D03*
X319900Y594150D03*
D29*
X342900Y536150D03*
D28*
X439560Y594150D03*
X416560Y594150D03*
X393560Y594150D03*
D29*
X416560Y536150D03*
D10*
X427940Y623720D03*
X408940Y623720D03*
D30*
X371743Y126118D02*
X371743Y110742D01*
X368667Y110742D01*
X368667Y126118D01*
X371743Y126118D01*
X371743Y111716D02*
X368667Y111716D01*
X368667Y112690D02*
X371743Y112690D01*
X371743Y113664D02*
X368667Y113664D01*
X368667Y114638D02*
X371743Y114638D01*
X371743Y115612D02*
X368667Y115612D01*
X368667Y116586D02*
X371743Y116586D01*
X371743Y117560D02*
X368667Y117560D01*
X368667Y118534D02*
X371743Y118534D01*
X371743Y119508D02*
X368667Y119508D01*
X368667Y120482D02*
X371743Y120482D01*
X371743Y121456D02*
X368667Y121456D01*
X368667Y122430D02*
X371743Y122430D01*
X371743Y123404D02*
X368667Y123404D01*
X368667Y124378D02*
X371743Y124378D01*
X371743Y125352D02*
X368667Y125352D01*
X378093Y126118D02*
X378093Y110742D01*
X375017Y110742D01*
X375017Y126118D01*
X378093Y126118D01*
X378093Y111716D02*
X375017Y111716D01*
X375017Y112690D02*
X378093Y112690D01*
X378093Y113664D02*
X375017Y113664D01*
X375017Y114638D02*
X378093Y114638D01*
X378093Y115612D02*
X375017Y115612D01*
X375017Y116586D02*
X378093Y116586D01*
X378093Y117560D02*
X375017Y117560D01*
X375017Y118534D02*
X378093Y118534D01*
X378093Y119508D02*
X375017Y119508D01*
X375017Y120482D02*
X378093Y120482D01*
X378093Y121456D02*
X375017Y121456D01*
X375017Y122430D02*
X378093Y122430D01*
X378093Y123404D02*
X375017Y123404D01*
X375017Y124378D02*
X378093Y124378D01*
X378093Y125352D02*
X375017Y125352D01*
X384443Y126118D02*
X384443Y110742D01*
X381367Y110742D01*
X381367Y126118D01*
X384443Y126118D01*
X384443Y111716D02*
X381367Y111716D01*
X381367Y112690D02*
X384443Y112690D01*
X384443Y113664D02*
X381367Y113664D01*
X381367Y114638D02*
X384443Y114638D01*
X384443Y115612D02*
X381367Y115612D01*
X381367Y116586D02*
X384443Y116586D01*
X384443Y117560D02*
X381367Y117560D01*
X381367Y118534D02*
X384443Y118534D01*
X384443Y119508D02*
X381367Y119508D01*
X381367Y120482D02*
X384443Y120482D01*
X384443Y121456D02*
X381367Y121456D01*
X381367Y122430D02*
X384443Y122430D01*
X384443Y123404D02*
X381367Y123404D01*
X381367Y124378D02*
X384443Y124378D01*
X384443Y125352D02*
X381367Y125352D01*
X390793Y126118D02*
X390793Y110742D01*
X387717Y110742D01*
X387717Y126118D01*
X390793Y126118D01*
X390793Y111716D02*
X387717Y111716D01*
X387717Y112690D02*
X390793Y112690D01*
X390793Y113664D02*
X387717Y113664D01*
X387717Y114638D02*
X390793Y114638D01*
X390793Y115612D02*
X387717Y115612D01*
X387717Y116586D02*
X390793Y116586D01*
X390793Y117560D02*
X387717Y117560D01*
X387717Y118534D02*
X390793Y118534D01*
X390793Y119508D02*
X387717Y119508D01*
X387717Y120482D02*
X390793Y120482D01*
X390793Y121456D02*
X387717Y121456D01*
X387717Y122430D02*
X390793Y122430D01*
X390793Y123404D02*
X387717Y123404D01*
X387717Y124378D02*
X390793Y124378D01*
X390793Y125352D02*
X387717Y125352D01*
X397143Y126118D02*
X397143Y110742D01*
X394067Y110742D01*
X394067Y126118D01*
X397143Y126118D01*
X397143Y111716D02*
X394067Y111716D01*
X394067Y112690D02*
X397143Y112690D01*
X397143Y113664D02*
X394067Y113664D01*
X394067Y114638D02*
X397143Y114638D01*
X397143Y115612D02*
X394067Y115612D01*
X394067Y116586D02*
X397143Y116586D01*
X397143Y117560D02*
X394067Y117560D01*
X394067Y118534D02*
X397143Y118534D01*
X397143Y119508D02*
X394067Y119508D01*
X394067Y120482D02*
X397143Y120482D01*
X397143Y121456D02*
X394067Y121456D01*
X394067Y122430D02*
X397143Y122430D01*
X397143Y123404D02*
X394067Y123404D01*
X394067Y124378D02*
X397143Y124378D01*
X397143Y125352D02*
X394067Y125352D01*
X403493Y126118D02*
X403493Y110742D01*
X400417Y110742D01*
X400417Y126118D01*
X403493Y126118D01*
X403493Y111716D02*
X400417Y111716D01*
X400417Y112690D02*
X403493Y112690D01*
X403493Y113664D02*
X400417Y113664D01*
X400417Y114638D02*
X403493Y114638D01*
X403493Y115612D02*
X400417Y115612D01*
X400417Y116586D02*
X403493Y116586D01*
X403493Y117560D02*
X400417Y117560D01*
X400417Y118534D02*
X403493Y118534D01*
X403493Y119508D02*
X400417Y119508D01*
X400417Y120482D02*
X403493Y120482D01*
X403493Y121456D02*
X400417Y121456D01*
X400417Y122430D02*
X403493Y122430D01*
X403493Y123404D02*
X400417Y123404D01*
X400417Y124378D02*
X403493Y124378D01*
X403493Y125352D02*
X400417Y125352D01*
X409843Y126118D02*
X409843Y110742D01*
X406767Y110742D01*
X406767Y126118D01*
X409843Y126118D01*
X409843Y111716D02*
X406767Y111716D01*
X406767Y112690D02*
X409843Y112690D01*
X409843Y113664D02*
X406767Y113664D01*
X406767Y114638D02*
X409843Y114638D01*
X409843Y115612D02*
X406767Y115612D01*
X406767Y116586D02*
X409843Y116586D01*
X409843Y117560D02*
X406767Y117560D01*
X406767Y118534D02*
X409843Y118534D01*
X409843Y119508D02*
X406767Y119508D01*
X406767Y120482D02*
X409843Y120482D01*
X409843Y121456D02*
X406767Y121456D01*
X406767Y122430D02*
X409843Y122430D01*
X409843Y123404D02*
X406767Y123404D01*
X406767Y124378D02*
X409843Y124378D01*
X409843Y125352D02*
X406767Y125352D01*
X416193Y126118D02*
X416193Y110742D01*
X413117Y110742D01*
X413117Y126118D01*
X416193Y126118D01*
X416193Y111716D02*
X413117Y111716D01*
X413117Y112690D02*
X416193Y112690D01*
X416193Y113664D02*
X413117Y113664D01*
X413117Y114638D02*
X416193Y114638D01*
X416193Y115612D02*
X413117Y115612D01*
X413117Y116586D02*
X416193Y116586D01*
X416193Y117560D02*
X413117Y117560D01*
X413117Y118534D02*
X416193Y118534D01*
X416193Y119508D02*
X413117Y119508D01*
X413117Y120482D02*
X416193Y120482D01*
X416193Y121456D02*
X413117Y121456D01*
X413117Y122430D02*
X416193Y122430D01*
X416193Y123404D02*
X413117Y123404D01*
X413117Y124378D02*
X416193Y124378D01*
X416193Y125352D02*
X413117Y125352D01*
X416193Y163442D02*
X416193Y178818D01*
X416193Y163442D02*
X413117Y163442D01*
X413117Y178818D01*
X416193Y178818D01*
X416193Y164416D02*
X413117Y164416D01*
X413117Y165390D02*
X416193Y165390D01*
X416193Y166364D02*
X413117Y166364D01*
X413117Y167338D02*
X416193Y167338D01*
X416193Y168312D02*
X413117Y168312D01*
X413117Y169286D02*
X416193Y169286D01*
X416193Y170260D02*
X413117Y170260D01*
X413117Y171234D02*
X416193Y171234D01*
X416193Y172208D02*
X413117Y172208D01*
X413117Y173182D02*
X416193Y173182D01*
X416193Y174156D02*
X413117Y174156D01*
X413117Y175130D02*
X416193Y175130D01*
X416193Y176104D02*
X413117Y176104D01*
X413117Y177078D02*
X416193Y177078D01*
X416193Y178052D02*
X413117Y178052D01*
X409843Y178818D02*
X409843Y163442D01*
X406767Y163442D01*
X406767Y178818D01*
X409843Y178818D01*
X409843Y164416D02*
X406767Y164416D01*
X406767Y165390D02*
X409843Y165390D01*
X409843Y166364D02*
X406767Y166364D01*
X406767Y167338D02*
X409843Y167338D01*
X409843Y168312D02*
X406767Y168312D01*
X406767Y169286D02*
X409843Y169286D01*
X409843Y170260D02*
X406767Y170260D01*
X406767Y171234D02*
X409843Y171234D01*
X409843Y172208D02*
X406767Y172208D01*
X406767Y173182D02*
X409843Y173182D01*
X409843Y174156D02*
X406767Y174156D01*
X406767Y175130D02*
X409843Y175130D01*
X409843Y176104D02*
X406767Y176104D01*
X406767Y177078D02*
X409843Y177078D01*
X409843Y178052D02*
X406767Y178052D01*
X403493Y178818D02*
X403493Y163442D01*
X400417Y163442D01*
X400417Y178818D01*
X403493Y178818D01*
X403493Y164416D02*
X400417Y164416D01*
X400417Y165390D02*
X403493Y165390D01*
X403493Y166364D02*
X400417Y166364D01*
X400417Y167338D02*
X403493Y167338D01*
X403493Y168312D02*
X400417Y168312D01*
X400417Y169286D02*
X403493Y169286D01*
X403493Y170260D02*
X400417Y170260D01*
X400417Y171234D02*
X403493Y171234D01*
X403493Y172208D02*
X400417Y172208D01*
X400417Y173182D02*
X403493Y173182D01*
X403493Y174156D02*
X400417Y174156D01*
X400417Y175130D02*
X403493Y175130D01*
X403493Y176104D02*
X400417Y176104D01*
X400417Y177078D02*
X403493Y177078D01*
X403493Y178052D02*
X400417Y178052D01*
X397143Y178818D02*
X397143Y163442D01*
X394067Y163442D01*
X394067Y178818D01*
X397143Y178818D01*
X397143Y164416D02*
X394067Y164416D01*
X394067Y165390D02*
X397143Y165390D01*
X397143Y166364D02*
X394067Y166364D01*
X394067Y167338D02*
X397143Y167338D01*
X397143Y168312D02*
X394067Y168312D01*
X394067Y169286D02*
X397143Y169286D01*
X397143Y170260D02*
X394067Y170260D01*
X394067Y171234D02*
X397143Y171234D01*
X397143Y172208D02*
X394067Y172208D01*
X394067Y173182D02*
X397143Y173182D01*
X397143Y174156D02*
X394067Y174156D01*
X394067Y175130D02*
X397143Y175130D01*
X397143Y176104D02*
X394067Y176104D01*
X394067Y177078D02*
X397143Y177078D01*
X397143Y178052D02*
X394067Y178052D01*
X390793Y178818D02*
X390793Y163442D01*
X387717Y163442D01*
X387717Y178818D01*
X390793Y178818D01*
X390793Y164416D02*
X387717Y164416D01*
X387717Y165390D02*
X390793Y165390D01*
X390793Y166364D02*
X387717Y166364D01*
X387717Y167338D02*
X390793Y167338D01*
X390793Y168312D02*
X387717Y168312D01*
X387717Y169286D02*
X390793Y169286D01*
X390793Y170260D02*
X387717Y170260D01*
X387717Y171234D02*
X390793Y171234D01*
X390793Y172208D02*
X387717Y172208D01*
X387717Y173182D02*
X390793Y173182D01*
X390793Y174156D02*
X387717Y174156D01*
X387717Y175130D02*
X390793Y175130D01*
X390793Y176104D02*
X387717Y176104D01*
X387717Y177078D02*
X390793Y177078D01*
X390793Y178052D02*
X387717Y178052D01*
X384443Y178818D02*
X384443Y163442D01*
X381367Y163442D01*
X381367Y178818D01*
X384443Y178818D01*
X384443Y164416D02*
X381367Y164416D01*
X381367Y165390D02*
X384443Y165390D01*
X384443Y166364D02*
X381367Y166364D01*
X381367Y167338D02*
X384443Y167338D01*
X384443Y168312D02*
X381367Y168312D01*
X381367Y169286D02*
X384443Y169286D01*
X384443Y170260D02*
X381367Y170260D01*
X381367Y171234D02*
X384443Y171234D01*
X384443Y172208D02*
X381367Y172208D01*
X381367Y173182D02*
X384443Y173182D01*
X384443Y174156D02*
X381367Y174156D01*
X381367Y175130D02*
X384443Y175130D01*
X384443Y176104D02*
X381367Y176104D01*
X381367Y177078D02*
X384443Y177078D01*
X384443Y178052D02*
X381367Y178052D01*
X378093Y178818D02*
X378093Y163442D01*
X375017Y163442D01*
X375017Y178818D01*
X378093Y178818D01*
X378093Y164416D02*
X375017Y164416D01*
X375017Y165390D02*
X378093Y165390D01*
X378093Y166364D02*
X375017Y166364D01*
X375017Y167338D02*
X378093Y167338D01*
X378093Y168312D02*
X375017Y168312D01*
X375017Y169286D02*
X378093Y169286D01*
X378093Y170260D02*
X375017Y170260D01*
X375017Y171234D02*
X378093Y171234D01*
X378093Y172208D02*
X375017Y172208D01*
X375017Y173182D02*
X378093Y173182D01*
X378093Y174156D02*
X375017Y174156D01*
X375017Y175130D02*
X378093Y175130D01*
X378093Y176104D02*
X375017Y176104D01*
X375017Y177078D02*
X378093Y177078D01*
X378093Y178052D02*
X375017Y178052D01*
X371743Y178818D02*
X371743Y163442D01*
X368667Y163442D01*
X368667Y178818D01*
X371743Y178818D01*
X371743Y164416D02*
X368667Y164416D01*
X368667Y165390D02*
X371743Y165390D01*
X371743Y166364D02*
X368667Y166364D01*
X368667Y167338D02*
X371743Y167338D01*
X371743Y168312D02*
X368667Y168312D01*
X368667Y169286D02*
X371743Y169286D01*
X371743Y170260D02*
X368667Y170260D01*
X368667Y171234D02*
X371743Y171234D01*
X371743Y172208D02*
X368667Y172208D01*
X368667Y173182D02*
X371743Y173182D01*
X371743Y174156D02*
X368667Y174156D01*
X368667Y175130D02*
X371743Y175130D01*
X371743Y176104D02*
X368667Y176104D01*
X368667Y177078D02*
X371743Y177078D01*
X371743Y178052D02*
X368667Y178052D01*
D24*
X454050Y180330D02*
X454050Y187830D01*
X473050Y187830D02*
X473050Y180330D01*
X463550Y203330D02*
X463550Y210830D01*
D25*
X431800Y144170D03*
X431800Y163170D03*
X431800Y184810D03*
X431800Y203810D03*
X471170Y144170D03*
X471170Y163170D03*
X452120Y122530D03*
X452120Y103530D03*
X431800Y122530D03*
X431800Y103530D03*
X401701Y189128D03*
X401701Y208128D03*
D10*
X391770Y94615D03*
X372770Y94615D03*
D25*
X451612Y163424D03*
X451612Y144424D03*
D31*
X417830Y79756D03*
X417830Y37084D03*
X454660Y79756D03*
X454660Y37084D03*
D30*
X352792Y103117D02*
X352792Y118493D01*
X355868Y118493D01*
X355868Y103117D01*
X352792Y103117D01*
X352792Y104091D02*
X355868Y104091D01*
X355868Y105065D02*
X352792Y105065D01*
X352792Y106039D02*
X355868Y106039D01*
X355868Y107013D02*
X352792Y107013D01*
X352792Y107987D02*
X355868Y107987D01*
X355868Y108961D02*
X352792Y108961D01*
X352792Y109935D02*
X355868Y109935D01*
X355868Y110909D02*
X352792Y110909D01*
X352792Y111883D02*
X355868Y111883D01*
X355868Y112857D02*
X352792Y112857D01*
X352792Y113831D02*
X355868Y113831D01*
X355868Y114805D02*
X352792Y114805D01*
X352792Y115779D02*
X355868Y115779D01*
X355868Y116753D02*
X352792Y116753D01*
X352792Y117727D02*
X355868Y117727D01*
X346442Y118493D02*
X346442Y103117D01*
X346442Y118493D02*
X349518Y118493D01*
X349518Y103117D01*
X346442Y103117D01*
X346442Y104091D02*
X349518Y104091D01*
X349518Y105065D02*
X346442Y105065D01*
X346442Y106039D02*
X349518Y106039D01*
X349518Y107013D02*
X346442Y107013D01*
X346442Y107987D02*
X349518Y107987D01*
X349518Y108961D02*
X346442Y108961D01*
X346442Y109935D02*
X349518Y109935D01*
X349518Y110909D02*
X346442Y110909D01*
X346442Y111883D02*
X349518Y111883D01*
X349518Y112857D02*
X346442Y112857D01*
X346442Y113831D02*
X349518Y113831D01*
X349518Y114805D02*
X346442Y114805D01*
X346442Y115779D02*
X349518Y115779D01*
X349518Y116753D02*
X346442Y116753D01*
X346442Y117727D02*
X349518Y117727D01*
X340092Y118493D02*
X340092Y103117D01*
X340092Y118493D02*
X343168Y118493D01*
X343168Y103117D01*
X340092Y103117D01*
X340092Y104091D02*
X343168Y104091D01*
X343168Y105065D02*
X340092Y105065D01*
X340092Y106039D02*
X343168Y106039D01*
X343168Y107013D02*
X340092Y107013D01*
X340092Y107987D02*
X343168Y107987D01*
X343168Y108961D02*
X340092Y108961D01*
X340092Y109935D02*
X343168Y109935D01*
X343168Y110909D02*
X340092Y110909D01*
X340092Y111883D02*
X343168Y111883D01*
X343168Y112857D02*
X340092Y112857D01*
X340092Y113831D02*
X343168Y113831D01*
X343168Y114805D02*
X340092Y114805D01*
X340092Y115779D02*
X343168Y115779D01*
X343168Y116753D02*
X340092Y116753D01*
X340092Y117727D02*
X343168Y117727D01*
X333742Y118493D02*
X333742Y103117D01*
X333742Y118493D02*
X336818Y118493D01*
X336818Y103117D01*
X333742Y103117D01*
X333742Y104091D02*
X336818Y104091D01*
X336818Y105065D02*
X333742Y105065D01*
X333742Y106039D02*
X336818Y106039D01*
X336818Y107013D02*
X333742Y107013D01*
X333742Y107987D02*
X336818Y107987D01*
X336818Y108961D02*
X333742Y108961D01*
X333742Y109935D02*
X336818Y109935D01*
X336818Y110909D02*
X333742Y110909D01*
X333742Y111883D02*
X336818Y111883D01*
X336818Y112857D02*
X333742Y112857D01*
X333742Y113831D02*
X336818Y113831D01*
X336818Y114805D02*
X333742Y114805D01*
X333742Y115779D02*
X336818Y115779D01*
X336818Y116753D02*
X333742Y116753D01*
X333742Y117727D02*
X336818Y117727D01*
X327392Y118493D02*
X327392Y103117D01*
X327392Y118493D02*
X330468Y118493D01*
X330468Y103117D01*
X327392Y103117D01*
X327392Y104091D02*
X330468Y104091D01*
X330468Y105065D02*
X327392Y105065D01*
X327392Y106039D02*
X330468Y106039D01*
X330468Y107013D02*
X327392Y107013D01*
X327392Y107987D02*
X330468Y107987D01*
X330468Y108961D02*
X327392Y108961D01*
X327392Y109935D02*
X330468Y109935D01*
X330468Y110909D02*
X327392Y110909D01*
X327392Y111883D02*
X330468Y111883D01*
X330468Y112857D02*
X327392Y112857D01*
X327392Y113831D02*
X330468Y113831D01*
X330468Y114805D02*
X327392Y114805D01*
X327392Y115779D02*
X330468Y115779D01*
X330468Y116753D02*
X327392Y116753D01*
X327392Y117727D02*
X330468Y117727D01*
X321042Y118493D02*
X321042Y103117D01*
X321042Y118493D02*
X324118Y118493D01*
X324118Y103117D01*
X321042Y103117D01*
X321042Y104091D02*
X324118Y104091D01*
X324118Y105065D02*
X321042Y105065D01*
X321042Y106039D02*
X324118Y106039D01*
X324118Y107013D02*
X321042Y107013D01*
X321042Y107987D02*
X324118Y107987D01*
X324118Y108961D02*
X321042Y108961D01*
X321042Y109935D02*
X324118Y109935D01*
X324118Y110909D02*
X321042Y110909D01*
X321042Y111883D02*
X324118Y111883D01*
X324118Y112857D02*
X321042Y112857D01*
X321042Y113831D02*
X324118Y113831D01*
X324118Y114805D02*
X321042Y114805D01*
X321042Y115779D02*
X324118Y115779D01*
X324118Y116753D02*
X321042Y116753D01*
X321042Y117727D02*
X324118Y117727D01*
X314692Y118493D02*
X314692Y103117D01*
X314692Y118493D02*
X317768Y118493D01*
X317768Y103117D01*
X314692Y103117D01*
X314692Y104091D02*
X317768Y104091D01*
X317768Y105065D02*
X314692Y105065D01*
X314692Y106039D02*
X317768Y106039D01*
X317768Y107013D02*
X314692Y107013D01*
X314692Y107987D02*
X317768Y107987D01*
X317768Y108961D02*
X314692Y108961D01*
X314692Y109935D02*
X317768Y109935D01*
X317768Y110909D02*
X314692Y110909D01*
X314692Y111883D02*
X317768Y111883D01*
X317768Y112857D02*
X314692Y112857D01*
X314692Y113831D02*
X317768Y113831D01*
X317768Y114805D02*
X314692Y114805D01*
X314692Y115779D02*
X317768Y115779D01*
X317768Y116753D02*
X314692Y116753D01*
X314692Y117727D02*
X317768Y117727D01*
X308342Y118493D02*
X308342Y103117D01*
X308342Y118493D02*
X311418Y118493D01*
X311418Y103117D01*
X308342Y103117D01*
X308342Y104091D02*
X311418Y104091D01*
X311418Y105065D02*
X308342Y105065D01*
X308342Y106039D02*
X311418Y106039D01*
X311418Y107013D02*
X308342Y107013D01*
X308342Y107987D02*
X311418Y107987D01*
X311418Y108961D02*
X308342Y108961D01*
X308342Y109935D02*
X311418Y109935D01*
X311418Y110909D02*
X308342Y110909D01*
X308342Y111883D02*
X311418Y111883D01*
X311418Y112857D02*
X308342Y112857D01*
X308342Y113831D02*
X311418Y113831D01*
X311418Y114805D02*
X308342Y114805D01*
X308342Y115779D02*
X311418Y115779D01*
X311418Y116753D02*
X308342Y116753D01*
X308342Y117727D02*
X311418Y117727D01*
X308342Y65793D02*
X308342Y50417D01*
X308342Y65793D02*
X311418Y65793D01*
X311418Y50417D01*
X308342Y50417D01*
X308342Y51391D02*
X311418Y51391D01*
X311418Y52365D02*
X308342Y52365D01*
X308342Y53339D02*
X311418Y53339D01*
X311418Y54313D02*
X308342Y54313D01*
X308342Y55287D02*
X311418Y55287D01*
X311418Y56261D02*
X308342Y56261D01*
X308342Y57235D02*
X311418Y57235D01*
X311418Y58209D02*
X308342Y58209D01*
X308342Y59183D02*
X311418Y59183D01*
X311418Y60157D02*
X308342Y60157D01*
X308342Y61131D02*
X311418Y61131D01*
X311418Y62105D02*
X308342Y62105D01*
X308342Y63079D02*
X311418Y63079D01*
X311418Y64053D02*
X308342Y64053D01*
X308342Y65027D02*
X311418Y65027D01*
X314692Y65793D02*
X314692Y50417D01*
X314692Y65793D02*
X317768Y65793D01*
X317768Y50417D01*
X314692Y50417D01*
X314692Y51391D02*
X317768Y51391D01*
X317768Y52365D02*
X314692Y52365D01*
X314692Y53339D02*
X317768Y53339D01*
X317768Y54313D02*
X314692Y54313D01*
X314692Y55287D02*
X317768Y55287D01*
X317768Y56261D02*
X314692Y56261D01*
X314692Y57235D02*
X317768Y57235D01*
X317768Y58209D02*
X314692Y58209D01*
X314692Y59183D02*
X317768Y59183D01*
X317768Y60157D02*
X314692Y60157D01*
X314692Y61131D02*
X317768Y61131D01*
X317768Y62105D02*
X314692Y62105D01*
X314692Y63079D02*
X317768Y63079D01*
X317768Y64053D02*
X314692Y64053D01*
X314692Y65027D02*
X317768Y65027D01*
X321042Y65793D02*
X321042Y50417D01*
X321042Y65793D02*
X324118Y65793D01*
X324118Y50417D01*
X321042Y50417D01*
X321042Y51391D02*
X324118Y51391D01*
X324118Y52365D02*
X321042Y52365D01*
X321042Y53339D02*
X324118Y53339D01*
X324118Y54313D02*
X321042Y54313D01*
X321042Y55287D02*
X324118Y55287D01*
X324118Y56261D02*
X321042Y56261D01*
X321042Y57235D02*
X324118Y57235D01*
X324118Y58209D02*
X321042Y58209D01*
X321042Y59183D02*
X324118Y59183D01*
X324118Y60157D02*
X321042Y60157D01*
X321042Y61131D02*
X324118Y61131D01*
X324118Y62105D02*
X321042Y62105D01*
X321042Y63079D02*
X324118Y63079D01*
X324118Y64053D02*
X321042Y64053D01*
X321042Y65027D02*
X324118Y65027D01*
X327392Y65793D02*
X327392Y50417D01*
X327392Y65793D02*
X330468Y65793D01*
X330468Y50417D01*
X327392Y50417D01*
X327392Y51391D02*
X330468Y51391D01*
X330468Y52365D02*
X327392Y52365D01*
X327392Y53339D02*
X330468Y53339D01*
X330468Y54313D02*
X327392Y54313D01*
X327392Y55287D02*
X330468Y55287D01*
X330468Y56261D02*
X327392Y56261D01*
X327392Y57235D02*
X330468Y57235D01*
X330468Y58209D02*
X327392Y58209D01*
X327392Y59183D02*
X330468Y59183D01*
X330468Y60157D02*
X327392Y60157D01*
X327392Y61131D02*
X330468Y61131D01*
X330468Y62105D02*
X327392Y62105D01*
X327392Y63079D02*
X330468Y63079D01*
X330468Y64053D02*
X327392Y64053D01*
X327392Y65027D02*
X330468Y65027D01*
X333742Y65793D02*
X333742Y50417D01*
X333742Y65793D02*
X336818Y65793D01*
X336818Y50417D01*
X333742Y50417D01*
X333742Y51391D02*
X336818Y51391D01*
X336818Y52365D02*
X333742Y52365D01*
X333742Y53339D02*
X336818Y53339D01*
X336818Y54313D02*
X333742Y54313D01*
X333742Y55287D02*
X336818Y55287D01*
X336818Y56261D02*
X333742Y56261D01*
X333742Y57235D02*
X336818Y57235D01*
X336818Y58209D02*
X333742Y58209D01*
X333742Y59183D02*
X336818Y59183D01*
X336818Y60157D02*
X333742Y60157D01*
X333742Y61131D02*
X336818Y61131D01*
X336818Y62105D02*
X333742Y62105D01*
X333742Y63079D02*
X336818Y63079D01*
X336818Y64053D02*
X333742Y64053D01*
X333742Y65027D02*
X336818Y65027D01*
X340092Y65793D02*
X340092Y50417D01*
X340092Y65793D02*
X343168Y65793D01*
X343168Y50417D01*
X340092Y50417D01*
X340092Y51391D02*
X343168Y51391D01*
X343168Y52365D02*
X340092Y52365D01*
X340092Y53339D02*
X343168Y53339D01*
X343168Y54313D02*
X340092Y54313D01*
X340092Y55287D02*
X343168Y55287D01*
X343168Y56261D02*
X340092Y56261D01*
X340092Y57235D02*
X343168Y57235D01*
X343168Y58209D02*
X340092Y58209D01*
X340092Y59183D02*
X343168Y59183D01*
X343168Y60157D02*
X340092Y60157D01*
X340092Y61131D02*
X343168Y61131D01*
X343168Y62105D02*
X340092Y62105D01*
X340092Y63079D02*
X343168Y63079D01*
X343168Y64053D02*
X340092Y64053D01*
X340092Y65027D02*
X343168Y65027D01*
X346442Y65793D02*
X346442Y50417D01*
X346442Y65793D02*
X349518Y65793D01*
X349518Y50417D01*
X346442Y50417D01*
X346442Y51391D02*
X349518Y51391D01*
X349518Y52365D02*
X346442Y52365D01*
X346442Y53339D02*
X349518Y53339D01*
X349518Y54313D02*
X346442Y54313D01*
X346442Y55287D02*
X349518Y55287D01*
X349518Y56261D02*
X346442Y56261D01*
X346442Y57235D02*
X349518Y57235D01*
X349518Y58209D02*
X346442Y58209D01*
X346442Y59183D02*
X349518Y59183D01*
X349518Y60157D02*
X346442Y60157D01*
X346442Y61131D02*
X349518Y61131D01*
X349518Y62105D02*
X346442Y62105D01*
X346442Y63079D02*
X349518Y63079D01*
X349518Y64053D02*
X346442Y64053D01*
X346442Y65027D02*
X349518Y65027D01*
X352792Y65793D02*
X352792Y50417D01*
X352792Y65793D02*
X355868Y65793D01*
X355868Y50417D01*
X352792Y50417D01*
X352792Y51391D02*
X355868Y51391D01*
X355868Y52365D02*
X352792Y52365D01*
X352792Y53339D02*
X355868Y53339D01*
X355868Y54313D02*
X352792Y54313D01*
X352792Y55287D02*
X355868Y55287D01*
X355868Y56261D02*
X352792Y56261D01*
X352792Y57235D02*
X355868Y57235D01*
X355868Y58209D02*
X352792Y58209D01*
X352792Y59183D02*
X355868Y59183D01*
X355868Y60157D02*
X352792Y60157D01*
X352792Y61131D02*
X355868Y61131D01*
X355868Y62105D02*
X352792Y62105D01*
X352792Y63079D02*
X355868Y63079D01*
X355868Y64053D02*
X352792Y64053D01*
X352792Y65027D02*
X355868Y65027D01*
D25*
X292735Y85065D03*
X292735Y66065D03*
X292735Y44425D03*
X292735Y25425D03*
X253365Y85065D03*
X253365Y66065D03*
X322834Y40107D03*
X322834Y21107D03*
X322580Y129565D03*
X322580Y148565D03*
X272923Y65811D03*
X272923Y84811D03*
D31*
X297815Y149479D03*
X297815Y192151D03*
X260985Y192151D03*
X260985Y149479D03*
D32*
X293225Y112395D03*
X259225Y112395D03*
D25*
X240665Y125705D03*
X240665Y106705D03*
M02*
