M48
;GenerationSoftware,Autodesk,EAGLE,9.5.0*%
;CreationDate,2019-09-01T10:14:46Z*%
FMAT,2
ICI,OFF
METRIC,TZ,000.000
T8C0.300
T7C0.350
T6C0.356
T5C0.400
T4C0.450
T3C0.500
T2C0.600
%
G90
M71
T2
X63144Y32512
X75844Y32512
X40386Y34290
X74549Y27432
X76073Y55880
X69494Y38862
X69494Y26162
X68224Y33782
X76200Y58801
X82042Y56769
X72034Y27432
X61849Y24892
X61849Y40132
X77089Y40132
X77089Y24892
X69494Y36322
T3
X6970Y64700
X2750Y75220
X2750Y63280
X6970Y73800
T4
X37973Y59436
X42799Y59436
X30099Y66167
T5
X68707Y57277
X66559Y59574
X66559Y57774
X64759Y57774
X64759Y59574
X65659Y58674
T6
X11620Y31750
T7
X38100Y10605
X27940Y19241
X32258Y16701
X33719Y3175
X43625Y3683
X39307Y7112
X38735Y19749
X24384Y17145
X27749Y9589
X36449Y64897
X6545Y73441
X25463Y10097
X39180Y10605
X44704Y13335
X38291Y15684
X37656Y18415
X29781Y12636
X42164Y6350
X34798Y4509
X34163Y7239
X25590Y12636
X34354Y12700
X33655Y12700
X6545Y65059
T8
X19037Y34849
X79756Y39878
X78486Y39878
X16701Y34417
X16701Y32512
X81026Y41148
X56261Y39802
X19037Y32118
X18352Y35433
X19050Y35497
X17145Y31686
X78486Y41148
X11278Y48006
X17463Y34544
X58039Y34290
X79756Y41148
X12878Y66015
X12243Y45466
X22555Y40081
X49276Y44196
X22555Y42113
X50724Y44399
X22555Y41097
X49720Y44704
X22555Y43129
X49530Y45720
X85090Y30988
X67437Y47244
X65341Y40069
X84582Y32512
X84582Y30480
X13297Y66459
X66929Y47688
X64706Y40005
X85090Y33147
X31496Y7366
X14224Y29972
X13335Y31750
X20447Y45085
X57277Y3302
X38989Y25209
X18288Y50165
X9271Y55499
X41275Y18923
X40767Y13335
X13600Y29972
X33909Y64135
X65334Y54854
X16192Y5461
X16192Y2096
X79566Y11620
X54229Y58801
X15367Y5461
X23445Y64974
X16383Y10922
X17894Y33706
X17577Y32080
X78486Y38608
X10871Y5436
X12192Y20320
X10046Y7264
X11620Y20447
X9970Y8382
X81026Y39878
X19050Y12700
X10859Y14033
X10160Y6032
X14605Y6477
X18542Y7747
X11430Y6477
X8255Y2032
X13248Y29441
X22542Y45783
X73279Y36957
X74549Y37465
X74676Y24841
X72009Y25527
X66929Y25527
X64389Y25527
X21209Y23114
X10541Y23114
X9398Y15240
X18644Y9449
X7620Y6350
X13843Y5461
X19431Y15367
X71374Y37592
X21590Y31750
X20574Y31750
X53340Y3302
X42799Y27368
X18542Y31699
X82423Y42672
X27305Y33782
X34798Y33782
X51625Y33211
X11366Y64897
X11366Y67691
X68326Y54610
X77165Y27483
X82042Y45085
X82042Y19939
X56896Y19939
X11747Y53340
X56744Y30582
X62535Y37541
X62535Y35001
X62535Y29921
X62535Y27381
X65684Y39472
X68224Y39472
X74574Y39472
X72034Y39472
X5690Y69240
X76505Y29921
X76505Y37541
X76505Y35001
X72009Y30607
X70663Y31293
X69469Y30607
X67564Y31242
X65659Y31877
X64389Y36957
X65659Y37465
X66929Y36957
X68199Y38227
X72034Y35662
X65684Y29921
X75311Y40132
X73304Y33782
X73304Y32461
X5398Y70739
X5398Y67755
X52324Y38227
X23495Y38481
X23241Y56134
X13017Y67818
X5334Y66993
X8509Y66993
X66954Y35662
X66345Y28702
X73851Y36259
X65151Y36259
X56896Y45085
X54483Y40640
X14275Y46482
X55474Y38811
X15240Y46990
X55880Y39319
X17272Y48006
X56007Y38341
X13386Y45974
X54991Y38354
X11938Y52197
X8153Y68974
X52832Y38608
X24003Y38862
X23622Y56642
X53276Y38989
X24384Y39307
X24003Y57086
X8509Y69469
X11938Y54356
X59690Y43942
X11938Y56642
X58420Y43942
X16256Y47498
X59944Y45212
X11938Y51181
X59690Y42672
X11938Y58801
X58420Y42672
X12319Y57785
X58674Y45212
X70764Y33782
X69494Y32461
X65634Y33782
X74574Y29921
X66954Y27381
M30